<svg viewBox="0 0 24 25" xmlns="http://www.w3.org/2000/svg">
<path d="M6.32899 17.3838C6.32899 17.9322 6.77676 18.3799 7.32769 18.3799H8.46939V21.2016C8.46939 21.9164 9.04376 22.5 9.74941 22.5C10.4574 22.5 11.0294 21.9188 11.0294 21.2016V18.3775H13.0221V21.1993C13.0221 21.9141 13.5965 22.4977 14.3022 22.4977C15.0102 22.4977 15.5822 21.9164 15.5822 21.1993V18.3775H16.7239C17.2748 18.3775 17.7226 17.9299 17.7226 17.3815V8.11939H6.32899V17.3838ZM14.7007 3.3196L15.7533 1.79623C15.8143 1.70718 15.8002 1.58765 15.7182 1.52906C15.6361 1.47281 15.5189 1.50093 15.4579 1.58999L14.3655 3.1743C13.6457 2.89072 12.844 2.73369 12.0023 2.73369C11.1607 2.73369 10.3589 2.89072 9.63923 3.1743L8.54675 1.59234C8.4858 1.50328 8.36858 1.47281 8.28653 1.5314C8.20448 1.58765 8.19041 1.70483 8.25137 1.79858L9.30398 3.32195C7.63011 4.10004 6.45793 5.57419 6.30789 7.29677H17.7015C17.5468 5.57185 16.3722 4.09769 14.7007 3.3196ZM9.59703 5.72184C9.4723 5.72184 9.35037 5.68487 9.24667 5.61559C9.14296 5.54632 9.06213 5.44786 9.0144 5.33266C8.96667 5.21746 8.95418 5.0907 8.97851 4.96841C9.00285 4.84611 9.06291 4.73378 9.1511 4.64561C9.2393 4.55744 9.35167 4.4974 9.474 4.47307C9.59633 4.44875 9.72313 4.46123 9.83836 4.50895C9.95359 4.55666 10.0521 4.63747 10.1214 4.74115C10.1907 4.84482 10.2277 4.96671 10.2277 5.0914C10.2272 5.25847 10.1606 5.41857 10.0425 5.53671C9.9243 5.65485 9.76415 5.72141 9.59703 5.72184ZM14.4827 5.72184C14.3579 5.72184 14.236 5.68487 14.1323 5.61559C14.0286 5.54632 13.9478 5.44786 13.9 5.33266C13.8523 5.21746 13.8398 5.0907 13.8642 4.96841C13.8885 4.84611 13.9486 4.73378 14.0367 4.64561C14.1249 4.55744 14.2373 4.4974 14.3596 4.47307C14.482 4.44875 14.6088 4.46123 14.724 4.50895C14.8392 4.55666 14.9377 4.63747 15.007 4.74115C15.0763 4.84482 15.1133 4.96671 15.1133 5.0914C15.1129 5.25847 15.0463 5.41857 14.9281 5.53671C14.8099 5.65485 14.6498 5.72141 14.4827 5.72184ZM19.72 8.08189C19.012 8.08189 18.44 8.66312 18.44 9.38027V14.4519C18.44 15.1667 19.0143 15.7503 19.72 15.7503C20.428 15.7503 21 15.1691 21 14.4519V9.37793C21.0023 8.66077 20.4303 8.08189 19.72 8.08189ZM4.28002 8.08189C3.57202 8.08189 3 8.66312 3 9.38027V14.4519C3 15.1667 3.57437 15.7503 4.28002 15.7503C4.98802 15.7503 5.56004 15.1691 5.56004 14.4519V9.37793C5.56004 8.66077 4.98567 8.08189 4.28002 8.08189Z"/>
</svg>
