<svg viewBox="0 0 19 24" xmlns="http://www.w3.org/2000/svg">
<path fill-rule="evenodd" clip-rule="evenodd" d="M2.51755 2.55297C1.94264 3.14568 1.65479 4.23802 1.65479 6.46156V17.5385C1.65479 19.762 1.94264 20.8544 2.51755 21.4471C3.08465 22.0317 4.12568 22.3269 6.27681 22.3269H12.7232C14.8744 22.3269 15.9154 22.0317 16.4825 21.4471C17.0574 20.8544 17.3453 19.762 17.3453 17.5385V6.46156C17.3453 4.23802 17.0574 3.14568 16.4825 2.55297C15.9154 1.9683 14.8744 1.6731 12.7232 1.6731H6.27681C4.12568 1.6731 3.08465 1.9683 2.51755 2.55297ZM1.44083 1.50861C2.48534 0.431742 4.13032 0.173096 6.27681 0.173096H12.7232C14.8697 0.173096 16.5147 0.431742 17.5592 1.50861C18.5959 2.57743 18.8453 4.25432 18.8453 6.46156V17.5385C18.8453 19.7457 18.5959 21.4226 17.5592 22.4914C16.5147 23.5683 14.8697 23.8269 12.7232 23.8269H6.27681C4.13032 23.8269 2.48534 23.5683 1.44083 22.4914C0.40413 21.4226 0.154785 19.7457 0.154785 17.5385V6.46156C0.154785 4.25432 0.40413 2.57743 1.44083 1.50861Z"/>
<path fill-rule="evenodd" clip-rule="evenodd" d="M6.60107 4.80005C6.60107 4.38584 6.93686 4.05005 7.35107 4.05005H11.6487C12.0629 4.05005 12.3987 4.38584 12.3987 4.80005C12.3987 5.21426 12.0629 5.55005 11.6487 5.55005H7.35107C6.93686 5.55005 6.60107 5.21426 6.60107 4.80005Z"/>
<path fill-rule="evenodd" clip-rule="evenodd" d="M9.4998 17.1809C9.01568 17.1809 8.58447 17.5921 8.58447 18.1478C8.58447 18.7036 9.01569 19.1148 9.4998 19.1148C9.98391 19.1148 10.4151 18.7036 10.4151 18.1478C10.4151 17.5921 9.98392 17.1809 9.4998 17.1809ZM7.08447 18.1478C7.08447 16.8071 8.14445 15.6809 9.4998 15.6809C10.8552 15.6809 11.9151 16.8071 11.9151 18.1478C11.9151 19.4885 10.8552 20.6148 9.4998 20.6148C8.14444 20.6148 7.08447 19.4885 7.08447 18.1478Z"/>
</svg>
