<svg viewBox="0 0 32 32" xmlns="http://www.w3.org/2000/svg">
<path d="M10.7296 16.2878H9.22369V14.7715C9.22369 14.5704 9.14436 14.3776 9.00316 14.2354C8.86195 14.0932 8.67044 14.0133 8.47075 14.0133C8.27106 14.0133 8.07954 14.0932 7.93834 14.2354C7.79714 14.3776 7.71781 14.5704 7.71781 14.7715V16.2878H6.21193C6.01223 16.2878 5.82072 16.3677 5.67952 16.5099C5.53831 16.6521 5.45898 16.8449 5.45898 17.046C5.45898 17.2471 5.53831 17.4399 5.67952 17.5821C5.82072 17.7243 6.01223 17.8042 6.21193 17.8042H7.71781V19.3205C7.71781 19.5216 7.79714 19.7144 7.93834 19.8566C8.07954 19.9988 8.27106 20.0787 8.47075 20.0787C8.67044 20.0787 8.86195 19.9988 9.00316 19.8566C9.14436 19.7144 9.22369 19.5216 9.22369 19.3205V17.8042H10.7296C10.9293 17.8042 11.1208 17.7243 11.262 17.5821C11.4032 17.4399 11.4825 17.2471 11.4825 17.046C11.4825 16.8449 11.4032 16.6521 11.262 16.5099C11.1208 16.3677 10.9293 16.2878 10.7296 16.2878Z"/>
<path d="M23.5298 13.6339C23.4309 13.6339 23.333 13.6534 23.2416 13.6915C23.1502 13.7296 23.0672 13.7854 22.9973 13.8558C22.9273 13.9263 22.8719 14.0099 22.834 14.1019C22.7962 14.1939 22.7768 14.2925 22.7769 14.3921V15.1503C22.7769 15.3513 22.8562 15.5442 22.9974 15.6864C23.1386 15.8285 23.3301 15.9084 23.5298 15.9084C23.7295 15.9084 23.921 15.8285 24.0622 15.6864C24.2034 15.5442 24.2827 15.3513 24.2827 15.1503V14.3921C24.2828 14.2925 24.2634 14.1939 24.2255 14.1019C24.1877 14.0099 24.1323 13.9263 24.0623 13.8558C23.9924 13.7854 23.9094 13.7296 23.818 13.6915C23.7266 13.6534 23.6287 13.6339 23.5298 13.6339Z"/>
<path d="M23.5298 18.1831C23.4309 18.183 23.333 18.2026 23.2416 18.2407C23.1502 18.2788 23.0672 18.3346 22.9973 18.405C22.9273 18.4754 22.8719 18.5591 22.834 18.6511C22.7962 18.7431 22.7768 18.8417 22.7769 18.9413V19.6994C22.7769 19.9005 22.8562 20.0934 22.9974 20.2356C23.1386 20.3777 23.3301 20.4576 23.5298 20.4576C23.7295 20.4576 23.921 20.3777 24.0622 20.2356C24.2034 20.0934 24.2827 19.9005 24.2827 19.6994V18.9413C24.2828 18.8417 24.2634 18.7431 24.2255 18.6511C24.1877 18.5591 24.1323 18.4754 24.0623 18.405C23.9924 18.3346 23.9094 18.2788 23.818 18.2407C23.7266 18.2026 23.6287 18.183 23.5298 18.1831Z"/>
<path d="M26.1651 16.2877H25.4121C25.2124 16.2877 25.0209 16.3676 24.8797 16.5098C24.7385 16.652 24.6592 16.8448 24.6592 17.0459C24.6592 17.247 24.7385 17.4398 24.8797 17.582C25.0209 17.7242 25.2124 17.8041 25.4121 17.8041H26.1651C26.3648 17.8041 26.5563 17.7242 26.6975 17.582C26.8387 17.4398 26.918 17.247 26.918 17.0459C26.918 16.8448 26.8387 16.652 26.6975 16.5098C26.5563 16.3676 26.3648 16.2877 26.1651 16.2877Z"/>
<path d="M21.647 16.2877H20.8941C20.6944 16.2877 20.5028 16.3676 20.3616 16.5098C20.2204 16.652 20.1411 16.8448 20.1411 17.0459C20.1411 17.247 20.2204 17.4398 20.3616 17.582C20.5028 17.7242 20.6944 17.8041 20.8941 17.8041H21.647C21.8467 17.8041 22.0382 17.7242 22.1794 17.582C22.3206 17.4398 22.3999 17.247 22.3999 17.0459C22.3999 16.8448 22.3206 16.652 22.1794 16.5098C22.0382 16.3676 21.8467 16.2877 21.647 16.2877Z"/>
<path d="M23.5296 9.46402H16.8155C17.0218 8.18507 17.7649 7.67383 18.6767 7.06218C19.8327 6.28623 21.2708 5.32063 21.2708 2.64049C21.2708 2.43941 21.1915 2.24657 21.0503 2.10439C20.9091 1.9622 20.7176 1.88232 20.5179 1.88232C20.3182 1.88232 20.1267 1.9622 19.9855 2.10439C19.8443 2.24657 19.7649 2.43941 19.7649 2.64049C19.7649 4.50938 18.9164 5.07938 17.8414 5.80051C16.8036 6.49723 15.5474 7.35775 15.2997 9.46402H8.47082C6.47462 9.46639 4.56085 10.2659 3.14932 11.6873C1.73779 13.1086 0.943758 15.0357 0.941406 17.0457V25.3856C0.942572 26.3906 1.33958 27.3542 2.04535 28.0648C2.75112 28.7755 3.70801 29.1753 4.70611 29.1764C9.01568 29.1764 10.2701 26.8738 11.3774 24.8421C12.3657 23.0282 13.1473 21.5947 16.0002 21.5947C18.8532 21.5947 19.6348 23.0282 20.623 24.8421C21.7304 26.8738 22.9848 29.1764 27.2943 29.1764C28.2925 29.1753 29.2493 28.7755 29.9551 28.0648C30.6609 27.3542 31.0579 26.3906 31.0591 25.3856V17.0457C31.0567 15.0357 30.2627 13.1086 28.8511 11.6873C27.4396 10.2659 25.5258 9.46639 23.5296 9.46402ZM29.5532 25.3856C29.5525 25.9886 29.3143 26.5668 28.8909 26.9932C28.4674 27.4196 27.8932 27.6594 27.2943 27.6601C23.876 27.6601 22.9804 26.0164 21.9436 24.1129C20.9127 22.2219 19.7451 20.0784 16.0002 20.0784C12.2554 20.0784 11.0877 22.2219 10.0569 24.1129C9.02009 26.0164 8.12446 27.6601 4.70611 27.6601C4.10724 27.6594 3.53308 27.4196 3.10961 26.9932C2.68614 26.5668 2.44795 25.9886 2.44729 25.3856V17.0457C2.44911 15.4377 3.08432 13.896 4.21355 12.7589C5.34279 11.6218 6.87384 10.9822 8.47082 10.9804H23.5296C25.1266 10.9822 26.6577 11.6218 27.7869 12.7589C28.9161 13.896 29.5513 15.4377 29.5532 17.0457V25.3856Z"/>
</svg>
