<svg viewBox="0 0 32 32" xmlns="http://www.w3.org/2000/svg">
<path d="M28.5636 0.395734C28.4636 0.272063 28.3371 0.17234 28.1935 0.103867C28.0499 0.0353943 27.8929 -9.4394e-05 27.7338 1.88561e-07H23.4671C23.227 -1.09142e-05 22.994 0.0809577 22.8057 0.229811C22.6173 0.378664 22.4847 0.586698 22.4292 0.820267L17.2911 22.4H7.4671C7.23544 22.4001 7.01011 22.4756 6.82517 22.6151C6.64023 22.7547 6.50574 22.9506 6.44204 23.1733L4.3087 30.64C4.26331 30.7987 4.25537 30.9658 4.28551 31.1281C4.31566 31.2904 4.38307 31.4435 4.48244 31.5754C4.5818 31.7072 4.71041 31.8142 4.85814 31.8879C5.00587 31.9615 5.16869 31.9999 5.33377 32H21.3338C21.578 32 21.8148 31.9163 22.0046 31.7627C22.1945 31.6091 22.3259 31.3951 22.377 31.1563L28.777 1.2896C28.8103 1.13413 28.8084 0.973173 28.7715 0.818515C28.7346 0.663857 28.6636 0.519407 28.5636 0.395734ZM8.79617 29.8667H6.74817L8.27137 24.5333H10.3194L8.79617 29.8667ZM13.0628 29.8667H11.0148L12.538 24.5333H14.586L13.0628 29.8667ZM20.4708 29.8667H15.2815L16.8047 24.5333H18.1338C18.3738 24.5333 18.6069 24.4524 18.7952 24.3035C18.9836 24.1547 19.1162 23.9466 19.1716 23.7131L22.0591 11.5851L24.521 10.9696L20.4708 29.8667ZM25.0191 8.64533L22.6138 9.24693L23.0703 7.32693L25.4244 6.7392L25.0191 8.64533ZM25.9204 4.4192L23.625 4.99307L24.3098 2.13333H26.4143L25.9204 4.4192Z"/>
<path d="M14.9335 18.1334V14.9334C14.9335 14.6505 14.8211 14.3792 14.6211 14.1791C14.4211 13.9791 14.1498 13.8667 13.8669 13.8667H4.26686C3.98396 13.8667 3.71265 13.9791 3.51261 14.1791C3.31258 14.3792 3.2002 14.6505 3.2002 14.9334V18.1334C3.2002 18.4163 3.31258 18.6876 3.51261 18.8876C3.71265 19.0877 3.98396 19.2 4.26686 19.2H13.8669C14.1498 19.2 14.4211 19.0877 14.6211 18.8876C14.8211 18.6876 14.9335 18.4163 14.9335 18.1334ZM13.3335 17.6H9.06686H4.8002V15.4667H13.3335V17.6Z"/>
</svg>
