<svg viewBox="0 0 43 40" xmlns="http://www.w3.org/2000/svg">
<path d="M21.5225 0.423521C21.5927 0.264526 21.8183 0.264526 21.8884 0.423522L27.6546 13.4886C27.6839 13.5549 27.7468 13.6002 27.8189 13.6069L42.241 14.9572C42.4163 14.9736 42.4864 15.1921 42.3534 15.3074L31.4986 24.7244C31.4429 24.7727 31.4183 24.8478 31.4346 24.9197L34.5836 38.8107C34.6222 38.9811 34.4393 39.1156 34.2882 39.028L21.8058 31.7873C21.7438 31.7513 21.6672 31.7513 21.6051 31.7873L9.12274 39.028C8.97166 39.1156 8.78872 38.9811 8.82733 38.8107L11.9764 24.9197C11.9927 24.8478 11.9681 24.7727 11.9124 24.7244L1.0575 15.3074C0.924549 15.1921 0.994673 14.9736 1.16992 14.9572L15.592 13.6069C15.6642 13.6002 15.7271 13.5549 15.7563 13.4886L21.5225 0.423521Z" />
</svg>
