<svg width="150" height="67" fill="none" xmlns="http://www.w3.org/2000/svg"><g clip-path="url(#clip0)" fill="#fff"><path d="M90.08 2.669c-2.535 0-2.535 1.468-2.535 1.468s.4-.667 1.2-.667c.534 0 2.27.534 2.27 2.002.133 2.268-3.07 2.669-3.07 2.669-4.537 0-3.87-3.337-7.874-6.94-3.203-2.936-5.605 0-5.605 1.468 0 .8.134 2.269.534 2.936 1.735 3.737 7.74 5.471 10.276 5.471 4.003 0 7.874-1.868 7.874-5.338.133-1.2-.801-3.069-3.07-3.069z"/><path d="M59.92 2.669c2.535 0 2.535 1.468 2.535 1.468s-.4-.667-1.2-.667c-.534 0-2.27.534-2.27 2.002-.133 2.268 3.07 2.669 3.07 2.669 4.538 0 3.87-3.337 7.874-6.94 3.203-2.936 5.605 0 5.605 1.468 0 .8-.134 2.269-.534 2.936-1.735 3.737-7.74 5.471-10.276 5.471-4.003 0-7.874-1.868-7.874-5.338-.133-1.2.801-3.069 3.07-3.069zM13.479 59.12c.8.133 1.601.266 2.535.266.4 0 .668-.133.934-.267.267-.133.4-.267.534-.534h38.701v-.4h-38.7a1.042 1.042 0 00-.535-.534c-.267-.133-.533-.133-.934-.133-1.067 0-2.135.133-3.203.4-.667.134-1.2.267-1.468.4v.134c.668.267 1.468.4 2.136.667zm.667-1.068c.667-.134 1.334-.134 1.868-.134.267 0 .4 0 .668.134.266.133.4.267.4.4v.133l-.4.4c-.267.134-.4.134-.668.134-1.2 0-2.535-.133-3.87-.534.667-.267 1.335-.4 2.002-.533zm116.77 1.868h-.267s-.133.133-.133.267c0 .133.133.267.4.267.267.133.401.267.401.4 0 .4-.267.667-.801.8-.4.134-.934.268-1.735.268s-2.002-.134-3.603-.534c-2.803-.534-4.137-.934-4.27-.934-1.735-.267-3.203-.534-4.538-.534-.801 0-2.002.133-3.47.267-1.468.267-2.535.4-3.069.534a24.03 24.03 0 00-3.203 1.334c-1.067.534-2.002.934-2.802 1.468-.401-.267-.801-.534-1.068-.667a15.32 15.32 0 00-1.868-1.068c1.067 0 2.001-.133 2.669-.267 1.067-.267 1.735-.8 2.002-1.468l-.134-.133c-.267.133-.4.267-.4.267-.134.133-.534.133-.934.133-1.068-.267-2.269-.4-3.337-.667-1.2-.133-2.402-.267-3.603-.267-3.07 0-4.67 1.201-4.67 3.47 0 .934.4 1.735 1.2 2.268.668.534 1.468.668 2.536.668 1.201 0 2.402-.134 3.737-.534 1.334-.4 2.535-.8 3.736-1.468.667.4 1.201.667 1.869 1.068 1.467.8 2.935 1.2 4.137 1.2.8 0 1.468-.266 1.868-.667.267-.4.4-.667.4-1.2 0-.268-.133-.534-.267-.801-.133-.267-.533-.4-.934-.4-.267 0-.4 0-.534.133-.133.133-.133.267-.133.4 0 .134.267.267.667.4.401.134.667.267.667.668 0 .133-.133.4-.4.667-.4.4-.934.534-1.601.534-.668 0-1.468-.267-2.536-.668-.934-.4-2.002-.934-2.936-1.6 1.468-.668 2.936-1.335 4.537-2.136 1.468-.534 2.67-.8 3.604-.8 1.201 0 2.402.133 3.336.533 1.201.4 1.868 1.201 1.868 2.002 0 .4-.133.667-.267.934-.133.267-.4.267-.667.267s-.4 0-.4-.134l-.134.134c.134.133.267.267.534.267.267.133.534.133.801.133.667 0 1.201-.133 1.601-.4.401-.267.668-.667.668-1.201 0-.267 0-.4-.134-.667 0-.267-.133-.4-.267-.534.667.534 1.201.934 1.735 1.2 1.068.535 2.536.801 4.137.801 1.335 0 2.803-.266 4.137-.934 1.601-.667 2.269-1.468 2.269-2.402 0-.267-.134-.534-.267-.8.267.266.133.133-.134.133zm-30.026.267c2.135.4 3.336.667 3.87.667-.267.267-.667.4-1.201.534-.534.133-1.068.133-1.735.133h-.934c-.267 0-.534 0-.668-.133.134.267.134.534.134.667 0 .8-.534 1.201-1.602 1.201-.266 0-.533-.133-.8-.267-.267-.133-.4-.4-.667-.667.8 0 1.2-.267 1.2-.934 0-.4-.133-.8-.533-1.068a2.906 2.906 0 00-1.068-.667c1.602.267 2.936.4 4.004.534zm-.801 5.071c-1.201.267-2.536.534-3.87.534-.934 0-1.735-.267-2.402-.8-.667-.535-.934-1.202-.934-2.136 0-.934.4-1.602 1.2-2.135.668-.4 1.335-.668 2.002-.668.4 0 .935.134 1.335.534.4.267.667.667.667 1.068 0 .267-.133.4-.4.534-.267.133-.534.133-.934.133v.267c.267.4.534.667.8.8a2.51 2.51 0 001.068.268c.534 0 1.068-.134 1.468-.534.4-.267.534-.667.534-1.201.267.133.934.534 1.868 1.2.4.268.801.535.934.535-.934.8-2.001 1.334-3.336 1.601zm27.891-1.601c-.8.133-1.468.267-2.268.267-1.201 0-2.135-.134-2.936-.267-.801-.267-1.868-.801-3.336-1.602l-.267.134c.133.133.133.4.267.667 0 .267.133.534.133.8 0 .4-.133.801-.534 1.068-.267.267-.801.4-1.468.4.267-.266.401-.4.401-.667.133-.267.133-.533.133-.667 0-.8-.4-1.334-1.068-1.868-.667-.534-1.734-.801-3.069-.934v-.134c.534-.133 1.068-.133 1.335-.133h1.334c1.335 0 2.669.133 4.271.533 1.601.4 3.069.668 4.537.935s2.669.533 3.603.533c.4 0 .934 0 1.335-.133-.534.267-1.335.8-2.403 1.068zM49.244 59.92a21.01 21.01 0 00-3.337.667c-.533 0-.8 0-.934-.133 0 0-.133-.134-.4-.267l-.133.133c.266.667.934 1.201 2.001 1.468a13.76 13.76 0 002.67.267c-.401.267-1.068.667-1.869 1.068-.267.133-.667.4-1.068.667-.934-.534-1.734-.934-2.802-1.468-1.335-.667-2.269-1.068-3.07-1.201-.667-.267-1.868-.4-3.202-.667-1.468-.134-2.536-.267-3.47-.267-1.201 0-2.803.133-4.537.534-.134 0-1.468.267-4.27.934-1.469.267-2.67.534-3.604.534a5.921 5.921 0 01-1.735-.267c-.534-.134-.8-.4-.8-.801 0-.134.133-.267.4-.4.267-.134.4-.134.4-.267 0-.134 0-.267-.133-.267h-.267c-.134 0-.4.133-.534.267-.134.267-.267.533-.267.8 0 .935.8 1.602 2.269 2.403 1.468.667 2.802.934 4.137.934 1.868 0 3.47-.4 4.67-1.201.267-.134.534-.4 1.068-.801a2.664 2.664 0 00-.267 1.201c0 .534.267.934.667 1.334.4.267.935.4 1.602.4s1.067-.133 1.2-.4l-.133-.133-.133.133h-.4c-.534 0-.934-.4-.934-1.334s.667-1.601 1.868-2.002c.934-.4 2.002-.534 3.336-.534.934 0 2.135.267 3.603.801 1.335.534 2.803 1.201 4.538 2.002-1.068.667-2.002 1.201-2.936 1.601-.934.4-1.735.534-2.402.534-.534 0-1.068-.133-1.468-.4-.4-.267-.534-.534-.534-.8 0-.401.267-.668.667-.668.4-.134.667-.134.667-.4 0-.134 0-.267-.133-.4-.133-.134-.267-.268-.534-.268-.4 0-.667.134-.934.534-.134.267-.267.4-.267.8 0 .401.133.801.534 1.202.4.4 1.068.667 1.868.667 1.068 0 2.269-.267 3.47-.934.8-.534 1.735-.934 2.535-1.468 1.202.667 2.403 1.067 3.737 1.468 1.335.4 2.536.534 3.737.534 1.334 0 2.402-.4 3.07-1.201.533-.534.8-1.201.8-1.869 0-2.268-1.601-3.47-4.67-3.47-.935.134-2.136.267-3.337.4zm-13.212.8c-1.334.134-2.269.401-3.07.935-.667.534-1.067 1.2-1.067 1.868 0 .267 0 .4.134.667.133.267.266.534.4.668-.667 0-1.201-.134-1.468-.4-.267-.268-.4-.668-.4-1.068 0-.267 0-.534.133-.934.133-.267.133-.534.267-.668l-.267-.133c-1.201.8-2.135 1.2-2.669 1.468-.934.4-2.269.534-3.737.534-.8 0-1.468-.134-2.268-.267-1.068-.267-1.869-.668-2.402-1.201.4.133.934.133 1.334.133.934 0 2.135-.133 3.603-.534 1.468-.4 2.936-.667 4.538-1.067 1.601-.4 2.936-.534 4.403-.534h1.335c.4 0 .8.133 1.334.133l-.133.4zm19.751 0c.8.534 1.201 1.202 1.201 2.136 0 .934-.267 1.601-.934 2.135-.667.534-1.468.8-2.402.8-1.201 0-2.536-.133-3.737-.533-1.334-.4-2.402-.8-3.336-1.334.267-.134.8-.534 1.735-1.068.533-.4.934-.534 1.067-.667 0 .4.267.8.667 1.2.4.268.801.401 1.469.401.8 0 1.334-.4 1.734-1.201v-.267c-.533 0-.8 0-.934-.133-.133-.134-.267-.267-.267-.4 0-.401.267-.802.668-1.068.4-.267.8-.4 1.334-.4.534-.134 1.201 0 1.735.4zm-3.87-.133c-.267.267-.534.667-.534 1.068 0 .667.4.934 1.201.934-.267.534-.8.8-1.334.8s-.935-.133-1.202-.266c-.266-.267-.4-.534-.4-.934 0-.267 0-.4.134-.668-.134 0-.4 0-.668.134h-.8c-.534 0-1.068 0-1.735-.134-.534-.133-.934-.267-1.201-.534.4 0 1.601-.266 3.736-.667a22.932 22.932 0 013.47-.267h.534c-.534.134-.934.267-1.201.534zm81.005-1.467c.267.133.534.266.934.266 1.068 0 2.136-.133 3.203-.4.801-.267 1.335-.4 1.468-.4v-.134c-.667-.133-1.334-.4-2.135-.534-.801-.133-1.601-.267-2.536-.267-.4 0-.667 0-.934.134-.267.133-.4.267-.534.534h-38.7v.4h38.7c.134.133.267.267.534.4zm-.133-.668c0-.133.133-.267.4-.4.267-.134.4-.134.667-.134.534 0 1.201 0 1.869.134l2.001.4-2.001.4c-.668.134-1.335.134-1.869.134-.267 0-.4 0-.667-.134-.133 0-.267-.133-.4-.4zM54.849 13.078h2.936c1.735 0 2.535.668 2.535 2.002 0 .667-.267 1.201-.934 1.735.8.4 1.335 1.068 1.335 2.002 0 .667-.267 1.334-.801 1.735-.267.267-.534.4-.8.4-.268 0-.668.133-1.202.133h-.4v-2.001h.4c.267 0 .4 0 .534-.134.133-.133.267-.267.267-.4 0-.267-.134-.4-.534-.4h-.4v-2.136c.4 0 .667-.133.667-.4s-.133-.4-.534-.4h-.4v5.871h-2.402v-8.007h-.267zm9.875 4.004v2.135h-.667v1.868h-2.402v-5.07c0-.935.267-1.736.8-2.27.534-.533 1.335-.8 2.27-.8.933 0 1.6.267 2.134.8.534.534.668 1.202.668 2.27v5.204h-2.403v-5.205c0-.267 0-.534-.133-.667s-.267-.133-.4-.133c-.4 0-.534.266-.534.8v.934h.667v.134zm6.539-1.869v5.872h-2.402v-8.007h3.07c.934 0 1.601.267 2.135.668.534.533.8 1.2.8 2.001 0 .801-.4 1.468-1.067 2.002l1.334 3.336h-2.535l-1.201-2.535v-2.002h.133c.534 0 .801-.267.801-.667s-.267-.534-.934-.534h-.134v-.133zm4.805-2.135h2.936c1.734 0 2.535.668 2.535 2.002 0 .667-.267 1.201-.934 1.735.8.4 1.334 1.068 1.334 2.002 0 .667-.266 1.334-.8 1.735-.267.267-.534.4-.8.4-.268 0-.668.133-1.202.133h-.4v-2.001h.4c.267 0 .4 0 .534-.134.133-.133.133-.133.133-.267 0-.267-.133-.4-.534-.4h-.4v-2.269c.4 0 .667-.133.667-.4s-.133-.4-.533-.4h-.4v5.871h-2.536v-8.007zm11.076 3.07v1.735h-1.601c-.267 0-.4 0-.4.133-.134 0-.134.134-.134.267s0 .267.133.267c.134 0 .267.133.534.133h1.602v2.269h-1.869c-.934 0-1.601-.267-2.002-.667-.4-.267-.667-.934-.667-1.735v-3.203c0-.8.267-1.335.668-1.735.4-.4 1.067-.667 1.868-.667h2.135v2.268h-1.468c-.4 0-.667.134-.667.4 0 .134 0 .268.133.268.134 0 .267.133.534.133h1.201v.134zm4.004-.935v5.872h-2.402v-8.007h3.069c.934 0 1.601.267 2.135.668.534.533.8 1.2.8 2.001 0 .801-.4 1.468-1.067 2.002l1.335 3.336h-2.536l-1.2-2.535v-2.002h.133c.533 0 .8-.267.8-.667s-.267-.534-.934-.534h-.133v-.133zM65.391 58.052v2.268c-.133 0-.267-.133-.4-.133s-.4 0-.4.133c0 .134-.134.267-.134.534 0 .134.134.4.267.667l.134.267c.266.534.533 1.068.533 1.602 0 .8-.267 1.468-.8 2.001-.534.534-1.201.801-2.002.801-.4 0-.8-.133-1.201-.267v-2.268c.267.133.4.267.667.267s.4 0 .534-.134c.133-.133.267-.267.267-.4 0-.134-.134-.4-.4-.801-.4-.667-.534-1.201-.534-1.868 0-.801.267-1.468.8-2.002.534-.534 1.201-.8 1.869-.8.133-.134.4 0 .8.133zm4.271 2.802v2.135h-.667v3.07h-2.403v-8.007h2.403v2.802h.667zm2.669-2.802v8.007h-2.402v-8.007h2.402zm5.471-.267c1.068 0 2.136.4 2.936 1.2a4.14 4.14 0 011.201 2.937c0 1.2-.4 2.135-1.2 2.936a4.14 4.14 0 01-2.937 1.2c-1.2 0-2.135-.4-2.936-1.2a4.14 4.14 0 01-1.2-2.936c0-1.201.4-2.136 1.2-2.936.668-.8 1.735-1.201 2.936-1.201zm-.133 2.402c-.534 0-.934.133-1.201.534-.267.4-.534.8-.534 1.334s.134.934.534 1.335c.4.4.8.533 1.201.533.534 0 .934-.133 1.201-.533.4-.4.534-.801.534-1.335 0-.534-.133-.934-.534-1.334-.267-.4-.667-.534-1.201-.534zm8.007 3.069v-2.135c.534 0 .667-.134.667-.534s-.133-.534-.533-.534-.534.267-.534.668v5.204h-2.402v-4.938c0-.533 0-.934.133-1.334.134-.267.267-.667.534-.934s.667-.534 1.068-.8c.4-.268.8-.268 1.334-.268.8 0 1.468.267 2.002.801.534.534.8 1.201.8 2.002 0 .8-.266 1.468-.8 1.868-.4.4-1.201.667-2.002.667l-.267.267zm53.247-38.567c-.934-1.068-2.669-2.002-4.137-2.002H15.213c-1.467 0-3.202.8-4.136 2.002L.8 36.833c-1.068 1.334-1.068 3.336 0 4.537l10.275 12.144c.935 1.068 2.803 2.002 4.137 2.002h119.573c1.468 0 3.203-.8 4.137-2.002l10.276-12.144c1.068-1.334 1.068-3.336 0-4.537l-10.276-12.144zm9.742 16.28L138.39 53.115c-.801.934-2.402 1.601-3.604 1.601H15.213c-1.2 0-2.802-.667-3.603-1.601L1.335 40.97c-.801-.934-.801-2.536 0-3.603L11.61 25.222c.801-.934 2.402-1.601 3.604-1.601h119.572c1.202 0 2.803.667 3.604 1.601l10.275 12.145c.801.934.801 2.535 0 3.603z"/><path d="M43.906 40.836h2.002c-.267-1.334-.668-3.203-.935-5.204-.533 2.268-.8 4.003-1.067 5.204zm25.356-6.139c-.267 0-.4 0-.668.267-.267.267-.267.4-.267 1.068v5.605c0 .667 0 1.068.267 1.334.267.267.267.267.668.267.4 0 .667 0 .667-.267 0-.266.267-.667.267-1.334v-5.605c0-.667 0-.934-.267-1.068.133-.267-.134-.267-.667-.267z"/><path d="M148.265 37.633L137.989 25.49c-.667-.8-2.135-1.468-3.336-1.468H15.08c-1.068 0-2.536.668-3.336 1.468L1.468 37.633c-.667.801-.667 2.136 0 3.07l10.276 12.144c.667.8 2.135 1.468 3.336 1.468h119.573c1.068 0 2.536-.667 3.336-1.468l10.276-12.144c.667-.8.667-2.135 0-3.07zm-111.032 6.14c-.4.4-1.067.666-2.002 1.067-1.067.267-2.268.4-3.603.4-1.601 0-2.669-.267-3.87-.4-1.068-.267-1.868-.667-2.002-1.068-.133-.4-.4-1.067-.4-2.002v-.934h5.204v1.602c0 .4 0 .667.267.934s.4.267.668.267c.267 0 .667 0 .934-.267s.267-.4.267-.667c0-.668-.267-1.068-.4-1.335-.401-.267-1.068-.667-2.67-1.067-1.334-.4-2.268-.935-2.669-1.068-.4-.267-.934-.667-1.067-.934-.267-.4-.4-.934-.4-1.602 0-.934.266-1.601.667-2.002.4-.4 1.067-.667 2.001-1.067.934-.267 2.002-.4 3.337-.4 1.334 0 2.669.267 3.603.4 1.068.267 1.868.667 2.002.934.267.4.4 1.068.4 2.002v.267h-5.471v-.934c0-.4 0-.668-.267-.935s-.4-.267-.668-.267c-.267 0-.667 0-.667.267-.267.267-.267.4-.267.668 0 .4 0 .667.267.934s.667.4 1.602.667c2.535.934 4.136 1.602 4.804 2.002.667.4.934 1.334.934 2.669-.134.667-.4 1.334-.534 1.868zm9.208 1.334l-.267-2.269h-2.001l-.267 2.269h-5.872l2.936-12.278h7.873l3.203 12.278h-5.605zm15.614 0H52.98V32.829h5.739v10.01h3.336v2.268zm13.88-4.938c0 1.068 0 2.002-.268 2.67-.267.666-.4.933-.934 1.334-.4.4-1.334.667-2.269.934-.934.267-2.001.4-3.202.4s-2.27 0-3.203-.267c-.934-.267-1.602-.4-2.269-.934-.4-.4-.934-.934-.934-1.334s-.267-1.335-.267-2.67v-2.001c0-1.068 0-2.002.267-2.67 0-.4.4-.934.934-1.334.4-.4 1.335-.667 2.269-.934.934-.267 2.002-.4 3.203-.4 1.2 0 2.268 0 3.202.267.935.267 1.602.4 2.27.934.666.4.933.934.933 1.334s.267 1.335.267 2.67v2.001zm19.216 4.938h-4.938v-8.408l-1.868 8.408H85.01l-2.002-8.14v8.14H78.07V32.829h7.207c.267.667.4 1.602.667 2.67l.934 3.202 1.335-5.605h7.073v12.01h-.134zm14.947-4.938c0 1.068 0 2.002-.267 2.67-.267.666-.4.933-.934 1.334-.401.4-1.335.667-2.269.934-.934.267-2.002.4-3.203.4s-2.268 0-3.203-.267c-.934-.267-1.601-.4-2.268-.934-.4-.4-.934-.934-.934-1.334s-.267-1.335-.267-2.67v-2.001c0-1.068 0-2.002.267-2.67 0-.4.4-.934.934-1.334s1.334-.667 2.268-.934c.935-.267 2.002-.4 3.203-.4s2.269 0 3.203.267c.934.267 1.602.4 2.269.934.667.4.934.934.934 1.334s.267 1.335.267 2.67v2.001zm14.68 4.938h-4.938l-2.936-5.605v5.605H112.1V32.829h4.804l3.203 5.472v-5.472h4.804v12.278h-.133z"/><path d="M103.692 34.697c-.267 0-.4 0-.667.267s-.267.4-.267 1.068v5.605c0 .667 0 1.068.267 1.334.267.267.267.267.667.267.401 0 .667 0 .667-.267 0-.266.267-.667.267-1.334v-5.605c0-.667 0-.934-.267-1.068 0-.267-.133-.267-.667-.267z"/></g><defs><clipPath id="clip0"><path fill="#fff" d="M0 0h150v66.459H0z"/></clipPath></defs></svg>