<svg width="28" height="28" viewBox="0 0 28 28" fill="none" xmlns="http://www.w3.org/2000/svg">
<path d="M6.00008 16.7H16.4334V14.7H6.00008V16.7ZM6.00008 12.3666H22.0001V10.3666H6.00008V12.3666ZM6.00008 8.03329H22.0001V6.03329H6.00008V8.03329ZM0.666748 27.3333V2.66663C0.666748 2.15551 0.866748 1.6944 1.26675 1.28329C1.66675 0.872182 2.13341 0.666626 2.66675 0.666626H25.3334C25.8445 0.666626 26.3056 0.872182 26.7167 1.28329C27.1279 1.6944 27.3334 2.15551 27.3334 2.66663V20C27.3334 20.5111 27.1279 20.9722 26.7167 21.3833C26.3056 21.7944 25.8445 22 25.3334 22H6.00008L0.666748 27.3333ZM2.66675 22.5L5.16675 20H25.3334V2.66663H2.66675V22.5ZM2.66675 2.66663V20V22.5V2.66663Z" fill="black"/>
</svg>
