<svg viewBox="0 0 24 24" xmlns="http://www.w3.org/2000/svg">
<path fill-rule="evenodd" clip-rule="evenodd" d="M4.90541 1.63546C5.71429 0.824994 7.10786 0.736126 7.9268 1.681L11.2856 5.55791C11.2939 5.56676 11.302 5.57578 11.31 5.58498C12.0493 6.43852 11.8979 7.67047 11.1619 8.41004L10.0882 9.48444C11.1949 11.2801 12.7055 12.7928 14.4996 13.9021L15.5741 12.826C16.3104 12.0879 17.5385 11.9354 18.3914 12.6675C18.3914 12.6675 18.3914 12.6675 18.3914 12.6675L22.3114 16.0323C23.2641 16.8507 23.1765 18.2508 22.3651 19.0621L19.5578 21.8743C18.4561 22.9772 16.7728 23.3361 15.3691 22.6543C9.24586 19.6862 4.30414 14.7377 1.34468 8.61053C0.664327 7.20675 1.02279 5.52437 2.12343 4.42229M2.12343 4.42229L4.90541 1.63546C4.90546 1.63541 4.90536 1.63551 4.90541 1.63546M14.1946 14.2078C14.1974 14.2049 14.2003 14.202 14.2031 14.1991L14.1946 14.2078ZM9.78385 9.78866L9.79278 9.77992C9.78984 9.78287 9.78686 9.78578 9.78385 9.78866ZM9.79319 6.88603C9.79324 6.88601 9.79342 6.88646 9.79362 6.88745ZM9.79405 6.89061L6.4234 3.00008C6.4222 3 6.42083 2.99996 6.41927 2.99997C6.39909 3.00004 6.36046 3.00875 6.321 3.0483L3.53887 5.83528C2.98413 6.39066 2.86831 7.16931 3.14479 7.73897L3.14562 7.74067C5.90923 13.4624 10.524 18.0834 16.2422 20.8549C16.8105 21.1309 17.588 21.0161 18.1423 20.4613C18.1424 20.4613 18.1423 20.4614 18.1423 20.4613L20.9503 17.6485C20.9902 17.6087 20.9999 17.5686 20.9999 17.5474C20.9999 17.5454 20.9998 17.5436 20.9997 17.5422L17.0946 14.1901C17.0922 14.1899 17.0887 14.1898 17.0838 14.1902C17.0618 14.1918 17.0255 14.203 16.99 14.2385L15.6314 15.599C15.4117 15.8247 15.1249 15.9736 14.8136 16.0231C14.4975 16.0734 14.1736 16.0186 13.8916 15.867C13.886 15.864 13.8804 15.8609 13.8748 15.8577C13.8719 15.8561 13.869 15.8545 13.8661 15.8528C11.4834 14.4808 9.50688 12.5018 8.13789 10.1174C8.13325 10.1094 8.12872 10.1012 8.12431 10.093C7.97271 9.81098 7.91782 9.48702 7.96805 9.1708C8.0175 8.85949 8.16616 8.57261 8.39168 8.35276L9.74431 6.99922C9.74446 6.99906 9.74415 6.99937 9.74431 6.99922C9.78042 6.96271 9.79241 6.9248 9.794 6.90185C9.79435 6.89681 9.79427 6.89314 9.79405 6.89061ZM17.0984 14.1908C17.0983 14.1908 17.0979 14.1907 17.0971 14.1904ZM17.0888 14.1851C17.0888 14.1852 17.0888 14.1851 17.0888 14.1851Z"/>
</svg>
