<svg width="32" height="32" viewBox="0 0 32 32" fill="none" xmlns="http://www.w3.org/2000/svg">
<path d="M16 22.0667C18.3111 20.2001 20.0556 18.4056 21.2333 16.6834C22.4111 14.9612 23 13.3556 23 11.8667C23 10.5556 22.7611 9.44453 22.2833 8.53341C21.8056 7.6223 21.2167 6.87786 20.5167 6.30008C19.8167 5.7223 19.0556 5.30564 18.2333 5.05008C17.4111 4.79453 16.6667 4.66675 16 4.66675C15.3333 4.66675 14.5889 4.79453 13.7667 5.05008C12.9444 5.30564 12.1833 5.7223 11.4833 6.30008C10.7833 6.87786 10.1944 7.6223 9.71667 8.53341C9.23889 9.44453 9 10.5556 9 11.8667C9 13.3556 9.58889 14.9612 10.7667 16.6834C11.9444 18.4056 13.6889 20.2001 16 22.0667ZM16 24.6001C12.9556 22.3112 10.6944 20.1223 9.21667 18.0334C7.73889 15.9445 7 13.889 7 11.8667C7 10.3556 7.27222 9.02786 7.81667 7.88341C8.36111 6.73897 9.06667 5.77786 9.93333 5.00008C10.8 4.2223 11.7667 3.63897 12.8333 3.25008C13.9 2.86119 14.9556 2.66675 16 2.66675C17.0444 2.66675 18.1 2.86119 19.1667 3.25008C20.2333 3.63897 21.2 4.2223 22.0667 5.00008C22.9333 5.77786 23.6389 6.73897 24.1833 7.88341C24.7278 9.02786 25 10.3556 25 11.8667C25 13.889 24.2611 15.9445 22.7833 18.0334C21.3056 20.1223 19.0444 22.3112 16 24.6001ZM16 14.0001C16.6444 14.0001 17.1944 13.7723 17.65 13.3167C18.1056 12.8612 18.3333 12.3112 18.3333 11.6667C18.3333 11.0223 18.1056 10.4723 17.65 10.0167C17.1944 9.56119 16.6444 9.33341 16 9.33341C15.3556 9.33341 14.8056 9.56119 14.35 10.0167C13.8944 10.4723 13.6667 11.0223 13.6667 11.6667C13.6667 12.3112 13.8944 12.8612 14.35 13.3167C14.8056 13.7723 15.3556 14.0001 16 14.0001ZM7 29.3334V27.3334H25V29.3334H7Z" fill="black"/>
</svg>
