<svg  viewBox="0 0 14 15"  xmlns="http://www.w3.org/2000/svg">
<path d="M0.606069 14.8337C0.44533 14.8337 0.291174 14.7693 0.177514 14.6547C0.0638537 14.5401 0 14.3846 0 14.2225V0.778003C1.80311e-05 0.671809 0.0274796 0.567453 0.079678 0.47522C0.131876 0.382987 0.20701 0.306061 0.297673 0.252025C0.388336 0.197988 0.491399 0.168706 0.596703 0.167065C0.702008 0.165424 0.805919 0.191481 0.898194 0.242666L13.0196 6.96494C13.1146 7.01769 13.1938 7.09519 13.249 7.18936C13.3042 7.28352 13.3333 7.3909 13.3333 7.50027C13.3333 7.60965 13.3042 7.71703 13.249 7.81119C13.1938 7.90535 13.1146 7.98286 13.0196 8.03561L0.898194 14.7579C0.808709 14.8076 0.708222 14.8336 0.606069 14.8337Z" />
</svg>
