<svg width="32" height="32" viewBox="0 0 32 32" fill="none" xmlns="http://www.w3.org/2000/svg">
<path d="M4.66675 28C4.13341 28 3.66675 27.8 3.26675 27.4C2.86675 27 2.66675 26.5333 2.66675 26V9.56663C2.66675 9.03329 2.86675 8.56663 3.26675 8.16663C3.66675 7.76663 4.13341 7.56663 4.66675 7.56663H11.0001V4.66663C11.0001 4.13329 11.2001 3.66663 11.6001 3.26663C12.0001 2.86663 12.4667 2.66663 13.0001 2.66663H19.0001C19.5334 2.66663 20.0001 2.86663 20.4001 3.26663C20.8001 3.66663 21.0001 4.13329 21.0001 4.66663V7.56663H27.3334C27.8667 7.56663 28.3334 7.76663 28.7334 8.16663C29.1334 8.56663 29.3334 9.03329 29.3334 9.56663V26C29.3334 26.5333 29.1334 27 28.7334 27.4C28.3334 27.8 27.8667 28 27.3334 28H4.66675ZM13.0001 7.56663H19.0001V4.66663H13.0001V7.56663ZM4.66675 26H27.3334V9.56663H4.66675V26ZM4.66675 26V9.56663V26Z" fill="black"/>
</svg>
