<svg width="157" height="25" viewBox="0 0 157 25" fill="none" xmlns="http://www.w3.org/2000/svg">
<path d="M11.0517 11.6442L2.62241 9.65351L8.44692 8.76459L11.0517 11.6442Z" fill="#6BA368" stroke="#E54616"/>
<path d="M11.9999 11.2019L9.23118 8.14105L11.9999 2.24209V11.2019Z" fill="#6BA368" stroke="#E54616"/>
<path d="M13 11.2019V2.24209L15.7687 8.14105L13 11.2019Z" fill="#6BA368" stroke="#E54616"/>
<path d="M11.1246 12.6888L6.34173 15.3324L1.55886 10.4298L11.1246 12.6888Z" fill="#6BA368" stroke="#E54616"/>
<path d="M16.5531 8.76459L22.3776 9.65351L13.9483 11.6442L16.5531 8.76459Z" fill="#6BA368" stroke="#E54616"/>
<path d="M12 20.4348L6.20372 23.6388L12 14.2601V20.4348Z" fill="#6BA368" stroke="#E54616"/>
<path d="M13.929 13.8612L18.2956 16.2747L19.3264 22.5943L13.929 13.8612Z" fill="#6BA368" stroke="#E54616"/>
<path d="M11.071 13.8612L5.67364 22.5943L6.70439 16.2747L11.071 13.8612Z" fill="#6BA368" stroke="#E54616"/>
<path d="M23.4411 10.4298L18.6583 15.3324L13.8754 12.6888L23.4411 10.4298Z" fill="#6BA368" stroke="#E54616"/>
<path d="M13 14.2601L18.7963 23.6388L13 20.4348V14.2601Z" fill="#6BA368" stroke="#E54616"/>
<path d="M8.58878 14.6605L4.67993 10.6525L10.0826 9.82705L12.4999 4.68042L14.915 9.82705L20.3199 10.6525L16.4088 14.6605L17.3323 20.3194L12.4999 17.649L7.66525 20.3194L8.58878 14.6605Z" fill="url(#paint0_linear_903_13239)"/>
<path d="M9.21453 14.4469L5.92676 11.0797L10.4682 10.3854L12.5 6.05933L14.5295 10.3854L19.0709 11.0797L15.7855 14.4469L16.5612 19.2027L12.5 16.9571L8.43876 19.2027L9.21453 14.4469Z" fill="#DD7230"/>
<path d="M14.5295 10.3854L12.5001 6.05933L10.4683 10.3854L7.60303 10.8248L16.0279 15.9399L15.7855 14.4469L19.071 11.0797L14.5295 10.3854Z" fill="url(#paint1_linear_903_13239)"/>
<path d="M44.0517 11.6442L35.6224 9.65351L41.4469 8.76459L44.0517 11.6442Z" fill="#6BA368" stroke="#E54616"/>
<path d="M44.9999 11.2019L42.2312 8.14105L44.9999 2.24209V11.2019Z" fill="#6BA368" stroke="#E54616"/>
<path d="M46 11.2019V2.24209L48.7687 8.14105L46 11.2019Z" fill="#6BA368" stroke="#E54616"/>
<path d="M44.1246 12.6888L39.3417 15.3324L34.5589 10.4298L44.1246 12.6888Z" fill="#6BA368" stroke="#E54616"/>
<path d="M49.5531 8.76459L55.3776 9.65351L46.9483 11.6442L49.5531 8.76459Z" fill="#6BA368" stroke="#E54616"/>
<path d="M45 20.4348L39.2037 23.6388L45 14.2601V20.4348Z" fill="#6BA368" stroke="#E54616"/>
<path d="M46.929 13.8612L51.2956 16.2747L52.3264 22.5943L46.929 13.8612Z" fill="#6BA368" stroke="#E54616"/>
<path d="M44.071 13.8612L38.6736 22.5943L39.7044 16.2747L44.071 13.8612Z" fill="#6BA368" stroke="#E54616"/>
<path d="M56.4411 10.4298L51.6583 15.3324L46.8754 12.6888L56.4411 10.4298Z" fill="#6BA368" stroke="#E54616"/>
<path d="M46 14.2601L51.7963 23.6388L46 20.4348V14.2601Z" fill="#6BA368" stroke="#E54616"/>
<path d="M41.5888 14.6605L37.6799 10.6525L43.0826 9.82705L45.4999 4.68042L47.915 9.82705L53.3199 10.6525L49.4088 14.6605L50.3323 20.3194L45.4999 17.649L40.6652 20.3194L41.5888 14.6605Z" fill="url(#paint2_linear_903_13239)"/>
<path d="M42.2145 14.4469L38.9268 11.0797L43.4682 10.3854L45.5 6.05933L47.5295 10.3854L52.0709 11.0797L48.7855 14.4469L49.5612 19.2027L45.5 16.9571L41.4388 19.2027L42.2145 14.4469Z" fill="#DD7230"/>
<path d="M47.5295 10.3854L45.5001 6.05933L43.4683 10.3854L40.603 10.8248L49.0279 15.9399L48.7855 14.4469L52.071 11.0797L47.5295 10.3854Z" fill="url(#paint3_linear_903_13239)"/>
<path d="M77.0517 11.6442L68.6224 9.65351L74.4469 8.76459L77.0517 11.6442Z" fill="#6BA368" stroke="#E54616"/>
<path d="M77.9999 11.2019L75.2312 8.14105L77.9999 2.24209V11.2019Z" fill="#6BA368" stroke="#E54616"/>
<path d="M79 11.2019V2.24209L81.7687 8.14105L79 11.2019Z" fill="#6BA368" stroke="#E54616"/>
<path d="M77.1246 12.6888L72.3417 15.3324L67.5589 10.4298L77.1246 12.6888Z" fill="#6BA368" stroke="#E54616"/>
<path d="M82.5531 8.76459L88.3776 9.65351L79.9483 11.6442L82.5531 8.76459Z" fill="#6BA368" stroke="#E54616"/>
<path d="M78 20.4348L72.2037 23.6388L78 14.2601V20.4348Z" fill="#6BA368" stroke="#E54616"/>
<path d="M79.929 13.8612L84.2956 16.2747L85.3264 22.5943L79.929 13.8612Z" fill="#6BA368" stroke="#E54616"/>
<path d="M77.071 13.8612L71.6736 22.5943L72.7044 16.2747L77.071 13.8612Z" fill="#6BA368" stroke="#E54616"/>
<path d="M89.4411 10.4298L84.6583 15.3324L79.8754 12.6888L89.4411 10.4298Z" fill="#6BA368" stroke="#E54616"/>
<path d="M79 14.2601L84.7963 23.6388L79 20.4348V14.2601Z" fill="#6BA368" stroke="#E54616"/>
<path d="M74.5888 14.6605L70.6799 10.6525L76.0826 9.82705L78.4999 4.68042L80.915 9.82705L86.3199 10.6525L82.4088 14.6605L83.3323 20.3194L78.4999 17.649L73.6652 20.3194L74.5888 14.6605Z" fill="url(#paint4_linear_903_13239)"/>
<path d="M75.2145 14.4469L71.9268 11.0797L76.4682 10.3854L78.5 6.05933L80.5295 10.3854L85.0709 11.0797L81.7855 14.4469L82.5612 19.2027L78.5 16.9571L74.4388 19.2027L75.2145 14.4469Z" fill="#DD7230"/>
<path d="M80.5295 10.3854L78.5001 6.05933L76.4683 10.3854L73.603 10.8248L82.0279 15.9399L81.7855 14.4469L85.071 11.0797L80.5295 10.3854Z" fill="url(#paint5_linear_903_13239)"/>
<path d="M107.637 8.22974L99 9.54795L111.5 12.5L107.637 8.22974Z" fill="#6BA368"/>
<path fill-rule="evenodd" clip-rule="evenodd" d="M99 9.54795L111.5 12.5L107.637 8.22974L99 9.54795ZM104.245 9.75908L108.603 10.7884L107.257 9.29943L104.245 9.75908Z" fill="#E54616"/>
<path d="M111.5 0L107.637 8.22975L111.5 12.5V0Z" fill="#6BA368"/>
<path fill-rule="evenodd" clip-rule="evenodd" d="M108.825 8.05234L110.5 9.90379V4.48418L108.825 8.05234ZM107.637 8.22975L111.5 12.5V0L107.637 8.22975Z" fill="#E54616"/>
<path d="M115.363 8.22975L111.5 0V12.5L115.363 8.22975Z" fill="#6BA368"/>
<path fill-rule="evenodd" clip-rule="evenodd" d="M111.5 0V12.5L115.363 8.22975L111.5 0ZM112.5 4.48418V9.90379L114.175 8.05234L112.5 4.48418Z" fill="#E54616"/>
<path d="M99 9.54785L105.25 15.9544L111.5 12.4999L99 9.54785Z" fill="#6BA368"/>
<path fill-rule="evenodd" clip-rule="evenodd" d="M105.433 14.7104L108.749 12.8777L102.118 11.3116L105.433 14.7104ZM105.25 15.9544L111.5 12.4999L99 9.54785L105.25 15.9544Z" fill="#E54616"/>
<path d="M124 9.54795L115.363 8.22974L111.5 12.5L124 9.54795Z" fill="#6BA368"/>
<path fill-rule="evenodd" clip-rule="evenodd" d="M115.743 9.29943L118.755 9.75908L114.397 10.7884L115.743 9.29943ZM111.5 12.5L115.363 8.22974L124 9.54795L111.5 12.5Z" fill="#E54616"/>
<path d="M103.775 25L111.5 20.7298V12.5L103.775 25Z" fill="#6BA368"/>
<path fill-rule="evenodd" clip-rule="evenodd" d="M110.5 20.1399L106.633 22.2775L110.5 16.0202V20.1399ZM103.775 25L111.5 20.7298V12.5L103.775 25Z" fill="#E54616"/>
<path d="M119.225 25L117.75 15.9546L111.5 12.5L119.225 25Z" fill="#6BA368"/>
<path fill-rule="evenodd" clip-rule="evenodd" d="M116.841 16.5948L114.358 15.2223L117.427 20.1887L116.841 16.5948ZM117.75 15.9546L111.5 12.5L119.225 25L117.75 15.9546Z" fill="#E54616"/>
<path d="M105.25 15.9546L103.775 25L111.5 12.5L105.25 15.9546Z" fill="#6BA368"/>
<path fill-rule="evenodd" clip-rule="evenodd" d="M103.775 25L111.5 12.5L105.25 15.9546L103.775 25ZM106.159 16.5948L105.573 20.1887L108.642 15.2223L106.159 16.5948Z" fill="#E54616"/>
<path d="M111.5 12.4999L117.75 15.9544L124 9.54785L111.5 12.4999Z" fill="#6BA368"/>
<path fill-rule="evenodd" clip-rule="evenodd" d="M117.567 14.7104L120.882 11.3116L114.251 12.8777L117.567 14.7104ZM117.75 15.9544L124 9.54785L111.5 12.4999L117.75 15.9544Z" fill="#E54616"/>
<path d="M111.5 20.7298L119.225 25L111.5 12.5V20.7298Z" fill="#6BA368"/>
<path fill-rule="evenodd" clip-rule="evenodd" d="M119.225 25L111.5 12.5V20.7298L119.225 25ZM116.367 22.2775L112.5 16.0202V20.1399L116.367 22.2775Z" fill="#E54616"/>
<path d="M107.589 14.6605L103.68 10.6525L109.083 9.82705L111.5 4.68042L113.915 9.82705L119.32 10.6525L115.409 14.6605L116.332 20.3194L111.5 17.649L106.665 20.3194L107.589 14.6605Z" fill="url(#paint6_linear_903_13239)"/>
<path d="M108.215 14.4469L104.927 11.0797L109.468 10.3854L111.5 6.05933L113.529 10.3854L118.071 11.0797L114.785 14.4469L115.561 19.2027L111.5 16.9571L107.439 19.2027L108.215 14.4469Z" fill="#DD7230"/>
<path d="M113.53 10.3854L111.5 6.05933L109.468 10.3854L106.603 10.8248L115.028 15.9399L114.786 14.4469L118.071 11.0797L113.53 10.3854Z" fill="url(#paint7_linear_903_13239)"/>
<path d="M143.052 11.6442L134.622 9.65351L140.447 8.76459L143.052 11.6442Z" fill="#6BA368" stroke="#E54616"/>
<path d="M144 11.2019L141.231 8.14105L144 2.24209V11.2019Z" fill="#6BA368" stroke="#E54616"/>
<path d="M145 11.2019V2.24209L147.769 8.14105L145 11.2019Z" fill="#6BA368" stroke="#E54616"/>
<path d="M143.125 12.6888L138.342 15.3324L133.559 10.4298L143.125 12.6888Z" fill="#6BA368" stroke="#E54616"/>
<path d="M148.553 8.76459L154.378 9.65351L145.948 11.6442L148.553 8.76459Z" fill="#6BA368" stroke="#E54616"/>
<path d="M144 20.4348L138.204 23.6388L144 14.2601V20.4348Z" fill="#6BA368" stroke="#E54616"/>
<path d="M145.929 13.8612L150.296 16.2747L151.326 22.5943L145.929 13.8612Z" fill="#6BA368" stroke="#E54616"/>
<path d="M143.071 13.8612L137.674 22.5943L138.704 16.2747L143.071 13.8612Z" fill="#6BA368" stroke="#E54616"/>
<path d="M155.441 10.4298L150.658 15.3324L145.875 12.6888L155.441 10.4298Z" fill="#6BA368" stroke="#E54616"/>
<path d="M145 14.2601L150.796 23.6388L145 20.4348V14.2601Z" fill="#6BA368" stroke="#E54616"/>
<path d="M140.589 14.6605L136.68 10.6525L142.083 9.82705L144.5 4.68042L146.915 9.82705L152.32 10.6525L148.409 14.6605L149.332 20.3194L144.5 17.649L139.665 20.3194L140.589 14.6605Z" fill="url(#paint8_linear_903_13239)"/>
<path d="M141.215 14.4469L137.927 11.0797L142.468 10.3854L144.5 6.05933L146.529 10.3854L151.071 11.0797L147.785 14.4469L148.561 19.2027L144.5 16.9571L140.439 19.2027L141.215 14.4469Z" fill="#DD7230"/>
<path d="M146.53 10.3854L144.5 6.05933L142.468 10.3854L139.603 10.8248L148.028 15.9399L147.786 14.4469L151.071 11.0797L146.53 10.3854Z" fill="url(#paint9_linear_903_13239)"/>
<defs>
<linearGradient id="paint0_linear_903_13239" x1="12.4999" y1="4.83336" x2="12.4999" y2="19.7562" gradientUnits="userSpaceOnUse">
<stop stop-color="#FEFFB3"/>
<stop offset="1" stop-color="#FDCB5E"/>
</linearGradient>
<linearGradient id="paint1_linear_903_13239" x1="11.5719" y1="13.9055" x2="13.4804" y2="11.0155" gradientUnits="userSpaceOnUse">
<stop stop-color="white" stop-opacity="0.5"/>
<stop offset="0.63" stop-color="white" stop-opacity="0"/>
</linearGradient>
<linearGradient id="paint2_linear_903_13239" x1="45.4999" y1="4.83336" x2="45.4999" y2="19.7562" gradientUnits="userSpaceOnUse">
<stop stop-color="#FEFFB3"/>
<stop offset="1" stop-color="#FDCB5E"/>
</linearGradient>
<linearGradient id="paint3_linear_903_13239" x1="44.5719" y1="13.9055" x2="46.4804" y2="11.0155" gradientUnits="userSpaceOnUse">
<stop stop-color="white" stop-opacity="0.5"/>
<stop offset="0.63" stop-color="white" stop-opacity="0"/>
</linearGradient>
<linearGradient id="paint4_linear_903_13239" x1="78.4999" y1="4.83336" x2="78.4999" y2="19.7562" gradientUnits="userSpaceOnUse">
<stop stop-color="#FEFFB3"/>
<stop offset="1" stop-color="#FDCB5E"/>
</linearGradient>
<linearGradient id="paint5_linear_903_13239" x1="77.5719" y1="13.9055" x2="79.4804" y2="11.0155" gradientUnits="userSpaceOnUse">
<stop stop-color="white" stop-opacity="0.5"/>
<stop offset="0.63" stop-color="white" stop-opacity="0"/>
</linearGradient>
<linearGradient id="paint6_linear_903_13239" x1="111.5" y1="4.83336" x2="111.5" y2="19.7562" gradientUnits="userSpaceOnUse">
<stop stop-color="#FEFFB3"/>
<stop offset="1" stop-color="#FDCB5E"/>
</linearGradient>
<linearGradient id="paint7_linear_903_13239" x1="110.572" y1="13.9055" x2="112.48" y2="11.0155" gradientUnits="userSpaceOnUse">
<stop stop-color="white" stop-opacity="0.5"/>
<stop offset="0.63" stop-color="white" stop-opacity="0"/>
</linearGradient>
<linearGradient id="paint8_linear_903_13239" x1="144.5" y1="4.83336" x2="144.5" y2="19.7562" gradientUnits="userSpaceOnUse">
<stop stop-color="#FEFFB3"/>
<stop offset="1" stop-color="#FDCB5E"/>
</linearGradient>
<linearGradient id="paint9_linear_903_13239" x1="143.572" y1="13.9055" x2="145.48" y2="11.0155" gradientUnits="userSpaceOnUse">
<stop stop-color="white" stop-opacity="0.5"/>
<stop offset="0.63" stop-color="white" stop-opacity="0"/>
</linearGradient>
</defs>
</svg>
