<svg width="179" height="27" viewBox="0 0 179 27" fill="none" xmlns="http://www.w3.org/2000/svg">
<path d="M85.2813 9.07143L85.54 9.03211L85.6552 8.79718L89.4204 1.11581L93.3263 8.73905L93.4455 8.97175L93.7046 9.00659L102.271 10.1582L96.139 16.1469L95.9487 16.3327L95.9965 16.5944L97.5262 24.9726L89.8267 21.0684L89.5955 20.9512L89.3665 21.0725L81.7381 25.1141L83.1278 16.7072L83.1712 16.4447L82.9776 16.2621L76.735 10.3707L85.2813 9.07143Z" fill="#45A44E" stroke="#2B6069"/>
<path d="M123.065 9.07143L123.323 9.03211L123.439 8.79718L127.204 1.11581L131.11 8.73905L131.229 8.97175L131.488 9.00659L140.054 10.1582L133.922 16.1469L133.732 16.3327L133.78 16.5944L135.31 24.9726L127.61 21.0684L127.379 20.9512L127.15 21.0725L119.522 25.1141L120.911 16.7072L120.955 16.4447L120.761 16.2621L114.518 10.3707L123.065 9.07143Z" fill="#45A44E" stroke="#2B6069"/>
<path d="M160.848 9.07143L161.107 9.03211L161.222 8.79718L164.987 1.11581L168.893 8.73905L169.012 8.97175L169.272 9.00659L177.838 10.1582L171.706 16.1469L171.516 16.3327L171.563 16.5944L173.093 24.9726L165.394 21.0684L165.162 20.9512L164.933 21.0725L157.305 25.1141L158.695 16.7072L158.738 16.4447L158.545 16.2621L152.302 10.3707L160.848 9.07143Z" stroke="#2B6069"/>
<path d="M47.498 9.07143L47.7567 9.03211L47.8718 8.79718L51.637 1.11581L55.5429 8.73905L55.6622 8.97175L55.9213 9.00659L64.4874 10.1582L58.3557 16.1469L58.1654 16.3327L58.2132 16.5944L59.7429 24.9726L52.0433 21.0684L51.8122 20.9512L51.5831 21.0725L43.9548 25.1141L45.3444 16.7072L45.3878 16.4447L45.1943 16.2621L38.9516 10.3707L47.498 9.07143Z" fill="#45A44E" stroke="#2B6069"/>
<path d="M9.71458 9.07143L9.97324 9.03211L10.0884 8.79718L13.8536 1.11581L17.7595 8.73905L17.8787 8.97175L18.1379 9.00659L26.704 10.1582L20.5722 16.1469L20.382 16.3327L20.4297 16.5944L21.9594 24.9726L14.2599 21.0684L14.0287 20.9512L13.7997 21.0725L6.17137 25.1141L7.56099 16.7072L7.60438 16.4447L7.41086 16.2621L1.1682 10.3707L9.71458 9.07143Z" fill="#45A44E" stroke="#2B6069"/>
</svg>
