<svg width="18" height="23" viewBox="0 0 18 23" fill="none" xmlns="http://www.w3.org/2000/svg">
<path fill-rule="evenodd" clip-rule="evenodd" d="M9 7.5C7.89543 7.5 7 8.39543 7 9.5C7 10.6046 7.89543 11.5 9 11.5C10.1046 11.5 11 10.6046 11 9.5C11 8.39543 10.1046 7.5 9 7.5ZM5 9.5C5 7.29086 6.79086 5.5 9 5.5C11.2091 5.5 13 7.29086 13 9.5C13 11.7091 11.2091 13.5 9 13.5C6.79086 13.5 5 11.7091 5 9.5Z" fill="#104C54"/>
<path fill-rule="evenodd" clip-rule="evenodd" d="M2.63604 3.13604C4.32387 1.44821 6.61305 0.5 9 0.5C11.3869 0.5 13.6761 1.44821 15.364 3.13604C17.0518 4.82387 18 7.11305 18 9.5C18 10.5166 17.8921 11.4121 17.611 12.2604C17.3283 13.1131 16.8871 13.8683 16.2803 14.6254C16.2723 14.6354 16.2641 14.6452 16.2557 14.6549L9.75569 22.1549C9.56575 22.3741 9.29002 22.5 9 22.5C8.70998 22.5 8.43425 22.3741 8.24431 22.1549L1.74431 14.6549C1.73591 14.6452 1.72771 14.6354 1.71969 14.6254C1.11294 13.8683 0.671692 13.1131 0.389039 12.2604C0.107863 11.4121 0 10.5166 0 9.5C0 7.11305 0.948212 4.82387 2.63604 3.13604ZM9 2.5C7.14348 2.5 5.36301 3.2375 4.05025 4.55025C2.7375 5.86301 2 7.64348 2 9.5C2 10.3754 2.09314 11.0449 2.28746 11.6311C2.47877 12.2083 2.78415 12.7529 3.26862 13.36L9 19.9731L14.7314 13.36C15.2158 12.7529 15.5212 12.2083 15.7125 11.6311C15.9069 11.0449 16 10.3754 16 9.5C16 7.64348 15.2625 5.86301 13.9497 4.55025C12.637 3.2375 10.8565 2.5 9 2.5Z" fill="#104C54"/>
</svg>
