<svg viewBox="0 0 19 24" xmlns="http://www.w3.org/2000/svg">
<path fill-rule="evenodd" clip-rule="evenodd" d="M2.51755 2.55272C1.94264 3.14544 1.65479 4.23778 1.65479 6.46131V17.5382C1.65479 19.7618 1.94264 20.8541 2.51755 21.4468C3.08465 22.0315 4.12568 22.3267 6.27681 22.3267H12.7232C14.8744 22.3267 15.9154 22.0315 16.4825 21.4468C17.0574 20.8541 17.3453 19.7618 17.3453 17.5382V6.46131C17.3453 4.23778 17.0574 3.14544 16.4825 2.55272C15.9154 1.96805 14.8744 1.67285 12.7232 1.67285H6.27681C4.12568 1.67285 3.08465 1.96805 2.51755 2.55272ZM1.44083 1.50836C2.48534 0.431498 4.13032 0.172852 6.27681 0.172852H12.7232C14.8697 0.172852 16.5147 0.431498 17.5592 1.50836C18.5959 2.57719 18.8453 4.25408 18.8453 6.46131V17.5382C18.8453 19.7455 18.5959 21.4224 17.5592 22.4912C16.5147 23.5681 14.8697 23.8267 12.7232 23.8267H6.27681C4.13032 23.8267 2.48534 23.5681 1.44083 22.4912C0.40413 21.4224 0.154785 19.7455 0.154785 17.5382V6.46131C0.154785 4.25408 0.40413 2.57719 1.44083 1.50836Z" />
<path fill-rule="evenodd" clip-rule="evenodd" d="M6.60107 4.7998C6.60107 4.38559 6.93686 4.0498 7.35107 4.0498H11.6487C12.0629 4.0498 12.3987 4.38559 12.3987 4.7998C12.3987 5.21402 12.0629 5.5498 11.6487 5.5498H7.35107C6.93686 5.5498 6.60107 5.21402 6.60107 4.7998Z" />
<path fill-rule="evenodd" clip-rule="evenodd" d="M9.4998 17.1807C9.01568 17.1807 8.58447 17.5918 8.58447 18.1476C8.58447 18.7033 9.01569 19.1145 9.4998 19.1145C9.98391 19.1145 10.4151 18.7033 10.4151 18.1476C10.4151 17.5918 9.98392 17.1807 9.4998 17.1807ZM7.08447 18.1476C7.08447 16.8069 8.14445 15.6807 9.4998 15.6807C10.8552 15.6807 11.9151 16.8069 11.9151 18.1476C11.9151 19.4883 10.8552 20.6145 9.4998 20.6145C8.14444 20.6145 7.08447 19.4883 7.08447 18.1476Z" />
</svg>
