<svg width="24" height="25" viewBox="0 0 24 25" fill="none" xmlns="http://www.w3.org/2000/svg">
<path d="M17.3768 13.0693C17.3677 11.4299 18.075 10.1944 19.5033 9.28339C18.7044 8.08151 17.4959 7.42048 15.9027 7.29308C14.3943 7.16809 12.7439 8.21612 12.1396 8.21612C11.501 8.21612 10.0406 7.33635 8.89156 7.33635C6.52017 7.37481 4 9.32185 4 13.2832C4 14.4539 4.20372 15.663 4.61116 16.9081C5.15594 18.5475 7.11989 22.5641 9.16853 22.4992C10.2398 22.4728 10.9974 21.7012 12.3914 21.7012C13.7442 21.7012 14.4446 22.4992 15.6395 22.4992C17.7064 22.468 19.4827 18.8167 20 17.1725C17.228 15.8 17.3768 13.1534 17.3768 13.0693ZM14.9711 5.73785C16.1316 4.2908 16.0263 2.97354 15.992 2.5C14.9665 2.5625 13.7808 3.23314 13.1056 4.05763C12.3617 4.94221 11.9245 6.03592 12.0183 7.26905C13.1262 7.35798 14.1379 6.75945 14.9711 5.73785Z" fill="white"/>
</svg>
