<svg viewBox="0 0 24 24" xmlns="http://www.w3.org/2000/svg">
<path d="M23.1429 1.6H19.7143V0.8C19.7143 0.587827 19.624 0.384344 19.4632 0.234315C19.3025 0.0842855 19.0845 0 18.8571 0L5.14286 0C4.91553 0 4.69751 0.0842855 4.53677 0.234315C4.37602 0.384344 4.28571 0.587827 4.28571 0.8V1.6H0.857143C0.629814 1.6 0.411797 1.68429 0.251051 1.83431C0.0903059 1.98434 0 2.18783 0 2.4L0 8C0.00181488 9.48469 0.634539 10.9081 1.75936 11.9579C2.88419 13.0078 4.40926 13.5983 6 13.6H6.85714C6.93911 13.5959 7.01998 13.5805 7.09714 13.5544C8.25009 14.4439 9.65616 15 11.1429 15.1544V16.8H6C5.77267 16.8 5.55465 16.8843 5.39391 17.0343C5.23316 17.1843 5.14286 17.3878 5.14286 17.6V23.2C5.14286 23.4122 5.23316 23.6157 5.39391 23.7657C5.55465 23.9157 5.77267 24 6 24H18C18.2273 24 18.4453 23.9157 18.6061 23.7657C18.7668 23.6157 18.8571 23.4122 18.8571 23.2V17.6C18.8571 17.3878 18.7668 17.1843 18.6061 17.0343C18.4453 16.8843 18.2273 16.8 18 16.8H12.8571V15.1528C14.3438 14.9984 15.7499 14.4423 16.9029 13.5528C16.9799 13.5795 17.0608 13.5954 17.1429 13.6H18C19.5907 13.5983 21.1158 13.0078 22.2406 11.9579C23.3655 10.9081 23.9982 9.48469 24 8V2.4C24 2.18783 23.9097 1.98434 23.7489 1.83431C23.5882 1.68429 23.3702 1.6 23.1429 1.6V1.6ZM1.71429 8V3.2H4.28571V8C4.28492 9.408 4.72917 10.7849 5.56286 11.9584C4.51043 11.8597 3.53455 11.4004 2.82375 10.6693C2.11295 9.93822 1.71767 8.98721 1.71429 8V8ZM17.1429 18.4V22.4H6.85714V18.4H17.1429ZM18 8C18 9.48521 17.3679 10.9096 16.2426 11.9598C15.1174 13.01 13.5913 13.6 12 13.6C10.4087 13.6 8.88258 13.01 7.75736 11.9598C6.63214 10.9096 6 9.48521 6 8V1.6H18V8ZM22.2857 8C22.2823 8.98721 21.887 9.93822 21.1763 10.6693C20.4655 11.4004 19.4896 11.8597 18.4371 11.9584C19.2708 10.7849 19.7151 9.408 19.7143 8V3.2H22.2857V8Z"/>
<path d="M8 6C8.26522 6 8.51957 5.91571 8.70711 5.76569C8.89464 5.61566 9 5.41217 9 5.2V2.8C9 2.58783 8.89464 2.38434 8.70711 2.23431C8.51957 2.08429 8.26522 2 8 2C7.73478 2 7.48043 2.08429 7.29289 2.23431C7.10536 2.38434 7 2.58783 7 2.8V5.2C7 5.41217 7.10536 5.61566 7.29289 5.76569C7.48043 5.91571 7.73478 6 8 6Z"/>
<path d="M10.75 22H12.25C12.4489 22 12.6397 21.8946 12.7803 21.7071C12.921 21.5196 13 21.2652 13 21C13 20.7348 12.921 20.4804 12.7803 20.2929C12.6397 20.1054 12.4489 20 12.25 20H10.75C10.5511 20 10.3603 20.1054 10.2197 20.2929C10.079 20.4804 10 20.7348 10 21C10 21.2652 10.079 21.5196 10.2197 21.7071C10.3603 21.8946 10.5511 22 10.75 22Z"/>
</svg>
