<svg width="32" height="33" viewBox="0 0 32 33" fill="none" xmlns="http://www.w3.org/2000/svg">
<path d="M5.91651 25.576C5.85468 25.6069 5.78255 25.6274 5.71041 25.648C4.64899 25.9359 3.55665 25.2984 3.26811 24.2392C2.97956 23.18 3.61848 22.0899 4.6799 21.802C5.36004 21.6169 6.06078 21.8123 6.54512 22.2648L10.121 17.1745C9.15231 17.2979 8.21455 16.6912 7.95692 15.7142C7.66838 14.655 8.30729 13.565 9.36872 13.2771C10.4301 12.9891 11.5225 13.6267 11.811 14.6859C11.8213 14.7065 11.8213 14.727 11.8316 14.7579L11.9141 14.6345C12.1099 14.3568 12.3675 14.1306 12.656 13.9661L12.3469 12.8246C12.1717 12.187 11.5225 11.8065 10.8836 11.9814L0.887627 14.655C0.248712 14.8299 -0.132577 15.4777 0.0426099 16.1153L2.72193 26.0902C2.89712 26.7278 3.54634 27.1082 4.18526 26.9334L6.66879 26.265L6.52452 26.1622C6.26689 26.0182 6.07109 25.8125 5.91651 25.576ZM1.45441 17.4624C1.16586 16.4032 1.80478 15.3132 2.86621 15.0252C3.92763 14.7373 5.01997 15.3749 5.30851 16.4341C5.59706 17.4933 4.95814 18.5833 3.89672 18.8712C2.83529 19.1489 1.74295 18.5216 1.45441 17.4624ZM22.8787 20.8559L14.3976 14.9327C13.8514 14.5522 13.1095 14.6859 12.7282 15.2309L6.79245 23.6942C6.41116 24.2392 6.54513 24.9796 7.0913 25.3601L15.5724 31.2833C16.1186 31.6638 16.8605 31.5301 17.2418 30.9851L23.1775 22.5219C23.5588 21.9768 23.4249 21.2364 22.8787 20.8559ZM10.7908 25.864C9.70879 26.0593 8.67828 25.3292 8.48248 24.2495C8.28669 23.1697 9.01835 22.1414 10.1004 21.946C11.1824 21.7506 12.2129 22.4807 12.4087 23.5605C12.5942 24.6402 11.8729 25.6686 10.7908 25.864ZM15.3354 25.0618C14.2533 25.2572 13.2228 24.5271 13.027 23.4474C12.8312 22.3676 13.5629 21.3393 14.6449 21.1439C15.727 20.9485 16.7575 21.6786 16.9533 22.7584C17.1388 23.8381 16.4174 24.8665 15.3354 25.0618ZM19.8799 24.2597C18.7979 24.4551 17.7674 23.725 17.5716 22.6452C17.3758 21.5655 18.1074 20.5372 19.1895 20.3418C20.2715 20.1464 21.302 20.8765 21.4978 21.9563C21.6833 23.036 20.962 24.0746 19.8799 24.2597ZM16.2731 12.8863C15.964 12.4955 15.4281 12.1562 14.8304 12.1562C14.511 12.1562 14.2224 12.259 13.9648 12.403L14.1091 12.948C14.5419 13.02 14.9541 13.1845 15.3251 13.4416L17.3243 14.8401H18.7361V15.7657L20.6013 17.0922V14.8401H22.8169C23.1363 15.2309 23.6413 15.5703 24.2184 15.5703C25.1767 15.5703 25.9496 14.8093 25.9496 13.8529C25.9496 12.8966 25.1767 12.0842 24.2184 12.0842C23.5898 12.0842 23.0436 12.4852 22.7344 12.876H20.6013V10.6034C20.9929 10.2846 21.2711 9.78071 21.2711 9.20484C21.2711 8.24848 20.4776 7.47723 19.5192 7.47723C18.5609 7.47723 17.8498 8.24848 17.8498 9.20484C17.8498 9.83213 18.159 10.3771 18.7464 10.6857V12.8657H16.2731V12.8863ZM28.361 5.13261C23.5073 0.289129 15.6342 0.289129 10.7805 5.13261C9.09048 6.81909 7.98784 8.86549 7.47258 11.025L10.3477 10.2537C10.595 10.192 10.8527 10.1509 11.1103 10.1509C11.4916 10.1509 11.8523 10.2229 12.1923 10.3566C12.5839 9.54419 13.1095 8.7935 13.7896 8.1148C16.9842 4.92694 22.1677 4.92694 25.3725 8.1148C28.5671 11.3027 28.5671 16.4752 25.3725 19.6733C25.1458 19.8996 24.9191 20.1052 24.6718 20.3006C24.8058 20.5269 24.8985 20.7634 24.9706 21.0102C25.3004 20.7634 25.6096 20.496 25.8981 20.1978C26.2691 19.8276 26.6091 19.4163 26.908 18.9946L28.866 20.9588C28.5465 21.3701 28.2064 21.7712 27.8251 22.1414C27.4542 22.5116 27.0626 22.8612 26.6504 23.1697L25.0531 21.5758C25.0943 22.2236 24.9294 22.892 24.5275 23.4576L22.8375 25.864C24.8573 25.3189 26.7637 24.2495 28.3507 22.6658C33.2147 17.8223 33.2147 9.9761 28.361 5.13261ZM13.2537 7.60063C12.8828 7.97083 12.5427 8.37188 12.2438 8.80379L10.2756 6.83966C10.595 6.42832 10.9351 6.03755 11.3061 5.66735C11.6771 5.29715 12.079 4.94751 12.4912 4.62873L14.4594 6.59286C14.0266 6.88079 13.6247 7.22014 13.2537 7.60063ZM21.1474 5.12233C20.6322 5.02978 20.1272 4.98864 19.5914 4.98864C19.0658 4.98864 18.6433 5.02978 18.0559 5.12233V2.34581C18.6433 2.27383 19.0658 2.24298 19.5914 2.24298C20.1272 2.24298 20.6322 2.27383 21.1578 2.34581L21.1474 5.12233ZM26.8977 8.80379C26.5988 8.37188 26.2588 7.97083 25.8775 7.59035C25.5065 7.22014 25.1046 6.88079 24.6821 6.58257L26.6504 4.61844C27.0626 4.93723 27.4542 5.27658 27.8251 5.64678C28.1961 6.01698 28.5465 6.41804 28.866 6.82937L26.8977 8.80379ZM28.361 15.4263C28.4538 14.9327 28.495 14.398 28.495 13.8632C28.495 13.3285 28.4538 12.8863 28.361 12.3001H31.1434C31.2155 12.8863 31.2464 13.3388 31.2464 13.8632C31.2464 14.3877 31.2155 14.9327 31.1434 15.4263H28.361Z" fill="white"/>
</svg>
