<svg viewBox="0 0 20 17" xmlns="http://www.w3.org/2000/svg">
<path d="M2 9.00003C2.00476 6.67725 2.81796 4.42857 4.3 2.64003C4.46974 2.43581 4.5514 2.17253 4.52702 1.90811C4.50264 1.64368 4.37422 1.39977 4.17 1.23003C3.96579 1.06029 3.70251 0.978631 3.43808 1.00301C3.17365 1.02739 2.92974 1.15581 2.76 1.36003C0.984723 3.51027 0.0136719 6.21163 0.0136719 9.00003C0.0136719 11.7884 0.984723 14.4898 2.76 16.64C2.85403 16.7529 2.97177 16.8437 3.10485 16.9059C3.23793 16.9681 3.38309 17.0003 3.53 17C3.76366 17.0005 3.99009 16.9191 4.17 16.77C4.27126 16.6861 4.35496 16.583 4.41632 16.4666C4.47767 16.3503 4.51546 16.223 4.52754 16.092C4.53962 15.961 4.52573 15.829 4.48669 15.7034C4.44764 15.5777 4.3842 15.4611 4.3 15.36C2.81796 13.5715 2.00476 11.3228 2 9.00003Z" />
<path d="M10 11C11.1046 11 12 10.1046 12 9C12 7.89543 11.1046 7 10 7C8.89543 7 8 7.89543 8 9C8 10.1046 8.89543 11 10 11Z" />
<path d="M15.0601 5.48001C15.0024 5.3525 14.9187 5.23851 14.8142 5.1454C14.7098 5.05229 14.587 4.98213 14.4537 4.93947C14.3205 4.8968 14.1797 4.88258 14.0406 4.89771C13.9015 4.91285 13.7671 4.95701 13.6462 5.02734C13.5252 5.09767 13.4204 5.1926 13.3384 5.30599C13.2564 5.41939 13.1991 5.54873 13.1703 5.68564C13.1414 5.82256 13.1416 5.96401 13.1709 6.10084C13.2001 6.23767 13.2578 6.36685 13.3401 6.48001C13.7789 7.2401 14.0099 8.10233 14.0099 8.98001C14.0099 9.85769 13.7789 10.7199 13.3401 11.48C13.2711 11.5928 13.2252 11.7181 13.205 11.8487C13.1847 11.9793 13.1906 12.1126 13.2222 12.2409C13.2538 12.3692 13.3106 12.49 13.3892 12.5963C13.4678 12.7026 13.5666 12.7922 13.6801 12.86C13.8391 12.949 14.0178 12.9971 14.2001 13C14.3726 13.001 14.5425 12.9573 14.6933 12.8732C14.844 12.7891 14.9703 12.6674 15.0601 12.52C15.6686 11.4539 15.9887 10.2476 15.9887 9.02001C15.9887 7.79245 15.6686 6.5861 15.0601 5.52001V5.48001Z" />
<path d="M6.31999 5.14003C6.20724 5.07108 6.08194 5.02517 5.95133 5.00494C5.82072 4.98472 5.6874 4.99058 5.55908 5.0222C5.43075 5.05382 5.30996 5.11056 5.2037 5.18914C5.09744 5.26772 5.00781 5.36659 4.93999 5.48003C4.33143 6.54612 4.01135 7.75247 4.01135 8.98003C4.01135 10.2076 4.33143 11.4139 4.93999 12.48C5.02469 12.6349 5.14887 12.7646 5.29992 12.8559C5.45097 12.9472 5.6235 12.997 5.79999 13C5.98225 12.9972 6.16093 12.9491 6.31999 12.86C6.43343 12.7922 6.5323 12.7026 6.61088 12.5963C6.68946 12.4901 6.7462 12.3693 6.77782 12.2409C6.80944 12.1126 6.8153 11.9793 6.79508 11.8487C6.77485 11.7181 6.72894 11.5928 6.65999 11.48C6.22115 10.7199 5.99012 9.85771 5.99012 8.98003C5.99012 8.10235 6.22115 7.24013 6.65999 6.48003C6.78677 6.25587 6.82217 5.99143 6.75884 5.74182C6.6955 5.4922 6.5383 5.27663 6.31999 5.14003Z" />
<path d="M17.25 1.36003C17.166 1.25891 17.0628 1.17534 16.9465 1.11408C16.8302 1.05282 16.7029 1.01508 16.572 1.00301C16.3075 0.978631 16.0442 1.06029 15.84 1.23003C15.6358 1.39977 15.5074 1.64368 15.483 1.90811C15.4586 2.17253 15.5403 2.43581 15.71 2.64003C17.186 4.43089 17.9931 6.67933 17.9931 9.00003C17.9931 11.3207 17.186 13.5692 15.71 15.36C15.6258 15.4611 15.5624 15.5777 15.5233 15.7034C15.4843 15.829 15.4704 15.961 15.4825 16.092C15.4946 16.223 15.5324 16.3503 15.5937 16.4666C15.6551 16.583 15.7388 16.6861 15.84 16.77C16.0199 16.9191 16.2464 17.0005 16.48 17C16.6269 17.0003 16.7721 16.9681 16.9052 16.9059C17.0383 16.8437 17.156 16.7529 17.25 16.64C19.0253 14.4898 19.9964 11.7884 19.9964 9.00003C19.9964 6.21163 19.0253 3.51027 17.25 1.36003Z" />
</svg>
