<svg width="32" height="33" viewBox="0 0 32 33" fill="none" xmlns="http://www.w3.org/2000/svg">
<path d="M19.3891 16.7011L18.5098 11.0028H12.4902L11.6109 16.7011H19.3891ZM28.7116 16.7011L25.9498 11.0028H19.096L21.08 16.7011H28.7116ZM2.28836 16.7011H9.90873L11.8927 11.0028H5.03891L2.28836 16.7011ZM21.0913 17.6173V17.6285V17.6397V17.6508L15.5 32.4888L28.7229 17.6285V17.6173H21.0913ZM9.89745 17.6508V17.6397V17.6285H2.28836V17.6397L15.5113 32.5L9.89745 17.6508ZM19.3891 17.6173H11.5996V17.6397L15.5 32.4777L19.4004 17.6397L19.3891 17.6173ZM22.816 0.891062L19.7498 8.07541L21.2491 8.22067L22.816 0.891062ZM31 2.27653L24.6647 8.77933L26.0513 9.13687L31 2.27653ZM7.33854 8.64524L0 2.46648L6.01964 9.05866L7.33854 8.64524ZM11.8364 8.09777L8.77018 0.913402L10.3371 8.24301L11.8364 8.09777ZM15.6691 0.5L14.9025 7.8743H16.4244L15.6691 0.5Z" fill="white"/>
</svg>
