<svg width="16" height="15" viewBox="0 0 16 15" fill="none" xmlns="http://www.w3.org/2000/svg">
<path d="M7.80979 1.08541C7.86966 0.901147 8.13034 0.901148 8.19021 1.08541L9.75121 5.88967C9.77798 5.97207 9.85478 6.02786 9.94142 6.02786H14.9929C15.1867 6.02786 15.2672 6.27579 15.1105 6.38967L11.0237 9.35886C10.9536 9.40979 10.9243 9.50006 10.9511 9.58247L12.5121 14.3867C12.5719 14.571 12.361 14.7242 12.2043 14.6103L8.11756 11.6411C8.04746 11.5902 7.95254 11.5902 7.88244 11.6411L3.7957 14.6103C3.63895 14.7242 3.42806 14.571 3.48793 14.3867L5.04893 9.58247C5.0757 9.50006 5.04637 9.40979 4.97627 9.35886L0.889527 6.38967C0.732784 6.27579 0.81334 6.02786 1.00708 6.02786H6.05858C6.14523 6.02786 6.22202 5.97207 6.24879 5.88967L7.80979 1.08541Z" fill="white"/>
</svg>
