<svg width="40" height="26" viewBox="0 0 40 26" fill="none" xmlns="http://www.w3.org/2000/svg">
<g clip-path="url(#clip0_792_13473)">
<path d="M0.4375 3.23685C0.4375 1.44919 1.88558 0 3.67188 0H36.0156C37.8019 0 39.25 1.44919 39.25 3.23685V22.6579C39.25 24.4456 37.8019 25.8948 36.0156 25.8948H3.67188C1.88558 25.8948 0.4375 24.4456 0.4375 22.6579V3.23685Z" fill="white"/>
<path d="M9.14672 9.32007C8.74132 9.04116 8.21231 8.90137 7.55968 8.90137H5.03306C4.83299 8.90137 4.72246 9.0015 4.70146 9.20158L3.6751 15.6492C3.66443 15.7126 3.68026 15.7705 3.72245 15.8231C3.76439 15.8759 3.81715 15.9021 3.88033 15.9021H5.08046C5.29095 15.9021 5.40665 15.8022 5.42789 15.6019L5.71209 13.8636C5.72247 13.7794 5.75949 13.7109 5.82267 13.6581C5.88581 13.6055 5.96477 13.571 6.05952 13.5553C6.15427 13.5397 6.24361 13.5317 6.32799 13.5317C6.41212 13.5317 6.51208 13.5371 6.62807 13.5476C6.74376 13.5581 6.81752 13.5632 6.84913 13.5632C7.75444 13.5632 8.46504 13.3079 8.98097 12.7968C9.49666 12.2859 9.7548 11.5775 9.7548 10.6712C9.7548 10.0496 9.55193 9.59927 9.14672 9.31992V9.32007ZM7.84403 11.2561C7.79122 11.6249 7.65453 11.8671 7.43346 11.983C7.21235 12.0991 6.89653 12.1569 6.48601 12.1569L5.96487 12.1726L6.23338 10.4816C6.25433 10.3659 6.32272 10.3079 6.43862 10.3079H6.73874C7.15964 10.3079 7.46512 10.3686 7.65462 10.4896C7.84403 10.6108 7.90721 10.8664 7.84403 11.2561Z" fill="#003087"/>
<path d="M35.8102 8.90137H34.6418C34.5257 8.90137 34.4573 8.95933 34.4365 9.07531L33.41 15.6495L33.3942 15.6811C33.3942 15.7341 33.4152 15.7839 33.4574 15.8313C33.4993 15.8786 33.5522 15.9024 33.6153 15.9024H34.6577C34.8573 15.9024 34.9679 15.8025 34.9893 15.6022L36.0157 9.13854V9.12284C36.0156 8.97527 35.947 8.90156 35.8102 8.90156V8.90137Z" fill="#009CDE"/>
<path d="M21.693 11.4458C21.693 11.3933 21.6718 11.3431 21.63 11.2959C21.5877 11.2485 21.5403 11.2246 21.4878 11.2246H20.2719C20.1559 11.2246 20.0611 11.2776 19.9876 11.3826L18.3137 13.848L17.6189 11.4775C17.566 11.3091 17.4504 11.2246 17.2715 11.2246H16.087C16.0342 11.2246 15.9869 11.2484 15.945 11.2959C15.9028 11.3431 15.8818 11.3934 15.8818 11.4458C15.8818 11.467 15.9845 11.7777 16.1897 12.3783C16.395 12.979 16.616 13.6269 16.8529 14.3223C17.0898 15.0176 17.2135 15.3865 17.224 15.4283C16.3607 16.6085 15.9292 17.2406 15.9292 17.3247C15.9292 17.4618 15.9975 17.5302 16.1345 17.5302H17.3504C17.4662 17.5302 17.5609 17.4777 17.6347 17.3723L21.6616 11.5564C21.6825 11.5355 21.693 11.4988 21.693 11.4458V11.4458Z" fill="#003087"/>
<path d="M33.0154 11.2246H31.8152C31.6677 11.2246 31.5785 11.3985 31.5469 11.7463C31.2729 11.325 30.7732 11.114 30.0466 11.114C29.2887 11.114 28.6438 11.3985 28.1122 11.9675C27.5805 12.5364 27.3148 13.2056 27.3148 13.9746C27.3148 14.5963 27.4964 15.0915 27.8595 15.4601C28.2227 15.8291 28.7095 16.0132 29.3204 16.0132C29.6256 16.0132 29.9362 15.9499 30.252 15.8236C30.5678 15.6972 30.815 15.5287 30.9943 15.3179C30.9943 15.3284 30.9835 15.3757 30.9627 15.4599C30.9414 15.5444 30.931 15.6078 30.931 15.6496C30.931 15.8184 30.9993 15.9024 31.1364 15.9024H32.226C32.4258 15.9024 32.5418 15.8025 32.5732 15.6022L33.2208 11.4775C33.2312 11.4142 33.2154 11.3564 33.1734 11.3036C33.1311 11.2511 33.0785 11.2246 33.0154 11.2246ZM30.9547 14.3381C30.6862 14.6015 30.3625 14.7331 29.9835 14.7331C29.6781 14.7331 29.4309 14.6489 29.2413 14.4803C29.0517 14.3121 28.957 14.0803 28.957 13.7849C28.957 13.3954 29.0886 13.0659 29.3519 12.7972C29.6147 12.5286 29.9414 12.3943 30.3309 12.3943C30.6254 12.3943 30.8702 12.4812 31.0652 12.6549C31.2597 12.8288 31.3574 13.0685 31.3574 13.3741C31.3573 13.7534 31.2231 14.0748 30.9547 14.3381Z" fill="#009CDE"/>
<path d="M15.0763 11.2246H13.8761C13.7285 11.2246 13.6392 11.3985 13.6076 11.7463C13.3233 11.325 12.8232 11.114 12.1074 11.114C11.3494 11.114 10.7045 11.3985 10.1729 11.9675C9.6412 12.5364 9.37549 13.2056 9.37549 13.9746C9.37549 14.5963 9.55712 15.0915 9.92033 15.4601C10.2835 15.8291 10.7703 16.0132 11.381 16.0132C11.6756 16.0132 11.9811 15.9499 12.2969 15.8236C12.6127 15.6972 12.8654 15.5287 13.0549 15.3179C13.0126 15.4442 12.9917 15.5549 12.9917 15.6496C12.9917 15.8184 13.0601 15.9024 13.197 15.9024H14.2865C14.4864 15.9024 14.6024 15.8025 14.634 15.6022L15.2814 11.4775C15.2918 11.4142 15.276 11.3564 15.234 11.3036C15.1919 11.2511 15.1393 11.2246 15.0763 11.2246ZM13.0155 14.3459C12.747 14.6043 12.4178 14.7331 12.0286 14.7331C11.7231 14.7331 11.4783 14.6489 11.2942 14.4803C11.1099 14.3121 11.0178 14.0803 11.0178 13.7849C11.0178 13.3954 11.1494 13.0659 11.4127 12.7972C11.6757 12.5286 12.0021 12.3942 12.3917 12.3942C12.6863 12.3942 12.9311 12.4812 13.1261 12.6549C13.3207 12.8288 13.4182 13.0685 13.4182 13.3741C13.4181 13.764 13.2839 14.088 13.0155 14.3459Z" fill="#003087"/>
<path d="M27.0858 9.32007C26.6804 9.04116 26.1515 8.90137 25.4988 8.90137H22.9879C22.7773 8.90137 22.6614 9.0015 22.6405 9.20158L21.6141 15.6493C21.6034 15.7126 21.6192 15.7705 21.6615 15.8231C21.7032 15.8759 21.7561 15.9021 21.8193 15.9021H23.1141C23.2404 15.9021 23.3246 15.8337 23.3668 15.6967L23.6511 13.8636C23.6616 13.7794 23.6984 13.7109 23.7617 13.6581C23.8249 13.6055 23.9037 13.5711 23.9986 13.5553C24.0932 13.5397 24.1826 13.5317 24.267 13.5317C24.3512 13.5317 24.4511 13.5371 24.567 13.5476C24.6827 13.5581 24.7567 13.5632 24.788 13.5632C25.6935 13.5632 26.404 13.3079 26.9199 12.7968C27.4358 12.2859 27.6937 11.5775 27.6937 10.6712C27.6937 10.0496 27.491 9.59922 27.0858 9.31992V9.32007ZM25.4672 11.9198C25.2356 12.0778 24.8881 12.1567 24.425 12.1567L23.9196 12.1726L24.1881 10.4815C24.2089 10.3658 24.2774 10.3077 24.3933 10.3077H24.6775C24.9091 10.3077 25.0933 10.3183 25.2304 10.3393C25.367 10.3605 25.4988 10.4262 25.6251 10.5368C25.7515 10.6475 25.8146 10.8082 25.8146 11.0188C25.8146 11.4615 25.6987 11.7616 25.4672 11.9198Z" fill="#009CDE"/>
</g>
<defs>
<clipPath id="clip0_792_13473">
<rect width="38.8125" height="25.8948" fill="white" transform="translate(0.4375)"/>
</clipPath>
</defs>
</svg>
