<svg width="39" height="26" viewBox="0 0 39 26" fill="none" xmlns="http://www.w3.org/2000/svg">
<g clip-path="url(#clip0_792_13470)">
<path d="M0 3.23685C0 1.44918 1.44808 0 3.23438 0H35.5781C37.3644 0 38.8125 1.44918 38.8125 3.23685V22.6579C38.8125 24.4456 37.3644 25.8948 35.5781 25.8948H3.23438C1.44808 25.8948 0 24.4456 0 22.6579V3.23685Z" fill="white"/>
<path d="M33.4029 8.12036H31.3696C30.7549 8.12036 30.282 8.30965 29.9983 8.92484L26.1208 17.7741H28.8634C28.8634 17.7741 29.3363 16.5911 29.4309 16.3071C29.7146 16.3071 32.4099 16.3071 32.7882 16.3071C32.8828 16.6384 33.1192 17.7268 33.1192 17.7268H35.5781L33.4029 8.12036ZM30.1875 14.3196C30.4239 13.7517 31.2278 11.6222 31.2278 11.6222C31.2278 11.6695 31.4642 11.0543 31.5588 10.7231L31.7479 11.5749C31.7479 11.5749 32.2681 13.8937 32.3626 14.3669H30.1875V14.3196Z" fill="#3362AB"/>
<path d="M26.31 14.6036C26.31 16.5912 24.5131 17.9162 21.7232 17.9162C20.5411 17.9162 19.4062 17.6796 18.7915 17.3957L19.1698 15.2188L19.5008 15.3608C20.3519 15.7394 20.9194 15.8813 21.9597 15.8813C22.7163 15.8813 23.5201 15.5974 23.5201 14.9349C23.5201 14.509 23.1891 14.2251 22.1488 13.7518C21.1558 13.2786 19.8318 12.5215 19.8318 11.1491C19.8318 9.25622 21.676 7.97852 24.2767 7.97852C25.2697 7.97852 26.1209 8.1678 26.641 8.40442L26.2627 10.4866L26.0736 10.2973C25.6007 10.108 24.986 9.91873 24.0876 9.91873C23.0945 9.96605 22.6217 10.392 22.6217 10.7705C22.6217 11.1964 23.1891 11.5277 24.0876 11.9536C25.6007 12.6634 26.31 13.4679 26.31 14.6036Z" fill="#3362AB"/>
<path d="M3.23438 8.21517L3.28166 8.02588H7.34827C7.91571 8.02588 8.34129 8.21517 8.48314 8.83036L9.38158 13.0894C8.48314 10.8179 6.40255 8.97232 3.23438 8.21517Z" fill="#F9B50B"/>
<path d="M15.1032 8.12056L10.9893 17.727H8.19939L5.83508 9.6822C7.53739 10.7706 8.95597 12.4742 9.47612 13.6573L9.75984 14.651L12.3133 8.07324H15.1032V8.12056Z" fill="#3362AB"/>
<path d="M16.1908 8.07324H18.7915L17.1365 17.727H14.5358L16.1908 8.07324Z" fill="#3362AB"/>
</g>
<defs>
<clipPath id="clip0_792_13470">
<rect width="38.8125" height="25.8948" fill="white"/>
</clipPath>
</defs>
</svg>
