<svg width="40" height="26" viewBox="0 0 40 26" fill="none" xmlns="http://www.w3.org/2000/svg">
<g clip-path="url(#clip0_792_13472)">
<path d="M0.625 3.23685C0.625 1.44918 2.07308 0 3.85938 0H36.2031C37.9894 0 39.4375 1.44918 39.4375 3.23685V22.6579C39.4375 24.4456 37.9894 25.8948 36.2031 25.8948H3.85938C2.07308 25.8948 0.625 24.4456 0.625 22.6579V3.23685Z" fill="white"/>
<path d="M23.7348 12.9328C23.7378 12.2371 23.4771 11.5404 22.9526 11.0154C22.4269 10.4893 21.729 10.2287 21.0324 10.2329C21.0291 10.2329 21.0258 10.2327 21.0224 10.2327C19.5097 10.2327 18.3098 11.4332 18.3098 12.9474C18.3098 14.4467 19.5245 15.662 21.0224 15.662C22.5355 15.662 23.7352 14.4613 23.7352 12.9474C23.7352 12.9424 23.7348 12.9377 23.7348 12.9328Z" fill="#F26E21"/>
<path d="M17.8055 14.0958C17.4001 14.502 17.0259 14.6607 16.6228 14.6693C15.6409 14.6605 14.919 13.9327 14.919 12.8952C14.919 12.3729 15.1166 11.9448 15.4296 11.5792C15.7231 11.3003 16.1013 11.1201 16.5362 11.1201C17.0056 11.1201 17.3709 11.2767 17.788 11.6943V10.4936C17.371 10.2849 17.0055 10.1804 16.5362 10.1804C15.873 10.2279 15.2478 10.496 14.7682 10.917C14.63 11.0415 14.4975 11.1789 14.3852 11.3362C14.0349 11.7906 13.8231 12.347 13.8231 12.9476C13.8231 14.4614 15.0233 15.6099 16.5361 15.6099C16.5435 15.6099 16.5507 15.6092 16.5579 15.6091C16.5681 15.6093 16.5781 15.6099 16.5882 15.6099C17.0055 15.6099 17.3709 15.5057 17.8404 15.2968L17.8055 14.0958C17.7879 14.1134 17.823 14.1298 17.8055 14.1465V14.0958Z" fill="#0B280C"/>
<path d="M27.1598 10.928L25.9784 13.8348L24.6219 10.3889H23.5266L25.6653 15.6618H26.2392L28.4823 10.3889H27.387L27.1598 10.928Z" fill="#0B280C"/>
<path d="M28.8998 12.6861V15.5055H31.7169H31.7689V14.6698H30.8821H29.9431V13.7303V13.2606H31.7169V12.3728H29.9431V11.2766H31.7689V10.3889H28.8998V12.6861Z" fill="#0B280C"/>
<path d="M5.32033 10.3889H3.85938V15.5055H5.32025C6.10263 15.5055 6.67638 15.2964 7.14588 14.931C7.71963 14.4611 8.08496 13.7304 8.08496 12.9474C8.08503 11.433 6.98933 10.3889 5.32033 10.3889ZM6.52005 14.2525C6.20702 14.5134 5.78968 14.6698 5.16363 14.6698H4.85061V11.2765H5.1114C5.73745 11.2765 6.15479 11.3809 6.46789 11.694C6.833 12.0071 7.04178 12.4772 7.04178 12.9472C7.09394 13.4171 6.8853 13.9389 6.52005 14.2525Z" fill="#0B280C"/>
<path d="M9.54597 10.3884H8.55481V15.5048H9.54597V10.3884Z" fill="#0B280C"/>
<path d="M12.0497 12.373C11.4238 12.1642 11.2671 12.0074 11.2671 11.7465C11.2671 11.4333 11.5802 11.1723 11.9975 11.1723C12.3105 11.1723 12.5713 11.2767 12.8322 11.59L13.354 10.9113C12.9365 10.5457 12.4151 10.3372 11.8412 10.3372C10.9541 10.3372 10.2238 10.9637 10.2238 11.7987C10.2238 12.5298 10.5371 12.843 11.4759 13.2084C11.8933 13.3648 12.0498 13.4172 12.1544 13.5216C12.3626 13.6259 12.4672 13.8349 12.4672 14.0435C12.4672 14.4612 12.1544 14.7745 11.6846 14.7745C11.2146 14.7745 10.7976 14.5135 10.5889 14.0958L9.96289 14.7223C10.4326 15.401 11.0064 15.7142 11.7368 15.7142C12.78 15.7142 13.51 15.0355 13.51 14.0435C13.5102 13.1562 13.1975 12.7907 12.0497 12.373Z" fill="#0B280C"/>
<path d="M34.5862 13.3647C35.3684 13.2083 35.7859 12.686 35.7859 11.9031C35.7859 10.9635 35.1076 10.3889 33.9601 10.3889H32.4471V15.5055H33.4383V13.4691H33.595L35.0031 15.5055H36.2031L34.5862 13.3647ZM33.7512 12.7381H33.4384V11.1721H33.7512C34.3772 11.1721 34.7426 11.433 34.7426 11.9555C34.7426 12.4773 34.3773 12.7381 33.7512 12.7381Z" fill="#0B280C"/>
</g>
<defs>
<clipPath id="clip0_792_13472">
<rect width="38.8125" height="25.8948" fill="white" transform="translate(0.625)"/>
</clipPath>
</defs>
</svg>
