<svg width="40" height="26" viewBox="0 0 40 26" fill="none" xmlns="http://www.w3.org/2000/svg">
<g clip-path="url(#clip0_792_13471)">
<path d="M0.8125 3.23685C0.8125 1.44919 2.26058 0 4.04688 0H36.3906C38.1769 0 39.625 1.44919 39.625 3.23685V22.6579C39.625 24.4456 38.1769 25.8948 36.3906 25.8948H4.04688C2.26058 25.8948 0.8125 24.4456 0.8125 22.6579V3.23685Z" fill="white"/>
<path d="M24.463 20.5829H15.9735V5.31421H24.463V20.5829Z" fill="#6C6BBD"/>
<path d="M16.5173 12.9474C16.5173 9.8501 17.9664 7.0911 20.223 5.31309C18.5728 4.01292 16.4902 3.23689 14.2268 3.23689C8.86845 3.23689 4.5249 7.58437 4.5249 12.9474C4.5249 18.3105 8.86845 22.658 14.2268 22.658C16.4902 22.658 18.5728 21.8819 20.223 20.5818C17.9664 18.8037 16.5173 16.0447 16.5173 12.9474Z" fill="#EB001B"/>
<path d="M35.9125 12.9474C35.9125 18.3105 31.5689 22.658 26.2106 22.658C23.9472 22.658 21.8646 21.8819 20.2137 20.5818C22.471 18.8037 23.9201 16.0447 23.9201 12.9474C23.9201 9.8501 22.471 7.0911 20.2137 5.31309C21.8646 4.01292 23.9472 3.23689 26.2106 3.23689C31.5689 3.23689 35.9125 7.58437 35.9125 12.9474Z" fill="#0099DF"/>
</g>
<defs>
<clipPath id="clip0_792_13471">
<rect width="38.8125" height="25.8948" fill="white" transform="translate(0.8125)"/>
</clipPath>
</defs>
</svg>
