<svg width="36" height="25" viewBox="0 0 36 25" fill="none" xmlns="http://www.w3.org/2000/svg">
<g clip-path="url(#clip0_812_24706)">
<path d="M0 3.5C0 1.84315 1.34315 0.5 3 0.5H33C34.6569 0.5 36 1.84315 36 3.5V21.5C36 23.1569 34.6569 24.5 33 24.5H3C1.34315 24.5 0 23.1569 0 21.5V3.5Z" fill="#EBEBEB"/>
<path d="M21.4352 12.4867C21.438 11.8419 21.1962 11.1962 20.7097 10.7096C20.2221 10.222 19.5747 9.98045 18.9286 9.98433C18.9255 9.98433 18.9225 9.98413 18.9193 9.98413C17.5162 9.98413 16.4033 11.0968 16.4033 12.5002C16.4033 13.8899 17.53 15.0162 18.9193 15.0162C20.3228 15.0162 21.4356 13.9033 21.4356 12.5002C21.4356 12.4956 21.4352 12.4913 21.4352 12.4867Z" fill="#F26E21"/>
<path d="M15.9355 13.5644C15.5594 13.9409 15.2124 14.088 14.8385 14.0959C13.9277 14.0878 13.2581 13.4133 13.2581 12.4517C13.2581 11.9676 13.4414 11.5709 13.7317 11.2319C14.004 10.9735 14.3548 10.8064 14.7581 10.8064C15.1936 10.8064 15.5324 10.9516 15.9192 11.3387V10.2258C15.5325 10.0324 15.1935 9.93555 14.7581 9.93555C14.1431 9.97951 13.5631 10.228 13.1183 10.6183C12.9901 10.7336 12.8672 10.861 12.763 11.0067C12.4381 11.4279 12.2417 11.9436 12.2417 12.5002C12.2417 13.9032 13.355 14.9677 14.7581 14.9677C14.7649 14.9677 14.7717 14.9671 14.7783 14.967C14.7877 14.9672 14.797 14.9677 14.8064 14.9677C15.1934 14.9677 15.5324 14.8712 15.9678 14.6776L15.9355 13.5644C15.9192 13.5808 15.9517 13.596 15.9355 13.6114V13.5644Z" fill="#104C54"/>
<path d="M24.6121 10.6286L23.5163 13.3227L22.2581 10.1289H21.2422L23.2259 15.016H23.7582L25.8388 10.1289H24.8228L24.6121 10.6286Z" fill="#104C54"/>
<path d="M26.2258 12.258V14.8711H28.8388H28.887V14.0966H28.0645H27.1935V13.2258V12.7905H28.8388V11.9676H27.1935V10.9516H28.887V10.1289H26.2258V12.258Z" fill="#104C54"/>
<path d="M4.35508 10.1289H3V14.8711H4.35502C5.0807 14.8711 5.61287 14.6773 6.04835 14.3386C6.58052 13.9031 6.91938 13.2259 6.91938 12.5002C6.91944 11.0966 5.90315 10.1289 4.35508 10.1289ZM5.46787 13.7098C5.17753 13.9516 4.79043 14.0966 4.20975 14.0966H3.9194V10.9516H4.1613C4.74198 10.9516 5.12908 11.0483 5.41949 11.3385C5.75814 11.6287 5.9518 12.0644 5.9518 12.5C6.00017 12.9355 5.80666 13.4192 5.46787 13.7098Z" fill="#104C54"/>
<path d="M8.27456 10.1284H7.35522V14.8704H8.27456V10.1284Z" fill="#104C54"/>
<path d="M10.5968 11.9677C10.0162 11.7741 9.87088 11.6289 9.87088 11.387C9.87088 11.0967 10.1612 10.8548 10.5483 10.8548C10.8387 10.8548 11.0806 10.9516 11.3225 11.242L11.8065 10.613C11.4193 10.2741 10.9356 10.0808 10.4033 10.0808C9.58054 10.0808 8.9031 10.6615 8.9031 11.4354C8.9031 12.113 9.1937 12.4033 10.0645 12.742C10.4516 12.8869 10.5968 12.9355 10.6938 13.0323C10.887 13.1289 10.9839 13.3226 10.9839 13.5159C10.9839 13.9031 10.6938 14.1935 10.258 14.1935C9.82216 14.1935 9.4354 13.9516 9.24182 13.5644L8.66113 14.1451C9.09681 14.7741 9.62905 15.0644 10.3065 15.0644C11.2741 15.0644 11.9512 14.4354 11.9512 13.5159C11.9514 12.6936 11.6613 12.3548 10.5968 11.9677Z" fill="#104C54"/>
<path d="M31.5001 12.8869C32.2257 12.742 32.6129 12.2579 32.6129 11.5323C32.6129 10.6615 31.9838 10.1289 30.9194 10.1289H29.5161V14.8711H30.4355V12.9837H30.5808L31.8869 14.8711H32.9999L31.5001 12.8869ZM30.7257 12.3062H30.4355V10.8548H30.7257C31.3063 10.8548 31.6452 11.0966 31.6452 11.5808C31.6452 12.0645 31.3064 12.3062 30.7257 12.3062Z" fill="#104C54"/>
</g>
<defs>
<clipPath id="clip0_812_24706">
<rect width="36" height="24" fill="white" transform="translate(0 0.5)"/>
</clipPath>
</defs>
</svg>
