<svg width="36" height="25" viewBox="0 0 36 25" fill="none" xmlns="http://www.w3.org/2000/svg">
<g clip-path="url(#clip0_812_24704)">
<path d="M0 3.5C0 1.84315 1.34315 0.5 3 0.5H33C34.6569 0.5 36 1.84315 36 3.5V21.5C36 23.1569 34.6569 24.5 33 24.5H3C1.34315 24.5 0 23.1569 0 21.5V3.5Z" fill="#EBEBEB"/>
<path d="M8.07812 9.13807C7.70209 8.87956 7.21141 8.75 6.60608 8.75H4.26255C4.07698 8.75 3.97445 8.84281 3.95498 9.02824L3.00299 15.0041C2.99309 15.0628 3.00778 15.1165 3.04691 15.1653C3.08581 15.2142 3.13475 15.2385 3.19335 15.2385H4.30651C4.50175 15.2385 4.60907 15.1459 4.62877 14.9603L4.89237 13.3492C4.902 13.2711 4.93634 13.2076 4.99494 13.1587C5.0535 13.1099 5.12674 13.078 5.21463 13.0634C5.30251 13.0489 5.38538 13.0416 5.46364 13.0416C5.54167 13.0416 5.63439 13.0465 5.74197 13.0562C5.84929 13.066 5.91769 13.0707 5.94702 13.0707C6.78673 13.0707 7.44583 12.8341 7.92438 12.3604C8.4027 11.8869 8.64213 11.2303 8.64213 10.3903C8.64213 9.81422 8.45396 9.39683 8.07812 9.13793V9.13807ZM6.86982 10.9324C6.82084 11.2743 6.69405 11.4987 6.489 11.6062C6.28391 11.7138 5.99098 11.7673 5.61021 11.7673L5.12683 11.7819L5.37589 10.2146C5.39532 10.1073 5.45876 10.0536 5.56625 10.0536H5.84463C6.23502 10.0536 6.51837 10.1099 6.69414 10.222C6.86982 10.3344 6.92842 10.5712 6.86982 10.9324Z" fill="#003087"/>
<path d="M32.8093 8.75H31.7256C31.6179 8.75 31.5545 8.80372 31.5351 8.91122L30.583 15.0044L30.5684 15.0337C30.5684 15.0827 30.5879 15.1289 30.6271 15.1729C30.6659 15.2167 30.7149 15.2387 30.7735 15.2387H31.7403C31.9255 15.2387 32.0281 15.1461 32.0479 14.9605L32.9999 8.96982V8.95527C32.9999 8.8185 32.9362 8.75018 32.8093 8.75018V8.75Z" fill="#009CDE"/>
<path d="M19.7152 11.1084C19.7152 11.0597 19.6956 11.0132 19.6568 10.9694C19.6176 10.9254 19.5737 10.9033 19.5249 10.9033H18.3971C18.2895 10.9033 18.2016 10.9524 18.1334 11.0498L16.5809 13.3348L15.9364 11.1377C15.8873 10.9816 15.78 10.9033 15.6142 10.9033H14.5155C14.4665 10.9033 14.4226 10.9253 14.3838 10.9694C14.3446 11.0132 14.3252 11.0597 14.3252 11.1084C14.3252 11.128 14.4204 11.416 14.6108 11.9726C14.8011 12.5293 15.0062 13.1299 15.2259 13.7744C15.4457 14.4187 15.5603 14.7607 15.5701 14.7994C14.7694 15.8932 14.3692 16.4791 14.3692 16.5571C14.3692 16.6841 14.4325 16.7475 14.5596 16.7475H15.6874C15.7947 16.7475 15.8826 16.6988 15.9511 16.6011L19.6861 11.2108C19.7055 11.1915 19.7152 11.1575 19.7152 11.1083V11.1084Z" fill="#003087"/>
<path d="M30.2172 10.9033H29.104C28.9671 10.9033 28.8844 11.0645 28.8551 11.3868C28.6009 10.9963 28.1374 10.8008 27.4635 10.8008C26.7605 10.8008 26.1623 11.0645 25.6693 11.5918C25.1761 12.1191 24.9297 12.7393 24.9297 13.4521C24.9297 14.0283 25.0981 14.4872 25.4349 14.8288C25.7718 15.1708 26.2233 15.3415 26.7899 15.3415C27.073 15.3415 27.3611 15.2828 27.654 15.1657C27.9469 15.0486 28.1762 14.8924 28.3425 14.697C28.3425 14.7068 28.3325 14.7506 28.3132 14.8287C28.2935 14.907 28.2839 14.9657 28.2839 15.0045C28.2839 15.1609 28.3472 15.2388 28.4743 15.2388H29.485C29.6703 15.2388 29.7779 15.1462 29.8071 14.9605L30.4077 11.1376C30.4173 11.079 30.4027 11.0254 30.3637 10.9765C30.3245 10.9278 30.2757 10.9033 30.2172 10.9033ZM28.3058 13.7889C28.0568 14.033 27.7565 14.155 27.405 14.155C27.1217 14.155 26.8924 14.0771 26.7166 13.9207C26.5407 13.7648 26.4528 13.55 26.4528 13.2763C26.4528 12.9152 26.5749 12.6098 26.8191 12.3608C27.0629 12.1118 27.3659 11.9874 27.7272 11.9874C28.0004 11.9874 28.2275 12.0679 28.4083 12.2289C28.5887 12.3901 28.6794 12.6123 28.6794 12.8955C28.6793 13.247 28.5548 13.5449 28.3058 13.7889Z" fill="#009CDE"/>
<path d="M13.5779 10.9033H12.4647C12.3278 10.9033 12.245 11.0645 12.2157 11.3868C11.952 10.9963 11.4882 10.8008 10.8242 10.8008C10.1211 10.8008 9.52297 11.0645 9.02992 11.5918C8.53674 12.1191 8.29028 12.7393 8.29028 13.4521C8.29028 14.0283 8.45875 14.4872 8.79564 14.8288C9.13254 15.1708 9.58404 15.3415 10.1505 15.3415C10.4237 15.3415 10.7071 15.2828 11 15.1657C11.2929 15.0486 11.5273 14.8924 11.703 14.697C11.6639 14.8141 11.6444 14.9167 11.6444 15.0045C11.6444 15.1609 11.7079 15.2388 11.8348 15.2388H12.8455C13.0309 15.2388 13.1384 15.1462 13.1677 14.9605L13.7682 11.1376C13.7778 11.079 13.7632 11.0254 13.7243 10.9765C13.6852 10.9278 13.6365 10.9033 13.5779 10.9033ZM11.6665 13.7962C11.4174 14.0357 11.1122 14.155 10.7511 14.155C10.4677 14.155 10.2407 14.0771 10.07 13.9207C9.89899 13.7648 9.81362 13.55 9.81362 13.2763C9.81362 12.9152 9.93562 12.6098 10.1798 12.3608C10.4238 12.1118 10.7265 11.9873 11.0879 11.9873C11.3612 11.9873 11.5882 12.0679 11.7691 12.2289C11.9496 12.3901 12.04 12.6123 12.04 12.8955C12.04 13.2568 11.9155 13.5572 11.6665 13.7962Z" fill="#003087"/>
<path d="M24.7173 9.13807C24.3414 8.87956 23.8508 8.75 23.2454 8.75H20.9164C20.7211 8.75 20.6136 8.84281 20.5942 9.02824L19.6421 15.0041C19.6323 15.0628 19.6469 15.1165 19.6861 15.1653C19.7248 15.2142 19.7739 15.2385 19.8325 15.2385H21.0335C21.1507 15.2385 21.2287 15.1751 21.2679 15.0481L21.5316 13.3492C21.5413 13.2711 21.5754 13.2076 21.6341 13.1587C21.6927 13.1099 21.7659 13.078 21.8539 13.0634C21.9417 13.0489 22.0245 13.0416 22.1028 13.0416C22.1809 13.0416 22.2736 13.0465 22.3811 13.0562C22.4884 13.066 22.557 13.0707 22.5861 13.0707C23.426 13.0707 24.085 12.8341 24.5635 12.3604C25.042 11.8869 25.2812 11.2303 25.2812 10.3903C25.2813 9.81422 25.0932 9.39679 24.7173 9.13793V9.13807ZM23.2161 11.5475C23.0012 11.694 22.6789 11.7672 22.2494 11.7672L21.7806 11.7819L22.0296 10.2146C22.049 10.1073 22.1125 10.0535 22.22 10.0535H22.4836C22.6984 10.0535 22.8693 10.0633 22.9964 10.0828C23.1231 10.1024 23.2454 10.1633 23.3625 10.2658C23.4798 10.3683 23.5383 10.5173 23.5383 10.7125C23.5383 11.1228 23.4308 11.401 23.2161 11.5475Z" fill="#009CDE"/>
</g>
<defs>
<clipPath id="clip0_812_24704">
<rect width="36" height="24" fill="white" transform="translate(0 0.5)"/>
</clipPath>
</defs>
</svg>
