<svg width="36" height="25" viewBox="0 0 36 25" fill="none" xmlns="http://www.w3.org/2000/svg">
<g clip-path="url(#clip0_812_24705)">
<path d="M0 3.5C0 1.84315 1.34315 0.5 3 0.5H33C34.6569 0.5 36 1.84315 36 3.5V21.5C36 23.1569 34.6569 24.5 33 24.5H3C1.34315 24.5 0 23.1569 0 21.5V3.5Z" fill="#EBEBEB"/>
<path d="M21.9365 19.577H14.0623V5.42554H21.9365V19.577Z" fill="#6C6BBD"/>
<path d="M14.5668 12.5C14.5668 9.62932 15.9108 7.07219 18.0039 5.42428C16.4733 4.21924 14.5416 3.5 12.4422 3.5C7.47216 3.5 3.44336 7.52937 3.44336 12.5C3.44336 17.4706 7.47216 21.5 12.4422 21.5C14.5416 21.5 16.4733 20.7808 18.0039 19.5757C15.9108 17.9278 14.5668 15.3707 14.5668 12.5Z" fill="#EB001B"/>
<path d="M32.5565 12.5C32.5565 17.4706 28.5277 21.5 23.5576 21.5C21.4583 21.5 19.5265 20.7808 17.9954 19.5757C20.089 17.9278 21.4331 15.3707 21.4331 12.5C21.4331 9.62932 20.089 7.07219 17.9954 5.42428C19.5265 4.21924 21.4583 3.5 23.5576 3.5C28.5277 3.5 32.5565 7.52937 32.5565 12.5Z" fill="#0099DF"/>
</g>
<defs>
<clipPath id="clip0_812_24705">
<rect width="36" height="24" fill="white" transform="translate(0 0.5)"/>
</clipPath>
</defs>
</svg>
