<svg width="47" height="48" viewBox="0 0 47 48" fill="none" xmlns="http://www.w3.org/2000/svg">
<circle cx="23.5" cy="24" r="23" stroke="#C4C4C4"/>
<path d="M16.2656 18.1016V29.5H14.0156V20.6953L11.3125 21.5547V19.7812L16.0234 18.1016H16.2656ZM27.6328 26.3828C27.6328 27.0964 27.4661 27.6979 27.1328 28.1875C26.7995 28.6719 26.3411 29.0391 25.7578 29.2891C25.1797 29.5339 24.5234 29.6562 23.7891 29.6562C23.0547 29.6562 22.3958 29.5339 21.8125 29.2891C21.2292 29.0391 20.7682 28.6719 20.4297 28.1875C20.0911 27.6979 19.9219 27.0964 19.9219 26.3828C19.9219 25.9036 20.0182 25.4714 20.2109 25.0859C20.4036 24.6953 20.6719 24.362 21.0156 24.0859C21.3646 23.8047 21.7734 23.5911 22.2422 23.4453C22.7109 23.2943 23.2214 23.2188 23.7734 23.2188C24.513 23.2188 25.1745 23.349 25.7578 23.6094C26.3411 23.8698 26.7995 24.237 27.1328 24.7109C27.4661 25.1849 27.6328 25.7422 27.6328 26.3828ZM25.3672 26.2344C25.3672 25.8854 25.2995 25.5859 25.1641 25.3359C25.0339 25.0807 24.849 24.8854 24.6094 24.75C24.3698 24.6146 24.0911 24.5469 23.7734 24.5469C23.4557 24.5469 23.1771 24.6146 22.9375 24.75C22.6979 24.8854 22.5104 25.0807 22.375 25.3359C22.2448 25.5859 22.1797 25.8854 22.1797 26.2344C22.1797 26.5781 22.2448 26.875 22.375 27.125C22.5104 27.375 22.6979 27.5677 22.9375 27.7031C23.1823 27.8333 23.4661 27.8984 23.7891 27.8984C24.112 27.8984 24.3906 27.8333 24.625 27.7031C24.8646 27.5677 25.0469 27.375 25.1719 27.125C25.3021 26.875 25.3672 26.5781 25.3672 26.2344ZM27.3906 21.1406C27.3906 21.7188 27.237 22.2318 26.9297 22.6797C26.6224 23.1224 26.1953 23.4688 25.6484 23.7188C25.1068 23.9688 24.487 24.0938 23.7891 24.0938C23.0859 24.0938 22.4609 23.9688 21.9141 23.7188C21.3672 23.4688 20.9401 23.1224 20.6328 22.6797C20.3255 22.2318 20.1719 21.7188 20.1719 21.1406C20.1719 20.4531 20.3255 19.875 20.6328 19.4062C20.9453 18.9323 21.3724 18.5729 21.9141 18.3281C22.4609 18.0833 23.0807 17.9609 23.7734 17.9609C24.4766 17.9609 25.099 18.0833 25.6406 18.3281C26.1875 18.5729 26.6146 18.9323 26.9219 19.4062C27.2344 19.875 27.3906 20.4531 27.3906 21.1406ZM25.1406 21.2422C25.1406 20.9349 25.0859 20.6693 24.9766 20.4453C24.8672 20.2161 24.7109 20.0391 24.5078 19.9141C24.3099 19.7891 24.0651 19.7266 23.7734 19.7266C23.4922 19.7266 23.25 19.7865 23.0469 19.9062C22.849 20.026 22.6953 20.2005 22.5859 20.4297C22.4818 20.6536 22.4297 20.9245 22.4297 21.2422C22.4297 21.5495 22.4818 21.8203 22.5859 22.0547C22.6953 22.2839 22.8516 22.4635 23.0547 22.5938C23.2578 22.724 23.5026 22.7891 23.7891 22.7891C24.0755 22.7891 24.3177 22.724 24.5156 22.5938C24.7188 22.4635 24.8724 22.2839 24.9766 22.0547C25.0859 21.8203 25.1406 21.5495 25.1406 21.2422ZM36.6094 23.1641V25.125H28.8125V23.1641H36.6094ZM33.7812 20.0781V28.3594H31.6484V20.0781H33.7812Z" fill="#104C54"/>
</svg>
