<svg width="96" height="43" viewBox="0 0 96 43" fill="none" xmlns="http://www.w3.org/2000/svg">
<g clip-path="url(#clip0_812_24707)">
<path d="M81 26.5H84L82.4783 20.5L81 26.5Z" fill="#104C54"/>
<path d="M23.2632 19.5H22V27.5H23.2632C24.3158 27.5 25.1053 27.4075 25.5789 27.1763C26.0526 26.9451 26.3684 26.6214 26.6316 26.0665C26.8947 25.5578 27 24.6792 27 23.5231C27 21.9509 26.7368 20.8873 26.1579 20.3324C25.5789 19.7775 24.6316 19.5 23.2632 19.5Z" fill="#104C54"/>
<path d="M91.1783 6.5H9.59518C11.0899 7.71457 12.0542 9.56073 12.1025 11.9413H9.11301C9.01657 9.17206 6.99146 6.98583 4.5324 6.98583C2.2662 6.98583 0.337519 8.88057 0 11.4069V13.5445H13.3561C14.1758 13.5445 14.8026 14.1761 14.8026 15.002V32.9292C14.8026 33.7065 14.1758 34.3866 13.3561 34.3866H0.048217V37.6417C0.048217 40.3138 2.21798 42.5 4.86991 42.5H91.1783C93.8302 42.5 96 40.3138 96 37.6417V11.3097C96 8.68623 93.8302 6.5 91.1783 6.5ZM30.4249 27.8279C30.0392 28.751 29.557 29.4798 28.882 30.1113C28.2069 30.7429 27.5319 31.1316 26.7604 31.3259C25.7479 31.6174 24.7835 31.7632 23.9638 31.7632H16.9242V16.3623H23.9638C25.3621 16.3623 26.4711 16.5567 27.339 16.9453C28.2069 17.334 28.882 17.8684 29.4606 18.5972C30.0392 19.3259 30.4249 20.1032 30.666 21.0749C30.9071 21.998 31.0517 23.0182 31.0517 24.0385C31.0035 25.6417 30.8106 26.9534 30.4249 27.8279ZM49.5188 31.7632H45.6615V20.0061L42.672 31.7632H39.1522L36.2109 20.0061V31.7632H32.3536V16.3623H38.5736L40.9844 25.7389L43.3471 16.3623H49.567V31.7632H49.5188ZM69.0467 34.4838C67.2145 35.5526 65.1894 36.087 63.0678 36.087C60.9463 36.087 58.9211 35.5526 57.0889 34.4838C55.2567 33.415 53.7619 31.9575 52.7012 30.0628C51.6404 28.2166 51.11 26.1761 51.11 24.0385C51.11 21.9008 51.6404 19.8603 52.7012 18.0142C53.7619 16.1194 55.2567 14.6619 57.0889 13.5931C58.9211 12.5243 60.9463 11.9899 63.0678 11.9899C65.1894 11.9899 67.2145 12.5243 69.0467 13.5931C70.879 14.6619 72.3737 16.1194 73.4345 18.0142C74.4952 19.9089 75.0256 21.9008 75.0256 24.0385C75.0256 26.1761 74.4952 28.2166 73.4345 30.0628C72.3737 31.9089 70.9272 33.415 69.0467 34.4838ZM86.453 31.7632L85.6816 29.2368H80.3295L79.6062 31.7632H74.7845L80.5223 16.3623H85.6816L91.4194 31.7632H86.453Z" fill="#104C54"/>
<path d="M62.5 14.5C59.9005 14.5 57.6318 15.495 55.7886 17.4353C53.9453 19.3756 53 21.7139 53 24.5C53 27.2363 53.9453 29.6244 55.7886 31.5647C57.6318 33.505 59.8532 34.5 62.5 34.5C65.1468 34.5 67.3682 33.505 69.2114 31.5647C71.0547 29.6244 72 27.2861 72 24.5C72 21.7637 71.0547 19.3756 69.2114 17.4353C67.3682 15.495 65.0995 14.5 62.5 14.5ZM66.801 29.8234C65.7139 30.9179 64.296 31.4652 62.5945 31.4652C60.704 31.4652 59.1915 30.8184 57.9627 29.5249C56.7811 28.2313 56.1667 26.5398 56.1667 24.4502C56.1667 22.4602 56.7811 20.8184 58.0099 19.5249C59.2388 18.2313 60.7512 17.5846 62.5945 17.5846C64.0597 17.5846 65.3358 17.9826 66.3284 18.8284C67.3209 19.6741 67.9826 20.7189 68.2662 22.0622L65.2413 22.5597C65.0522 21.6642 64.7214 21.0174 64.2488 20.6194C63.7761 20.2214 63.1617 19.9726 62.4527 19.9726C61.6493 19.9726 60.9876 20.3209 60.4204 21.0672C59.8532 21.7637 59.6169 22.908 59.6169 24.4502C59.6169 25.9925 59.806 27.0871 60.1841 27.7338C60.704 28.6791 61.5075 29.1766 62.5 29.1766C63.1144 29.1766 63.6816 28.9279 64.2015 28.4303C64.7214 27.9328 65.0522 27.1368 65.2886 26.0423L68.4552 26.8383C68.0299 28.0821 67.4627 29.1269 66.801 29.8234Z" fill="#104C54"/>
<path d="M4 0.5H6.41096C6.9589 0.5 7.34247 0.593023 7.61644 0.825581C7.89041 1.05814 8 1.33721 8 1.75581C8 2.17442 7.83562 2.45349 7.56164 2.68605C7.28767 2.91861 6.84932 3.01163 6.24658 3.01163H5.42466V4.5H4V0.5ZM5.47945 2.22093H5.86301C6.13699 2.22093 6.35616 2.17442 6.46575 2.0814C6.57534 1.98837 6.63014 1.89535 6.63014 1.75581C6.63014 1.61628 6.57534 1.52326 6.46575 1.43023C6.35616 1.33721 6.19178 1.2907 5.91781 1.2907H5.47945V2.22093Z" fill="#104C54"/>
<path d="M8 4.5V0.5H10.0706C10.4471 0.5 10.7294 0.546512 10.9647 0.593023C11.2 0.639535 11.3412 0.77907 11.4353 0.965116C11.5294 1.15116 11.6235 1.33721 11.6235 1.61628C11.6235 1.84884 11.5765 2.03488 11.4824 2.17442C11.3882 2.31395 11.2471 2.45349 11.1059 2.54651C11.0118 2.59302 10.8706 2.63954 10.6824 2.68605C10.8235 2.73256 10.9176 2.77907 11.0118 2.82558C11.0588 2.87209 11.1059 2.9186 11.2 3.05814C11.2941 3.15116 11.3412 3.24419 11.3882 3.2907L12 4.45349H10.5882L9.92941 3.24419C9.83529 3.10465 9.78824 2.96512 9.69412 2.91861C9.6 2.87209 9.50588 2.82558 9.36471 2.82558H9.22353V4.45349H8V4.5ZM9.22353 2.12791H9.74118C9.78824 2.12791 9.92941 2.12791 10.0706 2.0814C10.1647 2.0814 10.2118 2.03488 10.2588 1.94186C10.3059 1.84884 10.3529 1.80233 10.3529 1.7093C10.3529 1.56977 10.3059 1.47674 10.2118 1.43023C10.1176 1.38372 9.97647 1.33721 9.74118 1.33721H9.22353V2.12791Z" fill="#104C54"/>
<path d="M13 2.5C13 1.86364 13.1798 1.36364 13.5393 1C13.8989 0.636364 14.3483 0.5 14.9775 0.5C15.6067 0.5 16.1011 0.681818 16.4607 1.04545C16.8202 1.40909 17 1.86364 17 2.5C17 2.95455 16.9101 3.31818 16.7753 3.63636C16.6404 3.95455 16.3708 4.13636 16.1011 4.27273C15.8315 4.40909 15.4719 4.5 15.0225 4.5C14.573 4.5 14.2135 4.40909 13.9438 4.27273C13.6742 4.13636 13.4494 3.95455 13.2697 3.68182C13.0899 3.40909 13 3 13 2.5ZM14.1685 2.54545C14.1685 2.95455 14.2584 3.22727 14.3933 3.40909C14.5281 3.59091 14.7528 3.68182 14.9775 3.68182C15.2472 3.68182 15.427 3.59091 15.5618 3.40909C15.6966 3.22727 15.7865 2.95455 15.7865 2.5C15.7865 2.13636 15.6966 1.86364 15.5618 1.68182C15.427 1.5 15.2472 1.40909 14.9775 1.40909C14.7528 1.40909 14.5281 1.5 14.3933 1.68182C14.2584 1.86364 14.1685 2.13636 14.1685 2.54545Z" fill="#104C54"/>
<path d="M17 0.5H21V1.47674H19.6667V4.5H18.3333V1.52326H17V0.5Z" fill="#104C54"/>
<path d="M22 0.5H24.9583V1.37356H23.0833V2.01724H24.7917V2.84483H23.0833V3.62644H25V4.5H22V0.5Z" fill="#104C54"/>
<path d="M28.8916 2.83708L30 3.15169C29.9036 3.46629 29.8072 3.69101 29.6627 3.87079C29.5181 4.05056 29.2771 4.23034 29.0361 4.32022C28.7952 4.41011 28.506 4.5 28.1205 4.5C27.6867 4.5 27.3012 4.45506 27.012 4.32022C26.7229 4.18539 26.4819 4.00562 26.2892 3.69101C26.0964 3.3764 26 2.97191 26 2.52247C26 1.89326 26.1928 1.39888 26.5301 1.03933C26.9157 0.679775 27.3976 0.5 28.0723 0.5C28.6024 0.5 28.988 0.589888 29.3253 0.814607C29.6627 1.03933 29.8554 1.30899 30 1.71348L28.8916 1.9382C28.8434 1.80337 28.7952 1.71348 28.747 1.66854C28.6988 1.57865 28.6024 1.48876 28.506 1.44382C28.4096 1.39888 28.2651 1.39888 28.1205 1.39888C27.8313 1.39888 27.5904 1.48876 27.4458 1.71348C27.3494 1.89326 27.253 2.11798 27.253 2.47753C27.253 2.92697 27.3012 3.19663 27.4458 3.3764C27.5904 3.55618 27.7831 3.60112 28.0241 3.60112C28.2651 3.60112 28.4578 3.55618 28.6024 3.42135C28.747 3.28652 28.8434 3.10674 28.8916 2.83708Z" fill="#104C54"/>
<path d="M30 0.5H34V1.47674H32.65V4.5H31.3V1.52326H30V0.5Z" fill="#104C54"/>
<path d="M35 0.5H37.9583V1.37356H36.0833V2.01724H37.7917V2.84483H36.0833V3.62644H38V4.5H35V0.5Z" fill="#104C54"/>
<path d="M39 0.5H40.9747C41.3797 0.5 41.6835 0.546512 41.9367 0.639535C42.1899 0.732558 42.3924 0.918605 42.5443 1.10465C42.6962 1.2907 42.7975 1.52326 42.8987 1.75581C43 1.98837 43 2.26744 43 2.54651C43 2.96512 42.9494 3.2907 42.8481 3.52326C42.7468 3.75581 42.5949 3.94186 42.3924 4.0814C42.1899 4.22093 41.9873 4.36047 41.7848 4.40698C41.481 4.5 41.2278 4.5 40.9747 4.5H39V0.5ZM40.3165 1.43023V3.61628H40.6709C40.9747 3.61628 41.1266 3.56977 41.2785 3.52326C41.4304 3.47674 41.481 3.38372 41.5823 3.24419C41.6835 3.10465 41.6835 2.87209 41.6835 2.54651C41.6835 2.12791 41.6329 1.84884 41.481 1.66279C41.3291 1.47674 41.0759 1.43023 40.7215 1.43023H40.3165Z" fill="#104C54"/>
<path d="M48.9247 2.54444L49.7419 2.72222C49.6989 2.85556 49.6559 2.98889 49.6129 3.07778C49.5699 3.16667 49.5269 3.3 49.4409 3.38889L49.828 3.65556C49.871 3.7 49.914 3.74444 50 3.78889L49.4409 4.45556C49.3548 4.41111 49.2258 4.32222 49.1398 4.27778C49.0538 4.23333 48.9247 4.14444 48.8387 4.1C48.6667 4.23333 48.4946 4.32222 48.3226 4.36667C48.0645 4.45556 47.8065 4.5 47.4624 4.5C46.9892 4.5 46.6021 4.41111 46.3441 4.18889C46.086 3.96667 46 3.7 46 3.43333C46 3.21111 46.086 2.98889 46.2151 2.81111C46.3441 2.63333 46.6022 2.45556 46.9032 2.32222C46.7742 2.14444 46.6882 2.01111 46.6452 1.87778C46.6022 1.74444 46.5591 1.61111 46.5591 1.47778C46.5591 1.21111 46.6452 0.988889 46.8602 0.811111C47.0753 0.633333 47.3333 0.5 47.7634 0.5C48.1935 0.5 48.4946 0.588889 48.6667 0.766667C48.8387 0.944444 48.9677 1.12222 48.9677 1.34444C48.9677 1.47778 48.9247 1.61111 48.8817 1.7C48.8387 1.78889 48.7527 1.92222 48.6667 2.01111C48.5806 2.1 48.4516 2.18889 48.2366 2.36667C48.4086 2.54444 48.6237 2.72222 48.7957 2.9C48.8387 2.76667 48.8817 2.63333 48.9247 2.54444ZM47.3763 2.76667C47.2473 2.85556 47.1613 2.94444 47.0753 3.03333C46.9892 3.12222 46.9892 3.16667 46.9892 3.25556C46.9892 3.38889 47.0323 3.47778 47.1613 3.61111C47.2903 3.74444 47.4194 3.74444 47.5914 3.74444C47.7634 3.74444 47.9785 3.65556 48.1935 3.52222C47.9785 3.38889 47.7204 3.12222 47.3763 2.76667ZM47.7204 1.87778C47.8495 1.78889 47.9355 1.7 48.0215 1.65556C48.1075 1.61111 48.1505 1.47778 48.1505 1.38889C48.1505 1.3 48.1075 1.25556 48.0645 1.16667C48.0215 1.07778 47.9355 1.07778 47.8065 1.07778C47.7204 1.07778 47.6344 1.12222 47.5484 1.16667C47.4624 1.21111 47.4624 1.3 47.4624 1.38889C47.4624 1.47778 47.5484 1.65556 47.7204 1.87778Z" fill="#104C54"/>
<path d="M53 0.5H54.8229L55.5 2.8908L56.1771 0.5H58V4.45402H56.8542V1.46552L55.9687 4.5H54.9271L54.1458 1.46552V4.5H53V0.5Z" fill="#104C54"/>
<path d="M58 2.47753C58 1.84831 58.1798 1.35393 58.5393 0.994382C58.8989 0.634831 59.3483 0.5 59.9775 0.5C60.6067 0.5 61.1011 0.679775 61.4607 1.03933C61.8202 1.39888 62 1.84831 62 2.47753C62 2.92697 61.9101 3.28652 61.7753 3.60112C61.6404 3.91573 61.4157 4.09551 61.1011 4.27528C60.7865 4.45506 60.4719 4.5 60.0225 4.5C59.573 4.5 59.2135 4.41011 58.9438 4.27528C58.6742 4.14045 58.4494 3.91573 58.2697 3.64607C58.0899 3.3764 58 2.97191 58 2.47753ZM59.2135 2.52247C59.2135 2.92697 59.3034 3.19663 59.4382 3.3764C59.573 3.55618 59.7978 3.64607 60.0225 3.64607C60.2921 3.64607 60.4719 3.55618 60.6067 3.3764C60.7416 3.19663 60.8315 2.92697 60.8315 2.47753C60.8315 2.11798 60.7416 1.84831 60.6067 1.66854C60.4719 1.48876 60.2472 1.39888 59.9775 1.39888C59.7528 1.39888 59.5281 1.48876 59.3933 1.66854C59.2584 1.84831 59.2135 2.11798 59.2135 2.52247Z" fill="#104C54"/>
<path d="M63 0.5H64.2195L65.7805 2.73256V0.5H67V4.5H65.7805L64.2195 2.31395V4.5H63V0.5Z" fill="#104C54"/>
<path d="M68 0.5H69V4.5H68V0.5Z" fill="#104C54"/>
<path d="M70 0.5H74V1.47674H72.6667V4.5H71.3333V1.52326H70V0.5Z" fill="#104C54"/>
<path d="M74 2.47753C74 1.84831 74.1798 1.35393 74.5393 0.994382C74.8989 0.634831 75.3483 0.5 75.9775 0.5C76.6067 0.5 77.1011 0.679775 77.4607 1.03933C77.8202 1.39888 78 1.84831 78 2.47753C78 2.92697 77.9101 3.28652 77.7753 3.60112C77.6404 3.91573 77.4157 4.09551 77.1011 4.27528C76.7865 4.45506 76.4719 4.5 76.0225 4.5C75.573 4.5 75.2135 4.41011 74.9438 4.27528C74.6742 4.14045 74.4494 3.91573 74.2697 3.60112C74.0899 3.28652 74 2.97191 74 2.47753ZM75.1685 2.52247C75.1685 2.92697 75.2584 3.19663 75.3933 3.3764C75.5281 3.55618 75.7528 3.64607 75.9775 3.64607C76.2472 3.64607 76.427 3.55618 76.5618 3.3764C76.6966 3.19663 76.7865 2.92697 76.7865 2.47753C76.7865 2.11798 76.6966 1.84831 76.5618 1.66854C76.427 1.48876 76.2022 1.39888 75.9775 1.39888C75.7528 1.39888 75.5281 1.48876 75.3933 1.66854C75.2584 1.84831 75.1685 2.11798 75.1685 2.52247Z" fill="#104C54"/>
<path d="M79 4.5V0.5H81.0706C81.4471 0.5 81.7294 0.546512 81.9647 0.593023C82.2 0.639535 82.3412 0.77907 82.4353 0.965116C82.5294 1.15116 82.6235 1.33721 82.6235 1.61628C82.6235 1.84884 82.5765 2.03488 82.4824 2.17442C82.3882 2.31395 82.2471 2.45349 82.1059 2.54651C82.0118 2.59302 81.8706 2.63954 81.6824 2.68605C81.8235 2.73256 81.9176 2.77907 82.0118 2.82558C82.0588 2.87209 82.1059 2.9186 82.2 3.05814C82.2941 3.15116 82.3412 3.24419 82.3882 3.2907L83 4.45349H81.5882L80.9294 3.24419C80.8353 3.10465 80.7882 2.96512 80.6941 2.91861C80.6 2.87209 80.5059 2.82558 80.3647 2.82558H80.2706V4.45349H79V4.5ZM80.2235 2.12791H80.7412C80.7882 2.12791 80.9294 2.12791 81.0706 2.0814C81.1647 2.0814 81.2118 2.03488 81.2588 1.94186C81.3059 1.84884 81.3529 1.80233 81.3529 1.7093C81.3529 1.56977 81.3059 1.47674 81.2118 1.43023C81.1176 1.38372 80.9765 1.33721 80.7412 1.33721H80.1765V2.12791H80.2235Z" fill="#104C54"/>
<path d="M84 0.5H86.9583V1.37356H85.0833V2.01724H86.7917V2.84483H85.0833V3.62644H87V4.5H84V0.5Z" fill="#104C54"/>
<path d="M88 0.5H89.9747C90.3797 0.5 90.6835 0.546512 90.9367 0.639535C91.1899 0.732558 91.3924 0.872093 91.5443 1.05814C91.6962 1.24419 91.7975 1.47674 91.8987 1.7093C92 1.94186 92 2.22093 92 2.5C92 2.9186 91.9494 3.24419 91.8481 3.47674C91.7468 3.7093 91.5949 3.89535 91.3924 4.0814C91.1899 4.26744 90.9873 4.36047 90.7848 4.40698C90.481 4.5 90.2279 4.5 89.9747 4.5H88V0.5ZM89.3165 1.43023V3.61628H89.6709C89.9747 3.61628 90.1266 3.56977 90.2785 3.52326C90.4304 3.47674 90.481 3.38372 90.5823 3.24419C90.6835 3.10465 90.6835 2.87209 90.6835 2.54651C90.6835 2.12791 90.6329 1.84884 90.481 1.66279C90.3291 1.47674 90.076 1.43023 89.7215 1.43023H89.3165Z" fill="#104C54"/>
<path d="M7 29.5L4.89062 23.6366C5.73438 23.2004 6.29688 22.2797 6.29688 21.2137C6.29688 19.7115 5.125 18.5 3.67188 18.5C2.21875 18.5 1.04687 19.7115 1.04687 21.2137C1.04687 22.3767 1.75 23.3458 2.73438 23.7335L1 29.5H7Z" fill="#104C54"/>
</g>
<defs>
<clipPath id="clip0_812_24707">
<rect width="96" height="42" fill="white" transform="translate(0 0.5)"/>
</clipPath>
</defs>
</svg>
