<svg width="32" height="34" viewBox="0 0 32 34" fill="none" xmlns="http://www.w3.org/2000/svg">
<g clip-path="url(#clip0_812_24733)">
<path d="M31.1394 16.6472C31.0339 16.5982 30.8757 16.5491 30.7175 16.5C30.6647 16.5 30.6647 16.5 30.612 16.5H30.5592H30.5065C30.4537 16.5 30.401 16.5 30.3483 16.5H20.8017C20.1161 16.5 19.5887 16.9908 19.5887 17.6288C19.5887 18.2669 20.1161 18.7577 20.8017 18.7577H24.4938C24.5993 18.7577 24.7047 18.8558 24.7047 18.954C24.7047 19.0031 24.652 19.0521 24.5993 19.1012C22.5423 20.1319 19.9579 20.7209 17.057 20.7209C16.3713 20.7209 15.6857 20.6718 15 20.6227V23.2239C15.5802 23.273 16.1603 23.273 16.7405 23.273C20.749 23.273 24.3883 22.3896 27.0782 20.8681C27.1309 20.8681 27.1309 20.819 27.1837 20.819C27.3419 20.819 27.4474 20.9172 27.4474 21.0644V21.1135L26.8672 22.5368C26.5507 23.273 26.9727 24.1074 27.8166 24.4018C27.9748 24.4509 28.1858 24.5 28.344 24.5C28.9769 24.5 29.5571 24.1564 29.8208 23.5675L31.8778 18.365C32.1943 17.727 31.8778 16.9908 31.1394 16.6472Z" fill="#104C54"/>
<path d="M17.0574 6.25287C20.0352 6.25287 22.7423 6.9434 24.8538 8.05887C24.8538 8.05887 26.2074 9.01499 26.8029 8.11199C27.5068 7.04964 26.0991 6.41222 26.0991 6.41222C23.5003 5.19052 20.2518 4.5 16.7867 4.5C16.1911 4.5 15.5956 4.49999 15 4.5531V6.35912C15.6497 6.25288 16.3535 6.25287 17.0574 6.25287Z" fill="#104C54"/>
<path d="M2.18861 0.5C1.01424 0.5 0 1.38469 0 2.51513V24.4849C0 25.6153 0.960857 26.5 2.18861 26.5H15V22.8629C7.31317 22.3714 1.33452 18.5378 1.33452 13.8686C1.33452 9.19944 7.31317 5.41494 15 4.8743V0.5H2.18861Z" fill="#104C54"/>
<path d="M5 13.5C5 17.0252 9.29348 19.946 15 20.5V6.5C9.34782 7.05396 5 9.97482 5 13.5Z" fill="#104C54"/>
<path d="M5 31C4.94681 32.5104 3.88299 33.5 2.50001 33.5C1.75533 33.5 1.11703 33.2396 0.638305 32.6667C0.212773 32.1979 0 31.625 0 30.9479C0 30.2708 0.265954 29.6458 0.744678 29.1771C1.2234 28.7083 1.80851 28.5 2.55319 28.5C3.56383 28.5 4.3617 28.9688 4.73404 29.8021H3.8298C3.51065 29.3854 3.03192 29.1771 2.50001 29.1771C2.02128 29.1771 1.59574 29.3333 1.27659 29.6979C0.904253 30.0625 0.744678 30.5312 0.744678 31C0.744678 31.5208 0.904249 31.9896 1.2234 32.3021C1.54255 32.6667 2.02128 32.8229 2.50001 32.8229C3.24469 32.8229 3.82979 32.4583 4.20213 31.6771H1.96809V31H5Z" fill="#104C54"/>
<path d="M5.82353 33.5H5L7.11765 28.5H7.88235L10 33.5H9.11765L8.52941 32.0484H6.41176L5.82353 33.5ZM7.4706 29.4677L6.70588 31.3495H8.23529L7.4706 29.4677Z" fill="#104C54"/>
<path d="M10 33.5V28.5H11.0638L12.5 32.371L13.9362 28.5H15V33.5H14.3085L14.3617 29.1989L12.766 33.5H12.2341L10.6383 29.1989L10.6915 33.5H10Z" fill="#104C54"/>
<path d="M17.5 33.5C16.7553 33.5 16.1702 33.2423 15.6915 32.7268C15.2128 32.2629 15 31.6443 15 30.9742C15 30.3041 15.266 29.6856 15.7447 29.2216C16.2234 28.7577 16.8617 28.5 17.5532 28.5C18.7234 28.5 19.6809 29.2216 20 30.4072H18.6702C18.4043 29.9433 18.0319 29.6856 17.5 29.6856C16.7553 29.6856 16.1702 30.2526 16.1702 30.9227C16.1702 31.6959 16.7553 32.2629 17.4468 32.2629C17.9255 32.2629 18.2979 32.0052 18.5638 31.5928H19.8936C19.6277 32.7784 18.6702 33.5 17.5 33.5Z" fill="#104C54"/>
<path d="M21.3736 33.5H20L21.978 28.5H23.022L25 33.5H23.6264L23.3516 32.8011H21.6484L21.3736 33.5ZM22.4725 30.1667L21.978 31.7796H22.967L22.4725 30.1667Z" fill="#104C54"/>
<path d="M25 33.5V28.5H26.7971C27.3768 28.5 27.7826 28.5538 28.1304 28.7688C28.5942 29.0914 28.8841 29.5215 28.8841 30.1667C28.8841 30.9731 28.4203 31.5645 27.6667 31.7796L29 33.5H27.3768L26.3333 31.8871V33.5H25ZM26.6232 30.8118C27.2609 30.8118 27.6087 30.6505 27.6087 30.2204C27.6087 29.7903 27.3188 29.629 26.7391 29.629H26.3913V30.8118H26.6232Z" fill="#104C54"/>
<path d="M29 33.5V28.5H32V29.5753H30.32V30.3817H32V31.5108H30.32V32.371H32V33.4462H29V33.5Z" fill="#104C54"/>
</g>
<defs>
<clipPath id="clip0_812_24733">
<rect width="32" height="33" fill="white" transform="translate(0 0.5)"/>
</clipPath>
</defs>
</svg>
