<svg width="32" height="33" viewBox="0 0 32 33" fill="none" xmlns="http://www.w3.org/2000/svg">
<path d="M4.83667 15.931H5.64154C5.65288 15.931 5.67555 15.931 5.67555 15.9198L5.68689 15.8183C5.83426 15.8634 6.07231 15.9198 6.32171 15.931V16.1341H6.85451V15.931H7.04723C7.38732 15.931 8.36223 15.8746 8.36223 15.4912C8.36223 15.2205 7.86344 15.1528 7.7274 15.1302C7.59137 15.1077 7.10391 15.0851 6.85451 15.0738V14.9046H6.93387C7.01322 14.9046 7.26262 14.9272 7.34197 15.0174C7.34197 15.0287 7.35331 15.0287 7.36464 15.0287H8.14684C8.16952 15.0287 8.18085 15.0174 8.18085 15.0062V14.7016C8.18085 14.6903 8.16951 14.6678 8.12417 14.6678H7.478C7.45533 14.6678 7.43266 14.6678 7.43266 14.6903L7.39865 14.7693C7.29662 14.7355 7.10391 14.6903 6.84318 14.6791V14.4648H6.31038V14.6678H6.06098C5.67555 14.6678 5.35814 14.7129 5.19943 14.7806C5.07473 14.8257 4.814 14.9272 4.814 15.0964C4.814 15.2205 4.99538 15.3671 5.39215 15.446C5.5962 15.4912 6.10633 15.525 6.31038 15.525V15.6716H6.16301C6.14034 15.6716 5.75491 15.6603 5.70956 15.5588C5.70956 15.5476 5.69823 15.5363 5.67555 15.5363H4.83667C4.814 15.5363 4.814 15.5476 4.814 15.5588V15.8972C4.814 15.9198 4.814 15.931 4.83667 15.931ZM6.85451 15.5363H7.0359C7.06991 15.5363 7.20594 15.5588 7.20594 15.6152C7.20594 15.6716 7.05857 15.6829 7.0359 15.6829H6.86585V15.5363H6.85451ZM5.98163 14.9949C5.98163 14.9159 6.15167 14.9159 6.21969 14.9159H6.33305V15.0851C6.19702 15.0738 5.98163 15.0626 5.98163 14.9949ZM2.64879 16.6529C4.82534 17.3973 8.35089 17.3973 10.5161 16.6529C12.6927 15.9085 12.6927 14.7016 10.5161 13.9572C8.33955 13.2128 4.814 13.2128 2.64879 13.9572C0.472237 14.6903 0.472237 15.8972 2.64879 16.6529ZM3.41965 16.7319C3.23827 16.6867 3.05689 16.6303 2.88684 16.574C2.7168 16.5176 2.56943 16.4612 2.42206 16.3935L3.30629 16.0889C3.44232 16.1566 3.58969 16.213 3.75973 16.2694C3.92978 16.3258 4.11115 16.3822 4.30387 16.4273L3.41965 16.7319ZM3.99779 14.4084C5.42615 13.9121 7.75007 13.9121 9.17843 14.4084C10.6068 14.9046 10.6068 15.6942 9.17843 16.1905C7.75007 16.6867 5.42615 16.6867 3.99779 16.1905C2.55809 15.6942 2.55809 14.9046 3.99779 14.4084ZM7.30796 17.0815C7.09257 17.0928 6.84318 17.0928 6.60512 17.0928C6.36706 17.0928 6.15167 17.0928 5.91361 17.0815V16.6529C6.15167 16.6642 6.36706 16.6755 6.60512 16.6755C6.84318 16.6755 7.09257 16.6642 7.30796 16.6529V17.0815ZM10.278 16.5627C10.108 16.6191 9.93796 16.6755 9.74524 16.7206L8.86102 16.416C9.05374 16.3709 9.23512 16.3145 9.39382 16.2581C9.56387 16.2017 9.71124 16.1341 9.84727 16.0777L10.7315 16.3822C10.6068 16.4499 10.4481 16.5063 10.278 16.5627ZM11.8198 15.2994C11.8198 15.3784 11.8084 15.4573 11.7744 15.5363H10.5274C10.5728 15.4573 10.5841 15.3784 10.5841 15.2994C10.5841 15.2205 10.5615 15.1415 10.5274 15.0626H11.7744C11.7971 15.1415 11.8198 15.2205 11.8198 15.2994ZM9.75658 13.867C9.93796 13.9121 10.1193 13.9685 10.278 14.0249C10.4481 14.0813 10.6068 14.1489 10.7428 14.2053L9.85861 14.5099C9.72257 14.4422 9.5752 14.3858 9.40516 14.3294C9.23512 14.273 9.05373 14.2166 8.87235 14.1715L9.75658 13.867ZM5.91361 13.5173C6.15167 13.506 6.36706 13.506 6.59378 13.506C6.83184 13.506 7.05857 13.506 7.29663 13.5173V13.9459C7.0699 13.9346 6.84318 13.9234 6.60512 13.9234C6.36706 13.9234 6.15167 13.9346 5.92494 13.9459V13.5173H5.91361ZM2.88684 14.0362C3.05689 13.9798 3.22693 13.9234 3.41965 13.8782L4.30387 14.1828C4.11115 14.2279 3.92978 14.2843 3.75973 14.3407C3.58969 14.3971 3.44232 14.4648 3.30629 14.5212L2.42206 14.2166C2.56943 14.1489 2.7168 14.0926 2.88684 14.0362ZM1.40181 15.0626H2.64879C2.60344 15.1415 2.59211 15.2205 2.59211 15.2994C2.59211 15.3784 2.61478 15.4573 2.64879 15.5363H1.40181C1.3678 15.4573 1.35646 15.3784 1.35646 15.2994C1.35646 15.2205 1.3678 15.1415 1.40181 15.0626ZM1.01637 16.3033C1.01637 17.386 3.52167 18.2658 6.61646 18.2658C9.71124 18.2658 12.2165 17.386 12.2165 16.3033C12.2165 16.2017 12.2165 15.8183 12.2165 15.7167C12.2165 15.6829 12.2165 15.6603 12.2052 15.6265C12.0692 16.6755 9.62054 17.4988 6.60512 17.4988C3.56701 17.4988 1.09573 16.6529 1.00504 15.5927C0.993702 15.6265 1.00504 15.6716 1.00504 15.7055V16.3033H1.01637ZM3.38564 17.2169C3.499 17.2394 3.57836 17.2507 3.57836 17.2507V17.871C3.57836 17.871 3.499 17.8598 3.38564 17.8372V17.2169ZM3.03421 17.1266C3.09089 17.1492 3.17025 17.1605 3.22693 17.183V17.8034C3.17025 17.7921 3.09089 17.7695 3.03421 17.7583V17.1266ZM2.68279 17.0138C2.70547 17.0251 2.72814 17.0364 2.76215 17.0364C2.79616 17.0477 2.81883 17.059 2.87551 17.0702V17.7019C2.81883 17.6793 2.75081 17.668 2.69413 17.6455V17.0138H2.68279ZM2.38806 16.9123C2.41073 16.9236 2.4674 16.9462 2.52408 16.9687V17.6003C2.4674 17.5778 2.41073 17.5665 2.38806 17.5439V16.9123ZM2.13866 16.8108C2.16133 16.8221 2.19534 16.8334 2.21801 16.8446V17.4763C2.19534 17.465 2.16133 17.4537 2.13866 17.4424V16.8108ZM1.90059 16.698C1.90059 16.698 1.95728 16.7206 2.03663 16.7657V17.386C1.95728 17.3409 1.90059 17.3184 1.90059 17.3184V16.698ZM12.0238 19.8787C12.1485 19.7208 12.2165 19.5403 12.2165 19.3712C12.2165 19.2696 12.2165 18.8862 12.2165 18.7846C12.2165 18.7508 12.2165 18.7283 12.2052 18.6944C12.0692 19.7434 9.62054 20.5667 6.60512 20.5667C3.56701 20.5667 1.09573 19.7208 1.00504 18.6606C0.993702 18.6944 1.00504 18.7395 1.00504 18.7734V19.3599C1.00504 20.4427 3.51033 21.3224 6.60512 21.3224C6.93387 21.3224 7.26262 21.3112 7.58003 21.2886C7.62538 21.2435 7.67072 21.2096 7.71607 21.1645C8.05615 20.8713 8.54361 20.6231 9.15576 20.4088C9.97197 20.1494 10.9582 19.9577 12.0238 19.8787ZM2.03663 20.4427C1.95728 20.3976 1.90059 20.375 1.90059 20.375V19.7546C1.90059 19.7546 1.95728 19.7772 2.03663 19.8223V20.4427ZM2.21801 20.5216C2.19534 20.5103 2.16133 20.4991 2.13866 20.4878V19.8562C2.16133 19.8674 2.19534 19.8787 2.21801 19.89V20.5216ZM2.52408 20.6457C2.4674 20.6231 2.41073 20.6119 2.38806 20.5893V19.9577C2.41073 19.969 2.4674 19.9915 2.52408 20.0141V20.6457ZM2.86417 20.7698C2.80749 20.7472 2.73948 20.7359 2.68279 20.7134V20.0817C2.70547 20.093 2.72814 20.1043 2.76215 20.1043C2.79616 20.1156 2.81883 20.1269 2.87551 20.1381V20.7698H2.86417ZM3.2156 20.86C3.15892 20.8487 3.07956 20.8262 3.02288 20.8149V20.1945C3.07956 20.2171 3.15892 20.2284 3.2156 20.2509V20.86ZM3.56702 20.9277C3.56702 20.9277 3.48766 20.9164 3.3743 20.8938V20.2735C3.48766 20.296 3.56702 20.3073 3.56702 20.3073V20.9277ZM1.01637 27.8305C1.01637 28.9133 3.52167 29.793 6.61646 29.793C6.77516 29.793 6.92253 29.793 7.08124 29.7817C7.08124 29.7592 7.08124 29.7366 7.09258 29.7141C7.08124 29.6464 7.08124 29.5787 7.08124 29.5223V29.026C6.93387 29.026 6.77516 29.0373 6.61646 29.0373C3.57836 29.0373 1.10706 28.1914 1.01637 27.1312C1.00504 27.165 1.01637 27.2101 1.01637 27.244V27.8305ZM3.38564 28.7441C3.499 28.7666 3.57836 28.7779 3.57836 28.7779V29.3983C3.57836 29.3983 3.499 29.387 3.38564 29.3644V28.7441ZM3.03421 28.6538C3.09089 28.6764 3.17025 28.6877 3.22693 28.7102V29.3306C3.17025 29.3193 3.09089 29.2967 3.03421 29.2855V28.6538ZM2.68279 28.541C2.70547 28.5523 2.72814 28.5636 2.76215 28.5636C2.79616 28.5749 2.81883 28.5862 2.87551 28.5974V29.2291C2.81883 29.2065 2.75081 29.1952 2.69413 29.1727V28.541H2.68279ZM2.38806 28.4395C2.41073 28.4508 2.4674 28.4734 2.52408 28.4959V29.1276C2.4674 29.105 2.41073 29.0937 2.38806 29.0712V28.4395ZM2.13866 28.338C2.16133 28.3493 2.19534 28.3606 2.21801 28.3719V29.0035C2.19534 28.9922 2.16133 28.9809 2.13866 28.9697V28.338ZM1.90059 28.2252C1.90059 28.2252 1.95728 28.2478 2.03663 28.2929V28.9133C1.95728 28.8681 1.90059 28.8456 1.90059 28.8456V28.2252ZM13.3728 29.7028C10.3347 29.7028 7.86344 28.8569 7.77275 27.7966C7.76141 27.8305 7.77275 27.8756 7.77275 27.9094V28.4959C7.77275 29.5787 10.278 30.4585 13.3728 30.4585C16.4676 30.4585 18.9729 29.5787 18.9729 28.4959C18.9729 28.3944 18.9729 28.0109 18.9729 27.9094C18.9729 27.8756 18.9729 27.853 18.9616 27.8192C18.8369 28.8681 16.3769 29.7028 13.3728 29.7028ZM8.79301 29.5787C8.71365 29.5336 8.65697 29.511 8.65697 29.511V28.8907C8.65697 28.8907 8.71365 28.9133 8.79301 28.9584V29.5787ZM8.98572 29.669C8.96304 29.6577 8.92904 29.6464 8.90637 29.6351V29.0035C8.92904 29.0148 8.96304 29.026 8.98572 29.0373V29.669ZM9.28046 29.793C9.22378 29.7705 9.1671 29.7592 9.14443 29.7366V29.105C9.1671 29.1163 9.22378 29.1388 9.28046 29.1614V29.793ZM9.63188 29.9058C9.5752 29.8833 9.50719 29.872 9.45051 29.8494V29.2178C9.47318 29.2291 9.49585 29.2403 9.52986 29.2403C9.56387 29.2516 9.58654 29.2629 9.64322 29.2742V29.9058H9.63188ZM9.98331 29.996C9.92663 29.9848 9.84727 29.9622 9.79059 29.9509V29.3306C9.84727 29.3531 9.92663 29.3644 9.98331 29.387V29.996ZM10.3347 30.075C10.3347 30.075 10.2554 30.0637 10.142 30.0412V29.4208C10.2554 29.4434 10.3347 29.4546 10.3347 29.4546V30.075ZM13.3728 31.7443C10.3347 31.7443 7.86344 30.8984 7.77275 29.8381C7.76141 29.872 7.77275 29.9171 7.77275 29.9509V30.5374C7.77275 31.6202 10.278 32.5 13.3728 32.5C16.4676 32.5 18.9729 31.6202 18.9729 30.5374C18.9729 30.4359 18.9729 30.0524 18.9729 29.9509C18.9729 29.9171 18.9729 29.8945 18.9616 29.8607C18.8369 30.9097 16.3769 31.7443 13.3728 31.7443ZM8.79301 31.6202C8.71365 31.5751 8.65697 31.5526 8.65697 31.5526V30.9322C8.65697 30.9322 8.71365 30.9548 8.79301 30.9999V31.6202ZM8.98572 31.7105C8.96304 31.6992 8.92904 31.6879 8.90637 31.6766V31.045C8.92904 31.0563 8.96304 31.0676 8.98572 31.0788V31.7105ZM9.28046 31.8233C9.22378 31.8007 9.1671 31.7894 9.14443 31.7669V31.1352C9.1671 31.1465 9.22378 31.1691 9.28046 31.1916V31.8233ZM9.63188 31.9473C9.5752 31.9248 9.50719 31.9135 9.45051 31.8909V31.2593C9.47318 31.2706 9.49585 31.2819 9.52986 31.2819C9.56387 31.2931 9.58654 31.3044 9.64322 31.3157V31.9473H9.63188ZM9.98331 32.0376C9.92663 32.0263 9.84727 32.0037 9.79059 31.9924V31.3721C9.84727 31.3946 9.92663 31.4059 9.98331 31.4285V32.0376ZM10.3347 32.1052C10.3347 32.1052 10.2554 32.094 10.142 32.0714V31.451C10.2554 31.4736 10.3347 31.4849 10.3347 31.4849V32.1052ZM1.01637 19.6757C1.00504 19.7095 1.01637 19.7547 1.01637 19.7885V20.375C1.01637 21.4578 3.52167 22.3376 6.61646 22.3376C6.77516 22.3376 6.93387 22.3376 7.08124 22.3263C7.09257 22.112 7.16059 21.8413 7.36464 21.548C7.11525 21.5593 6.86585 21.5706 6.61646 21.5706C3.56702 21.5819 1.10706 20.7359 1.01637 19.6757ZM2.03663 21.4578C1.95728 21.4127 1.90059 21.3901 1.90059 21.3901V20.7698C1.90059 20.7698 1.95728 20.7923 2.03663 20.8374V21.4578ZM2.21801 21.548C2.19534 21.5367 2.16133 21.5255 2.13866 21.5142V20.8826C2.16133 20.8938 2.19534 20.9051 2.21801 20.9164V21.548ZM2.52408 21.6608C2.4674 21.6383 2.41073 21.627 2.38806 21.6044V20.9728C2.41073 20.9841 2.4674 21.0066 2.52408 21.0292V21.6608ZM2.86417 21.7849C2.80749 21.7623 2.73948 21.751 2.68279 21.7285V21.0969C2.70547 21.1081 2.72814 21.1194 2.76215 21.1194C2.79616 21.1307 2.81883 21.142 2.87551 21.1533V21.7849H2.86417ZM3.2156 21.8751C3.15892 21.8638 3.07956 21.8413 3.02288 21.83V21.2096C3.07956 21.2322 3.15892 21.2435 3.2156 21.266V21.8751ZM3.56702 21.9541C3.56702 21.9541 3.48766 21.9428 3.3743 21.9202V21.2999C3.48766 21.3224 3.56702 21.3337 3.56702 21.3337V21.9541ZM7.0699 30.1314C6.92253 30.1314 6.76382 30.1427 6.60512 30.1427C3.56701 30.1427 1.09573 29.2967 1.00504 28.2365C0.993702 28.2703 1.00504 28.3155 1.00504 28.3493V28.9358C1.00504 30.0186 3.51033 30.8984 6.60512 30.8984C6.77516 30.8984 6.9452 30.8984 7.10391 30.8871C7.0699 30.763 7.05856 30.639 7.05856 30.5374V30.1314H7.0699ZM2.03663 30.0073C1.95728 29.9622 1.90059 29.9397 1.90059 29.9397V29.3193C1.90059 29.3193 1.95728 29.3419 2.03663 29.387V30.0073ZM2.21801 30.0976C2.19534 30.0863 2.16133 30.075 2.13866 30.0637V29.4321C2.16133 29.4434 2.19534 29.4547 2.21801 29.4659V30.0976ZM2.52408 30.2216C2.4674 30.1991 2.41073 30.1878 2.38806 30.1652V29.5336C2.41073 29.5449 2.4674 29.5674 2.52408 29.59V30.2216ZM2.86417 30.3344C2.80749 30.3119 2.73948 30.3006 2.68279 30.278V29.6464C2.70547 29.6577 2.72814 29.669 2.76215 29.669C2.79616 29.6802 2.81883 29.6915 2.87551 29.7028V30.3344H2.86417ZM3.2156 30.4247C3.15892 30.4134 3.07956 30.3908 3.02288 30.3795V29.7592C3.07956 29.7817 3.15892 29.793 3.2156 29.8156V30.4247ZM3.56702 30.5036C3.56702 30.5036 3.48766 30.4923 3.3743 30.4698V29.8494C3.48766 29.872 3.56702 29.8833 3.56702 29.8833V30.5036ZM13.3728 30.7292C10.3347 30.7292 7.86344 29.8833 7.77275 28.823C7.76141 28.8569 7.77275 28.902 7.77275 28.9358V29.5223C7.77275 30.6051 10.278 31.4849 13.3728 31.4849C16.4676 31.4849 18.9729 30.6051 18.9729 29.5223C18.9729 29.4208 18.9729 29.0373 18.9729 28.9358C18.9729 28.902 18.9729 28.8794 18.9616 28.8456C18.8369 29.8945 16.3769 30.7292 13.3728 30.7292ZM8.79301 30.6051C8.71365 30.56 8.65697 30.5374 8.65697 30.5374V29.9171C8.65697 29.9171 8.71365 29.9397 8.79301 29.9848V30.6051ZM8.98572 30.6841C8.96304 30.6728 8.92904 30.6615 8.90637 30.6502V30.0299C8.92904 30.0412 8.96304 30.0524 8.98572 30.0637V30.6841ZM9.28046 30.8081C9.22378 30.7856 9.1671 30.7743 9.14443 30.7517V30.1201C9.1671 30.1314 9.22378 30.154 9.28046 30.1765V30.8081ZM9.63188 30.9209C9.5752 30.8984 9.50719 30.8871 9.45051 30.8645V30.2329C9.47318 30.2442 9.49585 30.2555 9.52986 30.2555C9.56387 30.2667 9.58654 30.278 9.64322 30.2893V30.9209H9.63188ZM9.98331 31.0224C9.92663 31.0112 9.84727 30.9886 9.79059 30.9773V30.357C9.84727 30.3795 9.92663 30.3908 9.98331 30.4134V31.0224ZM10.3347 31.0901C10.3347 31.0901 10.2554 31.0788 10.142 31.0563V30.4359C10.2554 30.4585 10.3347 30.4698 10.3347 30.4698V31.0901ZM13.3728 25.631C10.3347 25.631 7.86344 24.7851 7.77275 23.7249C7.76141 23.7587 7.77275 23.8038 7.77275 23.8377V24.4242C7.77275 25.507 10.278 26.3867 13.3728 26.3867C16.4676 26.3867 18.9729 25.507 18.9729 24.4242C18.9729 24.3227 18.9729 23.9392 18.9729 23.8377C18.9729 23.8038 18.9729 23.7813 18.9616 23.7474C18.8369 24.7964 16.3769 25.631 13.3728 25.631ZM8.79301 25.507C8.71365 25.4619 8.65697 25.4393 8.65697 25.4393V24.819C8.65697 24.819 8.71365 24.8415 8.79301 24.8866V25.507ZM8.98572 25.5972C8.96304 25.5859 8.92904 25.5746 8.90637 25.5634V24.9317C8.92904 24.943 8.96304 24.9543 8.98572 24.9656V25.5972ZM9.28046 25.71C9.22378 25.6874 9.1671 25.6762 9.14443 25.6536V25.022C9.1671 25.0333 9.22378 25.0558 9.28046 25.0784V25.71ZM9.63188 25.8341C9.5752 25.8115 9.50719 25.8002 9.45051 25.7777V25.146C9.47318 25.1573 9.49585 25.1686 9.52986 25.1686C9.56387 25.1799 9.58654 25.1912 9.64322 25.2024V25.8341H9.63188ZM9.98331 25.9243C9.92663 25.913 9.84727 25.8905 9.79059 25.8792V25.2588C9.84727 25.2814 9.92663 25.2927 9.98331 25.3152V25.9243ZM10.3347 26.0033C10.3347 26.0033 10.2554 25.992 10.142 25.9694V25.3491C10.2554 25.3716 10.3347 25.3829 10.3347 25.3829V26.0033ZM13.3728 24.6159C10.3347 24.6159 7.86344 23.77 7.77275 22.7098C7.76141 22.7436 7.77275 22.7887 7.77275 22.8226V23.4091C7.77275 24.4919 10.278 25.3716 13.3728 25.3716C16.4676 25.3716 18.9729 24.4919 18.9729 23.4091C18.9729 23.3076 18.9729 22.9241 18.9729 22.8226C18.9729 22.7887 18.9729 22.7662 18.9616 22.7323C18.8369 23.7813 16.3769 24.6159 13.3728 24.6159ZM8.79301 24.4919C8.71365 24.4467 8.65697 24.4242 8.65697 24.4242V23.8038C8.65697 23.8038 8.71365 23.8264 8.79301 23.8715V24.4919ZM8.98572 24.5821C8.96304 24.5708 8.92904 24.5595 8.90637 24.5483V23.9166C8.92904 23.9279 8.96304 23.9392 8.98572 23.9505V24.5821ZM9.28046 24.6949C9.22378 24.6723 9.1671 24.661 9.14443 24.6385V24.0069C9.1671 24.0181 9.22378 24.0407 9.28046 24.0633V24.6949ZM9.63188 24.819C9.5752 24.7964 9.50719 24.7851 9.45051 24.7626V24.1309C9.47318 24.1422 9.49585 24.1535 9.52986 24.1535C9.56387 24.1648 9.58654 24.176 9.64322 24.1873V24.819H9.63188ZM9.98331 24.9092C9.92663 24.8979 9.84727 24.8753 9.79059 24.8641V24.2437C9.84727 24.2663 9.92663 24.2776 9.98331 24.3001V24.9092ZM10.3347 24.9769C10.3347 24.9769 10.2554 24.9656 10.142 24.943V24.3227C10.2554 24.3452 10.3347 24.3565 10.3347 24.3565V24.9769ZM13.3728 27.6726C10.3347 27.6726 7.86344 26.8266 7.77275 25.7664C7.76141 25.8002 7.77275 25.8454 7.77275 25.8792V26.4657C7.77275 27.5485 10.278 28.4283 13.3728 28.4283C16.4676 28.4283 18.9729 27.5485 18.9729 26.4657C18.9729 26.3642 18.9729 25.9807 18.9729 25.8792C18.9729 25.8454 18.9729 25.8228 18.9616 25.789C18.8369 26.8379 16.3769 27.6726 13.3728 27.6726ZM8.79301 27.5485C8.71365 27.5034 8.65697 27.4808 8.65697 27.4808V26.8605C8.65697 26.8605 8.71365 26.883 8.79301 26.9281V27.5485ZM8.98572 27.6274C8.96304 27.6162 8.92904 27.6049 8.90637 27.5936V26.962C8.92904 26.9733 8.96304 26.9845 8.98572 26.9958V27.6274ZM9.28046 27.7515C9.22378 27.729 9.1671 27.7177 9.14443 27.6951V27.0635C9.1671 27.0748 9.22378 27.0973 9.28046 27.1199V27.7515ZM9.63188 27.8756C9.5752 27.853 9.50719 27.8417 9.45051 27.8192V27.1876C9.47318 27.1988 9.49585 27.2101 9.52986 27.2101C9.56387 27.2214 9.58654 27.2327 9.64322 27.244V27.8756H9.63188ZM9.98331 27.9658C9.92663 27.9545 9.84727 27.932 9.79059 27.9207V27.3003C9.84727 27.3229 9.92663 27.3342 9.98331 27.3567V27.9658ZM10.3347 28.0335C10.3347 28.0335 10.2554 28.0222 10.142 27.9997V27.3793C10.2554 27.4019 10.3347 27.4131 10.3347 27.4131V28.0335ZM13.3728 28.6877C10.3347 28.6877 7.86344 27.8417 7.77275 26.7815C7.76141 26.8153 7.77275 26.8605 7.77275 26.8943V27.4808C7.77275 28.5636 10.278 29.4434 13.3728 29.4434C16.4676 29.4434 18.9729 28.5636 18.9729 27.4808C18.9729 27.3793 18.9729 26.9958 18.9729 26.8943C18.9729 26.8605 18.9729 26.8379 18.9616 26.8041C18.8369 27.853 16.3769 28.6877 13.3728 28.6877ZM8.79301 28.5636C8.71365 28.5185 8.65697 28.4959 8.65697 28.4959V27.8756C8.65697 27.8756 8.71365 27.8981 8.79301 27.9433V28.5636ZM8.98572 28.6538C8.96304 28.6426 8.92904 28.6313 8.90637 28.62V27.9884C8.92904 27.9997 8.96304 28.0109 8.98572 28.0222V28.6538ZM9.28046 28.7666C9.22378 28.7441 9.1671 28.7328 9.14443 28.7102V28.0786C9.1671 28.0899 9.22378 28.1124 9.28046 28.135V28.7666ZM9.63188 28.8907C9.5752 28.8681 9.50719 28.8569 9.45051 28.8343V28.2027C9.47318 28.214 9.49585 28.2252 9.52986 28.2252C9.56387 28.2365 9.58654 28.2478 9.64322 28.2591V28.8907H9.63188ZM9.98331 28.9809C9.92663 28.9697 9.84727 28.9471 9.79059 28.9358V28.3155C9.84727 28.338 9.92663 28.3493 9.98331 28.3719V28.9809ZM10.3347 29.0599C10.3347 29.0599 10.2554 29.0486 10.142 29.026V28.4057C10.2554 28.4283 10.3347 28.4395 10.3347 28.4395V29.0599ZM13.3728 26.6462C10.3347 26.6462 7.86344 25.8002 7.77275 24.74C7.76141 24.7738 7.77275 24.819 7.77275 24.8528V25.4393C7.77275 26.5221 10.278 27.4019 13.3728 27.4019C16.4676 27.4019 18.9729 26.5221 18.9729 25.4393C18.9729 25.3378 18.9729 24.9543 18.9729 24.8528C18.9729 24.819 18.9729 24.7964 18.9616 24.7626C18.8369 25.8228 16.3769 26.6462 13.3728 26.6462ZM8.79301 26.5221C8.71365 26.477 8.65697 26.4544 8.65697 26.4544V25.8341C8.65697 25.8341 8.71365 25.8566 8.79301 25.9017V26.5221ZM8.98572 26.6123C8.96304 26.601 8.92904 26.5898 8.90637 26.5785V25.9469C8.92904 25.9581 8.96304 25.9694 8.98572 25.9807V26.6123ZM9.28046 26.7364C9.22378 26.7138 9.1671 26.7026 9.14443 26.68V26.0484C9.1671 26.0597 9.22378 26.0822 9.28046 26.1048V26.7364ZM9.63188 26.8492C9.5752 26.8266 9.50719 26.8153 9.45051 26.7928V26.1612C9.47318 26.1724 9.49585 26.1837 9.52986 26.1837C9.56387 26.195 9.58654 26.2063 9.64322 26.2176V26.8492H9.63188ZM9.98331 26.9507C9.92663 26.9394 9.84727 26.9169 9.79059 26.9056V26.2852C9.84727 26.3078 9.92663 26.3191 9.98331 26.3416V26.9507ZM10.3347 27.0184C10.3347 27.0184 10.2554 27.0071 10.142 26.9845V26.3642C10.2554 26.3867 10.3347 26.398 10.3347 26.398V27.0184ZM1.01637 25.6423C1.01637 26.7251 3.52167 27.6049 6.61646 27.6049C6.77516 27.6049 6.92253 27.6049 7.08124 27.5936C7.08124 27.5598 7.08124 27.5259 7.08124 27.4921V26.9056V26.8943C7.08124 26.883 7.08124 26.8605 7.08124 26.8379C6.93387 26.8379 6.77516 26.8492 6.61646 26.8492C3.57836 26.8492 1.10706 26.0033 1.01637 24.943C1.00504 24.9769 1.01637 25.022 1.01637 25.0558V25.6423ZM3.38564 26.5559C3.499 26.5785 3.57836 26.5898 3.57836 26.5898V27.2101C3.57836 27.2101 3.499 27.1988 3.38564 27.1763V26.5559ZM3.03421 26.4544C3.09089 26.477 3.17025 26.4883 3.22693 26.5108V27.1312C3.17025 27.1199 3.09089 27.0973 3.03421 27.086V26.4544ZM2.68279 26.3416C2.70547 26.3529 2.72814 26.3642 2.76215 26.3642C2.79616 26.3755 2.81883 26.3867 2.87551 26.398V27.0296C2.81883 27.0071 2.75081 26.9958 2.69413 26.9733V26.3416H2.68279ZM2.38806 26.2401C2.41073 26.2514 2.4674 26.274 2.52408 26.2965V26.9281C2.4674 26.9056 2.41073 26.8943 2.38806 26.8717V26.2401ZM2.13866 26.1386C2.16133 26.1499 2.19534 26.1612 2.21801 26.1724V26.8041C2.19534 26.7928 2.16133 26.7815 2.13866 26.7702V26.1386ZM1.90059 26.0258C1.90059 26.0258 1.95728 26.0484 2.03663 26.0935V26.7138C1.95728 26.6687 1.90059 26.6462 1.90059 26.6462V26.0258ZM1.01637 18.3448C1.01637 19.4276 3.52167 20.3073 6.61646 20.3073C9.71124 20.3073 12.2165 19.4276 12.2165 18.3448C12.2165 18.2433 12.2165 17.8598 12.2165 17.7583C12.2165 17.7244 12.2165 17.7019 12.2052 17.668C12.0692 18.717 9.62054 19.5403 6.60512 19.5403C3.56701 19.5403 1.09573 18.6944 1.00504 17.6342C0.993702 17.668 1.00504 17.7131 1.00504 17.747V18.3448H1.01637ZM3.38564 19.2584C3.499 19.2809 3.57836 19.2922 3.57836 19.2922V19.9126C3.57836 19.9126 3.499 19.9013 3.38564 19.8787V19.2584ZM3.03421 19.1681C3.09089 19.1907 3.17025 19.202 3.22693 19.2245V19.8449C3.17025 19.8336 3.09089 19.811 3.03421 19.7998V19.1681ZM2.68279 19.0553C2.70547 19.0666 2.72814 19.0779 2.76215 19.0779C2.79616 19.0892 2.81883 19.1005 2.87551 19.1117V19.7434C2.81883 19.7208 2.75081 19.7095 2.69413 19.687V19.0553H2.68279ZM2.38806 18.9426C2.41073 18.9538 2.4674 18.9764 2.52408 18.999V19.6306C2.4674 19.608 2.41073 19.5967 2.38806 19.5742V18.9426ZM2.13866 18.841C2.16133 18.8523 2.19534 18.8636 2.21801 18.8749V19.5065C2.19534 19.4952 2.16133 19.4839 2.13866 19.4727V18.841ZM1.90059 18.7283C1.90059 18.7283 1.95728 18.7508 2.03663 18.7959V19.4163C1.95728 19.3712 1.90059 19.3486 1.90059 19.3486V18.7283ZM1.01637 17.3296C1.01637 18.4124 3.52167 19.2922 6.61646 19.2922C9.71124 19.2922 12.2165 18.4124 12.2165 17.3296C12.2165 17.2281 12.2165 16.8446 12.2165 16.7431C12.2165 16.7093 12.2165 16.6867 12.2052 16.6529C12.0692 17.7019 9.62054 18.5252 6.60512 18.5252C3.56701 18.5252 1.09573 17.6793 1.00504 16.6191C0.993702 16.6529 1.00504 16.698 1.00504 16.7319V17.3296H1.01637ZM3.38564 18.2433C3.499 18.2658 3.57836 18.2771 3.57836 18.2771V18.8974C3.57836 18.8974 3.499 18.8862 3.38564 18.8636V18.2433ZM3.03421 18.153C3.09089 18.1756 3.17025 18.1869 3.22693 18.2094V18.8298C3.17025 18.8185 3.09089 18.7959 3.03421 18.7846V18.153ZM2.68279 18.0402C2.70547 18.0515 2.72814 18.0628 2.76215 18.0628C2.79616 18.0741 2.81883 18.0853 2.87551 18.0966V18.7283C2.81883 18.7057 2.75081 18.6944 2.69413 18.6719V18.0402H2.68279ZM2.38806 17.9274C2.41073 17.9387 2.4674 17.9613 2.52408 17.9838V18.6155C2.4674 18.5929 2.41073 18.5816 2.38806 18.5591V17.9274ZM2.13866 17.8259C2.16133 17.8372 2.19534 17.8485 2.21801 17.8598V18.4914C2.19534 18.4801 2.16133 18.4688 2.13866 18.4576V17.8259ZM1.90059 17.7131C1.90059 17.7131 1.95728 17.7357 2.03663 17.7808V18.4012C1.95728 18.356 1.90059 18.3335 1.90059 18.3335V17.7131ZM7.08124 22.597C6.92253 22.597 6.76382 22.6083 6.60512 22.6083C3.56701 22.6083 1.09573 21.7623 1.00504 20.7021C0.993702 20.7359 1.00504 20.781 1.00504 20.8149V21.4014C1.00504 22.4842 3.51033 23.364 6.60512 23.364C6.76382 23.364 6.9112 23.364 7.0699 23.3527V22.8226V22.8113C7.0699 22.7662 7.0699 22.6872 7.08124 22.597ZM2.03663 22.4729C1.95728 22.4278 1.90059 22.4052 1.90059 22.4052V21.7849C1.90059 21.7849 1.95728 21.8074 2.03663 21.8526V22.4729ZM2.21801 22.5631C2.19534 22.5519 2.16133 22.5406 2.13866 22.5293V21.8977C2.16133 21.909 2.19534 21.9202 2.21801 21.9315V22.5631ZM2.52408 22.6872C2.4674 22.6646 2.41073 22.6534 2.38806 22.6308V21.9992C2.41073 22.0105 2.4674 22.033 2.52408 22.0556V22.6872ZM2.86417 22.8C2.80749 22.7774 2.73948 22.7662 2.68279 22.7436V22.112C2.70547 22.1233 2.72814 22.1345 2.76215 22.1345C2.79616 22.1458 2.81883 22.1571 2.87551 22.1684V22.8H2.86417ZM3.2156 22.9015C3.15892 22.8902 3.07956 22.8677 3.02288 22.8564V22.236C3.07956 22.2586 3.15892 22.2699 3.2156 22.2924V22.9015ZM3.56702 22.9692C3.56702 22.9692 3.48766 22.9579 3.3743 22.9353V22.315C3.48766 22.3376 3.56702 22.3488 3.56702 22.3488V22.9692ZM9.40516 23.7587C11.5817 24.5031 15.1073 24.5031 17.2725 23.7587C19.449 23.0143 19.449 21.8074 17.2725 21.063C15.0959 20.3186 11.5704 20.3186 9.40516 21.063C7.23994 21.7962 7.23994 23.003 9.40516 23.7587ZM8.11284 22.4052C8.11284 22.3263 8.12417 22.2473 8.15818 22.1684H9.40516C9.35981 22.2473 9.34848 22.3263 9.34848 22.4052C9.34848 22.4842 9.37115 22.5631 9.40516 22.6421H8.15818C8.12417 22.5631 8.11284 22.4842 8.11284 22.4052ZM10.176 23.8264C9.99464 23.7813 9.81326 23.7249 9.64322 23.6685C9.47318 23.6121 9.3258 23.5557 9.17843 23.488L10.0627 23.1835C10.1987 23.2512 10.3461 23.3076 10.5161 23.364C10.6861 23.4203 10.8675 23.4767 11.0602 23.5219L10.176 23.8264ZM10.7542 21.5142C12.1825 21.0179 14.5065 21.0179 15.9348 21.5142C17.3632 22.0105 17.3632 22.8 15.9348 23.2963C14.5065 23.7926 12.1825 23.7926 10.7542 23.2963C9.32581 22.8 9.32581 22.0105 10.7542 21.5142ZM14.0643 24.176C13.849 24.1873 13.5996 24.1873 13.3615 24.1873C13.1234 24.1873 12.908 24.1873 12.67 24.176V23.7474C12.908 23.7587 13.1234 23.77 13.3615 23.77C13.5996 23.77 13.849 23.7587 14.0643 23.7474V24.176ZM17.0458 23.6685C16.8757 23.7249 16.7057 23.7813 16.513 23.8264L15.6287 23.5219C15.8214 23.4767 16.0028 23.4203 16.1615 23.364C16.3316 23.3076 16.479 23.2399 16.615 23.1835L17.4992 23.488C17.3632 23.5557 17.2158 23.6121 17.0458 23.6685ZM18.5761 22.4052C18.5761 22.4842 18.5648 22.5631 18.5308 22.6421H17.2838C17.3292 22.5631 17.3405 22.4842 17.3405 22.4052C17.3405 22.3263 17.3178 22.2473 17.2838 22.1684H18.5308C18.5648 22.2473 18.5761 22.3263 18.5761 22.4052ZM16.513 20.9728C16.6943 21.0179 16.8757 21.0743 17.0344 21.1307C17.2045 21.1871 17.3632 21.2548 17.4992 21.3112L16.615 21.6157C16.479 21.548 16.3316 21.4916 16.1615 21.4352C15.9915 21.3788 15.8101 21.3224 15.6287 21.2773L16.513 20.9728ZM12.67 20.6231C12.908 20.6119 13.1234 20.6119 13.3502 20.6119C13.5882 20.6119 13.8149 20.6119 14.053 20.6231V21.0517C13.8263 21.0405 13.5996 21.0292 13.3615 21.0292C13.1234 21.0292 12.908 21.0405 12.6813 21.0517V20.6231H12.67ZM10.176 20.9728L11.0602 21.2773C10.8675 21.3224 10.6861 21.3788 10.5161 21.4352C10.3461 21.4916 10.1987 21.5593 10.0627 21.6157L9.17843 21.3112C9.31447 21.2435 9.47318 21.1871 9.64322 21.1307C9.81326 21.0743 9.99464 21.0292 10.176 20.9728ZM12.2052 19.7095C12.1939 19.7659 12.1825 19.811 12.1712 19.8674C12.1825 19.8674 12.2052 19.8674 12.2165 19.8674C12.2165 19.8336 12.2165 19.811 12.2165 19.7998C12.2165 19.7659 12.2165 19.7321 12.2052 19.7095ZM1.01637 26.7364C1.01637 27.8192 3.52167 28.699 6.61646 28.699C6.77516 28.699 6.93387 28.699 7.09258 28.6877C7.08124 28.62 7.08124 28.5636 7.08124 28.4959V27.9207C6.93387 27.9207 6.77516 27.932 6.61646 27.932C3.57836 27.932 1.10706 27.086 1.01637 26.0258C1.00504 26.0597 1.01637 26.1048 1.01637 26.1386V26.7364ZM3.38564 27.65C3.499 27.6726 3.57836 27.6838 3.57836 27.6838V28.3042C3.57836 28.3042 3.499 28.2929 3.38564 28.2703V27.65ZM3.03421 27.5598C3.09089 27.5823 3.17025 27.5936 3.22693 27.6162V28.2365C3.17025 28.2252 3.09089 28.2027 3.03421 28.1914V27.5598ZM2.68279 27.447C2.70547 27.4583 2.72814 27.4695 2.76215 27.4695C2.79616 27.4808 2.81883 27.4921 2.87551 27.5034V28.135C2.81883 28.1124 2.75081 28.1012 2.69413 28.0786V27.447H2.68279ZM2.38806 27.3342C2.41073 27.3455 2.4674 27.368 2.52408 27.3906V28.0222C2.4674 27.9997 2.41073 27.9884 2.38806 27.9658V27.3342ZM2.13866 27.2327C2.16133 27.244 2.19534 27.2552 2.21801 27.2665V27.8981C2.19534 27.8869 2.16133 27.8756 2.13866 27.8643V27.2327ZM1.90059 27.1199C1.90059 27.1199 1.95728 27.1424 2.03663 27.1876V27.8079C1.95728 27.7628 1.90059 27.7402 1.90059 27.7402V27.1199ZM1.01637 24.537C1.01637 25.6198 3.52167 26.4995 6.61646 26.4995C6.77516 26.4995 6.92253 26.4995 7.08124 26.4883C7.08124 26.477 7.08124 26.4657 7.08124 26.4657V25.8792V25.8679C7.08124 25.8341 7.08124 25.789 7.08124 25.7326C6.92253 25.7326 6.77516 25.7438 6.61646 25.7438C3.57836 25.7438 1.10706 24.8979 1.01637 23.8377C1.00504 23.8715 1.01637 23.9166 1.01637 23.9505V24.537ZM3.38564 25.4506C3.499 25.4731 3.57836 25.4844 3.57836 25.4844V26.1048C3.57836 26.1048 3.499 26.0935 3.38564 26.0709V25.4506ZM3.03421 25.3603C3.09089 25.3829 3.17025 25.3942 3.22693 25.4167V26.0371C3.17025 26.0258 3.09089 26.0033 3.03421 25.992V25.3603ZM2.68279 25.2476C2.70547 25.2588 2.72814 25.2701 2.76215 25.2701C2.79616 25.2814 2.81883 25.2927 2.87551 25.304V25.9356C2.81883 25.913 2.75081 25.9017 2.69413 25.8792V25.2476H2.68279ZM2.38806 25.1348C2.41073 25.146 2.4674 25.1686 2.52408 25.1912V25.8228C2.4674 25.8002 2.41073 25.789 2.38806 25.7664V25.1348ZM2.13866 25.0333C2.16133 25.0445 2.19534 25.0558 2.21801 25.0671V25.6987C2.19534 25.6874 2.16133 25.6762 2.13866 25.6649V25.0333ZM1.90059 24.9205C1.90059 24.9205 1.95728 24.943 2.03663 24.9881V25.6085C1.95728 25.5634 1.90059 25.5408 1.90059 25.5408V24.9205ZM11.593 23.0369H12.3979C12.4093 23.0369 12.4319 23.0369 12.4319 23.0256L12.4433 22.9241C12.5906 22.9692 12.8287 23.0256 13.0781 23.0369V23.2399H13.6109V23.0369H13.8036C14.1437 23.0369 15.1186 22.9805 15.1186 22.597C15.1186 22.3263 14.6198 22.2586 14.4838 22.236C14.3477 22.2135 13.8603 22.1909 13.6109 22.1796V22.0105H13.6902C13.7696 22.0105 14.019 22.033 14.0983 22.1233C14.0983 22.1345 14.1097 22.1345 14.121 22.1345H14.9032C14.9259 22.1345 14.9372 22.1233 14.9372 22.112V21.8074C14.9372 21.7962 14.9259 21.7736 14.8805 21.7736H14.2344C14.2117 21.7736 14.189 21.7736 14.189 21.7962L14.155 21.8751C14.053 21.8413 13.8603 21.7962 13.5996 21.7849V21.5706H13.0667V21.7736H12.8174C12.4319 21.7736 12.1145 21.8187 11.9558 21.8864C11.8311 21.9315 11.5704 22.033 11.5704 22.2022C11.5704 22.3263 11.7518 22.4729 12.1485 22.5519C12.3526 22.597 12.8627 22.6308 13.0667 22.6308V22.7774H12.9194C12.8967 22.7774 12.5113 22.7662 12.4659 22.6647C12.4659 22.6534 12.4546 22.6421 12.4319 22.6421H11.593C11.5704 22.6421 11.5704 22.6534 11.5704 22.6647V23.003C11.5704 23.0256 11.5817 23.0369 11.593 23.0369ZM13.6109 22.6421H13.7923C13.8263 22.6421 13.9623 22.6647 13.9623 22.721C13.9623 22.7774 13.8149 22.7887 13.7923 22.7887H13.6222V22.6421H13.6109ZM12.738 22.1007C12.738 22.0217 12.908 22.0217 12.9761 22.0217H13.0894V22.1909C12.9647 22.1796 12.738 22.1684 12.738 22.1007ZM1.01637 22.4165C1.01637 23.4993 3.52167 24.3791 6.61646 24.3791C6.77516 24.3791 6.92253 24.3791 7.08124 24.3678V23.8377V23.8264C7.08124 23.7813 7.08124 23.7023 7.09258 23.6121C6.93387 23.6121 6.77516 23.6234 6.61646 23.6234C3.57836 23.6234 1.10706 22.7774 1.01637 21.7172C1.00504 21.751 1.01637 21.7962 1.01637 21.83V22.4165ZM3.38564 23.3301C3.499 23.3527 3.57836 23.364 3.57836 23.364V23.9843C3.57836 23.9843 3.499 23.973 3.38564 23.9505V23.3301ZM3.03421 23.2399C3.09089 23.2624 3.17025 23.2737 3.22693 23.2963V23.9166C3.17025 23.9053 3.09089 23.8828 3.03421 23.8715V23.2399ZM2.68279 23.1271C2.70547 23.1384 2.72814 23.1497 2.76215 23.1497C2.79616 23.1609 2.81883 23.1722 2.87551 23.1835V23.8151C2.81883 23.7926 2.75081 23.7813 2.69413 23.7587V23.1271H2.68279ZM2.38806 23.0256C2.41073 23.0369 2.4674 23.0594 2.52408 23.082V23.7136C2.4674 23.691 2.41073 23.6798 2.38806 23.6572V23.0256ZM2.13866 22.9241C2.16133 22.9353 2.19534 22.9466 2.21801 22.9579V23.5895C2.19534 23.5783 2.16133 23.567 2.13866 23.5557V22.9241ZM1.90059 22.8113C1.90059 22.8113 1.95728 22.8338 2.03663 22.879V23.4993C1.95728 23.4542 1.90059 23.4316 1.90059 23.4316V22.8113ZM1.01637 23.4429C1.01637 24.5257 3.52167 25.4055 6.61646 25.4055C6.77516 25.4055 6.92253 25.4055 7.08124 25.3942V24.8641V24.8528C7.08124 24.8077 7.08124 24.7287 7.09258 24.6385C6.93387 24.6385 6.77516 24.6498 6.61646 24.6498C3.57836 24.6498 1.10706 23.8038 1.01637 22.7436C1.00504 22.7774 1.01637 22.8226 1.01637 22.8564V23.4429ZM3.38564 24.3565C3.499 24.3791 3.57836 24.3903 3.57836 24.3903V25.0107C3.57836 25.0107 3.499 24.9994 3.38564 24.9769V24.3565ZM3.03421 24.2663C3.09089 24.2888 3.17025 24.3001 3.22693 24.3227V24.943C3.17025 24.9317 3.09089 24.9092 3.03421 24.8979V24.2663ZM2.68279 24.1535C2.70547 24.1648 2.72814 24.176 2.76215 24.176C2.79616 24.1873 2.81883 24.1986 2.87551 24.2099V24.8415C2.81883 24.819 2.75081 24.8077 2.69413 24.7851V24.1535H2.68279ZM2.38806 24.0407C2.41073 24.052 2.4674 24.0745 2.52408 24.0971V24.7287C2.4674 24.7062 2.41073 24.6949 2.38806 24.6723V24.0407ZM2.13866 23.9392C2.16133 23.9505 2.19534 23.9617 2.21801 23.973V24.6047C2.19534 24.5934 2.16133 24.5821 2.13866 24.5708V23.9392ZM1.90059 23.8264C1.90059 23.8264 1.95728 23.849 2.03663 23.8941V24.5144C1.95728 24.4693 1.90059 24.4467 1.90059 24.4467V23.8264ZM27.7018 6.36639L18.2927 3.86243C16.6263 3.42255 14.9259 4.40383 14.4724 6.05057L12.3866 13.7767C12.3979 13.788 12.3979 13.788 12.4093 13.7993C13.0441 14.3294 13.1801 14.9046 13.1801 15.2994C13.2028 15.3671 13.2255 15.446 13.2368 15.5137C13.2481 15.5814 13.2481 15.6491 13.2481 15.728C13.2481 15.7731 13.2481 15.8972 13.2481 16.0213C13.2481 16.1453 13.2481 16.2694 13.2481 16.3145C13.2481 16.3822 13.2481 16.4612 13.2368 16.5288C13.2481 16.5852 13.2481 16.6529 13.2481 16.7431C13.2481 16.7883 13.2481 16.9123 13.2481 17.0364C13.2481 17.1605 13.2481 17.2845 13.2481 17.3296C13.2481 17.3973 13.2481 17.4763 13.2368 17.5439C13.2481 17.6003 13.2481 17.668 13.2481 17.7583C13.2481 17.8034 13.2481 17.9274 13.2481 18.0515C13.2481 18.1756 13.2481 18.2996 13.2481 18.3448C13.2481 18.4124 13.2481 18.4914 13.2368 18.5591C13.2481 18.6155 13.2481 18.6831 13.2481 18.7734C13.2481 18.8185 13.2481 18.9426 13.2481 19.0666C13.2481 19.1907 13.2481 19.3148 13.2481 19.3599C13.2481 19.3937 13.2481 19.4163 13.2481 19.4501C13.2821 19.4501 13.3048 19.4501 13.3388 19.4501C14.9372 19.4501 16.4563 19.6644 17.6126 20.0705C17.7259 20.1156 17.8506 20.1494 17.9527 20.1945C18.4968 20.0141 19.0863 19.5967 19.3017 18.8072C19.0636 19.687 19.4717 20.3976 19.9138 20.8149L18.4968 20.4314C18.7575 20.5667 18.9842 20.7134 19.1656 20.8826C19.8005 21.4127 19.9365 21.9879 19.9365 22.3827C19.9592 22.4503 19.9818 22.5293 19.9932 22.597C20.0045 22.6421 20.0045 22.721 20.0045 22.8113V23.1045V23.3978C20.0045 23.4655 20.0045 23.5444 19.9932 23.6234C20.0045 23.6685 20.0045 23.7474 20.0045 23.8264V24.1196V24.4129C20.0045 24.4806 20.0045 24.5595 19.9932 24.6385C20.0045 24.6836 20.0045 24.7626 20.0045 24.8415V25.1348V25.428C20.0045 25.4957 20.0045 25.5747 19.9932 25.6536C20.0045 25.6987 20.0045 25.7777 20.0045 25.8566V26.1499V26.4431C20.0045 26.5108 20.0045 26.5898 19.9932 26.6687C20.0045 26.7138 20.0045 26.7928 20.0045 26.8717V27.165V27.4583C20.0045 27.5259 20.0045 27.6049 19.9932 27.6838C20.0045 27.729 20.0045 27.8079 20.0045 27.8869V28.1801V28.4734C20.0045 28.541 20.0045 28.62 19.9932 28.699C20.0045 28.7441 20.0045 28.823 20.0045 28.902V29.1952V29.4885C20.0045 29.511 20.0045 29.5336 20.0045 29.5449L21.3308 29.8945C22.9973 30.3344 24.6977 29.3531 25.1511 27.7064L29.8897 10.111C30.3431 8.50941 29.3569 6.80627 27.7018 6.36639ZM15.8555 7.02057C16.0482 6.30999 17.1024 5.89267 17.6692 5.40767C17.93 6.11825 18.6215 6.99802 18.4288 7.7086C18.2361 8.41918 16.9324 8.14848 17.1931 7.1672C16.9324 8.15976 15.6627 7.73116 15.8555 7.02057ZM17.3405 8.24999L16.5356 8.03569C16.7624 7.9793 17.0231 7.82139 17.1138 7.4943C17.0231 7.83267 17.1705 8.09209 17.3405 8.24999ZM19.5397 17.95C18.8369 20.5555 15.4587 19.4388 15.9688 17.5552C16.4789 15.6716 19.2677 14.5663 20.798 13.2579C21.5009 15.1415 23.3373 17.4988 22.8272 19.3824C22.3284 21.266 18.8482 20.5667 19.5397 17.95ZM21.5576 28.3042C21.7843 28.2478 22.045 28.0899 22.1357 27.7628C22.045 28.0899 22.2037 28.3606 22.3624 28.5185L21.5576 28.3042ZM23.4621 27.9771C23.2693 28.6877 21.9657 28.417 22.2264 27.4357C21.9657 28.417 20.696 27.9997 20.8887 27.2891C21.0814 26.5785 22.1357 26.1612 22.7025 25.6762C22.9632 26.3755 23.6548 27.2665 23.4621 27.9771ZM26.3074 10.6412C26.5342 10.5848 26.7949 10.4269 26.8856 10.0998C26.7949 10.4269 26.9536 10.6976 27.1123 10.8555L26.3074 10.6412ZM28.2119 10.3141C28.0192 11.0246 26.7155 10.7539 26.9763 9.77267C26.7155 10.7539 25.4459 10.3366 25.6386 9.62604C25.8313 8.91546 26.8856 8.49813 27.4524 8.01313C27.7131 8.72371 28.4046 9.61476 28.2119 10.3141ZM4.25853 12.5135C4.99538 12.412 5.77758 12.3556 6.58245 12.3556C8.15818 12.3556 9.65455 12.5699 10.7995 12.9534C10.8562 12.9534 10.9129 12.9534 10.9696 12.9534C10.6408 12.6827 10.4027 12.2992 10.3234 11.8367C10.142 10.8216 10.8222 9.85162 11.8538 9.67116C12.1372 9.62604 12.4092 9.63732 12.67 9.70499L13.7129 5.83627C13.8603 5.2836 14.121 4.78732 14.4724 4.36999C14.4498 4.3136 14.4271 4.24592 14.4158 4.17825C14.3477 3.78348 14.6085 3.41127 15.0052 3.3436C15.0619 3.33232 15.1186 3.33232 15.1753 3.33232C15.0506 3.23081 14.9599 3.08418 14.9259 2.90371C14.8579 2.50894 15.1186 2.13674 15.5154 2.06906C15.9121 2.00139 16.2862 2.26081 16.3542 2.65557C16.3883 2.82476 16.3542 2.99395 16.2636 3.14057C16.3202 3.11802 16.3656 3.10674 16.4223 3.09546C16.4336 3.09546 16.4336 3.09546 16.4449 3.09546C16.7737 3.00522 17.1251 2.94883 17.4879 2.94883C17.828 2.94883 18.168 2.99395 18.4968 3.08418L18.8142 3.17441L18.7915 3.06162C18.4968 1.38104 16.8757 0.253131 15.1866 0.546387L5.5962 2.22697C3.9071 2.52022 2.77349 4.13313 3.06823 5.81371L4.25853 12.5135ZM5.8796 6.74988C6.07232 6.59197 6.26503 6.32127 6.19702 5.94906C6.26503 6.32127 6.5371 6.51302 6.77516 6.59197L5.8796 6.74988ZM5.31279 5.05802C5.36947 5.04674 5.42616 5.04674 5.48284 5.04674C5.35814 4.94522 5.26745 4.7986 5.23344 4.61813C5.16542 4.22336 5.42616 3.85116 5.82292 3.78348C6.21969 3.71581 6.59378 3.97522 6.6618 4.36999C6.69581 4.53918 6.6618 4.70836 6.57111 4.85499C6.62779 4.83243 6.67314 4.82115 6.72982 4.80988C7.12659 4.7422 7.50068 5.00162 7.56869 5.39639C7.63671 5.79116 7.37598 6.16336 6.97922 6.23104C6.58245 6.29871 6.20835 6.0393 6.14033 5.64453C6.20835 6.0393 5.94762 6.4115 5.55085 6.47918C5.15408 6.54685 4.77999 6.28743 4.71198 5.89267C4.66663 5.4979 4.92736 5.12569 5.31279 5.05802Z" fill="white"/>
</svg>
