<svg viewBox="0 0 17 25" xmlns="http://www.w3.org/2000/svg">
<path d="M4.61719 18.2783C5.3113 19.1629 5.94304 20.0947 6.50783 21.0669C6.99005 21.9813 7.19107 22.6013 7.54349 23.703C7.75962 24.3117 7.95495 24.4934 8.37492 24.4934C8.83256 24.4934 9.04018 24.1843 9.2006 23.7063C9.53372 22.6659 9.79511 21.8719 10.2075 21.1216C11.0167 19.6731 12.0222 18.3859 13.0102 17.1488C13.2777 16.7987 15.007 14.759 15.7855 13.1495C15.7855 13.1495 16.7424 11.3816 16.7424 8.91245C16.7424 6.60283 15.7987 5.00098 15.7987 5.00098L13.0819 5.72856L11.4319 10.0741L11.0237 10.6733L10.9421 10.7819L10.8336 10.9178L10.643 11.1348L10.3707 11.4071L8.90148 12.6041L5.22824 14.725L4.61719 18.2783Z" fill="#34A853"/>
<path d="M0.828125 12.8525C1.72463 14.9002 3.45341 16.7002 4.62307 18.2799L10.8357 10.9208C10.8357 10.9208 9.96042 12.0654 8.37276 12.0654C6.60428 12.0654 5.17559 10.6532 5.17559 8.87251C5.17559 7.65139 5.91024 6.8125 5.91024 6.8125L1.69298 7.94253L0.828125 12.8524V12.8525Z" fill="#FBBC04"/>
<path d="M10.8987 0.878483C12.9621 1.54375 14.7281 2.94039 15.7963 4.99988L10.8312 10.9167C10.8312 10.9167 11.5659 10.0626 11.5659 8.8491C11.5659 7.02693 10.0315 5.66567 8.37393 5.66567C6.80648 5.66567 5.90625 6.80845 5.90625 6.80845V3.08092L10.8987 0.878418V0.878483Z" fill="#4285F4"/>
<path d="M1.96094 3.49281C3.19331 2.01834 5.36181 0.5 8.35141 0.5C9.80187 0.5 10.8946 0.880796 10.8946 0.880796L5.90263 6.81167H2.36573L1.96094 3.49287V3.49281Z" fill="#1A73E8"/>
<path d="M0.824763 12.8525C0.824763 12.8525 0 11.2374 0 8.89752C0 6.68605 0.859684 4.75297 1.96283 3.49268L5.90734 6.81207L0.824763 12.8525Z" fill="#EA4335"/>
</svg>
