<svg viewBox="0 0 24 25" xmlns="http://www.w3.org/2000/svg">
<path fill-rule="evenodd" clip-rule="evenodd" d="M4.90553 2.13546C5.71441 1.32499 7.10798 1.23613 7.92692 2.181L11.2858 6.05791C11.294 6.06676 11.3021 6.07578 11.3101 6.08498C12.0494 6.93852 11.8981 8.17047 11.162 8.91004L10.0884 9.98444C11.1951 11.7801 12.7056 13.2928 14.4997 14.4021L15.5742 13.326C16.3106 12.5879 17.5386 12.4354 18.3915 13.1675C18.3915 13.1675 18.3915 13.1675 18.3915 13.1675L22.3115 16.5323C23.2642 17.3507 23.1766 18.7508 22.3653 19.5621L19.5579 22.3743C18.4563 23.4772 16.7729 23.8361 15.3693 23.1543C9.24598 20.1862 4.30427 15.2377 1.34481 9.11053C0.664449 7.70675 1.02291 6.02437 2.12355 4.92229M2.12355 4.92229L4.90553 2.13546C4.90558 2.13541 4.90548 2.13551 4.90553 2.13546M14.1947 14.7078C14.1975 14.7049 14.2004 14.702 14.2033 14.6991L14.1947 14.7078ZM9.78397 10.2887L9.7929 10.2799C9.78996 10.2829 9.78698 10.2858 9.78397 10.2887ZM9.79331 7.38603C9.79336 7.38601 9.79355 7.38646 9.79375 7.38745ZM9.79417 7.39061L6.42352 3.50008C6.42232 3.5 6.42095 3.49996 6.41939 3.49997C6.39921 3.50004 6.36058 3.50875 6.32112 3.5483L3.53899 6.33528C2.98425 6.89066 2.86843 7.66931 3.14491 8.23897L3.14574 8.24067C5.90936 13.9624 10.5241 18.5834 16.2423 21.3549C16.8106 21.6309 17.5881 21.5161 18.1425 20.9613C18.1425 20.9613 18.1424 20.9614 18.1425 20.9613L20.9505 18.1485C20.9903 18.1087 21 18.0686 21 18.0474C21 18.0454 21 18.0436 20.9999 18.0422L17.0947 14.6901C17.0924 14.6899 17.0889 14.6898 17.0839 14.6902C17.0619 14.6918 17.0256 14.703 16.9901 14.7385L15.6316 16.099C15.4119 16.3247 15.125 16.4736 14.8137 16.5231C14.4976 16.5734 14.1737 16.5186 13.8918 16.367C13.8861 16.364 13.8805 16.3609 13.8749 16.3577C13.872 16.3561 13.8691 16.3545 13.8662 16.3528C11.4835 14.9808 9.507 13.0018 8.13801 10.6174C8.13337 10.6094 8.12884 10.6012 8.12443 10.593C7.97283 10.311 7.91794 9.98702 7.96817 9.6708C8.01763 9.35949 8.16628 9.07261 8.3918 8.85276L9.74443 7.49922C9.74459 7.49906 9.74428 7.49937 9.74443 7.49922C9.78055 7.46271 9.79253 7.4248 9.79412 7.40185C9.79447 7.39681 9.79439 7.39314 9.79417 7.39061ZM17.0985 14.6908C17.0985 14.6908 17.098 14.6907 17.0972 14.6904ZM17.0889 14.6851C17.089 14.6852 17.0889 14.6851 17.0889 14.6851Z" />
</svg>
