<svg viewBox="0 0 24 24" xmlns="http://www.w3.org/2000/svg">
<path d="M14.2594 0C8.88844 0 4.5188 4.36964 4.5188 9.74063C4.5188 15.1116 8.88844 19.4813 14.2594 19.4813C19.6304 19.4813 24 15.1116 24 9.74063C24 4.36964 19.6304 0 14.2594 0ZM21.3606 5.37952C22.0514 6.50367 22.4675 7.78012 22.5692 9.10209L20.6131 7.6808L21.3606 5.37952ZM20.3213 4.02713L19.2303 7.38609L17.8631 7.83014L14.9625 5.72255V4.28522L17.8228 2.20753C18.7662 2.65561 19.6126 3.27567 20.3213 4.02713ZM14.2594 1.40625C14.9252 1.40625 15.5794 1.48355 16.2156 1.63692L14.2564 3.06005L12.2991 1.63795C12.9366 1.48392 13.5923 1.40625 14.2594 1.40625ZM10.6927 2.20913L13.5563 4.28958V5.72255L10.6557 7.83014L9.28861 7.38619L8.19755 4.02713C8.90541 3.27656 9.75061 2.65706 10.6927 2.20913ZM7.15828 5.37952L7.90575 7.6808L5.94961 9.10209C6.05133 7.78017 6.46744 6.50367 7.15828 5.37952ZM7.91822 15.1448H10.3328L11.0798 17.4443C9.86541 16.9395 8.7765 16.1475 7.91822 15.1448ZM10.4854 13.7385H6.94838C6.45928 12.8477 6.12811 11.8585 5.99325 10.8086L8.86008 8.72559L10.2207 9.16744L11.3286 12.5778L10.4854 13.7385ZM15.8023 17.9312C15.3021 18.0252 14.7865 18.075 14.2594 18.075C13.7324 18.075 13.2167 18.0253 12.7166 17.9312L11.623 14.565L12.4661 13.4046H16.0524L16.8957 14.5654L15.8023 17.9312ZM15.8995 11.9984H12.619L11.6054 8.87836L14.2594 6.94992L16.9133 8.87831L15.8995 11.9984ZM17.439 17.4443L18.1861 15.1448H20.6006C19.7423 16.1475 18.6534 16.9395 17.439 17.4443ZM21.5705 13.7385H18.0331L17.1899 12.5779L18.2981 9.16748L19.6587 8.72555L22.5255 10.8086C22.3907 11.8585 22.0595 12.8477 21.5705 13.7385Z"/>
<path d="M6.23759 17.7626C5.96304 17.488 5.51782 17.488 5.24323 17.7626L0.205945 22.7998C-0.0686484 23.0744 -0.0686484 23.5196 0.205945 23.7942C0.480492 24.0687 0.925711 24.0687 1.2003 23.7942L6.23759 18.7569C6.51218 18.4823 6.51218 18.0371 6.23759 17.7626Z"/>
<path d="M7.80552 19.7184L4.72438 22.7989C4.44978 23.0735 4.44978 23.5187 4.72438 23.7933C4.99892 24.0678 5.44414 24.0678 5.71874 23.7933L8.79988 20.7127C9.07447 20.4382 9.07447 19.993 8.79988 19.7184C8.52528 19.4438 8.08007 19.4438 7.80552 19.7184Z"/>
<path d="M1.2003 19.275L4.28145 16.1944C4.55604 15.9199 4.55604 15.4746 4.28145 15.2001C4.0069 14.9255 3.56168 14.9255 3.28709 15.2001L0.205945 18.2806C-0.0686484 18.5552 -0.0686484 19.0004 0.205945 19.275C0.480539 19.5496 0.925758 19.5496 1.2003 19.275Z"/>
</svg>
