<svg xmlns="http://www.w3.org/2000/svg" viewBox="0 0 180 50" fill="#b90000">
  <path id="img" class="cls-1" d="M353.912,66.95V25.54h-8.9V74.461h28.019V66.95H353.912Zm68.513-23.784a24.933,24.933,0,0,0-2.266-6.022,23.235,23.235,0,0,0-3.622-5.024,21.87,21.87,0,0,0-4.813-3.823,23.761,23.761,0,0,0-5.889-2.436A26.272,26.272,0,0,0,398.988,25a25.273,25.273,0,0,0-9.891,1.878,22.469,22.469,0,0,0-7.658,5.227,23.535,23.535,0,0,0-4.946,7.934A27.661,27.661,0,0,0,374.74,50a27.66,27.66,0,0,0,1.753,9.964,23.531,23.531,0,0,0,4.946,7.934,22.47,22.47,0,0,0,7.658,5.227,27.077,27.077,0,0,0,19.815,0,22.3,22.3,0,0,0,7.641-5.227,23.454,23.454,0,0,0,4.913-7.934A27.894,27.894,0,0,0,423.2,50,29.287,29.287,0,0,0,422.425,43.166Zm-9.378,14.057a15.4,15.4,0,0,1-3.01,5.413,12.988,12.988,0,0,1-4.747,3.4,17.362,17.362,0,0,1-12.6,0,13.114,13.114,0,0,1-4.763-3.4,15.227,15.227,0,0,1-3.027-5.413A22.911,22.911,0,0,1,383.837,50a22.914,22.914,0,0,1,1.059-7.223,15.405,15.405,0,0,1,3.027-5.43,13.037,13.037,0,0,1,4.763-3.417,17.362,17.362,0,0,1,12.6,0,12.913,12.913,0,0,1,4.747,3.417,15.581,15.581,0,0,1,3.01,5.43A22.943,22.943,0,0,1,414.105,50,22.941,22.941,0,0,1,413.047,57.224Zm42.037-7.291v5.143a1.651,1.651,0,0,0,.48,1.2,1.784,1.784,0,0,0,1.339.49h6.021v8.864a22.87,22.87,0,0,1-4.069,1.556,17.792,17.792,0,0,1-4.73.575,17.975,17.975,0,0,1-6.716-1.2,14.067,14.067,0,0,1-5.143-3.485,15.829,15.829,0,0,1-3.309-5.582A22.259,22.259,0,0,1,437.783,50a21.783,21.783,0,0,1,1.092-7.1,15.787,15.787,0,0,1,3.109-5.447,13.546,13.546,0,0,1,4.88-3.485,16.188,16.188,0,0,1,6.4-1.218,21.681,21.681,0,0,1,3.853.3,19.63,19.63,0,0,1,3.011.778,13.992,13.992,0,0,1,2.431,1.116l2.183,1.286a2.731,2.731,0,0,0,2.084.491,2.436,2.436,0,0,0,1.555-1.2l2.547-4.128a23.671,23.671,0,0,0-3.275-2.605,20.218,20.218,0,0,0-3.953-2.013,27.107,27.107,0,0,0-4.7-1.3A29.6,29.6,0,0,0,453.562,25a27.743,27.743,0,0,0-10.321,1.827,22.181,22.181,0,0,0-7.823,5.143,22.9,22.9,0,0,0-4.979,7.917A28.191,28.191,0,0,0,428.686,50a27.064,27.064,0,0,0,1.82,10.048,22.69,22.69,0,0,0,5.177,7.917,23.642,23.642,0,0,0,8.1,5.176A28.831,28.831,0,0,0,454.389,75a29.8,29.8,0,0,0,8.816-1.269,25.135,25.135,0,0,0,7.757-4.009V49.933H455.084Zm69.126-6.766a25.016,25.016,0,0,0-2.266-6.022,23.269,23.269,0,0,0-3.622-5.024,21.853,21.853,0,0,0-4.814-3.823,23.738,23.738,0,0,0-5.888-2.436A26.278,26.278,0,0,0,500.773,25a25.27,25.27,0,0,0-9.891,1.878,22.459,22.459,0,0,0-7.658,5.227,23.535,23.535,0,0,0-4.946,7.934A27.661,27.661,0,0,0,476.525,50a27.66,27.66,0,0,0,1.753,9.964,23.531,23.531,0,0,0,4.946,7.934,22.46,22.46,0,0,0,7.658,5.227,27.077,27.077,0,0,0,19.815,0,22.3,22.3,0,0,0,7.641-5.227,23.47,23.47,0,0,0,4.913-7.934A27.916,27.916,0,0,0,524.987,50,29.287,29.287,0,0,0,524.21,43.166Zm-9.378,14.057a15.4,15.4,0,0,1-3.011,5.413,12.971,12.971,0,0,1-4.747,3.4,17.36,17.36,0,0,1-12.6,0,13.126,13.126,0,0,1-4.764-3.4,15.258,15.258,0,0,1-3.027-5.413A22.941,22.941,0,0,1,485.622,50a22.943,22.943,0,0,1,1.058-7.223,15.437,15.437,0,0,1,3.027-5.43,13.049,13.049,0,0,1,4.764-3.417,17.36,17.36,0,0,1,12.6,0,12.9,12.9,0,0,1,4.747,3.417,15.583,15.583,0,0,1,3.011,5.43A22.943,22.943,0,0,1,515.89,50,22.941,22.941,0,0,1,514.832,57.224Z" transform="translate(-345 -25)"/>
</svg>
