<svg width="32" height="22" viewBox="0 0 32 22" fill="none" xmlns="http://www.w3.org/2000/svg">
<path d="M17 10.5H19V12.5H17V10.5Z" fill="#104C54"/>
<path d="M21 10.5H23V12.5H21V10.5Z" fill="#104C54"/>
<path d="M13 10.5H15V12.5H13V10.5Z" fill="#104C54"/>
<path d="M9 10.5H11V12.5H9V10.5Z" fill="#104C54"/>
<path d="M21.6484 0.5H10.3516C4.64369 0.5 0 5.21028 0 11C0 16.7897 4.64369 21.5 10.3516 21.5H21.6484C27.3563 21.5 32 16.7897 32 11C32 5.21028 27.3563 0.5 21.6484 0.5ZM11.2891 17.6804H15.0625V19.5981H11.2891V17.6804ZM16.9375 17.6804H20.7109V19.5981H16.9375V17.6804ZM21.6484 15.7785H10.3516C7.75394 15.7785 5.64062 13.6349 5.64062 11C5.64062 8.36513 7.75394 6.22151 10.3516 6.22151H21.6484C24.2461 6.22151 26.3594 8.36513 26.3594 11C26.3594 13.6349 24.2461 15.7785 21.6484 15.7785ZM16.9375 4.31962V2.40189H20.7109V4.31962H16.9375ZM15.0625 4.31962H11.2891V2.40189H15.0625V4.31962ZM1.875 11C1.875 6.5804 5.17963 2.92953 9.41406 2.45476V4.38765C6.22506 4.85063 3.76562 7.6393 3.76562 11C3.76562 14.3607 6.22506 17.1494 9.41406 17.6124V19.5453C5.17963 19.0705 1.875 15.4196 1.875 11ZM22.5859 19.5452V17.6124C25.7749 17.1493 28.2344 14.3606 28.2344 10.9999C28.2344 7.63924 25.7749 4.85057 22.5859 4.38752V2.45463C26.8204 2.92953 30.125 6.5804 30.125 11C30.125 15.4196 26.8204 19.0705 22.5859 19.5452Z" fill="#104C54"/>
</svg>
