<svg width="32" height="29" viewBox="0 0 32 29" fill="none" xmlns="http://www.w3.org/2000/svg">
<path d="M8 22.5H25V24.5H8V22.5Z" fill="#104C54"/>
<path d="M9 16.5L10.4201 15.0917L11.8402 16.5L10.4201 17.9083L9 16.5Z" fill="#104C54"/>
<path d="M20 16.5L21.4201 15.0917L22.8402 16.5L21.4201 17.9083L20 16.5Z" fill="#104C54"/>
<path d="M12 15L15.5 19.5L19 15L15.5 10.5L12 15ZM15.5 16.4918L14.3397 15L15.5 13.5082L16.6603 15L15.5 16.4918Z" fill="#104C54"/>
<path d="M32 10.7657C32 9.22346 30.7348 7.96878 29.1797 7.96878C27.6411 7.96878 26.3872 9.19706 26.3606 10.7166L24.5181 11.3251C23.1089 11.7905 21.5576 11.1965 20.8293 9.91288L18.1203 5.1381C18.5556 4.64573 18.8203 4.00162 18.8203 3.29689C18.8203 1.75468 17.5551 0.5 16 0.5C14.4449 0.5 13.1797 1.75468 13.1797 3.29689C13.1797 4.00156 13.4444 4.64573 13.8797 5.1381L11.1707 9.91288C10.4424 11.1965 8.89087 11.7903 7.482 11.3251L5.63938 10.7166C5.61281 9.19699 4.35888 7.96872 2.82031 7.96872C1.26519 7.96878 0 9.22346 0 10.7657C0 12.1739 1.05519 13.3419 2.42256 13.5342L3.55956 19.1719H2.45019V21.0313H3.76562V26.6406H2.45019V28.5H29.5498V26.6406H28.2344V21.0313H29.5498V19.1719H28.4404L29.5774 13.5342C30.9448 13.3419 32 12.1739 32 10.7657ZM29.1797 9.82821C29.7009 9.82821 30.125 10.2488 30.125 10.7657C30.125 11.2826 29.7009 11.7031 29.1797 11.7031C28.6584 11.7031 28.2344 11.2826 28.2344 10.7657C28.2344 10.2488 28.6584 9.82821 29.1797 9.82821ZM16 2.35949C16.5212 2.35949 16.9453 2.78003 16.9453 3.29696C16.9453 3.81388 16.5212 4.23442 16 4.23442C15.4788 4.23442 15.0547 3.81388 15.0547 3.29696C15.0547 2.78003 15.4788 2.35949 16 2.35949ZM1.875 10.7657C1.875 10.2488 2.29906 9.82821 2.82031 9.82821C3.34156 9.82821 3.76562 10.2488 3.76562 10.7657C3.76562 11.2826 3.34156 11.7031 2.82031 11.7031C2.29906 11.7031 1.875 11.2826 1.875 10.7657ZM26.3594 26.6406H5.64062V21.0313H26.3594V26.6406ZM5.47169 19.1719L4.26106 13.1688C4.564 12.9895 4.83006 12.7554 5.04594 12.4805L6.88963 13.0893C9.039 13.8256 11.659 12.9014 12.8049 10.8247L15.5131 6.05127C15.6714 6.07873 15.8339 6.09385 16.0001 6.09385C16.1662 6.09385 16.3288 6.07873 16.4871 6.05127L19.1953 10.8247C20.3623 12.8926 22.8665 13.822 25.1106 13.0893L26.9543 12.4806C27.1701 12.7555 27.4361 12.9896 27.7391 13.1689L26.5285 19.1719H5.47169V19.1719Z" fill="#104C54"/>
</svg>
