<svg width="32" height="33" viewBox="0 0 32 33" fill="none" xmlns="http://www.w3.org/2000/svg">
<path d="M26 7.5C27.6542 7.5 29 6.22918 29 4.66714C29 2.3453 26 0.5 26 0.5C26 0.5 23 2.3453 23 4.66714C23 6.22918 24.3458 7.5 26 7.5ZM25.9995 3.07628C26.5223 3.62842 27.0055 4.28696 27.0055 4.66714C27.0055 5.19071 26.5545 5.61666 26 5.61666C25.4455 5.61666 24.9945 5.19071 24.9945 4.66714C24.9945 4.28338 25.4733 3.62999 25.9995 3.07628Z" fill="#104C54"/>
<path d="M15.9579 22.9087H17.0421C17.5879 22.9087 18.0318 23.3187 18.0318 23.8227C18.0318 24.3266 17.5878 24.7366 17.0421 24.7366H15.9386C15.4121 24.7366 14.9838 24.3411 14.9838 23.8549H13.0157C13.0157 25.2106 14.1039 26.3356 15.5159 26.5253V27.5H17.4841V26.5233C18.9062 26.3257 20 25.19 20 23.8227C20 22.3166 18.6731 21.0913 17.0422 21.0913H15.958C15.4122 21.0913 14.9683 20.6813 14.9683 20.1774C14.9683 19.6735 15.4123 19.2635 15.958 19.2635H17.0173C17.5637 19.2635 18.0082 19.6739 18.0082 20.1785H19.9764C19.9764 18.8185 18.8947 17.6878 17.4841 17.4804V16.5H15.5159V17.4767C14.0938 17.6743 13 18.81 13 20.1773C13 21.6834 14.3269 22.9087 15.9579 22.9087Z" fill="#104C54"/>
<path d="M24.6338 11.7968C24.5833 8.84487 22.8666 6.98356 20.4378 5.90631C20.2008 6.30781 20.052 6.79181 19.6206 7.13781C19.3726 7.32275 19.2038 7.30469 19.0117 7.21569C18.7076 7.07469 18.552 6.92869 18.8926 5.56969C19.4684 2.43912 17.0369 1.28975 15.2209 0.5C15.0501 1.81737 15.2148 3.01144 13.7601 3.99187C11.9694 4.94744 12.178 6.30375 12.3026 7.11413C12.4087 7.80388 12.4189 8.01806 11.9617 8.36181C11.8628 8.43606 11.6314 8.61006 11.0996 8.36281C10.4064 8.00588 10.2273 7.66838 9.77769 7.24594C8.30381 8.42912 7.42738 9.95969 7.37025 11.7968H0V32.4999H32V11.7968H24.6338ZM9.87644 9.83C10.7439 10.3571 11.9781 10.6955 13.0886 9.86044C14.4633 8.827 14.2709 7.57631 14.1559 6.82912C14.0726 6.26525 13.9822 5.9885 14.6429 5.646C15.6677 5.09919 16.2445 4.20625 16.5661 3.43963C16.5704 3.44412 16.5748 3.44875 16.5791 3.45331C17.0636 3.96613 17.2255 4.50931 17.074 5.11381C16.9173 5.73887 16.7815 6.35125 16.8398 6.96994C16.9241 7.86306 17.4024 8.53631 18.2233 8.91675C19.1576 9.3585 20.2514 9.16281 21.0415 8.38588C22.1191 9.17806 22.7499 10.4427 22.7586 11.7967H9.2445C9.27819 11.0835 9.49775 10.3952 9.87644 9.83ZM23.5312 20.8084L22.5859 21.7537V17.4372H24.6414C24.9248 18.2381 25.5607 18.8741 26.3617 19.1575V25.1384C25.5607 25.4218 24.9248 26.0578 24.6414 26.8587H22.5859V22.5147L23.5312 23.46L24.8571 22.1342L23.5312 20.8084ZM9.4165 21.7561L8.46875 20.8084L7.14294 22.1342L8.46875 23.4601L9.4165 22.5123V26.8587H7.36094C7.07756 26.0578 6.44163 25.4218 5.64062 25.1384V19.1575C6.44163 18.8741 7.07756 18.2381 7.36094 17.4372H9.4165V21.7561ZM9.4165 15.5621H5.64625V16.4996C5.64625 17.0196 5.22319 17.4427 4.70312 17.4427H3.76562V26.8531H4.70312C5.22319 26.8531 5.64625 27.2762 5.64625 27.7962V28.7337H9.4165V30.6249H1.875V13.6718H9.4165V15.5621ZM20.7109 30.6249H11.2915V13.6718H20.7109V30.6249ZM30.125 30.6249H22.5859V28.7337H26.3561V27.7962C26.3561 27.2762 26.7792 26.8531 27.2992 26.8531H28.2367V17.4427H27.2992C26.7792 17.4427 26.3561 17.0196 26.3561 16.4996V15.5621H22.5859V13.6718H30.125V30.6249Z" fill="#104C54"/>
</svg>
