<svg width="19" height="30" viewBox="0 0 19 30" fill="none" xmlns="http://www.w3.org/2000/svg">
<path d="M15.5 0.5H3.5C2.83797 0.503529 2.20399 0.787565 1.73586 1.29037C1.26773 1.79318 1.00329 2.47412 1 3.18518V26.8148C1.00329 27.5259 1.26773 28.2068 1.73586 28.7096C2.20399 29.2124 2.83797 29.4965 3.5 29.5H15.5C16.162 29.4965 16.796 29.2124 17.2641 28.7096C17.7323 28.2068 17.9967 27.5259 18 26.8148V3.18518C17.9967 2.47412 17.7323 1.79318 17.2641 1.29037C16.796 0.787565 16.162 0.503529 15.5 0.5ZM2 5.87037H17V24.1296H2V5.87037ZM3.5 1.57407H15.5C15.8978 1.57407 16.2794 1.74382 16.5607 2.04596C16.842 2.3481 17 2.75789 17 3.18518V4.7963H2V3.18518C2 2.75789 2.15804 2.3481 2.43934 2.04596C2.72064 1.74382 3.10218 1.57407 3.5 1.57407ZM15.5 28.4259H3.5C3.10218 28.4259 2.72064 28.2562 2.43934 27.954C2.15804 27.6519 2 27.2421 2 26.8148V25.2037H17V26.8148C17 27.2421 16.842 27.6519 16.5607 27.954C16.2794 28.2562 15.8978 28.4259 15.5 28.4259Z" fill="#104C54" stroke="#104C54"/>
</svg>
