<svg width="36" height="25" viewBox="0 0 36 25" fill="none" xmlns="http://www.w3.org/2000/svg">
<g clip-path="url(#clip0_812_24703)">
<path d="M0 3.5C0 1.84315 1.34315 0.5 3 0.5H33C34.6569 0.5 36 1.84315 36 3.5V21.5C36 23.1569 34.6569 24.5 33 24.5H3C1.34315 24.5 0 23.1569 0 21.5V3.5Z" fill="#EBEBEB"/>
<path d="M30.9824 8.02637H29.0964C28.5263 8.02637 28.0877 8.20181 27.8245 8.77198L24.228 16.9737H26.7719C26.7719 16.9737 27.2105 15.8772 27.2982 15.6141C27.5614 15.6141 30.0614 15.6141 30.4122 15.6141C30.5 15.9211 30.7193 16.9299 30.7193 16.9299H33L30.9824 8.02637ZM28 13.772C28.2193 13.2457 28.9649 11.272 28.9649 11.272C28.9649 11.3158 29.1842 10.7457 29.2719 10.4386L29.4473 11.2281C29.4473 11.2281 29.9298 13.3772 30.0175 13.8158H28V13.772Z" fill="#3362AB"/>
<path d="M24.4036 14.0351C24.4036 15.8772 22.7369 17.1053 20.1492 17.1053C19.0527 17.1053 18.0001 16.886 17.4299 16.6228L17.7808 14.6053L18.0878 14.7369C18.8773 15.0878 19.4036 15.2193 20.3685 15.2193C21.0703 15.2193 21.8159 14.9562 21.8159 14.3421C21.8159 13.9474 21.5089 13.6842 20.544 13.2457C19.6229 12.8071 18.3948 12.1053 18.3948 10.8334C18.3948 9.07899 20.1054 7.89478 22.5176 7.89478C23.4387 7.89478 24.2282 8.07021 24.7106 8.28951L24.3598 10.2193L24.1843 10.0439C23.7457 9.86846 23.1755 9.69302 22.3422 9.69302C21.4212 9.73688 20.9826 10.1316 20.9826 10.4825C20.9826 10.8772 21.5089 11.1842 22.3422 11.579C23.7457 12.2369 24.4036 12.9825 24.4036 14.0351Z" fill="#3362AB"/>
<path d="M3 8.11416L3.04386 7.93872H6.81579C7.3421 7.93872 7.73684 8.11416 7.86842 8.68433L8.70175 12.6317C7.86842 10.5264 5.9386 8.81591 3 8.11416Z" fill="#F9B50B"/>
<path d="M14.0088 8.02628L10.1931 16.9298H7.60534L5.41235 9.47365C6.9913 10.4824 8.30709 12.0614 8.78955 13.1579L9.0527 14.0789L11.4211 7.98242H14.0088V8.02628Z" fill="#3362AB"/>
<path d="M15.0175 7.98242H17.4298L15.8947 16.9298H13.4824L15.0175 7.98242Z" fill="#3362AB"/>
</g>
<defs>
<clipPath id="clip0_812_24703">
<rect width="36" height="24" fill="white" transform="translate(0 0.5)"/>
</clipPath>
</defs>
</svg>
