<svg width="30" height="9" viewBox="0 0 30 9" fill="none" xmlns="http://www.w3.org/2000/svg">
<path d="M5.07812 0.638065C4.70209 0.379564 4.21141 0.25 3.60608 0.25H1.26255C1.07698 0.25 0.974453 0.342808 0.954978 0.528245L0.00298828 6.50413C-0.0069059 6.56282 0.00777862 6.6165 0.0469076 6.6653C0.0858128 6.71419 0.134746 6.7385 0.19335 6.7385H1.30651C1.50175 6.7385 1.60907 6.64591 1.62877 6.46025L1.89237 4.84917C1.902 4.77109 1.93634 4.7076 1.99494 4.65871C2.0535 4.60992 2.12674 4.57799 2.21463 4.5634C2.30251 4.54889 2.38538 4.54155 2.46364 4.54155C2.54167 4.54155 2.63439 4.54652 2.74197 4.55624C2.84929 4.56595 2.91769 4.57074 2.94702 4.57074C3.78673 4.57074 4.44583 4.33413 4.92438 3.86038C5.4027 3.38689 5.64213 2.7303 5.64213 1.89032C5.64213 1.31422 5.45396 0.896835 5.07812 0.637931V0.638065ZM3.86982 2.43244C3.82084 2.77426 3.69405 2.99874 3.489 3.10618C3.28391 3.21377 2.99098 3.26731 2.61021 3.26731L2.12683 3.28191L2.37589 1.71465C2.39532 1.60733 2.45876 1.55361 2.56625 1.55361H2.84463C3.23502 1.55361 3.51837 1.60989 3.69414 1.72199C3.86982 1.83436 3.92842 2.07124 3.86982 2.43244V2.43244Z" fill="#003087"/>
<path d="M29.8093 0.25H28.7256C28.6179 0.25 28.5545 0.303724 28.5351 0.411217L27.583 6.5044L27.5684 6.53368C27.5684 6.58274 27.5879 6.6289 27.6271 6.67287C27.6659 6.71674 27.7149 6.73872 27.7735 6.73872H28.7403C28.9255 6.73872 29.0281 6.64614 29.0479 6.46048L29.9999 0.46982V0.45527C29.9999 0.318498 29.9362 0.25018 29.8093 0.25018V0.25Z" fill="#009CDE"/>
<path d="M16.7152 2.60837C16.7152 2.55966 16.6956 2.51319 16.6568 2.46936C16.6176 2.42544 16.5737 2.40332 16.5249 2.40332H15.3971C15.2895 2.40332 15.2016 2.45239 15.1334 2.54976L13.5809 4.83477L12.9364 2.63774C12.8873 2.48162 12.78 2.40332 12.6142 2.40332H11.5155C11.4665 2.40332 11.4226 2.42535 11.3838 2.46936C11.3446 2.51319 11.3252 2.55975 11.3252 2.60837C11.3252 2.62802 11.4204 2.91598 11.6108 3.47256C11.8011 4.02932 12.0062 4.62986 12.2259 5.27437C12.4457 5.91874 12.5603 6.26069 12.5701 6.29942C11.7694 7.39324 11.3692 7.9791 11.3692 8.05708C11.3692 8.18414 11.4325 8.24754 11.5596 8.24754H12.6874C12.7947 8.24754 12.8826 8.19883 12.9511 8.10114L16.6861 2.71084C16.7055 2.6915 16.7152 2.65748 16.7152 2.60832V2.60837Z" fill="#003087"/>
<path d="M27.2172 2.4033H26.104C25.9671 2.4033 25.8844 2.56448 25.8551 2.88678C25.6009 2.49629 25.1374 2.30078 24.4635 2.30078C23.7605 2.30078 23.1623 2.56448 22.6693 3.09178C22.1761 3.61908 21.9297 4.23933 21.9297 4.95207C21.9297 5.5283 22.0981 5.9872 22.4349 6.32884C22.7718 6.67084 23.2233 6.8415 23.7899 6.8415C24.073 6.8415 24.3611 6.78281 24.654 6.66573C24.9469 6.54857 25.1762 6.39241 25.3425 6.19703C25.3425 6.20684 25.3325 6.25062 25.3132 6.3287C25.2935 6.40696 25.2839 6.46574 25.2839 6.50447C25.2839 6.6609 25.3472 6.7388 25.4743 6.7388H26.485C26.6703 6.7388 26.7779 6.64621 26.8071 6.46055L27.4077 2.63763C27.4173 2.57898 27.4027 2.52539 27.3637 2.4765C27.3245 2.42779 27.2757 2.4033 27.2172 2.4033V2.4033ZM25.3058 5.28892C25.0568 5.53305 24.7565 5.65505 24.405 5.65505C24.1217 5.65505 23.8924 5.57706 23.7166 5.42072C23.5407 5.26483 23.4528 5.04998 23.4528 4.77625C23.4528 4.41523 23.5749 4.10981 23.8191 3.86084C24.0629 3.61183 24.3659 3.48737 24.7272 3.48737C25.0004 3.48737 25.2275 3.56791 25.4083 3.72895C25.5887 3.89012 25.6794 4.11227 25.6794 4.39553C25.6793 4.74702 25.5548 5.04492 25.3058 5.28892Z" fill="#009CDE"/>
<path d="M10.5779 2.4033H9.46475C9.32784 2.4033 9.24502 2.56448 9.21569 2.88678C8.95204 2.49629 8.48818 2.30078 7.8242 2.30078C7.12114 2.30078 6.52297 2.56448 6.02992 3.09178C5.53674 3.61908 5.29028 4.23933 5.29028 4.95207C5.29028 5.5283 5.45875 5.9872 5.79564 6.32884C6.13254 6.67084 6.58404 6.8415 7.15047 6.8415C7.42374 6.8415 7.70709 6.78281 7.99997 6.66573C8.2929 6.54857 8.52727 6.39241 8.70303 6.19703C8.66386 6.31411 8.64443 6.41668 8.64443 6.50447C8.64443 6.6609 8.70787 6.7388 8.83484 6.7388H9.84547C10.0309 6.7388 10.1384 6.64621 10.1677 6.46055L10.7682 2.63763C10.7778 2.57898 10.7632 2.52539 10.7243 2.4765C10.6852 2.42779 10.6365 2.4033 10.5779 2.4033V2.4033ZM8.6665 5.29617C8.41745 5.53569 8.11216 5.65505 7.7511 5.65505C7.46775 5.65505 7.24072 5.57706 7.06997 5.42072C6.89899 5.26483 6.81362 5.04998 6.81362 4.77625C6.81362 4.41523 6.93562 4.10981 7.17983 3.86084C7.42378 3.61183 7.72652 3.48732 8.08794 3.48732C8.36122 3.48732 8.58824 3.56791 8.76907 3.72895C8.94958 3.89012 9.04002 4.11227 9.04002 4.39553C9.03997 4.75682 8.91551 5.05719 8.6665 5.29617V5.29617Z" fill="#003087"/>
<path d="M21.7173 0.638065C21.3414 0.379564 20.8508 0.25 20.2454 0.25H17.9164C17.7211 0.25 17.6136 0.342808 17.5942 0.528245L16.6421 6.50413C16.6323 6.56282 16.6469 6.6165 16.6861 6.6653C16.7248 6.71419 16.7739 6.7385 16.8325 6.7385H18.0335C18.1507 6.7385 18.2287 6.6751 18.2679 6.54814L18.5316 4.84917C18.5413 4.77109 18.5754 4.7076 18.6341 4.65871C18.6927 4.60992 18.7659 4.57799 18.8539 4.5634C18.9417 4.54889 19.0245 4.54155 19.1028 4.54155C19.1809 4.54155 19.2736 4.54652 19.3811 4.55624C19.4884 4.56595 19.557 4.57074 19.5861 4.57074C20.426 4.57074 21.085 4.33413 21.5635 3.86038C22.042 3.38689 22.2812 2.7303 22.2812 1.89032C22.2813 1.31422 22.0932 0.89679 21.7173 0.637931V0.638065ZM20.2161 3.04754C20.0012 3.19398 19.6789 3.26718 19.2494 3.26718L18.7806 3.28186L19.0296 1.71456C19.049 1.60729 19.1125 1.55347 19.22 1.55347H19.4836C19.6984 1.55347 19.8692 1.56328 19.9964 1.58275C20.1231 1.60236 20.2454 1.6633 20.3625 1.76577C20.4798 1.86834 20.5383 2.01734 20.5383 2.21253C20.5383 2.6228 20.4308 2.90096 20.2161 3.04754Z" fill="#009CDE"/>
</svg>
