<svg width="30" height="6" viewBox="0 0 30 6" fill="none" xmlns="http://www.w3.org/2000/svg">
<path d="M12.9355 4.06445C12.5594 4.44091 12.2124 4.58799 11.8385 4.59595C10.9277 4.58778 10.2581 3.91329 10.2581 2.95166C10.2581 2.4676 10.4414 2.07087 10.7317 1.73195C11.004 1.47346 11.3548 1.30644 11.7581 1.30644C12.1936 1.30644 12.5324 1.45157 12.9192 1.83867V0.725821C12.5325 0.532372 12.1935 0.435547 11.7581 0.435547C11.1431 0.47951 10.5631 0.72803 10.1183 1.11827C9.99007 1.23364 9.86722 1.36097 9.76303 1.50671C9.43809 1.92787 9.2417 2.44358 9.2417 3.00024C9.2417 4.40324 10.355 5.46771 11.7581 5.46771C11.7649 5.46771 11.7717 5.46711 11.7783 5.46704C11.7877 5.46717 11.797 5.46771 11.8064 5.46771C12.1934 5.46771 12.5324 5.37115 12.9678 5.17757L12.9355 4.06445C12.9192 4.08078 12.9517 4.09596 12.9355 4.11142V4.06445Z" fill="#090909"/>
<path d="M21.6121 1.12856L20.5163 3.82267L19.2581 0.628906H18.2422L20.2259 5.516H20.7582L22.8388 0.628906H21.8228L21.6121 1.12856Z" fill="#090909"/>
<path d="M23.2258 2.75799V5.37106H25.8388H25.887V4.5966H25.0645H24.1935V3.72584V3.29049H25.8388V2.46765H24.1935V1.45162H25.887V0.628906H23.2258V2.75799Z" fill="#090909"/>
<path d="M1.35508 0.628906H0V5.37106H1.35502C2.0807 5.37106 2.61287 5.17735 3.04835 4.83863C3.58052 4.40315 3.91938 3.72591 3.91938 3.00022C3.91944 1.59662 2.90315 0.628906 1.35508 0.628906ZM2.46787 4.20976C2.17753 4.45159 1.79043 4.5966 1.20975 4.5966H0.919404V1.45155H1.1613C1.74198 1.45155 2.12908 1.54831 2.41949 1.83852C2.75814 2.12866 2.9518 2.56441 2.9518 3.00002C3.00017 3.4355 2.80666 3.91915 2.46787 4.20976Z" fill="#090909"/>
<path d="M5.27456 0.628418H4.35522V5.37044H5.27456V0.628418Z" fill="#090909"/>
<path d="M7.59677 2.46766C7.01622 2.27415 6.87088 2.12887 6.87088 1.88705C6.87088 1.5967 7.16122 1.35481 7.54832 1.35481C7.83866 1.35481 8.08056 1.45163 8.32252 1.74198L8.80651 1.11298C8.41928 0.774126 7.93562 0.580811 7.40332 0.580811C6.58054 0.580811 5.9031 1.16149 5.9031 1.93543C5.9031 2.613 6.1937 2.90328 7.06453 3.242C7.45163 3.38693 7.59683 3.43551 7.69379 3.53227C7.88697 3.62889 7.98393 3.82261 7.98393 4.01593C7.98393 4.4031 7.69379 4.6935 7.25805 4.6935C6.82216 4.6935 6.4354 4.45161 6.24182 4.06444L5.66113 4.64512C6.09681 5.27412 6.62905 5.56439 7.30649 5.56439C8.27414 5.56439 8.95125 4.9354 8.95125 4.01593C8.95138 3.19355 8.66131 2.85483 7.59677 2.46766Z" fill="#090909"/>
<path d="M28.5001 3.38692C29.2257 3.24198 29.6129 2.75792 29.6129 2.0323C29.6129 1.16148 28.9838 0.628906 27.9194 0.628906H26.5161V5.37106H27.4355V3.48374H27.5808L28.8869 5.37106H29.9999L28.5001 3.38692ZM27.7257 2.80623H27.4355V1.35479H27.7257C28.3063 1.35479 28.6452 1.59662 28.6452 2.08082C28.6452 2.56447 28.3064 2.80623 27.7257 2.80623Z" fill="#090909"/>
</svg>
