<svg width="30" height="18" viewBox="0 0 30 18" fill="none" xmlns="http://www.w3.org/2000/svg">
<path d="M18.9365 16.077H11.0623V1.92554H18.9365V16.077Z" fill="#6C6BBD"/>
<path d="M11.5668 9C11.5668 6.12932 12.9108 3.57219 15.0039 1.92428C13.4733 0.719245 11.5416 4.17365e-07 9.44221 4.17365e-07C4.47216 4.17365e-07 0.443359 4.02937 0.443359 9C0.443359 13.9706 4.47216 18 9.44221 18C11.5416 18 13.4733 17.2808 15.0039 16.0757C12.9108 14.4278 11.5668 11.8707 11.5668 9Z" fill="#EB001B"/>
<path d="M29.5565 9C29.5565 13.9706 25.5277 18 20.5576 18C18.4583 18 16.5265 17.2808 14.9954 16.0757C17.089 14.4278 18.4331 11.8707 18.4331 9C18.4331 6.12932 17.089 3.57219 14.9954 1.92428C16.5265 0.719245 18.4583 4.17365e-07 20.5576 4.17365e-07C25.5277 4.17365e-07 29.5565 4.02937 29.5565 9Z" fill="#0099DF"/>
</svg>
