<svg width="40" height="40" viewBox="0 0 40 40" fill="none" xmlns="http://www.w3.org/2000/svg">
<path d="M18.9937 11.3988C19.3767 10.5157 20.6291 10.5157 21.0121 11.3988L22.8868 15.7221C23.0462 16.0897 23.3928 16.3416 23.7917 16.3796L28.4827 16.8266C29.441 16.9179 29.828 18.109 29.1064 18.7462L25.574 21.8651C25.2737 22.1303 25.1413 22.5378 25.2284 22.9289L26.2529 27.5284C26.4622 28.468 25.4489 29.2042 24.62 28.7148L20.5621 26.3191C20.2171 26.1154 19.7887 26.1154 19.4437 26.3191L15.3858 28.7148C14.5568 29.2042 13.5436 28.468 13.7529 27.5284L14.7773 22.9289C14.8645 22.5378 14.732 22.1303 14.4317 21.8651L10.8993 18.7462C10.1777 18.109 10.5648 16.9179 11.5231 16.8266L16.2141 16.3796C16.6129 16.3416 16.9596 16.0897 17.1189 15.7221L18.9937 11.3988Z" fill="#192A32"/>
<rect x="0.5" y="0.5" width="39" height="39" rx="19.5" stroke="#192A32"/>
</svg>
