<svg width="30" height="10" viewBox="0 0 30 10" fill="none" xmlns="http://www.w3.org/2000/svg">
<path d="M27.9824 0.526367H26.0964C25.5263 0.526367 25.0877 0.701806 24.8245 1.27198L21.228 9.47374H23.7719C23.7719 9.47374 24.2105 8.37725 24.2982 8.11409C24.5614 8.11409 27.0614 8.11409 27.4122 8.11409C27.5 8.4211 27.7193 9.42988 27.7193 9.42988H30L27.9824 0.526367ZM25 6.27198C25.2193 5.74567 25.9649 3.77198 25.9649 3.77198C25.9649 3.81584 26.1842 3.24567 26.2719 2.93865L26.4473 3.72812C26.4473 3.72812 26.9298 5.87725 27.0175 6.31584H25V6.27198Z" fill="#3362AB"/>
<path d="M21.4036 6.53513C21.4036 8.37723 19.7369 9.6053 17.1492 9.6053C16.0527 9.6053 15.0001 9.386 14.4299 9.12284L14.7808 7.1053L15.0878 7.23688C15.8773 7.58776 16.4036 7.71934 17.3685 7.71934C18.0703 7.71934 18.8159 7.45618 18.8159 6.84214C18.8159 6.44741 18.5089 6.18425 17.544 5.74565C16.6229 5.30706 15.3948 4.6053 15.3948 3.33337C15.3948 1.57899 17.1054 0.394775 19.5176 0.394775C20.4387 0.394775 21.2282 0.570214 21.7106 0.789512L21.3598 2.71934L21.1843 2.5439C20.7457 2.36846 20.1755 2.19302 19.3422 2.19302C18.4212 2.23688 17.9826 2.63162 17.9826 2.98249C17.9826 3.37723 18.5089 3.68425 19.3422 4.07899C20.7457 4.73688 21.4036 5.48249 21.4036 6.53513Z" fill="#3362AB"/>
<path d="M0 0.614159L0.0438596 0.438721H3.81579C4.3421 0.438721 4.73684 0.614159 4.86842 1.18433L5.70175 5.1317C4.86842 3.02644 2.9386 1.31591 0 0.614159Z" fill="#F9B50B"/>
<path d="M11.0088 0.526282L7.19305 9.42979H4.60534L2.41235 1.97365C3.9913 2.98242 5.30709 4.56137 5.78955 5.65786L6.0527 6.57891L8.42113 0.482422H11.0088V0.526282Z" fill="#3362AB"/>
<path d="M12.0175 0.482422H14.4298L12.8947 9.42979H10.4824L12.0175 0.482422Z" fill="#3362AB"/>
</svg>
