<svg width="120" height="105" viewBox="0 0 120 105" fill="none" xmlns="http://www.w3.org/2000/svg">
<path d="M48.1995 93.5964C35.9286 85.6222 22.6211 78.9994 9.82516 71.9041C9.13537 71.5229 8.4401 71.1407 7.75124 70.754C7.24123 70.4987 6.74768 70.2127 6.27508 69.9023C5.70842 69.7493 5.68679 69.516 6.19846 69.206C6.473 68.0266 8.68639 66.4005 9.5335 65.4703C11.9135 62.8704 14.3513 60.3252 16.8514 57.841C22.162 52.5618 27.7557 47.5887 33.574 42.8724L31.5798 42.5311C33.7493 46.1951 35.2704 50.1178 36.1343 54.2864C36.5014 56.0628 39.3403 55.815 38.9796 54.0005C38.0393 49.298 36.3722 44.9864 33.9166 40.8702C33.5389 40.2344 32.4883 40.0658 31.9225 40.529C25.792 45.5335 19.914 50.8275 14.3336 56.4414C11.4556 59.3368 8.65965 62.308 5.9513 65.3557C4.65681 66.8085 1.71058 69.1547 3.48369 71.2781C4.23098 72.1732 5.61007 72.6444 6.6082 73.1848C8.69126 74.3141 10.7743 75.4434 12.8583 76.5672C16.6763 78.6373 20.4953 80.702 24.3134 82.7721C31.9142 86.8896 39.4992 91.2956 47.3716 94.8715C48.135 95.2149 48.945 94.0767 48.1905 93.5836L48.1995 93.5964Z" fill="white"/>
<path d="M49.1523 94.2689C49.4745 89.5753 48.6748 83.2672 46.3653 79.1145C45.8178 78.1304 44.2503 78.8254 44.3752 79.8603C44.6654 82.2172 45.5886 84.5031 46.1563 86.8067C46.7712 89.3255 47.1429 91.8923 47.7995 94.3958C47.9714 95.0581 49.1085 94.9502 49.1523 94.2689Z" fill="white"/>
<path d="M45.4512 80.8958C50.9413 83.196 58.1139 82.4298 63.7907 81.3181C70.3938 80.0232 76.7176 77.5494 82.6664 74.4234C94.4223 68.248 106.339 59.2721 114.322 48.5367C115.513 46.9373 113.331 45.1135 111.96 46.5534C107.426 51.3158 103.137 56.1146 98.0501 60.3176C93.0865 64.4186 87.7524 68.1034 82.1145 71.2098C76.5075 74.2991 70.5435 76.7953 64.3067 78.2704C61.2763 78.9838 58.2046 79.4158 55.0951 79.5781C51.9512 79.7457 48.8327 79.3072 45.7036 79.4213C44.9385 79.4472 44.7628 80.6044 45.4512 80.8958Z" fill="white"/>
<path d="M37.5459 55.5474C42.5667 56.4066 47.0709 53.2574 51.1003 50.6934C56.3977 47.3215 61.6476 43.8351 66.6542 40.0383C71.3197 36.5023 75.8079 32.6952 79.8557 28.4543C83.563 24.5695 88.6636 19.4392 90.154 14.1615C90.551 12.7566 88.6589 12.276 87.8323 13.0866C85.8231 15.0555 84.5317 17.8305 82.8148 20.0847C81.129 22.2882 79.3159 24.3859 77.4008 26.3934C73.6598 30.3116 69.5372 33.8453 65.2525 37.1496C61.1033 40.3484 56.8126 43.3605 52.4923 46.3172C47.8111 49.5201 43.3679 53.1949 37.6052 54.0568C36.779 54.1786 36.6864 55.4059 37.5504 55.5538L37.5459 55.5474Z" fill="white"/>
</svg>
