<svg viewBox="0 0 101 69" fill="none" xmlns="http://www.w3.org/2000/svg"><path d="M100.408 26.666c-2.44-2.737-5.621-4.882-8.654-7.027.444-.666.296-.74-.148-.074-.147-.074-.295-.222-.443-.296-4.66-3.254-9.542-6.287-14.423-9.171-.888-.518-1.702-1.036-2.59-1.554 0-.074 0-.148.075-.222 0-.074-.148-.147-.148-.074 0 .074-.074.148-.074.148a99.802 99.802 0 00-7.323-3.92c0-.665 0-1.331-.074-1.997 0-.074-.147-.074-.147 0-.074.592-.074 1.184-.148 1.775-1.11-.517-2.22-1.035-3.329-1.479C61.281 2.11 58.1.482 56.103 1c-.074 0-.221 0-.295.074-2.515 1.627-4.734 3.698-6.805 5.843-2.071 2.145-4.438 4.808-5.547 7.544v.075c-.74.221-1.258 1.109-.814 1.849.518.813.74 1.405.961 2.292.075.222.74 1.332 1.036 1.554.222.813.74 1.553 1.48 1.923.073.074.147.074.221.074.148.296.37.591.518.813-1.553.074-3.18.074-4.734.074-4.586 0-9.171-.37-13.831-.591 0-.37.074-.74.074-1.11h-.074c-.074.37-.074.74-.148 1.11l-3.328-.222c-2.811-.148-26.702-1.11-22.856 6.139C.926 31.325 1 34.43 1 37.316c0 3.55.518 7.175 1.183 10.578.222 1.257 1.258 1.775 2.22 1.7.221.962.887 1.702 1.996 1.702 7.027-.074 13.832-1.184 20.636-2.515.222.074.518.074.74-.148 7.84-1.553 15.68-3.328 23.595-4.216.074.074.148.074.222.148.74.444 1.11.148 1.405-.296h.296c-.666.666-1.184 1.48-1.701 2.22-.814 1.183-1.554 2.366-2.367 3.55-1.184-1.036-3.329.443-2.293 1.922l.444.666c-.37.74.296 1.553.961 1.48 3.033 4.363 6.435 9.023 10.873 11.76-.444 2.145 2.219 4.364 3.994 2.293 11.687-13.388 25-25.148 36.982-38.24 1.036-1.035 1.036-2.293.222-3.254zm-72.485-.592c-.222 6.139.666 12.204 3.55 17.825-.296.222-.591.37-.813.592-.888.148-1.701.296-2.59.37.149-1.036.297-2.071.74-3.033.223-.517-.221-1.11-.813-.813-2.071 1.035-3.994 2.367-5.77 3.92 0-.592.075-1.184.223-1.553.148-.148.37-.296.517-.444.444-.444 0-1.184-.591-1.036-.37.074-.592.296-.814.592-.37.296-.814.592-1.257.888-1.48-5.696-1.332-11.613-1.406-17.456 3.033 0 6.065.074 9.024.148zm7.249 17.751c-.74.074-1.48.222-2.22.296.962-.665 1.85-1.405 2.59-2.219-.075.592-.37 1.258-.37 1.923zm-23.595 3.107c.665-.814 1.331-1.627 1.923-2.44-.148.813-.37 1.552-.592 2.366-.444 0-.887.074-1.331.074zm8.95-1.405c.147.221.517.074.443-.148-.074-.222-.148-.518-.221-.74l.443-.222c-.074.592-.074 1.11-.074 1.553-1.405.222-2.736.37-4.142.518 1.11-.518 2.22-1.035 3.255-1.627.074.222.148.444.296.666zm6.36-.444c-1.183.148-2.366.37-3.55.518a28.627 28.627 0 013.92-2.737c-.148.74-.296 1.48-.37 2.219zM8.988 26.592c-.148 5.251-.666 10.724-.074 15.902.074.444.666.444.666 0 .591-5.178.074-10.725-.074-15.976l1.997-.222c2.293-.222 4.66-.296 6.953-.37-.37 5.991-.962 12.204 1.183 17.825-1.775.962-3.772 1.702-5.547 2.811.37-1.553.591-3.254 1.257-4.734.296-.665-.592-1.257-1.036-.591-.961 1.479-1.997 2.81-3.106 4.216a41.033 41.033 0 001.775-4.142l.222-.666c.074-.296-.296-.444-.518-.222-.961 1.257-1.7 2.737-2.367 4.29-.443.518-.887 1.035-1.183 1.553 0 0 0 .074 0 0a7.035 7.035 0 011.11-1.48l-.888 2.22c-.888 0-1.775.074-2.663.074 0-.148 0-.296-.074-.444-.665-3.402-1.035-6.879-1.553-10.355 0-1.775-.148-3.476-.37-5.251 0-.592-.074-1.184 0-1.776.074-.296.074-.591-.074-.887.444-.296.814-.592 1.406-.888.961-.444 1.923-.665 2.958-.887zm28.92 16.864c1.553-1.184 3.18-2.22 5.03-2.959v1.997c0 .148.074.296.148.37-1.701.222-3.403.37-5.178.592zm6.213-.592c1.48-.962 2.589-2.367 3.994-3.328.296.961.37 2.662 1.332 2.81.591.074 1.11 0 1.627-.222-.148.222-.222.37-.296.592-2.219-.074-4.438 0-6.657.148zM88.5 35.467c-1.48-1.257-2.737-2.884-3.772-4.511-.148-.222-.592 0-.37.221 1.11 1.628 2.44 3.255 3.994 4.512-1.48 1.48-2.959 2.885-4.438 4.364a79.307 79.307 0 00-3.994-3.328c-.222-.148-.444.074-.296.296 1.11 1.331 2.515 2.367 3.92 3.402-2.884 2.81-5.769 5.547-8.58 8.358a21.495 21.495 0 01-2.662-4.364c-.074-.222-.37-.074-.37.148.444 1.627 1.553 3.107 2.737 4.512-2.885 2.81-5.696 5.695-8.506 8.654-2.59-2.293-4.956-4.882-7.1-7.619-.297-.37-.889 0-.593.37a55.894 55.894 0 007.249 7.84 459.96 459.96 0 00-5.547 6.14c-2.737-2.663-5.104-5.77-7.323-9.024.148-.222.222-.444.296-.74.666-3.624 2.367-6.36 4.586-9.171.887-1.11-.074-2.367-1.184-2.071-.074-.296-.37-.518-.665-.444a4.703 4.703 0 00-1.332.444c-.074-.222-.296-.37-.591-.37.295-.074.221-.518-.074-.518-.37 0-.518.148-.814.37-.074 0-.074.074-.074.074-.296 0-.666 0-.962-.074l-.073-.074c.443-.592.887-1.11 1.405-1.627.444-.444 0-1.036-.592-.962a3.268 3.268 0 00-1.183.444c-.444.222-1.85 1.331-1.923.74-.074-1.11-.444-2.072-1.11-2.959-.148-.222-.518-.222-.666-.074-1.479.888-2.588 2.219-3.92 3.18v-1.775c0-.37-.37-.665-.74-.591-2.662.961-5.029 2.366-7.174 4.216.074-.962.814-2.071.222-3.033-.222-.37-.74-.37-1.035 0-.962 1.257-2.146 2.293-3.403 3.18-2.737-5.251-3.994-11.464-3.92-17.455 3.846 0 7.766.148 11.686.074.222 4.438 1.258 9.023 3.625 12.722.148.222.517 0 .37-.222-2.072-4.068-3.329-8.062-3.773-12.5 1.406-.074 2.81-.148 4.216-.296 1.036-.074 2.663-.148 4.142-.518.962.962 2.071 1.775 3.55 2.293 1.85.592 3.92-.37 4.808-1.997 1.258-2.219.296-4.438-1.553-5.843-1.405-1.11-1.627-.814-2.44-2.145-.962-1.553-3.255-2.515-5.03-1.775-.074-.296-.074-.592-.148-.888-.074-.518-.37-.887-.74-1.035 1.11-1.628 2.145-3.403 3.328-4.956 1.85-2.44 3.773-4.808 5.992-6.879.591.074 1.33.592 1.849.888-.296.518-.518 1.183-.74 1.701-.962 2.367-2.293 4.882-2.663 7.397-.074.37.37.591.592.295 1.184-1.775 1.701-3.92 2.44-5.917.297-.74.519-1.553.815-2.293l.221-.665c1.332.813 2.663 1.627 3.994 2.515.962.665 1.998 1.257 2.959 1.923-.518 3.032-1.11 6.065-1.405 9.097 0 .296.37.296.444.074.887-2.81 1.405-5.769 1.7-8.728 2.146 1.332 4.365 2.663 6.51 4.068-.074.222-.074.444-.148.74-.222 1.627-.74 3.254-.888 4.808 0 .222.296.296.444.148.813-1.554 1.035-3.403 1.257-5.252.666.444 1.332.814 1.997 1.258 1.184.74 2.367 1.553 3.55 2.292-.813 2.96-1.257 6.288-1.553 9.246 0 .296.444.296.518.074 1.11-2.81.962-5.991 1.553-8.95a258.552 258.552 0 019.246 6.435c.296.222.518.37.814.592-.37 1.257-.592 2.515-.592 3.772 0 .222.296.222.296 0 0-1.257.222-2.44.517-3.624 1.997 1.405 3.994 2.884 5.77 4.586-2.145 2.07-4.512 4.438-6.953 6.804z" fill="#BF9456"/></svg>