<svg viewBox="0 0 31 22" fill="none" xmlns="http://www.w3.org/2000/svg"><path d="M29.834 8.329c-.733-.821-1.687-1.465-2.597-2.108.134-.2.09-.222-.044-.023-.044-.022-.089-.066-.133-.088-1.398-.977-2.862-1.886-4.327-2.752-.266-.155-.51-.31-.777-.466 0-.022 0-.044.023-.066 0-.023-.045-.045-.045-.023 0 .023-.022.045-.022.045a29.935 29.935 0 00-2.197-1.176c0-.2 0-.4-.022-.6 0-.022-.044-.022-.044 0-.023.178-.023.356-.045.533a19.63 19.63 0 00-.998-.444c-.51-.2-1.465-.687-2.064-.532-.022 0-.066 0-.089.022-.754.488-1.42 1.11-2.041 1.753-.621.644-1.331 1.442-1.664 2.263v.023c-.222.066-.377.332-.244.554.155.244.222.422.288.688.022.067.222.4.31.466a.903.903 0 00.445.577c.022.022.044.022.066.022.045.089.111.178.155.244-.466.022-.954.022-1.42.022-1.375 0-2.751-.11-4.149-.177 0-.111.022-.222.022-.333H8.2c-.022.111-.022.222-.044.333l-.999-.067C6.313 6.975-.854 6.687.3 8.861c-.333.821-.311 1.73-.289 2.618 0 1.066.155 2.153.355 3.174.067.377.377.532.666.51.044.266.244.488.599.488 2.108-.022 4.15-.355 6.19-.754a.212.212 0 00.223-.045c2.352-.466 4.704-.998 7.078-1.264.022.022.044.022.067.044.222.133.332.044.421-.089h.089c-.2.2-.355.444-.51.666-.245.355-.466.71-.71 1.065-.355-.31-.999.133-.688.577l.133.2c-.111.221.089.466.288.443.954 1.354 1.975 2.73 3.329 3.573-.133.643.665 1.309 1.198.688 3.506-4.017 7.5-7.545 11.095-11.472.266-.267.266-.666 0-.954zM8.11 8.15c-.066 1.842.2 3.661 1.065 5.348-.088.066-.177.11-.244.177-.266.045-.51.089-.776.111.044-.31.088-.621.221-.91.067-.155-.066-.332-.244-.244-.62.311-1.198.71-1.73 1.176 0-.177.022-.355.066-.466.045-.044.111-.088.156-.133.133-.133 0-.355-.178-.31-.11.022-.177.088-.244.177a5.255 5.255 0 01-.377.266c-.444-1.708-.4-3.483-.422-5.236.91.022 1.82.044 2.707.044zm2.175 5.325c-.222.023-.444.067-.666.09.289-.2.555-.422.777-.666-.023.2-.111.399-.111.576zm-7.079.955c.2-.244.4-.488.577-.733-.044.245-.11.466-.177.71-.133 0-.266 0-.4.023zm2.685-.444c.045.066.156.022.133-.044-.022-.067-.044-.156-.066-.222l.133-.067c-.022.178-.022.333-.022.466a22.92 22.92 0 01-1.243.155c.333-.155.666-.31.977-.488a.793.793 0 00.088.2zm1.909-.133c-.355.044-.71.11-1.066.155.378-.31.755-.577 1.177-.82-.067.22-.09.443-.111.665zM2.43 8.329c-.045 1.575-.2 3.217-.022 4.77.022.133.2.133.2 0 .177-1.553.021-3.217-.023-4.793l.6-.066c.687-.067 1.397-.089 2.085-.111-.111 1.797-.288 3.661.355 5.348-.533.288-1.132.51-1.664.843.11-.466.177-.977.377-1.42.089-.2-.177-.378-.31-.178-.29.444-.6.843-.933 1.265.2-.4.378-.821.533-1.243l.067-.2c.022-.088-.09-.133-.156-.066-.288.377-.51.821-.71 1.287-.133.155-.266.31-.355.466 0 0 0 .022 0 0 .089-.155.2-.31.333-.444l-.266.666c-.267 0-.533.022-.8.022 0-.044 0-.089-.021-.133-.2-1.02-.311-2.064-.466-3.107a17.995 17.995 0 01-.178-1.575c-.022-.178-.044-.377 0-.533a.371.371 0 00-.022-.266c.133-.089.244-.177.422-.266.355-.133.643-.222.954-.266zm8.676 5.059c.466-.355.954-.666 1.509-.888v.6c0 .044.022.088.044.11-.51.045-1.02.111-1.553.178zm1.864-.2c.444-.288.776-.71 1.198-.998.089.288.11.798.4.843.177.022.332 0 .488-.067a.663.663 0 00-.09.178c-.665-.023-1.33 0-1.996.044zm13.313-2.197c-.444-.377-.82-.865-1.131-1.353-.045-.067-.178 0-.111.066.332.489.732.977 1.198 1.354-.444.444-.888.865-1.331 1.309-.4-.355-.8-.688-1.199-.999-.066-.044-.133.023-.088.09.332.399.754.71 1.176 1.02-.866.843-1.731 1.664-2.574 2.507a6.45 6.45 0 01-.8-1.309c-.021-.066-.11-.022-.11.045.133.488.466.932.82 1.353a94.08 94.08 0 00-2.55 2.596 17.332 17.332 0 01-2.131-2.285c-.089-.111-.266 0-.178.11a16.768 16.768 0 002.175 2.353c-.555.599-1.11 1.22-1.664 1.841-.821-.798-1.531-1.73-2.197-2.707a.663.663 0 00.089-.221c.2-1.088.71-1.909 1.375-2.752.267-.333-.022-.71-.354-.621-.023-.089-.111-.156-.2-.133a1.41 1.41 0 00-.4.133c-.022-.067-.088-.111-.177-.111.089-.022.066-.155-.022-.155-.111 0-.156.044-.244.11-.023 0-.023.023-.023.023-.088 0-.2 0-.288-.023l-.022-.022c.133-.177.266-.333.421-.488.133-.133 0-.31-.177-.288a.98.98 0 00-.355.133c-.133.066-.555.4-.577.222a1.615 1.615 0 00-.333-.888c-.044-.066-.155-.066-.2-.022-.443.266-.776.666-1.176.954V12.3c0-.11-.11-.2-.222-.177a6.795 6.795 0 00-2.152 1.265c.022-.289.244-.621.067-.91-.067-.111-.222-.111-.311 0a4.62 4.62 0 01-1.02.954c-.822-1.575-1.199-3.44-1.177-5.237 1.154 0 2.33.045 3.506.023.067 1.331.377 2.707 1.087 3.816.045.067.156 0 .111-.066-.62-1.22-.998-2.419-1.131-3.75.421-.023.843-.045 1.264-.09.311-.021.8-.043 1.243-.154.289.288.621.532 1.065.687.555.178 1.176-.11 1.443-.599.377-.665.088-1.331-.466-1.753-.422-.332-.489-.244-.733-.643-.288-.466-.976-.755-1.509-.533-.022-.088-.022-.177-.044-.266-.022-.155-.11-.266-.222-.31.333-.489.644-1.021.999-1.487.554-.733 1.131-1.443 1.797-2.064.178.022.4.178.555.266-.089.156-.156.355-.222.51-.289.71-.688 1.465-.799 2.22-.022.11.11.177.178.088.355-.532.51-1.176.732-1.775.088-.222.155-.466.244-.688l.066-.2c.4.245.8.489 1.199.755.288.2.599.377.887.577-.155.91-.333 1.82-.421 2.73 0 .088.11.088.133.022.266-.844.421-1.731.51-2.619.644.4 1.31.799 1.953 1.22-.022.067-.022.134-.045.223-.066.488-.221.976-.266 1.442 0 .066.089.089.133.044.244-.466.31-1.02.378-1.575.2.133.399.244.599.377.355.222.71.466 1.065.688-.244.887-.378 1.886-.466 2.774 0 .088.133.088.155.022.333-.843.288-1.798.466-2.685a77.526 77.526 0 012.774 1.93c.088.067.155.111.244.178a4.009 4.009 0 00-.178 1.131c0 .067.089.067.089 0 0-.377.067-.732.155-1.087.6.422 1.198.866 1.731 1.376-.643.599-1.354 1.331-2.086 2.041z" fill="#1A1D21"/></svg>