<svg viewBox="0 0 49 50" fill="none" xmlns="http://www.w3.org/2000/svg"><path d="M3.972 26.548c-1.61 1.567-2.71 4.447-.931 6.354.169.169.38-.043.296-.212-1.017-2.076-.72-4.194.805-5.93.085-.17-.085-.34-.17-.212zm4.575 14.868c-.466-.848-.974-1.61-1.186-2.584-.296-1.229.339-2.5 1.059-3.431.042-.043 0-.085-.042-.043-1.864 1.695-1.991 4.49-.085 6.27.17.126.381-.043.254-.212zm9.488 5.464c.17 0 .212-.17.127-.297-.296-.339-.72-.466-1.1-.635-.425-.254-.848-.55-1.187-.89-.72-.72-1.101-1.736-1.186-2.71a.149.149 0 00-.296 0c-.043 1.016.169 1.99.847 2.795.593.72 1.779 1.821 2.795 1.737z"/><path d="M46.754 33.96l-.212.212c.127-.339.297-.72.424-1.059 1.482-4.193 2.33-8.895 1.864-13.343a22.505 22.505 0 00-5.168-12.199C37.689.455 27.269-1.493 18.67 1.091c-3.6 1.1-6.905 3.007-9.7 5.464l-.509-.127c-.127-.043-.211.169-.084.211.127.043.211.085.339.17-3.304 2.923-5.888 6.692-7.37 10.886A23.438 23.438 0 00.16 28.242c-.042.72 0 1.44.297 1.99.804 4.279 2.753 8.345 5.845 11.48 3.092 3.177 7.286 5.337 11.437 6.735 4.15 1.398 8.853 2.118 13.13 1.016a10.971 10.971 0 003.008-1.228c.17 0 .34-.127.466-.339 1.101-2.033.89-4.702-.17-6.693-.169-.296-.465-.296-.677-.127-.127-.296-.424-.465-.763-.338-3.812 1.567-7.666 2.16-11.69 1.059-3.728-1.017-6.947-3.347-9.488-6.185-4.872-5.464-7.117-13.893-2.88-20.416 3.007-4.575 8.259-7.074 13.68-7.582.085.042.128 0 .17 0 2.542-.212 5.083 0 7.455.677l.89.255c.084.084.212.127.296.084 6.566 2.245 11.988 7.54 12.03 14.868.042 3.22-1.101 6.354-2.711 9.107a.27.27 0 000 .254c-.805.17-1.652.127-2.5.297-.084 0-.126.042-.169.084a.885.885 0 01-.169-.254c0-.042.042-.085.042-.127.085-.297-.084-.508-.339-.55-.169-.551-.254-1.102-.338-1.61-.34-2.16-.17-4.405-.17-6.608 0-1.737.763-3.389 1.102-5.083.338-1.737.169-3.22-.72-4.744-.551-.89-1.44-1.78-2.542-1.525-1.228.254-1.737 1.906-1.99 3.007-4.914-5.337-13.81-5.294-18.511.382-5.295 6.438-2.542 15.841 3.6 20.543 2.076 1.568 4.617 2.5 7.201 2.118 2.5-.381 4.363-2.118 5.676-4.15.593 3.684 3.685 6.65 7.667 6.48 3.854-.127 6.311-2.88 7.794-6.1.296-.254.55-.55.804-.89.17-.126 0-.338-.169-.169zm-5.76-.212a19.889 19.889 0 001.906-.72c1.482-.635 2.626-1.651 3.77-2.71-.297 1.016-.594 2.033-.975 3.007-.254.678-.55 1.355-.89 1.99-1.863.848-4.15.848-5.633-.55.678-.042 1.355-.339 1.821-1.017zm5.718-3.515c-1.186.762-2.542 1.355-3.813 1.906-.593.254-1.186.423-1.779.593.424-.678.848-1.398 1.186-2.16.128.084.297.084.466-.043 2.372-1.694 4.745-4.024 5.041-7.073-.127 2.287-.508 4.532-1.101 6.777zM35.19 8.715c-1.27-.72-2.584-1.356-3.981-1.821-.636-2.16-1.991-4.067-3.431-5.761 2.033.127 4.066.55 6.014 1.186.34 1.144.72 2.372.975 3.558.17.762.339 1.525.38 2.33.043.127.043.338.043.508zM9.903 7.275c1.313.466 2.626.805 4.024 1.101a21.239 21.239 0 00-4.194 3.05c-1.27 0-2.584.085-3.854.127a24.003 24.003 0 014.024-4.278zM4.608 22.439c-.254 7.54 4.574 14.783 10.801 18.638 5.295 3.303 12.284 4.066 17.833.974l.127-.127c.212.804.381 1.567.381 2.372.042 1.016-.339 1.906-.593 2.838a3.878 3.878 0 01-.593.296.321.321 0 00-.17-.084c-1.143.211-1.905-.466-1.99-1.568a.149.149 0 00-.297 0c-.042.678.127 1.313.636 1.78.254.211.508.296.847.296a44.3 44.3 0 01-1.229.381l-.042-.042c-.381-.17-.762-.127-1.186-.212a5.967 5.967 0 01-1.313-.424c-.805-.381-1.355-1.101-1.821-1.864-.085-.127-.255 0-.212.128.423.89.932 1.61 1.736 2.202.297.212.72.424 1.186.55-.931.128-1.906.17-2.88.128-1.44-.593-2.499-1.525-3.304-3.008-.084-.169-.339 0-.254.17.508 1.101 1.27 2.075 2.203 2.753a26.98 26.98 0 01-2.669-.381c-.296-.17-.593-.381-.89-.593-.889-.72-1.567-1.652-1.863-2.71-.043-.17-.297-.086-.254.084a5.108 5.108 0 001.482 2.922c-2.541-.635-5.04-1.567-7.328-2.838a.27.27 0 000-.254c-.72-.762-1.567-1.228-2.118-2.202-.508-.847-.593-1.949-.466-2.923 0-.17-.211-.17-.254-.042-.38 1.398-.042 3.007.847 4.193a30.012 30.012 0 01-2.88-2.16c-.678-.593-1.313-1.27-1.906-1.949.17.043.339.127.508.127.17.043.254-.169.127-.296-1.397-.932-2.245-1.949-2.245-3.685 0-1.398.551-2.88 1.314-3.982.042-.042-.043-.127-.085-.085-1.101 1.271-1.737 2.838-1.737 4.533v.254c-1.144-2.118-1.99-4.405-2.457-6.693a19.337 19.337 0 01-.423-4.108c.423-1.271 1.228-2.415 2.16-3.39.17-.21-.127-.507-.296-.296a8.961 8.961 0 00-1.864 2.5c.127-2.5.678-4.999 1.567-7.328.042-.212.127-.382.212-.551.89-.424 2.414-.508 2.88-.508.17 0 .17-.255 0-.255-.466 0-1.864.17-2.795.593.677-1.651 1.567-3.176 2.583-4.659 1.144.043 2.33.127 3.474.127-2.626 2.796-4.363 6.354-4.49 10.378zM15.07 7.783c-1.567-.296-3.177-.508-4.744-.89 1.78-1.482 3.812-2.71 5.93-3.642.72.974 1.652 1.694 2.626 2.33.297.211.636.423.975.635-.17.042-.381.085-.551.127a17.844 17.844 0 00-4.236 1.44zm11.86-1.821c-.465-.763-1.228-1.398-1.82-1.949-.806-.762-1.61-1.525-2.627-2.033-.212-.085-.424.17-.254.339.72.678 1.44 1.355 2.118 2.033.423.466.804.974 1.186 1.483a24.07 24.07 0 00-4.617.169 17.721 17.721 0 01-1.229-.678c-1.101-.635-2.287-1.313-3.177-2.245a24.381 24.381 0 015.168-1.61c1.906-.38 3.855-.465 5.803-.38a.204.204 0 00-.085.254c1.229 1.652 2.203 3.346 2.838 5.252-1.016-.254-2.16-.508-3.304-.635zm12.327 5.887c.38-.466.084-1.821.084-2.202-.127-1.356-.254-2.88-1.016-4.109-.127-.17-.424-.085-.34.127.425 1.313.51 2.796.552 4.151 0 .212-.043.805.042 1.313a22.452 22.452 0 00-2.542-1.948c.127-1.06-.211-2.33-.465-3.262-.34-1.313-1.102-2.456-1.695-3.685.636.212 1.27.466 1.864.72 4.447 1.906 7.92 5.464 10.039 9.785a21.554 21.554 0 011.567 4.66c-1.059 1.736-2.033 3.515-3.22 5.167 0-.381-.041-.72-.084-1.101a13.28 13.28 0 00-.508-2.584c.72-.339 1.101-1.27 1.398-1.991.423-1.101.423-2.287.38-3.431 0-.254-.38-.254-.38 0-.085 1.017-.255 2.033-.593 3.007-.212.678-.72 1.144-1.017 1.737a16.904 16.904 0 00-2.118-4.066c1.017-1.398 1.017-3.558.593-5.083-.085-.212-.381-.127-.339.085.127.974 0 1.906-.212 2.838-.127.508-.338 1.016-.508 1.482a24.025 24.025 0 00-.974-1.186c-.17-.085-.339-.254-.508-.424zm4.87 11.607c.17.042.34 0 .467-.128 1.186-1.651 2.118-3.43 2.88-5.294.297 1.652.424 3.346.381 5.04-.042-.042-.127-.042-.127.043-.847 2.499-2.668 4.659-4.828 6.184.72-1.864 1.186-3.812 1.228-5.845zm-5.76 16.561c-4.066.34-6.904-3.515-6.65-7.285.042-.55-.762-.762-1.017-.254-.338.72-.72 1.398-1.186 2.033 0-.508.043-1.017.17-1.525.17-.678.72-1.228.804-1.906.043-.17-.127-.296-.296-.212-.635.381-.89 1.313-1.059 1.991-.212.72-.17 1.44 0 2.16a8.77 8.77 0 01-2.287 2.034c0-.72.127-1.483.296-2.16.254-1.102.974-1.992 1.567-2.881.085-.127-.084-.339-.254-.254-.931.677-1.44 1.567-1.779 2.668-.338.974-.338 1.864-.127 2.796a.321.321 0 01-.17.085 5.79 5.79 0 01-2.922.508 3.053 3.053 0 01.127-1.737c.17-.55.678-.974.805-1.525.042-.127-.085-.254-.212-.211-.55.169-.847.847-1.059 1.355-.254.635-.211 1.398-.042 2.075-.593-.084-1.229-.211-1.78-.423-3.727-1.27-6.565-4.871-7.92-8.43-1.483-3.896-1.017-8.386 1.44-11.775 2.203-3.007 6.1-4.574 9.742-4.49 2.965.085 5.888 1.356 8.09 3.346v.043c-.084.339.467.508.551.17.382-1.483 1.525-3.982 3.093-1.95 1.228 1.61 1.058 3.559.635 5.423-.339 1.44-.932 2.922-.932 4.447 0 .975-.042 1.906-.042 2.88 0 .975 0 2.034.084 3.05-1.016.424-1.779 1.525-2.33 2.372-.72 1.144-.974 2.5-.889 3.813 0 .211.297.211.297 0 .127-1.271.466-2.457 1.101-3.516.508-.805 1.228-1.313 1.906-1.906.127.72.297 1.44.55 2.075-.762 1.186-1.228 2.88-1.27 4.236-.085 1.398.635 2.372 1.906 2.838.254.085.381-.296.17-.423-2.076-1.568-.932-3.6-.085-5.507.085.085.212.212.296.254-.084.17-.042.424.127.636 1.737 2.244 4.321 2.414 6.524 1.397-1.44 1.991-3.347 3.516-5.973 3.685z"/><path d="M35.699 26.844c.169-.212-.085-.678-.34-.466-1.185.89-2.287 1.822-3.473 2.669-.254.17-.042.593.255.423 1.186-.762 2.668-1.525 3.558-2.626zm-3.559-1.737c.72-.508 1.356-1.186 1.864-1.863.34-.424.678-.89.974-1.314.297-.38.678-.847.763-1.313.042-.212-.17-.423-.381-.296-.636.381-1.017 1.355-1.398 1.948-.508.763-1.101 1.568-1.822 2.203.128-1.186-.042-2.33-.677-3.22a.585.585 0 00-.17-.126 3.583 3.583 0 00-.211-.72c-.212-.509-.466-.975-.805-1.356.084 0 .127-.042.17-.085.253-.38.126-.89.126-1.355-.042-.762-.042-1.525-.084-2.245 0-.254-.424-.254-.424 0-.042.678-.042 1.355-.085 2.033 0 .381-.127.932 0 1.356-.17-.212-.381-.382-.593-.551.085 0 .17-.042.212-.17.55-1.736-.932-3.727-2.287-4.617-.254-.169-.466.212-.212.382a4.532 4.532 0 011.44 1.652c.424.805.339 1.736.636 2.541a8.178 8.178 0 00-2.88-1.355h-.043c-.424-.72-1.017-1.398-1.695-1.864a3.612 3.612 0 00-1.058-.55c-.382-.128-.763.042-1.144.084-.17.042-.17.296 0 .339.339.085.466.254.72.339.424.127.72.38 1.059.635.254.212.423.466.635.762a8.93 8.93 0 00-4.574.848c-.932-.509-1.907-.974-2.966-1.313-.338-.085-.465.38-.127.508.805.339 1.525.805 2.288 1.228-1.525 1.017-2.5 2.542-3.008 4.278-.084 0-.17 0-.254.043-.635.423-1.186.932-1.779 1.398-.55.466-1.016 1.016-1.61 1.397-.084.085-.042.255.085.212 1.271-.508 2.245-1.44 3.304-2.202-.085.38-.127.72-.17 1.1-.084.848-.042 1.695.043 2.585-.423.423-.805.932-1.186 1.398-.381.465-.678 1.016-1.186 1.397-.042.043 0 .085.042.085 1.06-.381 1.737-1.228 2.457-2.033.17.974.424 1.906.805 2.796-.085.127-.127.211-.212.338-.423.72-.72 1.525-.72 2.372 0 .34.466.297.508 0 .043-.762.34-1.397.72-2.033.34.593.678 1.144 1.144 1.652a5.476 5.476 0 002.033 1.398c-.17.593-.127 1.27.085 1.694.085.212.424.043.339-.211-.212-.466-.17-.932 0-1.356 1.228.381 2.541.339 3.812-.042 2.457-.72 4.49-2.584 5.846-4.702.635-1.017 1.313-2.5 1.567-4.024l.085-.085zm-2.626 2.457c.381-.508.72-1.101 1.017-1.694l-.127.508c-.466 1.567-1.44 2.965-2.584 4.109-1.567 1.567-3.982 2.838-6.184 2.372l.042-.043c.127-.127 0-.296-.17-.254-.126.043-.253.085-.38.17-.34-.085-.636-.254-.932-.424-.932-.593-1.652-1.482-2.118-2.541.127-.17.211-.34.211-.551 0-.085-.084-.212-.211-.212a.786.786 0 00-.297.085c-.805-2.118-.847-4.702-.466-6.566.424-1.906 1.525-3.43 3.092-4.362.043 0 .043.042.085.042.339.17.593-.127.593-.381.339-.17.678-.297 1.059-.381a7.9 7.9 0 013.304-.212l.127.127c.212.254.508.212.72.042 1.144.297 2.245.847 3.092 1.652.805.762 1.271 1.652 1.44 2.584-.042.635.043 1.228.043 1.864-.17 1.355-.763 2.753-1.483 3.939-.17.127.043.254.127.127z"/><path d="M32.056 20.575c1.059-.762 1.779-1.779 2.541-2.795.466-.678 1.356-1.61 1.144-2.542-.042-.17-.297-.212-.381-.042-.127.212-.34.423-.509.635-.338.508-.593 1.06-.89 1.567-.634 1.06-1.312 2.076-1.99 3.093-.042.042.042.084.085.084zm-18.553-.255c1.313.552 2.965-.423 3.897-1.312.339-.34-.17-.847-.508-.509-.72.72-2.076 1.695-3.177 1.271-.297-.127-.508.424-.212.55z"/></svg>