<svg viewBox="0 0 63 100" fill="none" xmlns="http://www.w3.org/2000/svg"><path d="M4.747 50.08c-.35-1.752-2.262-11.756-1.752-18S2.007 24.307 0 26.824c0-7.996 4.492-12.265 7.263-11.246 0-4.269.765-8.76 13.763-13.507S52.31.828 60.05 12.584l1.242.764s3.441 13.444-.892 25.136c-.159.382-.255.796-.35 1.178-1.338 5.83-2.58 11.246-3.504 20.485-.606 6.084-.287 10.226-.701 16.788-.096 1.53-.542 3.027-1.338 4.333-2.166 3.632-7.136 11.341-13.412 16.884-1.402 1.243-3.186 1.88-5.034 1.88H28.13a7.603 7.603 0 01-5.32-2.166c-3.632-3.537-10.545-10.864-13.348-18.287a6.854 6.854 0 01-.415-1.815c-1.401-13.03-3.313-22.65-4.3-27.684zm2.262 2.516s4.874 24.276 11.022 30.265c0-6.053 4.174-7.264 13.285-7.391 10.226-.127 14.113 1.242 14.113 7.39 0 0 9.907-6.211 10.831-31.729 0 0-.191-3.95-1.88-5.16-1.688-1.211 1.02-4.238 1.88-6.372.86-2.167-4.237-10.609-11.915-9.398-7.71 1.21-11.15 1.433-10.226-.128-3.377.86-13.412.415-10.513-1.56-2.548 0-10.895 3.09-8.25 0-2.167-.925-6.372-2.9-7.71 5.16s.382 8.442.86 8.442 1.497 3.76-.382 6.467c-1.912 2.74-1.115 4.014-1.115 4.014zm26.505 36.54c.764 4.365 6.881 4.62 9.015.638.733-1.402.956-2.804.956-4.078-.063-2.803-1.56-4.683-3.918-6.148a6.175 6.175 0 00-1.944-.829c-1.56-.318-3.09-.286-4.014.988-.318.446-.637.669-1.115.669h-1.497c-.446 0-.764-.191-1.115-.637-1.02-1.37-2.74-1.402-4.396-.924-.574.16-1.083.414-1.593.733-2.39 1.497-3.887 3.345-3.919 6.148-.031 1.243.192 2.676.956 4.078 2.135 4.014 8.251 3.759 9.016-.637 1.688.127 1.943.127 1.943.127l1.625-.127z" fill="#fff"/></svg>