<svg viewBox="0 0 50 49" xmlns="http://www.w3.org/2000/svg"><path d="M8.3 6.875c-3.477 3.27-6.21 7.367-7.533 12.003-2.235 7.823.58 16.142 6.332 21.688 3.974 3.85 9.23 6.25 14.694 6.87.165 0 .33.042.496.042.29.124.538.248.787.331-.207.207-.124.745.207.787.58.083 1.034-.083 1.614-.207.041 0 .124 0 .166-.042 1.82.29 3.642.124 5.422-.372.29 0 .579-.041.869-.041 1.904-.125 3.725-.497 5.298-1.45.124.042.248 0 .372-.04 2.732-1.408 4.636-3.808 6.54-6.168 1.78-2.193 3.435-4.511 4.635-7.077 2.401-5.091 2.36-10.637.125-15.77C44.144 7.661 33.216-.203 22.414.004 16.784.128 12.272 3.108 8.3 6.874zm29.22 36.96c-.248.125-.496.29-.744.415a8.67 8.67 0 001.159-.994c-.125.207-.29.414-.414.58zM40.295 9.98c.166 1.324-.083 2.649-.952 3.973-.124.166.166.29.248.166.787-1.076 1.242-2.318 1.283-3.601a27.908 27.908 0 013.394 4.263c.124.414.166.787.166 1.283-.041 1.283-.91 2.4-1.863 3.187-.124.125.042.331.166.249 1.076-.828 1.945-2.194 2.152-3.601.456.786.87 1.614 1.242 2.442-.041-.042-.083-.125-.124-.166-.124-.165-.414 0-.373.207.414 1.78 1.283 3.353.497 5.215-.745 1.739-2.856 2.111-4.553 2.111-.083 0-.083.124 0 .124 1.904.373 3.85 0 4.925-1.738.538-.828.704-1.945.58-3.022 1.117 4.14.538 8.278-1.49 12.128-.373.745-.828 1.448-1.283 2.152-.538.29-1.076.538-1.656.704-1.697.538-3.56.496-5.34.33-.082 0-.123.166-.04.166 1.945.29 3.89.373 5.794-.165a2.89 2.89 0 00.704-.249c-.29.414-.621.828-.91 1.242-.084-.124-.25-.207-.373-.041-2.815 2.98-6.623 4.221-10.43 2.235-.083-.042-.166.083-.083.165 3.187 1.821 7.036 1.449 9.768-.869l-.497.62c-.994 1.201-2.07 2.319-3.022 3.52-.703.62-1.49 1.2-2.317 1.696a33.249 33.249 0 01-4.802 1.366c0-.083-.041-.166-.124-.166-1.49-.29-3.021-.29-4.511-.703-1.532-.414-2.98-1.16-4.015-2.36 0 0-.041 0-.041.042.827 1.117 2.028 1.904 3.31 2.4 1.284.497 2.815.994 4.264.994-5.836.952-11.838.165-17.26-2.939C5.61 39.242.85 31.502 1.428 23.224c.332-4.595 2.484-8.858 5.423-12.335 3.435-4.097 8.236-8.07 13.7-8.774 4.553-.58 9.106.745 13.08 2.939l.123.372c.166.704.166 1.49.166 2.194 0 .207.331.207.331 0 0-.745 0-1.532-.165-2.318.538.331 1.076.62 1.614.993a30.376 30.376 0 014.594 3.684z"/><path d="M26.635 41.766c2.566 1.615 6.912 3.27 9.686 1.16.124-.083.04-.332-.125-.29-.662.165-1.241.413-1.904.538-.869.165-1.78.165-2.649.124-1.738-.083-3.435-.745-5.008-1.532 0-.04 0 0 0 0zM45.675 27.9c-.125 1.987-.414 3.643-1.863 5.092-1.407 1.365-3.56 1.572-5.38 1.241-.083 0-.125.083-.042.124 1.987.538 4.098.373 5.795-.869 1.655-1.242 2.359-3.642 1.862-5.629-.083-.207-.372-.165-.372.042zM26.47 9.73c-2.69.042-5.381.125-8.03.704-.497.124-.662.62-.62 1.076.289 1.863.661 3.684.868 5.588.083.869.166 1.738.166 2.607 0 .207-.041.414-.041.621-.745-1.283-1.904-2.276-2.732-3.518-.248-.372-.952-.497-1.16 0-1.158 2.566-3.476 4.346-6.042 5.422-.62.248-.786.87-.373 1.366 2.442 3.104 5.298 5.877 8.237 8.526a108.65 108.65 0 004.677 3.974c1.325 1.076 2.773 2.442 4.305 3.187.703.33 1.407-.249 1.365-.87 2.525-1.738 4.388-4.428 6.126-6.911 2.194-3.063 4.015-6.375 5.96-9.603.249-.455.083-.91-.33-1.2-1.16-.87-2.36-1.78-3.602-2.567-1.2-.786-2.442-1.655-3.89-1.448-.29.041-.497.497-.29.745.828 1.076 2.152 1.531 3.311 2.235.993.62 1.946 1.324 2.898 2.028-.125.166-.208.373-.332.538-.62-.041-1.241-.083-1.862-.207-.828-.165-1.656-.414-2.484-.62-.041 0-.082.082-.041.082 1.283.497 2.69 1.076 4.098 1.2-.745 1.284-1.49 2.525-2.235 3.808-.249-.041-.497-.082-.58-.082-1.242-.249-2.483-.994-3.435-1.78 0 0-.042 0-.042.041 1.035 1.118 2.235 2.028 3.808 2.235-.372.58-.703 1.2-1.076 1.78-1.573-.083-3.27.124-4.842.165-.042 0-.042.083 0 .083 1.49.042 3.062.249 4.552.166a59.867 59.867 0 01-2.235 3.394c-1.738-.787-3.6-.87-5.546-.497-.124.041-.041.166.041.166 1.863-.331 3.684-.207 5.34.58-.58.827-1.2 1.655-1.863 2.441-.455.041-.869.083-1.366 0-.745-.165-1.407-.58-1.986-1.076-.166-.166-.456.083-.29.29.786.745 1.987 1.407 3.146 1.407-.539.62-1.077 1.242-1.615 1.821-1.117-1.035-2.566-1.862-3.766-2.814-1.614-1.242-3.187-2.567-4.719-3.891-2.69-2.36-5.256-4.843-7.574-7.533 2.194-1.117 4.056-2.773 5.257-4.925.91.993 1.986 1.945 2.483 3.187.083.248.331.372.538.372 0 .248 0 .456-.041.497 0 .041.041.083.082.041.207-.372.621-.455.787-.786.207-.331.29-.787.372-1.16.249-.868.29-1.82.331-2.73.083-1.946-.33-3.892-.579-5.837 1.863-.248 3.767-.29 5.67-.29-.62.125-1.2.414-1.49 1.035-.455.994-.082 2.36.125 3.353 0 .083.124.041.124-.042-.166-.91-.331-1.903-.166-2.814.207-1.035 1.159-1.242 2.07-1.283 0 .993.207 2.07.33 2.938-.744.042-1.53.042-2.276.083-.041 0-.041.042 0 .042.787.041 1.532.041 2.318.082v.042l.248 1.49c-.04.372-.082.703-.082 1.076-.083 0-.166.041-.249.041-.786.083-1.573-.33-2.235-.662 0 0-.041 0-.041.042.745.579 1.614.951 2.483.91-.041.621-.082 1.2-.082 1.821-.58-.082-1.2-.041-1.615.083-.662.207-.786.828-.786 1.449 0 .041.041.041.041 0 .083-.662.456-1.035 1.076-1.16.456-.082.87.042 1.284.125 0 .58.04 1.159.124 1.738.082.497.662.58 1.034.414 2.484-1.076 2.856-2.856 3.188-5.298.04-.414-.497-.62-.663-.165-.414 1.159-.745 2.193-1.448 3.021-.042-.952-.166-1.904-.249-2.856.042-.082.042-.165-.041-.207l-.124-1.241v-.042c.124-1.076.414-2.69-.166-3.725v-.786c.166-.331.124-.787-.124-1.118-.041-.248-.166-.455-.29-.703-.165-.29-.62-.373-.869-.125-.041.083-.166.249-.248.414z"/></svg>