<svg viewBox="0 0 51 50" xmlns="http://www.w3.org/2000/svg"><path d="M41.75 14.779c.467-.574.897-1.148 1.292-1.793.25-.395.43-.79.573-1.184.395.072.861-.215.682-.682-1.148-2.905-3.013-5.523-5.273-7.64-2.08-1.936-5.057-3.766-8.034-3.443-2.977.359-5.81 1.901-8.321 3.48-2.726 1.685-5.237 3.694-7.748 5.667-2.26 1.793-4.591 3.55-6.85 5.38-2.404 1.9-4.735 4.053-6.35 6.671C.539 23.172.072 25.252.144 27.44a15.15 15.15 0 00-.107 3.12c.107 2.01.574 3.875 1.47 5.668a8.53 8.53 0 001.543 2.224c.287.287.574.502.896.717-.215.144-.215.538.036.646.216.108.43.18.646.215-.072.18.143.359.287.18.036-.037.072-.108.108-.144 1.04.036 2.152-.43 3.012-.825 1.292-.61 2.44-1.507 3.48-2.44.107-.107.25-.214.358-.322.359-.287.718-.538 1.04-.825.933-.789 1.866-1.722 2.547-2.762a16.02 16.02 0 012.26-1.793c.394-.251.43-.753.143-1.076-.86-.933-1.9-1.686-3.013-2.367a10.994 10.994 0 00-1.29-.718.925.925 0 01-.18-.215c-.072-.108-.215-.108-.323-.036.215-.502.287-1.04.466-1.542.323-.79.79-1.543 1.256-2.26 1.147-1.65 2.654-3.085 4.232-4.34 2.762-2.26 6.062-4.304 9.577-5.093-.359.86-.395 1.83-.287 2.798a11.306 11.306 0 001.291 4.304c.072.107.215.215.359.215a18.072 18.072 0 008.536-2.977c1.22-.897 2.296-1.865 3.264-3.013zm-10.043 4.77c-.179.036-.323.072-.502.108 0-.036 0-.072.036-.108h.466zm-2.977-7.245c-.072-.036-.215-.036-.287.036-.143.143-.107.323 0 .43v.036c-1.65.108-3.192.79-4.663 1.47-1.972.933-3.766 2.117-5.487 3.48-1.65 1.327-3.193 2.798-4.412 4.52-.538.753-1.004 1.542-1.327 2.367-.215.502-.43 1.076-.43 1.614-.216-.072-.467-.144-.718-.216-.18-.035-.359.18-.215.36.717.645 1.614 1.111 2.403 1.685.072.108.143.215.215.359-.072.143-.072.322 0 .538.108.287.287.502.502.717l.251.251c-.107-.108.036.108.036.072 0 .036.036.18.036.215v.287c0 .072-.036.144-.036.215-.036.144-.107.323-.143.466-.18.43-.43.861-.753 1.292-.897.897-1.758 1.865-2.619 2.726-1.112.968-2.331 1.865-3.587 2.582-.394.216-.789.43-1.183.574.86-1.04 1.721-2.08 2.618-3.085 0 0 0-.035 0 0-1.148 1.04-2.188 2.188-3.192 3.336-.036 0-.036 0-.072.036-.072.036-.107.036-.18.072-.107.036-.179.036-.286.036-.215-.323-.43-.682-.61-1.005.036-.107.072-.25.144-.358.179-.395.358-.825.573-1.22.467-.825 1.005-1.614 1.866-2.044.071-.036.035-.144-.072-.144-.825.323-1.435.933-1.937 1.65-.287.43-.502.897-.717 1.363-.036.072-.072.18-.144.251-.359-.61-.717-1.291-.968-1.937.466-1.578 1.65-2.905 2.654-4.16.072-.108-.036-.215-.144-.144-1.004 1.112-2.152 2.296-2.761 3.623a20.294 20.294 0 01-.538-2.116c.25-.61.574-1.148.896-1.686.79-1.363 1.758-2.583 2.511-3.946 0 0 0-.036-.036 0-1.004 1.363-2.116 2.655-3.013 4.125-.143.251-.287.502-.43.79a18.444 18.444 0 01-.144-1.4c0-.215-.035-.394-.035-.61.825-1.936 2.582-3.658 3.73-5.272.036-.072-.036-.108-.108-.072-1.183 1.363-2.726 2.762-3.694 4.376 0-.86.036-1.686.072-2.546.143-.323.358-.646.538-.933.61-.897 1.327-1.722 1.936-2.654.036-.072-.071-.144-.107-.072-.718.968-1.614 1.793-2.296 2.834 0-.144.036-.287.036-.43.072-.79.251-1.615.466-2.404.216-.789.574-1.542.825-2.331.036-.108-.035-.18-.107-.18A33.067 33.067 0 016.24 17.29c2.26-2.116 4.77-3.874 7.174-5.775 2.367-1.865 4.698-3.766 7.173-5.524 2.619-1.865 5.452-3.658 8.573-4.627 1.434-.43 2.797-.538 4.232-.143 1.542.394 2.941 1.327 4.125 2.331 2.152 1.794 3.981 4.197 5.165 6.78-.036.035-.036.071-.072.071-.538 1.04-1.112 2.08-1.865 2.977-.933 1.076-2.08 1.973-3.3 2.726-1.004.61-2.152 1.22-3.371 1.614.035-.143.035-.287.035-.43 0-.036-.071-.036-.071 0 0 .143-.036.323-.072.466-.753.251-1.542.43-2.331.502a9.598 9.598 0 011.22-2.152s0-.036 0 0c-.575.502-1.041 1.184-1.364 1.83a1.456 1.456 0 01-.18.322c-.322 0-.68 0-1.004-.036-.071-.215-.179-.43-.25-.645.358-1.076 1.362-2.117 2.187-2.69v-.036c-.717.394-1.865 1.255-2.367 2.223a12.982 12.982 0 01-.395-1.076c-.035-.071-.035-.143-.071-.179.143-.466.466-.932.753-1.291.502-.682 1.076-1.327 1.578-2.009.072-.071-.072-.179-.143-.107-.646.753-1.363 1.398-1.973 2.188-.108.179-.251.358-.359.538a5.197 5.197 0 01-.036-1.292.197.197 0 00.18-.107c.323-.933 1.04-1.65 1.721-2.332.144-.143-.071-.322-.215-.215-.574.574-1.183 1.184-1.578 1.865-.036-.071-.143-.107-.18-.036-.071.144-.143.252-.215.395.108-.323.216-.61.395-.86.072-.108-.108-.252-.18-.144-.107.107-.179.215-.286.322.036-.179 0-.322-.144-.43zm1.22 7.102c.358.072.717.108 1.076.143v.144c-.287.036-.574.107-.861.143a1.213 1.213 0 01-.215-.43z"/><path d="M30.488 10.546c-.897.144-1.722.538-2.583.897-.968.395-1.9.86-2.833 1.327a58.04 58.04 0 00-5.81 3.336c-3.444 2.295-6.78 5.13-8.61 8.931-.035.072.108.143.144.072 1.973-3.659 5.452-6.456 8.896-8.716a48.35 48.35 0 015.63-3.192c.898-.43 1.794-.861 2.69-1.22.862-.359 1.794-.681 2.583-1.148.144-.107.036-.287-.107-.287zm-6.636-4.555a162.548 162.548 0 003.551-1.757c.861-.467 2.08-1.005 2.619-1.901.035-.072-.036-.18-.108-.144-.466.18-.825.467-1.256.718-.466.322-.968.61-1.47.896a40.81 40.81 0 01-3.551 1.758c-2.331 1.112-4.699 2.152-6.85 3.587-2.296 1.542-4.305 3.55-6.242 5.488-2.044 1.972-4.089 3.945-6.384 5.63-.036 0 0 .073.036.037 4.878-2.798 8.25-7.569 12.876-10.725 2.045-1.435 4.448-2.475 6.78-3.587zm18.006 10.438c-.574.215-.897.897-1.22 1.363-.502.717-1.22 1.327-1.936 1.83-1.4 1.003-2.942 1.434-4.627 1.685-.18.036-.144.287 0 .323 1.614.538 3.55-.251 4.95-1.076a9.729 9.729 0 002.187-1.83c.467-.502 1.22-1.363.969-2.116-.072-.107-.215-.215-.323-.18zm1.829 3.335c.467-.502.897-1.004 1.327-1.506.359-.43.79-1.004.861-1.542.036-.251-.287-.395-.502-.287-.395.215-.753.717-1.04 1.112-.395.502-.79.968-1.184 1.434a24.958 24.958 0 01-3.013 2.834c-2.116 1.686-4.52 2.833-7.21 3.156-.143 0-.178.215-.035.251 2.618.61 5.416-.968 7.46-2.475a29.09 29.09 0 003.336-2.977zm5.883-4.554c-.538.358-.861 1.04-1.22 1.578-.395.645-.86 1.291-1.327 1.9a26.837 26.837 0 01-3.515 3.767c-1.256 1.148-2.654 2.116-4.125 2.941-1.327.753-2.798 1.256-4.197 1.865-.179.072-.071.36.108.36 1.507 0 3.013-.647 4.376-1.328 1.506-.79 2.905-1.758 4.232-2.834 1.363-1.111 2.583-2.403 3.695-3.766a41.178 41.178 0 001.47-2.008c.43-.646.969-1.435.969-2.224-.036-.18-.287-.359-.466-.251zM9.613 42.003a22.67 22.67 0 004.483-2.87 18.999 18.999 0 002.08-2.08c.539-.645 1.292-1.434 1.471-2.295.072-.287-.287-.503-.502-.287-.646.61-1.04 1.542-1.614 2.224a16.473 16.473 0 01-1.901 1.972c-1.256 1.148-2.726 2.152-4.16 3.085-.18.107-.037.323.143.251zM7.102 45.59c1.435.358 2.941-.144 4.268-.682 1.758-.753 3.372-1.793 4.842-3.013 1.435-1.184 2.762-2.618 3.767-4.197a9.875 9.875 0 001.111-2.223c.287-.79.287-1.292.036-2.08-.072-.216-.323-.18-.394 0-.108.286-.251.502-.359.788-.143.323-.18.682-.287 1.005-.215.681-.574 1.363-.968 1.972-.897 1.471-2.152 2.762-3.444 3.91-2.439 2.152-5.308 3.73-8.572 4.268-.108.036-.108.216 0 .252z"/><path d="M25.502 31.852c-.574.825-1.112 1.686-1.435 2.654-.287.861-.538 1.722-.825 2.583-.61 1.757-1.506 3.264-2.833 4.59-.897.898-1.937 1.615-2.905 2.404-1.005.825-2.045 1.65-3.12 2.367-2.153 1.435-4.592 2.475-7.21 2.44-.251 0-.287.358-.072.43 2.582.574 5.057-.287 7.281-1.578 1.148-.682 2.224-1.507 3.264-2.296 1.076-.825 2.152-1.614 3.157-2.51 3.228-2.799 4.124-6.888 5.2-10.833.072-.359-.358-.502-.502-.251z"/></svg>