<svg viewBox="0 0 32 40" fill="none" xmlns="http://www.w3.org/2000/svg"><path d="M31.47 36.748c-.383-.925-.732-1.887-1.254-2.742-.976-1.674-2.127-3.277-3.277-4.844-2.231-3.063-4.671-5.913-7.25-8.656a86.164 86.164 0 005.507-8.228c.976-1.674 1.987-3.383 2.789-5.164.418-.926.662-1.888.976-2.85.244-.82.383-1.888.279-2.743-.07-.427-.523-.64-.872-.391-.07.035-.104.107-.174.142a.364.364 0 00-.314-.178c-.244 0-.523.036-.767.036-.07-.036-.14-.072-.174-.107-.453-.285-.872-.606-1.36-.89-.592-.321-1.29-.036-1.464.605-1.952 5.841-4.531 11.362-7.634 16.634a74.4 74.4 0 00-6.309-5.272c-1.638-1.21-3.311-2.422-5.02-3.562C3.55 7.434 1.98 6.258.272 5.298c-.14-.072-.348.07-.244.213 1.08 1.496 2.405 2.742 3.765 3.953 1.534 1.39 3.102 2.672 4.671 4.025a91.962 91.962 0 016.588 6.234c-2.823 4.559-6.03 8.904-9.481 13.036a30.156 30.156 0 00-1.43 1.568c-.87.961-1.777 1.959-2.544 3.063-.384.427-.767.855-1.116 1.246-.209.214.105.499.314.32L.9 38.85c.035 0 .07 0 .14-.036 1.568-1.14 3.032-2.493 4.53-3.74a127.266 127.266 0 004.637-4.06 74.34 74.34 0 007.704-8.264c2.265 2.53 4.392 5.165 6.309 7.979 1.08 1.532 2.022 3.134 3.033 4.702.557.855 1.22 1.602 1.777 2.422.523.748 1.325 1.603 2.092 2.066.383.213.802-.036.837-.463.104-.855-.14-1.924-.488-2.708z" fill="#BF9456"/></svg>