<svg viewBox="0 0 34 21" fill="none" xmlns="http://www.w3.org/2000/svg"><path d="M8.287 19.626c.905-.5 1.676-1.252 2.08-2.215.308-.75.29-1.675-.02-2.446 1.253-.404 2.736-1.116 3.275-2.33l.019.02c.385.23.732.27 1.098.057.134-.077.25-.154.346-.23.694 1.058 1.56 2.021 2.446 2.888 1.329 1.31 2.83 2.503 4.468 3.428 3.1 1.752 6.913 2.465 10.014.327l.019-.02c.02-.018.02-.018.039-.038.173-.173.192-.462-.058-.616-4.815-2.638-9.34-5.854-14.25-8.28.5-.578 1.232-.964 1.906-1.29 1.482-.733 3.139-1.195 4.718-1.619 1.714-.481 3.447-.866 5.18-1.27 1.232-.29 2.484-.52 3.678-.944.443-.154.27-.828-.134-.751l.019-.02c0-.019.019-.019.019-.038 0 0 0-.02-.02-.02-.404.251-1.135-.057-1.54-.173-.828-.23-1.637-.539-2.426-.828-1.618-.577-3.428-1.31-5.18-1.155-1.965.173-3.64 1.83-4.911 3.177-.77.828-1.502 1.676-2.253 2.504-.328.366-.674.712-1.021 1.04-.077.077-.154.135-.231.212-.097-.386-.308-.732-.694-.867-.365-.135-.77-.058-1.097.154-.328-1.502-1.522-2.696-3.062-2.966a.224.224 0 00-.193.039c.135-1.367-.173-2.715-1.252-3.678C8.27.792 6.863.464 5.554.503c-1.33.039-2.659.443-3.718 1.271A3.615 3.615 0 00.758 3.161C.45 3.873.604 4.643.854 5.356c.366 1.04 1.02 1.964 1.752 2.773.636.713 1.464 1.387 2.408 1.618.924.25 1.983-.405 2.753-.848.655-.385 1.31-.808 1.888-1.328a.173.173 0 00.096.019c1.136.02 1.868.77 2.715 1.367-.173-.02-.346-.058-.52-.077-.077-.02-.154.058-.173.135-.25.693-.096 1.348.366 1.887-.79.886-1.733 1.522-2.792 2.022-.617-.886-1.618-1.483-2.639-1.79a5.35 5.35 0 00-4.333.538c-2.58 1.599-2.85 5.855-.5 7.78 1.79 1.503 4.487 1.233 6.412.174zm3.756-6.066c-.597.404-1.271.654-1.965.847-.019-.039-.057-.077-.077-.116 1.098-.52 2.273-1.02 3.159-1.829a4.34 4.34 0 01-1.117 1.098zM6.227 9.092s0-.02 0 0c-.443-.058-.867-.154-1.252-.404-.404-.25-.597-.597-.867-.983-.057-.077-.192-.038-.154.077.309.983 1.31 1.387 2.273 1.31-.424.135-.848.192-1.233.077-.443-.135-.828-.385-1.194-.693.039 0 .058-.039.039-.077-.212-.482-.366-.963-.424-1.483-.038-.482.116-.886.212-1.348.02-.077-.077-.097-.116-.039-.597.79-.173 2.119.212 2.908-.366-.308-.674-.655-.963-.982-.654-.77-1.213-1.675-1.482-2.658-.405-1.425.558-2.465 1.752-3.061 1.078-.54 2.369-.713 3.563-.54.597.482 1.078.982 1.348 1.714.019.039.058.02.058-.019-.193-.616-.54-1.233-1.04-1.637.019 0 .038 0 .057.02.848.192 1.637.596 2.196 1.251-.193.404-.347.809-.366 1.271.02-.424.23-.809.424-1.175.385.482.577 1.079.635 1.676-.481.25-.886.616-1.252 1.001 0-.058.02-.096 0-.154 0-.192-.019-.366-.115-.54-.058-.076-.154-.095-.231-.018a.855.855 0 00-.154.211c-.116-.847-.578-1.56-1.483-1.906a1.666 1.666 0 00-.443-.116C6.15 2.14 5.495 1.62 4.879 1.524c-.058-.02-.116.077-.039.115.52.29 1.175.482 1.29 1.136a2.207 2.207 0 00-1.405.309c-.385-.54-.925-1.04-1.618-1.117-.058 0-.077.096-.038.115.327.154.674.25.982.443.23.154.423.366.597.578a2.124 2.124 0 00-.828.963c-.559 1.348.134 3.466 1.656 3.813.23.057.462.057.693.019.116.193.385.308.578.366.385.135.828.096 1.213-.039-.116.058-.231.135-.347.193-.385.231-.886.5-1.386.674zM7.92 5.587c-.096.289-.25.54-.404.79-.347.5-.905.924-1.521.982-1.406.135-2.022-1.849-1.714-2.947.25-.943 1.29-1.328 2.176-1.136 1.117.231 1.521 1.271 1.463 2.311zM3.223 19.453c-1.194-.54-1.85-1.618-2.042-2.89-.173-1.097.039-2.271.636-3.196.539-.828 1.463-1.329 2.407-1.56.058-.019.116-.019.173-.038.02.019.02.019.039.019.75-.096 1.175.347 1.502.905-1.136 0-2.388.443-3.1 1.31-.655.808-.655 2.022-.174 2.927-.038 0-.096.038-.077.115a4.99 4.99 0 001.406 2.62s.02 0 0 0c-.655-.694-.982-1.599-1.213-2.504.115.192.27.385.443.54.943.866 2.33.654 3.389.134.867-.424 1.695-1.194 1.983-2.157a1.693 1.693 0 00-.134-1.31c-.077-.962-1.06-1.502-2.003-1.636-.135-.02-.27-.02-.405-.039-.23-.443-.539-.867-.962-1.02.5-.04 1.001 0 1.482.096.058.212.25.404.405.578.154.173.327.346.5.52.04.038.097-.02.058-.058a5.045 5.045 0 01-.423-.482c-.135-.154-.231-.346-.347-.5.154.038.289.076.424.115.693.231 1.29.655 1.771 1.155-.077.039-.154.058-.23.097-.367.154-.232.712.173.597a2.61 2.61 0 00.5-.174c.077.116.174.232.25.347.04.058.116.02.097-.038-.039-.135-.077-.27-.135-.386 1.117-.5 2.234-1.405 2.773-2.445.174-.039.29-.27.135-.424-.443-.443-.5-.867-.443-1.425.212-.02.405-.058.616-.096.02 0 .039.019.039.019.096.058.192-.058.154-.154-.578-.963-1.656-1.753-2.773-1.945a.833.833 0 00.115-.135c.097-.096-.038-.231-.154-.154a4.27 4.27 0 01-.308.231h-.077c-.173 0-.27.116-.27.25-.48.347-.982.655-1.482.925.019-.02.019-.058-.02-.058a2.036 2.036 0 01-.962-.02c-.25-.057-.405-.173-.578-.307a3.145 3.145 0 001.001-.54c.308-.25.54-.558.751-.885.174-.27.385-.694.462-1.04.386-.366.81-.732 1.29-.963.04.385 0 .79-.038 1.155-.038.29.424.385.559.174.038.038.077.057.115.057a3.72 3.72 0 012.985 2.64 1.645 1.645 0 00-.25.27c-.79-1.252-2.234-2.254-3.66-2.639.174-.039.367-.039.52-.039.04 0 .04-.057 0-.057-.192 0-.423 0-.596.057a4.258 4.258 0 00-.482-.096c-.077-.02-.115.096-.038.116.096.038.212.077.308.115-.058.058-.077.154-.096.27 0 .02.038.02.038 0a.33.33 0 01.097-.25c1.444.558 2.965 1.29 3.851 2.56-.058.097-.096.193-.135.29-.038.134.096.211.212.154.058-.02.096-.058.154-.077.077.134.135.27.212.404h.02a2.831 2.831 0 00-.193-.424c.346-.23.693-.597 1.117-.52.308.058.462.386.558.732-.135.135-.25.27-.366.443a.146.146 0 00-.038.077c-.135.212.077.405.288.385.463-.077.713-.23 1.079-.558.385-.347.732-.713 1.078-1.098.751-.828 1.464-1.694 2.215-2.523.751-.828 1.521-1.636 2.388-2.33.713-.558 1.521-1.04 2.446-1.097 1.81-.097 3.678.654 5.373 1.194.75.23 1.52.52 2.291.616.154.02.347.058.52.058-1.059.327-2.176.558-3.254.79-1.772.404-3.544.808-5.296 1.309-1.618.443-3.236.982-4.718 1.771-.597.328-1.54.886-1.926 1.599-.135-.058-.25-.135-.385-.193-.27-.115-.482.231-.231.405l.462.288c0 .058-.02.135 0 .193 0 .077.02.154.038.212.02.077.135.058.154 0l.116-.231c4.468 2.811 8.974 5.642 13.596 8.184-2.85 1.58-6.143.751-8.878-.828-2.6-1.463-4.66-3.563-6.624-5.854.057-.077.115-.174.153-.27.078-.173-.154-.308-.25-.154-.038.058-.077.096-.135.154-.173-.212-.346-.404-.52-.616-.115-.135-.288.038-.23.173.115.25.25.482.384.732a1.037 1.037 0 01-.25.135c-.289.154-.404.096-.693-.058-.058-.038-.116-.077-.135-.115.02-.097.02-.193.02-.309 0-.096-.135-.134-.174-.057-.02-.135-.039-.27-.077-.405a.294.294 0 00-.559 0c-.096.328 0 .655.174.944-.963.886-2.273 1.29-3.428 1.926-.077 0-.173.038-.212.115-.231.135-.443.29-.655.443h-.019c-.135 0-.135.212 0 .212h.424c.135 0 .135-.212 0-.212h-.116c.116-.058.25-.135.366-.192 0 .019.02.019.02.038-.251.154-.097.597.211.559.29.885.347 1.752-.23 2.638-.193.308-.463.578-.733.828a.815.815 0 00.077-.231c0-.02-.038-.039-.057-.02a.791.791 0 01-.829.366c-.173-.019-.346-.115-.5-.211-.154-.097-.212-.212-.405-.231-.057 0-.115.038-.096.096.077.424.751.597 1.117.597h.135c-.5.308-1.04.52-1.58.674-1.097.308-2.368.308-3.446-.174zm3.736-6.24c-.193.116-.27.405-.02.559.501.308 1.021.693 1.06 1.328.038.52-.29 1.021-.636 1.387-.77.828-2.118 1.425-3.235 1.04-1.29-.462-1.502-2.388-.655-3.313.809-.924 2.292-1.27 3.486-1z" fill="#BF9456"/><path d="M7.94 6.897c.213.577.887.635 1.387.462.039-.02.02-.077-.019-.077-.25.077-.52.115-.77.019-.231-.077-.347-.27-.501-.462-.039-.039-.135 0-.096.058zM3.588 4.701c.039-.02.02-.058-.019-.058-.924.25-1.136 1.194-.924 2.022.02.058.115.039.096-.019-.154-.809-.058-1.675.847-1.945zm-1.733-.462c.02-.173 0-.366.039-.54.058-.288.27-.288.5-.23.386.077.79.212 1.137.385.057.038.115-.058.057-.096-.48-.232-1.02-.443-1.579-.463-.096 0-.192.212-.211.29-.077.192-.077.461-.058.654.019.058.115.058.115 0zm18.873 9.301c.577.559 1.406.925 2.099 1.31.77.424 1.54.809 2.33 1.213 1.56.79 3.1 1.58 4.43 2.735.019.02.038 0 .019-.02-1.214-1.116-2.639-1.944-4.064-2.715-.77-.423-1.56-.79-2.33-1.213l-1.155-.636c-.424-.25-.828-.558-1.252-.77-.058-.038-.116.039-.077.096zm-1.233.347c-.077-.039-.135.058-.058.116.713.52 1.483.962 2.196 1.463.693.482 1.387 1.002 2.08 1.483 1.348.944 2.773 1.79 4.352 2.33.038.02.038-.038.02-.058-1.618-.558-3.044-1.483-4.43-2.484-1.348-.982-2.658-2.176-4.16-2.85zm2.639-6.971c2.291-1.58 5.16-2.215 7.915-2.234.019 0 .019-.02 0-.02-2.754 0-5.662.598-7.973 2.177-.039.038 0 .115.058.077zm-2.061-.52c.25-.25.52-.462.809-.655A9.675 9.675 0 0122.75 4.74a11.707 11.707 0 014.198-.886c.077 0 .077-.116 0-.116-1.502 0-3.004.29-4.41.828-.674.27-1.329.597-1.907 1.021-.404.289-1.136.77-1.27 1.271-.02.077.057.116.115.096.25-.135.405-.385.597-.558zM9.77 16.583c0-.02-.038-.038-.038-.02-.347.713-1.137.405-1.734.367-.077 0-.134.135-.038.173.635.289 1.598.308 1.81-.52zM7.132 19.26c.038-.02 0-.077-.039-.058-.346.231-.712.405-1.136.29-.385-.097-.693-.463-.924-.771-.135-.174-.366.019-.231.173.289.366.635.77 1.117.809.462.038.847-.173 1.213-.443zm-4.853-1.367a3.969 3.969 0 01-.558-1.599c-.058-.52.134-.963.173-1.463 0-.097-.116-.116-.173-.039-.675.944-.155 2.369.5 3.158.02.02.077-.019.058-.057zm.713-5.103c.346-.04.712.115 1 .288.04.02.059-.019.02-.038-.5-.328-1.406-.636-1.83 0-.038.058.04.115.078.077.27-.154.443-.29.732-.328z" fill="#BF9456"/></svg>