<svg viewBox="0 0 52 100" fill="none" xmlns="http://www.w3.org/2000/svg"><path d="M24.738 50.658c1.292.776 1.602 1.137 2.119-.206.93-2.326 1.24-4.807 2.222-7.132 1.602-3.824 3.462-7.494 7.648-8.837 2.326-.724 4.858-.93 7.184-1.654 4.961-1.55 7.235-6.202 7.597-11.06.103-1.24-.465-3.152-.93-3.514-.466-.361-5.065-1.602-6.77-1.292-1.706.31-5.788.362-6.925.155-1.19-.206-1.964-1.188-2.688-1.292-.723-.103-2.325.362-2.532 1.292-.207.93.052 1.189.723 1.86.672.724 2.636 1.913 2.74 4.032.103 2.067-.207 6.15-.93 7.907-.776 1.809-3.463 5.788-4.549 7.442-.671.878-.981 1.912-1.447 2.842-.568 1.085-1.343 2.067-2.119 3.05-1.188 1.601-2.583 3.307-4.547 3.617a12.588 12.588 0 003.204 2.79zm25.22-31.783c.258.724.465 1.5.568 2.223v-.31l.103 1.033c0-.258-.051-.517-.103-.723.052 1.085.103 2.222.103 3.307-.051-.878-.103-1.757-.31-2.584-.207-.827-.568-1.654-1.137-2.325a1.36 1.36 0 00.775-.62zm-7.029-.826c2.067-.362 4.238.155 5.581 1.602 3.721 3.927-.051 10.956-5.168 11.06-3.462.103-5.633-1.5-6.201-2.637-.569-1.188-.362-4.496.362-5.684.723-1.137 3.307-3.928 5.426-4.341zm-10.078.31c-.258-.517.827-.62.827-.62s.982.62 1.81 1.24c.826.672 3.048 0 3.048-.052-1.033.31-1.498 1.964-1.809 2.843-.516 1.498-.723 3.1-.981 4.65.051-.93.103-1.808.206-2.738.052-1.086.104-2.326-.568-3.256-.672-.775-2.016-1.137-2.532-2.067zm2.895 10.077c0 2.12 4.03 3.514 5.633 3.618-2.636.361-5.22 1.188-7.546 2.48 1.034-1.705 1.913-4.03 1.913-6.098z" fill="#fff"/><path d="M.19 18.1c-.465 2.532 0 5.065.569 6.615.568 1.55.671 2.222 3.307 2.532 1.085.155 2.119.414 3.153.517.671.207 2.945.93 3.875 2.688 1.086 2.067 1.447 4.186 1.344 5.736-.103 1.55-.103 3.98.672 5.065.775 1.085 2.067 1.55 2.946 5.27.878 3.722 1.55 8.89 2.739 12.3 1.188 3.411 2.945 6.719 2.945 6.719.104.207 4.755-1.24 5.117-1.447.258-.155.413-.362.568-.569.775-1.343.052-3.307-.362-4.65-.516-1.603-.723-3.515-1.757-4.859-1.343-1.757-4.186-2.739-5.478-4.186-1.343-1.498-3.876-5.891-4.754-7.958-.879-2.067-2.067-8.476-2.533-11.215-.465-2.739-.103-4.96-.103-4.96s-.672 1.756-2.222 2.066c-1.189.259-2.429.052-2.946-.051 1.55.103 3.153-.207 5.168-2.016 0 0 .517-1.24.982-2.429-.103.569-.258 1.189-.31 1.912a25.37 25.37 0 00-.155 2.946c0 1.085.052 2.222.207 3.462.155 1.24.31 2.481.516 3.825.259 1.344.517 2.687.93 4.03a41.918 41.918 0 001.448 4.032c.31.672.62 1.292.982 1.964.361.62.775 1.24 1.188 1.808.827 1.189 1.757 2.223 2.843 3.101.516.465 1.137.827 1.705 1.137.569.31 1.085.569 1.602.93.465.31.879.672 1.189 1.086.103.103.155.206.206.31l.104.206.052.104v.051c.103.259.206.517.258.724.362.982.62 1.912.878 2.739.259.827.466 1.55.672 2.119.362 1.188.569 1.86.569 1.86s-.052-.155-.104-.517c-.051-.31-.155-.826-.258-1.395a28.315 28.315 0 00-.465-2.17c-.207-.827-.414-1.81-.672-2.843a4.604 4.604 0 00-.258-.775v-.103l-.052-.104-.103-.206a1.125 1.125 0 00-.259-.414 5.528 5.528 0 00-1.343-1.344 27.894 27.894 0 00-1.602-1.033c-.569-.31-1.034-.672-1.5-1.085-.981-.827-1.808-1.86-2.583-2.998-.362-.568-.775-1.137-1.085-1.757-.31-.568-.62-1.188-.93-1.86-.57-1.24-1.034-2.584-1.448-3.876a39.319 39.319 0 01-1.033-3.876c-.259-1.292-.465-2.533-.672-3.721-.207-1.189-.362-2.326-.414-3.36-.051-1.033-.103-2.015-.051-2.893 0-.879.051-1.602.155-2.223.103-.568.155-1.033.258-1.343 0-.052 0-.104.052-.104v-.051c.052-.259.103-.362.103-.362s0 .052-.051.155c.206-1.344.361-5.013.258-5.736-.103-.776-.465-1.964-1.757-2.74-1.344-.775-3.308-1.963-4.393-4.185-1.085-2.223-1.55-3.98-3.204-5.582C3.291 1.304 1.741-.349 1.43.064 1.07.53 1.07.84 2.412 2.7c1.344 1.86 3.825 3.617 4.083 5.168.207 1.55-.465 2.945-1.447 3.979-.982.982-4.393 3.72-4.858 6.253zm23.463 40.362a2.316 2.316 0 012.325 2.325 2.316 2.316 0 01-2.325 2.326 2.316 2.316 0 01-2.326-2.326 2.316 2.316 0 012.326-2.325zM1.74 26.162c-.672-.672-.776-2.894-.776-2.894s.104.672.879 1.55c.775.88 2.532 1.758 2.532 1.758-.207.465-1.964.206-2.635-.414zm11.266-6.098c-.362 3.256-2.688 6.15-6.615 5.323-6.098-1.344-5.53-8.269-1.24-11.214 4.444-3.101 8.32 1.498 7.855 5.891z" fill="#fff"/><path d="M23.653 62.13c.775 0 1.343-.62 1.343-1.343 0-.775-.62-1.343-1.343-1.343-.776 0-1.344.62-1.344 1.343-.052.724.568 1.344 1.344 1.344zm7.648 15.711c-.723-2.377-1.499-4.806-2.222-7.183-.517-1.654-1.912-4.238-1.706-5.943-1.136.62-2.532 1.292-3.875 1.447l-1.19.103s3.412 12.972 6.926 20.362c3.514 7.39 6.047 12.868 6.047 12.868s.981.982 1.188.207c-.723-5.168-1.499-9.974-3.049-15.039-.724-2.274-1.395-4.548-2.119-6.822zm-4.91-1.808s.466.981 2.12 5.116c1.653 4.083 5.53 13.436 5.53 13.436-3.463-5.477-7.65-18.552-7.65-18.552zM19.208 62.39c-.155-.362-.31-.776-.465-1.138-.517.724-1.344 2.016-2.429 3.67-.878 1.343-1.86 2.842-2.894 4.547-.517.827-1.034 1.706-1.602 2.584-.517.879-1.034 1.81-1.55 2.74l-1.396 2.79c-.465.93-.878 1.86-1.292 2.74a159.747 159.747 0 00-2.222 4.909 495.246 495.246 0 00-2.119 4.806s.775-1.964 2.016-4.858c.62-1.447 1.343-3.152 2.119-4.961.413-.879.826-1.809 1.24-2.79.413-.931.878-1.913 1.344-2.843.465-.93.93-1.86 1.447-2.791.516-.879 1.033-1.809 1.498-2.636.982-1.705 1.964-3.255 2.791-4.6 1.292-2.118 2.274-3.72 2.636-4.237-.259-.62-.517-1.188-.724-1.809.413 1.034-2.222 4.135-2.739 5.065a120.585 120.585 0 00-3.618 6.718c-2.273 4.496-4.34 9.044-6.304 13.695C4.48 85.128.035 96.86 1.947 96.86c.827 0 1.137-1.55 1.396-2.118.826-1.706 1.86-3.411 2.79-4.91 2.067-3.41 4.135-6.822 6.15-10.232 2.016-3.411 4.031-6.77 5.995-10.181.982-1.757 2.326-3.153 1.654-5.117-.207-.671-.465-1.291-.724-1.912z" fill="#fff"/></svg>