<svg viewBox="0 0 34 21" fill="none" xmlns="http://www.w3.org/2000/svg"><path d="M25.237 1.36c-.906.501-1.677 1.253-2.082 2.217-.308.751-.289 1.676.02 2.447-1.253.405-2.737 1.118-3.277 2.332l-.019-.02c-.385-.23-.732-.27-1.098-.057-.135.077-.25.154-.347.231-.694-1.06-1.561-2.023-2.448-2.89-1.33-1.311-2.833-2.506-4.47-3.431C8.412.435 4.595-.278 1.493 1.861l-.02.02-.038.038c-.173.174-.192.463.058.617 4.818 2.64 9.347 5.858 14.261 8.287-.501.578-1.233.963-1.908 1.29-1.484.733-3.141 1.196-4.721 1.62-1.715.481-3.45.867-5.184 1.272-1.234.289-2.486.52-3.681.944-.443.154-.27.829.135.752l-.02.019c0 .019-.019.019-.019.038 0 0 0 .02.02.02.404-.251 1.136.057 1.541.173.829.231 1.638.54 2.428.829 1.62.578 3.43 1.31 5.184 1.156 1.966-.174 3.643-1.83 4.915-3.18.77-.829 1.503-1.676 2.254-2.505a17.34 17.34 0 011.022-1.04c.077-.078.154-.136.231-.213.096.386.308.732.694.868.366.134.77.057 1.098-.155.328 1.503 1.523 2.698 3.064 2.968.078.02.135 0 .193-.038-.135 1.368.174 2.717 1.253 3.68 1.002.887 2.409 1.214 3.72 1.176 1.329-.039 2.659-.443 3.719-1.272a3.619 3.619 0 001.079-1.388c.308-.712.154-1.483-.096-2.196-.367-1.041-1.022-1.966-1.754-2.775-.636-.714-1.465-1.388-2.41-1.62-.924-.25-1.984.405-2.755.849-.655.385-1.31.809-1.889 1.33-.038-.02-.057-.02-.096-.02-1.137-.02-1.87-.77-2.717-1.368.173.019.347.058.52.077.077.02.154-.058.174-.135.25-.694.096-1.349-.367-1.889.79-.886 1.735-1.522 2.795-2.023.616.886 1.619 1.484 2.64 1.792a5.354 5.354 0 004.336-.54c2.583-1.6 2.852-5.858.501-7.785C29.862.05 27.164.32 25.237 1.36zm-3.758 6.07c.597-.404 1.272-.654 1.965-.847.02.038.058.077.078.116-1.099.52-2.274 1.021-3.161 1.83.308-.424.655-.79 1.118-1.098zm5.82 4.472c0 .02 0 .02 0 0 .443.058.867.154 1.252.405.405.25.598.597.868.982.057.078.192.039.154-.077-.309-.963-1.31-1.368-2.274-1.31.424-.135.848-.193 1.233-.077.443.135.829.385 1.195.694-.039 0-.058.038-.039.077.212.481.367.963.424 1.484.039.481-.115.886-.212 1.349-.019.077.078.096.116.038.598-.79.174-2.12-.212-2.91.366.308.675.655.964.983.655.77 1.214 1.677 1.483 2.66.405 1.425-.558 2.466-1.753 3.064-1.08.54-2.37.713-3.565.54-.598-.483-1.08-.984-1.35-1.716-.019-.039-.057-.02-.057.02.192.616.54 1.233 1.04 1.637-.019 0-.038 0-.057-.019-.848-.193-1.639-.597-2.197-1.252.192-.405.346-.81.366-1.273-.02.424-.231.81-.424 1.176-.386-.482-.578-1.08-.636-1.676.482-.251.886-.617 1.253-1.003 0 .058-.02.097 0 .154 0 .193.019.367.115.54.058.077.154.096.231.02a.855.855 0 00.155-.213c.115.848.578 1.561 1.483 1.908.135.058.29.097.444.116.077.636.732 1.156 1.349 1.253.058.019.115-.078.038-.116-.52-.29-1.175-.482-1.29-1.137a2.208 2.208 0 001.406-.308c.385.54.925 1.04 1.619 1.117.058 0 .077-.096.038-.115-.327-.155-.674-.25-.983-.444a2.846 2.846 0 01-.597-.578c.366-.23.655-.558.829-.963.559-1.35-.135-3.47-1.658-3.816a1.686 1.686 0 00-.693-.02c-.116-.192-.386-.308-.579-.366-.385-.134-.828-.096-1.214.04.116-.059.232-.136.347-.194.386-.212.887-.5 1.388-.674zm-1.696 3.527c.096-.29.25-.54.405-.79.346-.502.905-.926 1.522-.983 1.407-.135 2.023 1.85 1.715 2.948-.25.944-1.291 1.33-2.178 1.137-1.117-.231-1.522-1.291-1.464-2.312zm4.702-13.876c1.195.54 1.85 1.619 2.043 2.89.173 1.1-.039 2.275-.636 3.2-.54.829-1.465 1.33-2.409 1.56-.058.02-.116.02-.174.04-.019-.02-.019-.02-.038-.02-.752.096-1.176-.347-1.503-.906 1.137 0 2.39-.443 3.102-1.31.656-.81.656-2.024.174-2.93.038 0 .096-.038.077-.115a4.994 4.994 0 00-1.407-2.62s-.019 0 0 0c.655.693.983 1.599 1.214 2.504a2.365 2.365 0 00-.443-.54c-.944-.866-2.332-.654-3.392-.134-.867.424-1.696 1.195-1.985 2.158-.134.482-.077.925.135 1.31.077.964 1.06 1.504 2.005 1.639.134.02.27.02.404.038.231.444.54.868.964 1.022a5.45 5.45 0 01-1.484-.097c-.058-.212-.25-.404-.405-.578-.154-.173-.328-.347-.5-.52-.04-.039-.097.02-.059.058.154.154.29.308.424.482.135.154.232.346.347.5a12.726 12.726 0 01-.424-.115c-.694-.231-1.291-.655-1.773-1.156.077-.039.154-.058.232-.097.366-.154.23-.713-.174-.597a2.581 2.581 0 00-.501.173c-.077-.115-.174-.23-.25-.347-.04-.057-.116-.019-.097.039.039.135.077.27.135.385-1.118.501-2.235 1.407-2.775 2.448-.174.038-.29.27-.135.424.443.443.501.867.443 1.426-.212.02-.405.058-.617.096-.019 0-.038-.019-.038-.019-.096-.058-.193.058-.154.154.578.964 1.657 1.754 2.775 1.947a.81.81 0 00-.116.135c-.096.096.039.23.154.154.097-.077.193-.154.309-.232h.077c.173 0 .27-.115.27-.25.481-.347.982-.655 1.484-.925-.02.02-.02.058.019.058.327-.077.636-.058.963.019.251.058.405.173.579.308a3.148 3.148 0 00-1.003.54c-.308.25-.54.559-.751.886-.174.27-.386.694-.463 1.041-.385.366-.81.732-1.29.964-.04-.386 0-.79.038-1.157.038-.289-.424-.385-.56-.173-.038-.039-.076-.058-.115-.058a3.723 3.723 0 01-2.987-2.64c.096-.077.174-.174.25-.27.79 1.253 2.236 2.255 3.662 2.64a2.424 2.424 0 01-.52.039c-.039 0-.039.058 0 .058.193 0 .424 0 .597-.058.154.038.328.077.482.096.077.02.116-.096.039-.115-.097-.039-.212-.078-.309-.116.058-.058.077-.154.097-.27 0-.02-.039-.02-.039 0a.333.333 0 01-.096.25c-1.446-.558-2.968-1.29-3.854-2.562.057-.097.096-.193.134-.29.039-.134-.096-.211-.212-.154-.058.02-.096.058-.154.077-.077-.134-.135-.27-.212-.404h-.02c.059.154.117.289.194.424-.347.23-.694.597-1.118.52-.308-.058-.463-.385-.559-.732.135-.135.25-.27.366-.443a.146.146 0 00.039-.078c.135-.212-.077-.404-.29-.385-.462.077-.712.231-1.079.559a14.71 14.71 0 00-1.079 1.098c-.751.829-1.464 1.696-2.216 2.525-.752.829-1.522 1.638-2.39 2.332-.713.559-1.522 1.04-2.447 1.098-1.812.097-3.681-.655-5.377-1.195-.752-.23-1.522-.52-2.293-.616-.154-.02-.347-.058-.52-.058 1.06-.328 2.177-.559 3.256-.79 1.773-.405 3.546-.81 5.3-1.31 1.619-.444 3.238-.984 4.721-1.774.598-.327 1.542-.886 1.928-1.6.135.059.25.136.385.194.27.115.482-.232.231-.405l-.462-.29c0-.057.02-.134 0-.192a.692.692 0 00-.039-.212c-.019-.077-.135-.058-.154 0l-.116.231C11.613 7.547 7.102 4.733 2.477 2.17c2.852-1.58 6.148-.752 8.884.828 2.66 1.523 4.722 3.643 6.687 5.917a1.232 1.232 0 00-.154.27c-.077.173.154.308.25.154a.995.995 0 01.136-.154c.173.212.347.404.52.616.116.135.29-.038.231-.173-.115-.25-.25-.482-.385-.732.077-.058.154-.097.25-.135.29-.155.405-.097.694.057.058.039.116.078.135.116-.02.096-.02.193-.02.308 0 .097.136.135.174.058.02.135.039.27.077.405.097.27.463.27.56 0 .096-.328 0-.655-.174-.944.963-.887 2.274-1.292 3.43-1.928.077 0 .174-.038.212-.115.231-.135.443-.29.655-.443h.02c.134 0 .134-.212 0-.212h-.424c-.135 0-.135.212 0 .212h.115c-.115.057-.25.134-.366.192 0-.019-.02-.019-.02-.038.251-.154.097-.598-.211-.56-.29-.886-.347-1.753.231-2.64.193-.308.463-.577.732-.828a.815.815 0 00-.077.231c0 .02.039.039.058.02a.792.792 0 01.829-.367c.173.02.347.116.5.212.155.097.213.212.405.232.058 0 .116-.039.097-.097-.116-.424-.79-.597-1.156-.597h-.135a6.3 6.3 0 011.58-.675c1.137-.308 2.409-.308 3.488.193zm-3.739 6.225c.193-.116.27-.405.02-.56-.501-.307-1.022-.693-1.06-1.329-.039-.52.289-1.021.636-1.387.77-.83 2.12-1.426 3.237-1.041 1.291.462 1.503 2.39.656 3.315-.81.925-2.294 1.272-3.489 1.002z" fill="#BF9456"/><path d="M25.584 14.118c-.212-.578-.887-.636-1.388-.462-.039.019-.02.077.02.077.25-.077.52-.116.77-.02.231.078.347.27.501.463.039.02.135 0 .097-.058zm4.355 2.197c-.039.02-.02.058.02.058.924-.25 1.136-1.195.924-2.024-.019-.058-.115-.038-.096.02.154.79.058 1.657-.848 1.946zm1.734.462c-.019.174 0 .367-.038.54-.058.29-.27.29-.501.231a4.656 4.656 0 01-1.137-.385c-.058-.039-.116.058-.058.096.482.232 1.021.444 1.58.463.097 0 .193-.212.212-.29.077-.192.077-.462.058-.654-.02-.077-.116-.077-.116 0zM12.787 7.45c-.578-.559-1.407-.925-2.1-1.31-.771-.424-1.542-.81-2.332-1.214-1.561-.79-3.103-1.58-4.433-2.737-.019-.02-.038 0-.019.02 1.214 1.117 2.64 1.946 4.066 2.717.771.424 1.561.79 2.332 1.214l1.156.636c.425.25.83.559 1.253.77.058.039.116-.038.077-.096zm1.233-.327c.078.038.136-.058.059-.116-.714-.52-1.484-.964-2.197-1.465-.694-.481-1.388-1.002-2.082-1.484-1.349-.944-2.775-1.792-4.355-2.331-.039-.02-.039.038-.02.057 1.62.56 3.045 1.484 4.433 2.486 1.349.964 2.66 2.178 4.163 2.853zm-2.64 6.957c-2.274 1.6-5.164 2.216-7.92 2.235-.02 0-.02.02 0 .02 2.756 0 5.666-.598 7.978-2.178.039-.02 0-.097-.058-.077zm2.063.54c-.251.25-.52.462-.81.654a9.684 9.684 0 01-1.87 1.003 11.713 11.713 0 01-4.2.886c-.078 0-.078.116 0 .116 1.503 0 3.006-.29 4.413-.829.674-.27 1.33-.597 1.908-1.021.404-.29 1.137-.771 1.272-1.272.019-.077-.058-.116-.116-.097-.25.116-.405.367-.597.56zm10.31-10.215c0 .02.038.039.038.02.347-.714 1.137-.405 1.735-.367.077 0 .135-.135.038-.173-.636-.27-1.6-.308-1.811.52zm2.64-2.659c-.038.019 0 .077.038.058.347-.232.714-.405 1.138-.29.385.097.693.463.925.771.134.174.366-.019.23-.173-.288-.366-.635-.77-1.117-.81-.462-.057-.848.155-1.214.444zm4.857 1.349c.308.5.481 1.021.558 1.6.058.52-.135.963-.173 1.464 0 .096.115.116.173.039.675-.945.154-2.37-.5-3.161-.02 0-.078.039-.059.058zm-.714 5.107c-.347.038-.713-.116-1.002-.29-.038-.019-.058.02-.019.04.501.327 1.407.635 1.83 0 .04-.059-.038-.116-.076-.078-.27.154-.444.308-.733.328z" fill="#BF9456"/></svg>