<svg viewBox="0 0 95 113" fill="none" xmlns="http://www.w3.org/2000/svg"><path d="M78.63 27.148c-1.337-.368-2.795 2.157-4.053 5.268a133.224 133.224 0 01-4.922 10.625c-4.1 7.8-8.876 15.141-14.123 22.48-6.565 9.272-15.206 17.008-22.197 25.967-2.036 2.595-5.97 7.191-4.228 10.823 1.856 3.899 10.44 5.825 14.238 2.16 3.799-3.664 16.132-20.244 23.28-34.026 7.15-13.782 13.34-31.618 13.98-37.04.668-5.472-.64-5.89-1.976-6.257zm-38.626 75.529c-1.651.528-3.162.464-4.384.364a12.914 12.914 0 01-2.731-.634c-.282-.095-.563-.191-.715-.278-.151-.087-.231-.066-.231-.066s.05.029.231.066c.18.037.383.154.664.249.614.22 1.517.404 2.74.504 1.17.07 2.66.055 4.261-.502l.08-.021a.442.442 0 00.144.217c.021.08-.03.051-.059.101zm38.249-70.562c.736.357 1.021 1.263.663 1.999-.357.736-1.263 1.021-1.999.664-.736-.358-1.021-1.264-.663-2 .357-.736 1.262-1.021 1.999-.663zM74.88 46.933a322.812 322.812 0 01-2.385 6.231 129.438 129.438 0 01-2.945 6.85c-1.081 2.34-2.22 4.779-3.49 7.21-.62 1.191-1.269 2.432-1.94 3.593l-1.049 1.818-1.05 1.818c-.35.606-.7 1.212-1.1 1.789-.35.606-.75 1.183-1.07 1.738-.75 1.183-1.472 2.315-2.243 3.418-1.522 2.286-2.985 4.471-4.5 6.627a129.347 129.347 0 01-4.46 5.976c-1.469 1.845-2.829 3.618-4.203 5.181-.363.396-.697.742-1.01 1.167l-.059.101-.215-.326.029-.051c.334-.345.647-.77.981-1.116 1.324-1.593 2.684-3.366 4.103-5.24 1.418-1.874 2.874-3.929 4.359-6.034a169.694 169.694 0 004.42-6.605c.72-1.133 1.47-2.315 2.192-3.448.35-.606.75-1.182 1.07-1.738.35-.606.75-1.183 1.071-1.738.35-.606.7-1.212 1.071-1.738l1.02-1.768c.671-1.161 1.32-2.402 1.991-3.564 1.24-2.38 2.43-4.791 3.51-7.13a221.441 221.441 0 002.996-6.821c.914-2.166 1.77-4.23 2.487-6.173.717-1.942 1.398-3.704 1.962-5.263a203.48 203.48 0 001.42-4.095c.154-.382.228-.744.324-1.025.08-.022.08-.022.108-.072-.073.361-.198.693-.33 1.156-.33 1.155-.757 2.593-1.27 4.181a159.349 159.349 0 01-1.795 5.091z" fill="#fff"/><path d="M77.267 34.172c.383.153.86.025 1.014-.358.154-.382.026-.86-.357-1.014-.383-.153-.86-.025-1.014.357-.204.354-.047.781.357 1.015zM51.525 44.356c-.962-.084-2.947.79-2.947.79L20.8 59.205l16.834-7.584 15.954-4.66c-.03.051-1.103-2.521-2.064-2.605z" fill="#fff"/><path d="M55.19 51.185l-.075-.919c-.076-.919-1.03-2.413-1.03-2.413l-11.752 2.978 11.74-1.907 1.117 2.261zm-1.176 2.62s-.565.28-1.558.717c-.942.465-2.392 1.11-4.037 1.978-1.696.838-3.66 1.792-5.734 2.817a563.23 563.23 0 01-6.567 3.21 277.1 277.1 0 00-3.312 1.656c-1.13.56-2.153 1.047-3.204 1.584-1.051.538-2.022 1.055-2.994 1.571-.971.517-1.834.961-2.667 1.355a37.35 37.35 0 01-2.334 1.01c-.348.135-.695.271-1.014.357a2.74 2.74 0 01-.868.104c-.55.02-.954-.214-1.156-.33-.252-.146-.375-.284-.375-.284s.072.109.295.305c.253.146.657.379 1.177.41.26.016.6.01.92-.075l1.035-.278a33.122 33.122 0 002.405-.9c1.717-.76 3.66-1.792 5.733-2.817a90.286 90.286 0 013.255-1.555c1.101-.509 2.232-1.068 3.363-1.627a535.512 535.512 0 006.545-3.29c2.073-1.025 4.016-2.058 5.662-2.926 1.645-.868 3.023-1.621 3.994-2.137.921-.546 1.436-.855 1.436-.855zM17.798 69.186c-.05-.029-.021-.08 0 0-.05-.029 0 0 0 0z" fill="#fff"/><path d="M16.484 65.398c-.384-1.433-1.125-3.881.254-5.105.581-.54 1.827-.83 2.58-1.203l6.068-3.163c5.017-2.624 10.084-5.22 15.15-7.816 2.936-1.47 5.917-3.25 9.01-4.292 1.6-.557 3.576-.83 4.675.882.812 1.276 1.289 2.898 1.485 4.425.133.818.381 3.654-.713 4.033.805-.344 1.3-1.202 1.405-2.084.174-1.583-.288-3.466-.454-5.043-.151-1.838 1.5-2.366 1.5-2.366l12.54-4.811s.926-1.486 1.525-2.756c.598-1.27 1.69-4.21 1.69-4.21s-5.062 1.186-10.156 3.362-16.384 8.787-21.85 11.49c-4.522 2.236-9.024 4.551-13.496 6.817-2.4 1.24-4.85 2.452-7.25 3.693-.97.516-3.158 1.273-4.414 2.164-.384.316-.69.612-.835.864-.241.534-.12 1.142-.051 1.721.473 2.563 1.251 4.83 2.63 7.107-.144-.218-.61-1.16-1.293-3.709zm47.63-28.385s-2.777 1.427-5.338 3.18c-2.532 1.703-3.003 3.452-3.003 3.452l-.22-.667c-.222-.666-1.282-1.279-1.282-1.279 4.068-2.498 9.842-4.686 9.842-4.686zM93.325 25.6c-.365-.884-.891-1.255-1.319-1.098-.427.158-1.05.538-1.307 1.332-.257.795-2.385 2.731-4.444 3.966-2.081 1.155-4.294 1.022-4.294 1.022s.27 1.166.122 1.888a16.651 16.651 0 01-.404 1.517s6.07-2.352 8.422-4.092c2.35-1.74 3.12-2.373 3.12-2.373s.498-1.328.104-2.162zm-.83 1.204a1.273 1.273 0 00-.136-.347 1.276 1.276 0 01-.165-.298c-.173-.167-.518-.501-.532-.71.037-.181.125-.333.284-.376.536-.229.67.59.755.908.064.239.049.5.033.76-.015.26-.161.512-.148.722-.021-.08-.013-.21-.035-.29.008-.13-.013-.21-.056-.369z" fill="#fff"/></svg>