<svg viewBox="0 0 51 49" xmlns="http://www.w3.org/2000/svg"><path d="M50.013 8.828c0-1.092-.103-2.15-.342-3.208-.102-.512-.41-2.082-1.058-2.15-3.208-.376-6.416-.82-9.624-1.23C32.845 1.457 26.702.706 20.559.433l.307-.307c.068-.068-.034-.17-.102-.102a4.09 4.09 0 01-.41.375C19.671.364 19.023.364 18.34.33 13.938.26 9.125.296 4.79 1.422c0-.034.035-.068.035-.103 0 0 0-.034-.034 0v.137c-.41.102-.82.239-1.229.375-.205.069-.136.342.103.342.102 0 .204-.034.307-.034-1.263 2.047-1.229 4.334-1.263 6.655-.307 1.638-.478 3.345-.58 5.017l-.615 2.764c-.443 1.81-.648 3.584-.955 5.393-.649 3.857-.615 7.884-.478 11.74.068 2.185.239 4.37.614 6.52.24 1.364.615 2.969 1.604 3.992.512.547 1.331.854 2.185 1.059 1.262.58 2.764.887 3.89 1.194 4.983 1.434 10.171 1.706 15.359 1.638 2.116.273 4.232.444 6.348.41 2.218-.068 4.437-.342 6.621-.649h.068c.99 0 2.014-.034 3.004-.17.034.034.068.034.102 0 0 0 .034 0 .034-.034.854-.103 1.707-.273 2.526-.58a3.01 3.01 0 00.58-.274c.205-.068.444-.136.649-.239.102-.034.102-.204.034-.273.068-.068.136-.136.205-.239.204.24.648.24.682-.136.068-.444.137-.922.205-1.365.819-1.98.853-4.608 1.058-6.314.273-2.321.785-4.608 1.092-6.929.375-2.798.614-5.597.785-8.395.99-4.71 2.253-9.352 2.287-14.096zM47.248 21.49c-1.467.649-2.867 1.57-3.686 2.97-.034.068.068.102.103.068.921-1.331 2.116-2.253 3.549-2.901-.17.887-.375 1.74-.512 2.628-.58 3.037-.887 6.143-1.297 9.215-.17 1.33-.341 2.662-.478 3.993a84.503 84.503 0 01-1.809 1.638c-.34.307-.716.648-1.058.99.069-.922.103-1.877.171-2.799.99-.921 1.775-2.082 2.73-3.072.069-.068-.034-.17-.102-.102-.683.683-1.331 1.4-2.014 2.116-.204.205-.375.41-.58.614 0-.102 0-.204.034-.34.069-.99.171-2.015.273-3.004.785-1.024 1.639-1.946 2.697-2.73.034-.035 0-.103-.069-.069a14.756 14.756 0 00-2.594 2.457c.137-1.433.24-2.9.308-4.334.034-.41.034-.785.068-1.195 0 .035.068.069.102.035.888-1.058 1.843-1.878 3.106-2.526.034-.034 0-.068-.034-.068-1.229.614-2.39 1.365-3.174 2.491v.034c.17-2.969.41-5.904.75-8.873.035-.376.103-.751.137-1.16 1.297-.65 2.423-1.57 3.55-2.424.034-.034 0-.102-.034-.068a38.618 38.618 0 01-3.481 2.32c.102-.99.204-2.013.272-3.003 1.127-1.024 2.219-2.116 3.652-2.833-.034 2.492-.068 4.95-.17 7.44-1.366.615-2.799 1.605-3.413 2.97-.034.068.068.17.136.102.512-.614.956-1.297 1.57-1.843.512-.443 1.092-.785 1.707-1.092 0 .376-.034.717-.034 1.092-.171.41-.273.82-.376 1.263zm.512-10.102c-1.297.614-2.526 1.536-3.618 2.525.069-1.16.069-2.286 0-3.447 1.16-.921 2.321-1.809 3.652-2.56 0 1.195-.034 2.355-.034 3.482zm.649-7.133c.58 1.126.716 2.423.785 3.651.17 2.8-.342 5.632-.854 8.362-.102.512-.205 1.024-.307 1.502.102-3.345.137-6.724.17-10.068.035-.034.103-.034.137-.069.069-.034 0-.102-.034-.068-.034 0-.068.034-.102.034V4.152c.102.034.17.068.205.103zm-4.3-.58c.75.102 1.535.204 2.286.272.17.035.887.035 1.4.103v3.754c-1.264.649-2.56 1.4-3.653 2.32a36.239 36.239 0 00-.307-2.695c0-.034-.034-.069-.034-.103 1.263-.853 2.56-1.774 3.652-2.867.034-.034 0-.068-.034-.034-1.127 1.058-2.492 1.843-3.754 2.73a.55.55 0 00-.308-.102c-1.194 0-2.355-.136-3.55-.307.547-.341 1.059-.75 1.605-1.058.717-.444 1.502-.82 2.287-1.16.068-.034.034-.137-.069-.137-1.365.546-3.105 1.229-4.198 2.32-1.297-.204-2.593-.477-3.89-.682-3.482-.614-6.997-1.228-10.478-1.706.273-.58.512-1.092.921-1.604.342-.41.717-.785 1.127-1.127 5.631.547 11.33 1.366 16.996 2.082zM6.803 1.694c-1.501 1.229-3.822 3.345-3.31 5.29.034.102.17.068.17-.034 0-2.048 1.878-3.96 3.38-5.29a79.992 79.992 0 016.416-.58 74.577 74.577 0 016.177.034c-.648.648-1.297 1.33-1.74 2.082-.034.068.068.136.102.068a28.125 28.125 0 011.877-2.15c1.263.034 2.526.136 3.789.204.307.035.546.069.819.069-.444.17-.82.341-1.195.614-.375.273-.887.683-1.024 1.16-.034.069.069.137.137.103.341-.273.614-.649.921-.956a6.12 6.12 0 011.502-.921c.717.068 1.4.102 2.116.17-.921.649-1.945 1.639-2.15 2.697a34.95 34.95 0 00-.751-.103c-3.55-.41-7.167-.785-10.785-.375-1.843.205-4.54.58-5.427 2.525-.068.171.171.308.24.137 1.091-2.014 4.266-2.048 6.21-2.048 3.585-.034 7.168.444 10.684.956 3.651.546 7.303 1.194 10.955 1.809 2.15.375 4.335.819 6.519.955-.034.034-.102.069-.137.103-.034.034 0 .136.069.102.102-.068.17-.136.273-.17h.204c.171.99.24 1.979.273 2.969a1.481 1.481 0 00-.204.239c-.069.068.034.136.102.102l.102-.102a32.63 32.63 0 01-.102 3.651l-.717.717c-.068.068.035.137.069.103.204-.137.41-.308.614-.478-.102 1.297-.273 2.56-.41 3.856-.443 3.413-.648 6.758-.819 10.205-.136 2.594-.41 5.188-.58 7.782-.068 1.092-.444 2.833-.102 4.061-.034.034-.069.068-.069.137-.034.068.069.136.137.102.102.273.239.512.41.717.102.136.307.034.307-.137.034-.477.068-.955.102-1.399.41-.444.82-.922 1.229-1.331.546-.546 1.092-1.058 1.638-1.604a306.232 306.232 0 01-1.024 7.816c-.17.238-.341.477-.546.682l-.034.034c-.58-.068-1.195 0-1.809.069.648-.649 1.331-1.297 2.15-1.707v-.034a14.217 14.217 0 00-2.594 1.809c-.443.068-.853.136-1.263.239.376-.615.58-1.331.751-2.014 0 0 0-.034-.034 0-.307.717-.58 1.433-1.024 2.082-.136.034-.239.034-.375.068-.512.069-1.058.17-1.57.24.239-.479.41-.99.717-1.469.41-.614.99-1.194 1.638-1.501v-.034c-.717.375-1.263.785-1.775 1.433-.341.444-.717 1.058-.785 1.604-1.365.205-2.73.376-4.13.546h-.512c-1.058 0-2.081.034-3.14.069.752-.751 1.502-1.536 2.253-2.321.034-.069-.034-.137-.068-.069a83.511 83.511 0 00-2.492 2.424c-.648.034-1.262.034-1.91.068-.342-.034-.65-.034-.99-.068.307-.478.546-.99.853-1.468.41-.683.819-1.33 1.33-1.945 4.267.239 8.67.034 12.731-1.024.58-.137.341-1.058-.239-.922-5.665 1.468-11.809 1.229-17.577.478-4.47-.58-8.976-.717-13.378-1.809-1.57-.375-3.652-.921-4.471-2.423-.922-1.672-.547-4.232-.376-6.04.444-4.847 1.638-9.557 1.911-14.404.24-4.027.512-8.02.376-12.047.273-.205.512-.41.819-.615-.273.17-.546.376-.82.615 0-.273 0-.546-.033-.82a.12.12 0 00-.24 0c.035.171.035.547 0 .922A16.098 16.098 0 004.86 8.726c-.478.648-1.911 2.389-1.331 3.276.034.068.137.034.137-.068-.376-.99 1.023-2.662 1.535-3.38.546-.784 1.195-1.637 1.946-2.354a84.84 84.84 0 01-.24 2.97c-1.125 1.16-2.081 2.457-3.003 3.788a32.64 32.64 0 01-.99 1.33 38.05 38.05 0 00.274-1.945c.273-2.013-.034-4.163.068-6.245.341-1.4.75-2.799 1.297-4.13.75-.068 1.502-.17 2.252-.273zm13.618 42.764c-.478.307-.99.649-1.4 1.058-.204.24-.545.546-.511.888-1.331-.24-2.628-.478-3.96-.717.65-.41 1.23-1.092 1.57-1.775 0-.034-.033-.034-.033-.034-.41.683-1.092 1.331-1.81 1.74a72.935 72.935 0 00-2.695-.375 5.081 5.081 0 00-.717-.068c.478-.648.956-1.297 1.502-1.877.034-.034-.034-.102-.069-.068-.58.58-1.194 1.228-1.74 1.911-1.229-.137-2.423-.239-3.652-.444a5.001 5.001 0 012.287-2.662c.034-.034 0-.068-.035-.068a5.06 5.06 0 00-2.423 2.696c-.75-.102-1.536-.273-2.286-.444a2.788 2.788 0 01-.854-.34v-.035c-.102-.717.649-1.536 1.092-2.014a7.925 7.925 0 011.502-1.33c1.946 1.262 4.847 1.638 6.826 1.945 4.027.648 8.157 1.024 12.219 1.399-1.331.273-3.686 1.536-3.038 3.174l-.717-.102-2.867-.512c.069-.273.444-.58.649-.785.375-.376.75-.751 1.194-1.058.103-.034.069-.17-.034-.103zM4.825 26.336c-1.024 1.024-2.116 2.117-3.038 3.277l.103-1.74c.034-.444.068-.922.068-1.366.922-1.57 2.287-2.9 3.55-4.164.068-.068-.035-.17-.103-.102-1.024.99-2.457 2.218-3.413 3.618.103-2.287.103-4.642.137-6.997.204-1.229.443-2.423.648-3.652 1.297-2.013 2.458-4.061 4.13-5.836-.205 2.39-.478 4.812-.717 7.201-.034.547-.102 1.058-.136 1.605 0 0-.035 0-.035.034-1.228 1.467-2.56 2.867-3.788 4.334-.102.137.068.341.205.205 1.16-1.468 2.423-2.833 3.618-4.3-.171 1.98-.342 3.925-.683 5.904-.375 2.184-.921 4.505-1.195 6.826a10.92 10.92 0 00-1.604 1.468c-.375.443-.819.99-.887 1.57 0-1.366.034-2.697.102-4.062 1.058-1.229 1.98-2.594 3.106-3.754 0-.034-.068-.103-.068-.069zm-3.788 1.98c.034 0 .102 0 .102-.068.136-.376.273-.751.444-1.127-.034.376-.034.717-.069 1.093-.034.614-.068 1.228-.102 1.809l-.41.614c.035-.751.035-1.536.035-2.321zm.682 7.884c-.034-.546-.034-1.126-.068-1.672.034.034.102.034.102-.035.24-1.228 1.297-2.389 2.355-3.208-.136 1.16-.239 2.287-.205 3.413-.853.853-1.706 1.911-2.116 3.004-.034-.478-.034-.99-.068-1.502zm.478 5.87c-.273-1.228-.341-2.56-.41-3.856.376-.649.649-1.331 1.058-1.98a9.836 9.836 0 011.024-1.33c.034.955.137 1.91.342 2.866.034.17.068.307.136.444-.921.853-1.604 1.91-2.116 3.105-.068.137.137.205.17.069a9.691 9.691 0 011.98-3.072c.342.887.956 1.57 1.707 2.082-.717.478-1.4 1.058-1.98 1.706-.375.444-.819 1.058-.682 1.639-.58-.342-.956-.854-1.229-1.468.068-.034.034-.102 0-.205zm20.205 4.983v-.034c-.034-1.672 1.604-2.764 3.071-3.072.035 0 .035-.034.035-.068.136 0 .273.034.41.034.784.069 1.57.137 2.388.171-.41.444-.785.887-1.126 1.365-.41.58-.922 1.331-1.126 2.014a33.207 33.207 0 01-3.652-.41zM4.347 2.036c.068-.034.137-.034.205-.034a23.352 23.352 0 00-1.229 3.686c.069-1.263.342-2.491 1.024-3.652zM2.641 9.647c0 .478-.034.922-.103 1.4-.068.511-.136 1.023-.204 1.57.102-1.025.204-2.014.307-2.97zM1.549 22.241l.307-1.945c-.069 2.013-.103 4.061-.205 6.075a5.349 5.349 0 00-.614 1.433c.102-1.877.238-3.754.512-5.563zm-.512 8.567c.034.034.068.034.102 0 .102-.103.205-.205.273-.308a89.547 89.547 0 00.17 9.079v.102c-.307-1.774-.409-3.617-.477-5.426a113.867 113.867 0 01-.068-3.448zm5.665 14.778c.376.034.717.068 1.024.102.75.102 1.502.17 2.253.273-.069.137-.137.273-.205.376-.034.034 0 .102.068.102a32.767 32.767 0 01-3.14-.853zm3.481.955a1.214 1.214 0 00-.341-.068s.034 0 .034-.034c.137-.137.24-.307.341-.444 1.878.24 3.755.478 5.666.785 1.74.307 3.481.649 5.222.922-3.652-.034-7.304-.376-10.922-1.16zm35.905-12.286c.273-2.424.58-4.847.955-7.236-.204 2.423-.546 4.847-.955 7.236z"/><path d="M15.985 16.541c1.775 1.058 3.004 3.174 4.096 4.847.614.955 1.297 2.047 2.15 2.969-.034.341.034.717.273 1.058.034.478.102.99.239 1.468v.136c0 .103.068.205.137.24.17.306.58.375.819.136l.068-.069c.137 0 .273-.034.41-.034.034.034.068.034.068.068.239.171.58.171.716-.102.069-.102.137-.205.205-.341.444-.273.82-.683 1.024-1.263.034-.102.068-.17.068-.273.103-.102.137-.239.069-.375.443-.41.819-.854 1.16-1.16 1.365-1.298 2.628-2.731 3.925-4.096 1.229-1.331 2.492-2.663 3.89-3.823 1.127-.921 2.083-1.945 3.38-2.56.136-.068.068-.239-.069-.239-3.31-.068-5.631 2.355-7.781 4.54-1.331 1.365-2.628 2.764-3.96 4.13-.443.443-.887.887-1.364 1.296-.103-.034-.171-.068-.273-.102-.103 0-.171-.034-.273-.034a5.147 5.147 0 00-.785-.717c-.171-.136-.444-.068-.58.068l-.41.41c-2.253-2.457-3.584-5.973-7.031-6.587-.239-.034-.41.273-.17.41zm9.625-4.334c.58-.273 1.092-.546 1.74-.58.171 0 .308-.17.274-.341-.273-1.23-.273-2.56-.751-3.72-.034-.103-.137-.137-.205-.103.068-.17.102-.307.17-.478.035-.102-.136-.17-.17-.068-.75 1.638-1.365 3.242-1.4 5.051-.034.205.171.307.342.239zm.956-4.437c-.103 1.092.204 2.287.443 3.379-.443.068-.853.239-1.262.444.068-1.331.409-2.594.819-3.823zm-2.56 30.819c0-.375-.068-.717-.273-1.024-.103-.17-.376 0-.273.17.273.479.17.956.239 1.468.034.342.239.58.443.82-.239 0-.477 0-.716-.035a6.293 6.293 0 01-.854-.17c-.273-.069-.068-.717 0-.888.205-.99.854-1.91 1.673-2.491.034-.034 0-.068-.034-.068a4.357 4.357 0 00-1.98 3.48c0 .035.034.103.068.103.717.341 1.468.341 2.253.341.102 0 .205-.17.102-.238-.512-.444-.682-.854-.648-1.468zM8.955 24.255c.034.102.136.204.239.204 1.33-.068 2.593-.819 3.822-1.296.137-.069.205-.205.137-.342-.785-1.638-2.39-2.56-3.891-3.413-.137-.068-.24.103-.103.205.205.137.41.273.649.41h-.034c-1.263.614-1.024 3.105-.82 4.232zm1.024-4.096v-.034c1.092.717 2.116 1.502 2.662 2.696-1.058.376-2.116.99-3.209 1.092-.17-1.365.103-2.491.547-3.754zm25.563 2.867c-.17-.034-.273.102-.273.273.205 1.502.239 2.764-.034 4.266-.035.137.068.307.239.307 2.252-.102 3.583-1.843 5.187-3.174.273-.204-.102-.58-.375-.375-1.434 1.194-2.628 2.833-4.54 3.037.171-1.33.171-2.56-.034-3.89 1.775.17 3.482-.137 4.778-1.468 0 0 0-.034-.034 0-1.399 1.126-3.174 1.331-4.914 1.024zM8.647 4.527c.41-.409.649-.955.922-1.467.307-.58.648-1.126.921-1.707 0-.034-.034-.068-.068-.034-.41.444-.682.922-.99 1.434-.307.546-.682 1.092-.955 1.672 0 .103.102.205.17.103zM13.528 3.3c.102.067.17-.07.136-.137-.102-.205.41-.649.547-.751.375-.376.853-.683 1.33-.956.171-.102.035-.307-.136-.239-.375.17-2.764 1.434-1.877 2.082zm15.154 1.228c.136-.137.17-.307.239-.478.102-.205.239-.375.375-.546.307-.376.75-.614 1.229-.785.136-.034.068-.273-.069-.205-.477.17-.921.41-1.262.751-.273.273-.717.82-.683 1.229 0 .034.102.102.17.034zm2.457.614c.41-.375.683-.921 1.024-1.365.375-.478.853-.922 1.433-1.16.035 0 0-.069 0-.035-.546.205-.99.58-1.399.99-.41.41-.956.956-1.16 1.502-.034.068.068.102.102.068zm3.754.648c1.024-.648 1.673-1.638 2.492-2.525.034-.035-.034-.103-.069-.069-.853.82-1.57 1.775-2.491 2.492-.068.034 0 .136.068.102zm2.526.273c1.024-.785 1.98-1.57 3.106-2.184.068-.034 0-.17-.069-.102-1.092.546-2.32 1.228-3.14 2.218-.034.068.035.137.103.068zm5.529 24.335c-.068.068.034.17.102.068a15.763 15.763 0 013.072-3.14v-.034a16.09 16.09 0 00-3.174 3.106zm-3.754 15.324c-.035.068.068.137.102.068.683-.716 1.297-1.501 2.048-2.184.921-.82 1.945-1.502 2.935-2.184.068-.034 0-.137-.068-.103-1.775 1.16-4.062 2.458-5.017 4.403zM8.58 5.074a1.79 1.79 0 00-.274.205c.068-.069.17-.103.273-.205.034.034 0 0 0 0zM2.402 19.51c.443-.887.887-1.672 1.536-2.457.716-.853 1.501-1.672 2.184-2.525.034-.034-.034-.069-.034-.034-.785.921-1.673 1.774-2.458 2.696-.614.58-1.33 1.4-1.365 2.287 0 .068.103.102.137.034zm33.071 25.53c-.887.307-1.501 1.092-1.945 1.91-.068.103.102.206.17.103.41-.785.956-1.535 1.81-1.843.102-.034.068-.205-.035-.17z"/></svg>