<svg xmlns="http://www.w3.org/2000/svg" viewBox="0 0 13 21">
  <path d="M933.266,48h-9.533A1.707,1.707,0,0,1,922,46.32V28.68A1.707,1.707,0,0,1,923.733,27h9.533A1.707,1.707,0,0,1,935,28.68V46.32A1.707,1.707,0,0,1,933.266,48Zm-4.766-.84a1.261,1.261,0,1,0-1.3-1.26A1.281,1.281,0,0,0,928.5,47.16Zm2.167-19.32h-4.334v0.84h4.334V27.84Zm2.6,2.52a0.853,0.853,0,0,0-.866-0.84h-7.8a0.854,0.854,0,0,0-.867.84v12.6a0.854,0.854,0,0,0,.867.84h7.8a0.853,0.853,0,0,0,.866-0.84V30.36Zm-3.494,7.533c-1.62,1.571-3.26,1.974-3.7,1.548-0.381-.37-1.048-0.82-0.18-1.5s1.109-.343,1.5.038c0.275,0.266.97-.29,1.57-0.872s1.174-1.256.9-1.522c-0.394-.381-0.736-0.617-0.039-1.457s1.161-.2,1.543.174C931.81,34.733,931.393,36.322,929.772,37.893Z" transform="translate(-922 -27)"/>
</svg>
