<svg xmlns="http://www.w3.org/2000/svg" viewBox="0 0 25 21">
  <path d="M1268.66,40.222a2.077,2.077,0,0,0-1.89-.026h0c-0.68.2-6.69,2.353-12,4.426-4.76,1.868-8.63,3.505-9.09,3.71-0.52.154-1.62,0.614-1.68,1.33a1.46,1.46,0,0,0,1.16,1.2c0.84,0.409,4.55,1.587,5.34,1.817,0.27,0.87,1.87,5.961,1.95,6.268a1.354,1.354,0,0,0,.59.819,0.542,0.542,0,0,0,.14.1,0.592,0.592,0,0,0,.32.077,1.133,1.133,0,0,0,.6-0.2c1-.769,2.73-2.482,3.22-2.968,2.14,1.585,4.47,3.351,4.68,3.556l0.03,0.026a2.561,2.561,0,0,0,1.54.64,1.627,1.627,0,0,0,.49-0.077,1.714,1.714,0,0,0,1.11-1.381,2.957,2.957,0,0,1,.08-0.307c0.92-3.787,1.65-7.113,2.25-9.9,0.57-2.738,1.03-5.425,1.3-6.857,0.05-.358.11-0.64,0.13-0.819A1.469,1.469,0,0,0,1268.66,40.222Zm-16.59,11.384,11.91-7.086c0.03-.026.08-0.051,0.11-0.077h0a0.228,0.228,0,0,1,.05-0.026,0.044,0.044,0,0,0,.05-0.026,0.985,0.985,0,0,1-.1.154l-3.28,2.891c-2.27,1.971-4.25,3.554-6.23,5.244v0.025l-0.02.026a0.026,0.026,0,0,1-.03.025,0.049,0.049,0,0,1-.03.051v0.051c-0.13,1.433-.38,3.889-0.48,4.989V57.823C1253.91,57.515,1252.39,52.629,1252.07,51.606Z" transform="translate(-1244 -40)"/>
</svg>
