<svg xmlns="http://www.w3.org/2000/svg" width="21" height="25" viewBox="0 0 21 25">
  <path d="M1330.87,47.2a9.824,9.824,0,0,0-.69-2.455,7.017,7.017,0,0,0-2.44-3.014,8.7,8.7,0,0,0-2.85-1.31,13.208,13.208,0,0,0-3.27-.415c-0.86-.015-1.71-0.022-2.57.007a14.583,14.583,0,0,0-2.15.222,9.275,9.275,0,0,0-3.26,1.238,7.132,7.132,0,0,0-2.97,3.637,10.634,10.634,0,0,0-.67,3.492c-0.01.531,0.03,1.06,0.02,1.59,0,0.257,0,.522.01,0.78,0.01,0.365.06,0.731,0.06,1.1a11.271,11.271,0,0,0,.07,1.159,9.921,9.921,0,0,0,.74,2.849,7.333,7.333,0,0,0,1.7,2.42,7.821,7.821,0,0,0,2.28,1.467c0.15,0.071.13,0.05,0.13,0.222l-0.03,2.212c0,0.729-.01,1.467-0.01,2.2a0.9,0.9,0,0,0,.01.164,0.238,0.238,0,0,0,.4.172,0.847,0.847,0,0,0,.19-0.193c0.56-.7,1.11-1.41,1.67-2.12l1.35-1.718a0.218,0.218,0,0,1,.21-0.1,6.791,6.791,0,0,0,.86.029c0.56-.008,1.11,0,1.67,0a14.921,14.921,0,0,0,2.71-.243,9.448,9.448,0,0,0,3.25-1.239,7.075,7.075,0,0,0,2.79-3.228,10.46,10.46,0,0,0,.82-3.636c0.02-.459.02-0.916,0.04-1.375,0.04-.665.05-1.338,0.06-2.011A10.954,10.954,0,0,0,1330.87,47.2Zm-4.71,8.132a2.691,2.691,0,0,1-.48.989,3.082,3.082,0,0,1-1.42,1.108,1.786,1.786,0,0,1-.48.108,1.417,1.417,0,0,1-.59-0.121,3.41,3.41,0,0,1-.54-0.244,16.408,16.408,0,0,1-2.52-1.525,15.814,15.814,0,0,1-3.2-3.12,17.29,17.29,0,0,1-1.81-2.922,18.429,18.429,0,0,1-.87-2.062,3.5,3.5,0,0,1-.15-0.994,2.563,2.563,0,0,1,1.93-2.434,1.048,1.048,0,0,1,.95.207,3.7,3.7,0,0,1,.49.523,9.872,9.872,0,0,1,1.32,2.069,2.644,2.644,0,0,1,.15.407,1.163,1.163,0,0,1-.22,1.082,2.236,2.236,0,0,1-.31.308,3.169,3.169,0,0,0-.3.264,0.881,0.881,0,0,0-.22.852,2.339,2.339,0,0,0,.12.387,5.666,5.666,0,0,0,1.08,1.725,4.954,4.954,0,0,0,.89.772,4.686,4.686,0,0,0,.97.553,0.589,0.589,0,0,0,.78-0.25,3.59,3.59,0,0,1,.28-0.388,1.328,1.328,0,0,1,.69-0.472,1.262,1.262,0,0,1,.88.114,4.025,4.025,0,0,1,.73.487c0.47,0.358.92,0.738,1.36,1.131a2.314,2.314,0,0,1,.32.365A1.289,1.289,0,0,1,1326.16,55.335Zm-1.27-5.562a0.47,0.47,0,0,1-.47.422,0.437,0.437,0,0,1-.49-0.387,1.622,1.622,0,0,1-.04-0.315,5.622,5.622,0,0,0-.32-1.4,2.314,2.314,0,0,0-1.23-1.353,4.892,4.892,0,0,0-1.25-.394,1.217,1.217,0,0,1-.33-0.107,0.349,0.349,0,0,1-.13-0.115,0.643,0.643,0,0,1-.06-0.615,0.449,0.449,0,0,1,.39-0.323,1.541,1.541,0,0,1,.47.036,4.257,4.257,0,0,1,1.26.4,4.3,4.3,0,0,1,1.33,1.123,4.09,4.09,0,0,1,.88,2.591A2.181,2.181,0,0,1,1324.89,49.773Zm-1.6-.573a1.5,1.5,0,0,1-.04.424,0.49,0.49,0,0,1-.4.356,0.439,0.439,0,0,1-.47-0.236,0.654,0.654,0,0,1-.1-0.3,3.055,3.055,0,0,0-.11-0.53,1.086,1.086,0,0,0-.73-0.679,1.973,1.973,0,0,0-.21-0.05c-0.05-.015-0.11-0.03-0.16-0.043a0.47,0.47,0,0,1-.36-0.473,0.564,0.564,0,0,1,.36-0.565,1.117,1.117,0,0,1,.67.007,2.2,2.2,0,0,1,1.22,1.015A1.986,1.986,0,0,1,1323.29,49.2Zm3.29,0.838a0.5,0.5,0,0,1-.71.466,0.553,0.553,0,0,1-.29-0.516c-0.02-.271-0.04-0.543-0.08-0.815a7.194,7.194,0,0,0-.74-2.377,4.033,4.033,0,0,0-1.2-1.337,5.329,5.329,0,0,0-1.86-.809,6.138,6.138,0,0,0-.87-0.158,0.623,0.623,0,0,1-.2-0.05,0.446,0.446,0,0,1-.3-0.479,0.523,0.523,0,0,1,.54-0.581,4.915,4.915,0,0,1,3.04.967,6.266,6.266,0,0,1,1.44,1.424,6.377,6.377,0,0,1,1.23,3.695A5.411,5.411,0,0,1,1326.58,50.038Z" transform="translate(-1310 -40)"/>
</svg>
