<svg xmlns="http://www.w3.org/2000/svg" width="25" height="25" viewBox="0 0 25 25">
  <path d="M1209,50.176a12.3,12.3,0,0,1-18.21,10.662L1184,63l2.21-6.534A12.244,12.244,0,1,1,1209,50.176m-12.27-10.239a10.292,10.292,0,0,0-10.32,10.239,10.168,10.168,0,0,0,1.96,6l-1.29,3.8,3.97-1.261a10.267,10.267,0,1,0,5.68-18.784m6.19,13.043a1.439,1.439,0,0,0-.57-0.348c-0.3-.15-1.78-0.872-2.06-0.971a0.477,0.477,0,0,0-.68.149c-0.2.3-.77,0.971-0.95,1.17a0.46,0.46,0,0,1-.65.075,8.219,8.219,0,0,1-2.42-1.482,8.912,8.912,0,0,1-1.67-2.067,0.428,0.428,0,0,1,.13-0.608c0.13-.134.3-0.349,0.45-0.523a2.071,2.071,0,0,0,.3-0.5,0.562,0.562,0,0,0-.02-0.523c-0.08-.149-0.68-1.617-0.93-2.215s-0.5-.5-0.68-0.5-0.37-.025-0.57-0.025a1.116,1.116,0,0,0-.81.373,3.36,3.36,0,0,0-1.05,2.49,5.783,5.783,0,0,0,1.23,3.087,12.287,12.287,0,0,0,5.14,4.507c3.06,1.194,3.06.8,3.61,0.746a3.04,3.04,0,0,0,2.03-1.42,2.415,2.415,0,0,0,.17-1.419" transform="translate(-1184 -38)"/>
</svg>
