<svg width="32" height="29" viewBox="0 0 32 29" fill="none" xmlns="http://www.w3.org/2000/svg">
<path d="M7 18.5L8.4201 17.0917L9.84019 18.5L8.4201 19.9083L7 18.5Z" fill="#104C54"/>
<path d="M22 18.5L23.4201 17.0917L24.8402 18.5L23.4201 19.9083L22 18.5Z" fill="#104C54"/>
<path d="M32 7.09325V0.5H0V7.09325H3.76562V13.6937L2.10713 14.6336H2.10719C0.807438 15.37 0 16.7498 0 18.2344C0 19.7189 0.807438 21.0987 2.10713 21.8352L12.0173 27.4511C13.2281 28.1373 14.6053 28.5 16 28.5C17.3947 28.5 18.7719 28.1373 19.9827 27.4511L29.8929 21.8352C31.1926 21.0987 32 19.7189 32 18.2344C32 16.7498 31.1926 15.37 29.8929 14.6336L28.2344 13.6937V7.09325H32ZM1.875 2.35944H30.125V5.23381H1.875V2.35944ZM19.9827 9.01764C18.7719 8.33145 17.3947 7.96873 16 7.96873C14.6053 7.96873 13.2281 8.33145 12.0173 9.01764L9.40625 10.4973V7.09325H22.5938V10.4973L19.9827 9.01764ZM5.64062 7.09325H7.53125V11.5598L5.64062 12.6312V7.09325ZM30.125 18.2344C30.125 19.0533 29.6796 19.8144 28.9626 20.2207L19.0524 25.8367C18.1244 26.3625 17.0689 26.6406 16 26.6406C14.9311 26.6406 13.8756 26.3626 12.9476 25.8367L3.03737 20.2207C2.32037 19.8144 1.875 19.0533 1.875 18.2344C1.875 17.4154 2.32037 16.6543 3.03737 16.248L12.9476 10.6321C13.8756 10.1062 14.9311 9.82817 16 9.82817C17.0689 9.82817 18.1244 10.1062 19.0524 10.6321L28.9626 16.248C29.6796 16.6543 30.125 17.4154 30.125 18.2344ZM26.3594 12.6312L24.4688 11.5598V7.09325H26.3594V12.6312Z" fill="#104C54"/>
<path d="M15.4998 13.5C12.5674 15.3616 10.987 17.1471 11.0001 18.9905C11.0001 20.7225 12.3287 22.1317 13.9619 22.1317C14.1721 22.1317 14.3799 22.1076 14.5821 22.0616V23.5H16.4175V22.0617C16.6197 22.1077 16.8274 22.1317 17.0377 22.1317C18.6709 22.1317 19.9995 20.7226 19.9995 18.9905C20.0346 17.0108 18.138 15.1818 15.4998 13.5ZM17.0377 20.185C16.4343 20.2591 15.8472 19.3449 15.4997 18.9402C15.1001 19.3836 14.658 20.1999 13.9618 20.185C13.3407 20.185 12.8354 19.6491 12.8354 18.9905C12.8354 17.9441 14.1893 16.7334 15.4997 15.8068C16.8102 16.7334 18.1641 17.9441 18.1641 18.9905C18.1641 19.6491 17.6588 20.185 17.0377 20.185Z" fill="#104C54"/>
</svg>
