<svg width="29" height="33" viewBox="0 0 29 33" fill="none" xmlns="http://www.w3.org/2000/svg">
<path d="M9 27.5H11V29.5H9V27.5Z" fill="#104C54"/>
<path d="M27.2958 24.7079C26.9108 22.9475 25.5793 21.547 23.821 21.0529L18.7202 19.6194L18.2923 17.4906C19.6734 16.3365 20.5588 14.5679 20.5588 12.5881V8.98725C21.1865 8.56121 22.012 7.65999 22.012 5.86349C22.083 3.10016 19.5657 0.435384 16.6931 0.501194C15.7952 0.501194 14.7968 0.696124 13.7397 0.902429C11.4733 1.40854 9.24165 1.65321 7.36264 0.543818C6.17764 3.53521 6.52553 6.34504 8.44109 8.76982V12.5881C8.44109 14.5678 9.32662 16.3365 10.7077 17.4906L10.2797 19.6195L5.17883 21.0529C3.42053 21.5471 2.08906 22.9476 1.70411 24.708L0 32.5H29L27.2958 24.7079ZM14.5 27.5887C14.2542 27.1011 13.9631 26.6353 13.6294 26.1992L13.0127 25.3935L14.5 23.5012L15.9873 25.3935L15.3706 26.1992C15.0368 26.6353 14.7458 27.1011 14.5 27.5887ZM12.1091 27.3278C12.8451 28.2895 13.3176 29.4349 13.4821 30.6251H7.6095V22.3196L8.15831 22.1654L12.1091 27.3278ZM16.8909 27.3278L20.8417 22.1654L21.3905 22.3196V30.6251H15.5179C15.6823 29.4349 16.1549 28.2895 16.8909 27.3278ZM18.8796 21.6141L17.1749 23.8415L15.9737 22.3131L17.9854 21.3628L18.8796 21.6141ZM9.84319 7.49318C8.83994 6.20398 8.40511 4.58804 8.62843 3.04435C10.4303 3.45977 12.3668 3.08191 14.11 2.74161C15.0727 2.55368 15.9821 2.37612 16.6932 2.37612C18.5443 2.37612 20.1082 3.97313 20.1082 5.86349C20.1082 6.15023 20.0762 6.38879 20.0253 6.58772C19.3585 5.47182 17.9568 4.81685 16.5693 4.92603C15.3025 6.50522 13.3123 7.50393 11.2429 7.49312H9.84319V7.49318ZM10.3449 9.36811H11.2428C13.5537 9.36811 15.761 8.45352 17.3744 6.84302C18.1072 7.01045 18.655 7.65874 18.655 8.43065V12.5882C18.655 15.0233 16.791 17.0043 14.4999 17.0043C12.2088 17.0043 10.3448 15.0233 10.3448 12.5882V9.36811H10.3449ZM14.5 18.8793C15.2214 18.8793 15.9135 18.7474 16.5557 18.5062L16.8223 19.8328L14.5 20.9299L12.1777 19.8328L12.4444 18.5062C13.0865 18.7474 13.7786 18.8793 14.5 18.8793ZM11.0146 21.3628L13.0263 22.3131L11.825 23.8415L10.1203 21.6141L11.0146 21.3628ZM3.56528 25.1027C3.80193 24.0206 4.62044 23.1597 5.70131 22.8559L5.70568 22.8546V30.6251H2.3575L3.56528 25.1027ZM23.2943 30.6251V22.8546L23.2986 22.8559C24.3795 23.1596 25.198 24.0206 25.4347 25.1027L26.6424 30.6251H23.2943Z" fill="#104C54"/>
</svg>
