<svg width="32" height="24" viewBox="0 0 32 24" fill="none" xmlns="http://www.w3.org/2000/svg">
<path d="M4 17.5H10V19.5H4V17.5Z" fill="#104C54"/>
<path d="M11 17.5H13V19.5H11V17.5Z" fill="#104C54"/>
<path d="M15 17.5H21V19.5H15V17.5Z" fill="#104C54"/>
<path d="M23 17.5H25V19.5H23V17.5Z" fill="#104C54"/>
<path d="M32 0.5H3.76562V4.31939H0V23.5H28.2344V19.6806H32V0.5ZM5.64062 2.40177H30.125V10.1401H28.2344V4.31939H5.64062V2.40177ZM28.2344 12.0418H30.125V13.9595H28.2344V12.0418ZM26.3594 21.5982H1.875V6.22116H26.3594V21.5982ZM28.2344 17.7788V15.8612H30.125V17.7788H28.2344Z" fill="#104C54"/>
<path d="M12 8.5H4V14.5H12V8.5ZM10.0062 12.5055H5.99377V10.4945H10.0062V12.5055Z" fill="#104C54"/>
</svg>
