<svg width="32" height="29" viewBox="0 0 32 29" fill="none" xmlns="http://www.w3.org/2000/svg">
<path d="M32 22.8984V0.5H0V22.8984H11.2969V25.7031C11.2969 26.22 10.8728 26.6406 10.3516 26.6406H8.46875V28.5H23.5312V26.6406H21.6484C21.1272 26.6406 20.7031 26.22 20.7031 25.7031V22.8984H32ZM1.875 2.35944H30.125V17.3046H1.875V2.35944ZM13.0084 26.6406C13.1139 26.3473 13.1719 26.0318 13.1719 25.7031V22.8984H18.8281V25.7031C18.8281 26.0318 18.8861 26.3473 18.9916 26.6406H13.0084ZM1.875 21.039V19.1641H30.125V21.039H1.875Z" fill="#104C54"/>
<path d="M7 9.5L8.4201 8.09169L9.84019 9.5L8.4201 10.9083L7 9.5Z" fill="#104C54"/>
<path d="M22 9.5L23.4201 8.09169L24.8402 9.5L23.4201 10.9083L22 9.5Z" fill="#104C54"/>
<path d="M15.4998 4.5C12.5674 6.36161 10.987 8.14711 11.0001 9.99042C11.0001 11.7224 12.3287 13.1316 13.9619 13.1316C14.1721 13.1316 14.3799 13.1076 14.5821 13.0616V14.5H16.4175V13.0616C16.6197 13.1077 16.8274 13.1317 17.0377 13.1317C18.6709 13.1317 19.9995 11.7225 19.9995 9.99048C20.0346 8.01078 18.138 6.18181 15.4998 4.5ZM17.0377 11.185C16.4343 11.259 15.8473 10.3449 15.4998 9.94019C15.1001 10.3836 14.658 11.1998 13.9619 11.185C13.3408 11.185 12.8355 10.6491 12.8355 9.99042C12.8355 8.94405 14.1893 7.73339 15.4998 6.8068C16.8103 7.73339 18.1641 8.94405 18.1641 9.99042C18.1641 10.6491 17.6588 11.185 17.0377 11.185Z" fill="#104C54"/>
</svg>
