<svg width="24" height="33" viewBox="0 0 24 33" fill="none" xmlns="http://www.w3.org/2000/svg">
<path d="M9 26.5H15V28.5H9V26.5Z" fill="#104C54"/>
<path d="M15.4949 6.92733L13.2994 6.59189L12.3174 4.5H10.6826L9.7007 6.59189L7.50508 6.92733L7 8.56215L8.58865 10.1904L8.21364 12.4896L9.53621 13.4999L11.5 12.4145L13.4637 13.5L14.7864 12.4897L14.4113 10.1905L16 8.56221L15.4949 6.92733ZM12.6793 10.9024L11.5 10.2505L10.3207 10.9024L10.5459 9.52174L9.59189 8.54395L10.9104 8.34252L11.5 7.0863L12.0897 8.34246L13.4081 8.54389L12.4541 9.52168L12.6793 10.9024Z" fill="#104C54"/>
<path d="M20.3065 2.38281V0.5H3.69349V2.38281H0V7.96756C0 10.916 2.20549 13.3491 5.02271 13.6423C5.63929 14.6131 6.44524 15.4476 7.38697 16.0911C7.29275 17.6711 7.92779 19.2636 9.21036 20.2453C9.10559 21.2944 8.64638 22.3154 7.92791 23.0938H5.54023V32.5H18.4598V23.0938H16.0721C15.353 22.3147 14.8937 21.2926 14.7895 20.2426C15.9981 19.3391 16.7144 17.7185 16.613 16.0911C17.5548 15.4476 18.3607 14.613 18.9773 13.6423C21.7946 13.3491 24 10.916 24 7.96756V2.38281H20.3065ZM1.83908 7.96756V4.25781H3.69349V9.05188C3.69349 9.884 3.81235 10.6883 4.0328 11.4486C2.73968 10.8429 1.83908 9.51088 1.83908 7.96756ZM16.6207 30.625H7.37931V24.9688H16.6207V30.625ZM13.8031 23.0938H10.1969C10.5477 22.4656 10.801 21.7821 10.9424 21.0784C11.2852 21.16 11.6393 21.2031 12.0001 21.2031C12.3639 21.2031 12.7175 21.1586 13.0573 21.0769C13.1987 21.7812 13.4521 22.4652 13.8031 23.0938ZM12.0001 19.3281C10.7602 19.3501 9.51442 18.3713 9.2789 17.0534C10.1319 17.3558 11.0474 17.5206 12 17.5206C12.9523 17.5206 13.8675 17.3559 14.7202 17.0537C14.4669 18.3489 13.3437 19.3281 12.0001 19.3281ZM12 15.6456C8.43384 15.6456 5.53257 12.6877 5.53257 9.05188V2.375H18.4674V9.05188C18.4674 12.6877 15.5662 15.6456 12 15.6456ZM22.1609 7.96756C22.1609 9.51088 21.2603 10.8429 19.9672 11.4486C20.1876 10.6883 20.3065 9.88406 20.3065 9.05188V4.25781H22.1609V7.96756Z" fill="#104C54"/>
</svg>
