<svg width="104" height="46" viewBox="0 0 104 46" fill="none" xmlns="http://www.w3.org/2000/svg">
<g clip-path="url(#clip0_792_13475)">
<path d="M87.3281 28.4473H90.5625L88.9219 21.9736L87.3281 28.4473Z" fill="white"/>
<path d="M25.0806 20.8948H23.7188V29.5264H25.0806C26.2155 29.5264 27.0666 29.4266 27.5773 29.1771C28.088 28.9276 28.4285 28.5784 28.7122 27.9797C28.9959 27.4308 29.1094 26.4829 29.1094 25.2355C29.1094 23.5391 28.8257 22.3916 28.2015 21.7929C27.5773 21.1941 26.5559 20.8948 25.0806 20.8948Z" fill="white"/>
<path d="M98.3016 6.86841H10.3448C11.9563 8.17887 12.996 10.1708 13.048 12.7393H9.82497C9.721 9.75143 7.53767 7.39259 4.88649 7.39259C2.44325 7.39259 0.363888 9.43692 0 12.1627V14.4691H14.3996C15.2833 14.4691 15.9591 15.1505 15.9591 16.0417V35.3841C15.9591 36.2228 15.2833 36.9567 14.3996 36.9567H0.0519839V40.4687C0.0519839 43.3517 2.39126 45.7105 5.25038 45.7105H98.3016C101.161 45.7105 103.5 43.3517 103.5 40.4687V12.0578C103.5 9.22724 101.161 6.86841 98.3016 6.86841ZM32.8019 29.8801C32.386 30.8761 31.8662 31.6624 31.1384 32.3438C30.4106 33.0253 29.6828 33.4446 28.8511 33.6543C27.7594 33.9688 26.7197 34.126 25.836 34.126H18.2464V17.5094H25.836C27.3436 17.5094 28.5392 17.719 29.4749 18.1384C30.4106 18.5577 31.1384 19.1343 31.7622 19.9206C32.386 20.7069 32.8019 21.5456 33.0618 22.594C33.3217 23.5899 33.4777 24.6907 33.4777 25.7915C33.4257 27.5213 33.2177 28.9366 32.8019 29.8801ZM53.3875 34.126H49.2288V21.4408L46.0058 34.126H42.211L39.0399 21.4408V34.126H34.8812V17.5094H41.5872L44.1864 27.6262L46.7336 17.5094H53.4395V34.126H53.3875ZM74.441 37.0615C72.4656 38.2147 70.2823 38.7913 67.995 38.7913C65.7077 38.7913 63.5244 38.2147 61.549 37.0615C59.5736 35.9083 57.9621 34.3357 56.8185 32.2914C55.6748 30.2995 55.103 28.0979 55.103 25.7915C55.103 23.4851 55.6748 21.2835 56.8185 19.2916C57.9621 17.2473 59.5736 15.6747 61.549 14.5215C63.5244 13.3683 65.7077 12.7917 67.995 12.7917C70.2823 12.7917 72.4656 13.3683 74.441 14.5215C76.4164 15.6747 78.0279 17.2473 79.1716 19.2916C80.3152 21.3359 80.887 23.4851 80.887 25.7915C80.887 28.0979 80.3152 30.2995 79.1716 32.2914C78.0279 34.2833 76.4684 35.9083 74.441 37.0615ZM93.2072 34.126L92.3755 31.4003H86.6053L85.8255 34.126H80.6271L86.8132 17.5094H92.3755L98.5616 34.126H93.2072Z" fill="white"/>
<path d="M67.3828 15.5C64.5802 15.5 62.1343 16.5736 60.147 18.6671C58.1597 20.7605 57.1406 23.2835 57.1406 26.2895C57.1406 29.2418 58.1597 31.8184 60.147 33.9119C62.1343 36.0054 64.5293 37.079 67.3828 37.079C70.2364 37.079 72.6313 36.0054 74.6186 33.9119C76.6059 31.8184 77.625 29.2955 77.625 26.2895C77.625 23.3371 76.6059 20.7605 74.6186 18.6671C72.6313 16.5736 70.1854 15.5 67.3828 15.5ZM72.0198 32.0331C70.8478 33.2141 69.3191 33.8045 67.4847 33.8045C65.4465 33.8045 63.8159 33.1067 62.491 31.7111C61.2171 30.3154 60.5547 28.4903 60.5547 26.2358C60.5547 24.0886 61.2171 22.3172 62.542 20.9216C63.8668 19.5259 65.4974 18.8281 67.4847 18.8281C69.0644 18.8281 70.4402 19.2575 71.5103 20.1701C72.5803 21.0826 73.2937 22.2099 73.5995 23.6592L70.3383 24.196C70.1344 23.2298 69.7778 22.532 69.2682 22.1025C68.7586 21.6731 68.0962 21.4047 67.3319 21.4047C66.4656 21.4047 65.7522 21.7804 65.1407 22.5856C64.5293 23.3371 64.2745 24.5718 64.2745 26.2358C64.2745 27.8999 64.4783 29.0808 64.886 29.7786C65.4465 30.7985 66.3127 31.3353 67.3828 31.3353C68.0452 31.3353 68.6567 31.0669 69.2172 30.5301C69.7778 29.9933 70.1345 29.1345 70.3892 27.9535L73.8033 28.8124C73.3447 30.1544 72.7332 31.2816 72.0198 32.0331Z" fill="white"/>
<path d="M4.3125 0.394775H6.91182C7.50257 0.394775 7.9161 0.495143 8.21147 0.746061C8.50685 0.996979 8.625 1.29808 8.625 1.74973C8.625 2.20139 8.44778 2.50249 8.1524 2.75341C7.85702 3.00432 7.38442 3.10469 6.73459 3.10469H5.84846V4.71057H4.3125V0.394775ZM5.90753 2.25157H6.32106C6.61644 2.25157 6.85274 2.20139 6.97089 2.10102C7.08904 2.00065 7.14812 1.90028 7.14812 1.74973C7.14812 1.59918 7.08904 1.49882 6.97089 1.39845C6.85274 1.29808 6.67551 1.2479 6.38014 1.2479H5.90753V2.25157Z" fill="white"/>
<path d="M8.625 4.71057V0.394775H10.8574C11.2632 0.394775 11.5676 0.444959 11.8213 0.495143C12.075 0.545326 12.2272 0.695877 12.3287 0.896612C12.4301 1.09735 12.5316 1.29808 12.5316 1.59918C12.5316 1.8501 12.4809 2.05084 12.3794 2.20139C12.2779 2.35194 12.1257 2.50249 11.9735 2.60286C11.8721 2.65304 11.7199 2.70322 11.5169 2.75341C11.6691 2.80359 11.7706 2.85377 11.8721 2.90396C11.9228 2.95414 11.9735 3.00432 12.075 3.15488C12.1765 3.25524 12.2272 3.35561 12.2779 3.40579L12.9375 4.66039H11.4154L10.7051 3.35561C10.6037 3.20506 10.5529 3.05451 10.4515 3.00432C10.35 2.95414 10.2485 2.90396 10.0963 2.90396H9.94412V4.66039H8.625V4.71057ZM9.94412 2.1512H10.5022C10.5529 2.1512 10.7051 2.1512 10.8574 2.10102C10.9588 2.10102 11.0096 2.05084 11.0603 1.95047C11.111 1.8501 11.1618 1.79992 11.1618 1.69955C11.1618 1.549 11.111 1.44863 11.0096 1.39845C10.9081 1.34826 10.7559 1.29808 10.5022 1.29808H9.94412V2.1512Z" fill="white"/>
<path d="M14.0156 2.55267C14.0156 1.86607 14.2094 1.32659 14.5971 0.93425C14.9847 0.541905 15.4693 0.394775 16.1476 0.394775C16.826 0.394775 17.359 0.590948 17.7467 0.983293C18.1343 1.37564 18.3281 1.86607 18.3281 2.55267C18.3281 3.0431 18.2312 3.43545 18.0859 3.77875C17.9405 4.12205 17.6498 4.31822 17.359 4.46535C17.0683 4.61248 16.6807 4.71057 16.1961 4.71057C15.7116 4.71057 15.3239 4.61248 15.0332 4.46535C14.7425 4.31822 14.5002 4.12205 14.3064 3.82779C14.1125 3.53353 14.0156 3.09215 14.0156 2.55267ZM15.2755 2.60171C15.2755 3.0431 15.3724 3.33736 15.5177 3.53353C15.6631 3.72971 15.9054 3.82779 16.1476 3.82779C16.4384 3.82779 16.6322 3.72971 16.7776 3.53353C16.9229 3.33736 17.0198 3.0431 17.0198 2.55267C17.0198 2.16033 16.9229 1.86607 16.7776 1.6699C16.6322 1.47372 16.4384 1.37564 16.1476 1.37564C15.9054 1.37564 15.6631 1.47372 15.5177 1.6699C15.3724 1.86607 15.2755 2.16033 15.2755 2.60171Z" fill="white"/>
<path d="M18.3281 0.394775H22.6406V1.44863H21.2031V4.71057H19.7656V1.49882H18.3281V0.394775Z" fill="white"/>
<path d="M23.7188 0.394775H26.9082V1.3373H24.8867V2.0318H26.7285V2.92472H24.8867V3.76804H26.9531V4.71057H23.7188V0.394775Z" fill="white"/>
<path d="M31.1487 2.91636L32.3438 3.25581C32.2398 3.59525 32.1359 3.83771 31.98 4.03168C31.8242 4.22565 31.5644 4.41962 31.3046 4.5166C31.0448 4.61358 30.7331 4.71057 30.3174 4.71057C29.8498 4.71057 29.4341 4.66208 29.1224 4.5166C28.8106 4.37112 28.5508 4.17716 28.343 3.83771C28.1352 3.49827 28.0312 3.06184 28.0312 2.57692C28.0312 1.89803 28.2391 1.36462 28.6028 0.97668C29.0185 0.588744 29.538 0.394775 30.2654 0.394775C30.837 0.394775 31.2526 0.49176 31.6163 0.73422C31.98 0.97668 32.1879 1.26763 32.3438 1.70406L31.1487 1.94652C31.0968 1.80105 31.0448 1.70406 30.9928 1.65557C30.9409 1.55858 30.837 1.4616 30.7331 1.41311C30.6291 1.36462 30.4733 1.36462 30.3174 1.36462C30.0056 1.36462 29.7459 1.4616 29.59 1.70406C29.4861 1.89803 29.3822 2.14049 29.3822 2.52843C29.3822 3.01335 29.4341 3.3043 29.59 3.49827C29.7459 3.69224 29.9537 3.74073 30.2135 3.74073C30.4733 3.74073 30.6811 3.69224 30.837 3.54676C30.9928 3.40128 31.0968 3.20731 31.1487 2.91636Z" fill="white"/>
<path d="M32.3438 0.394775H36.6563V1.44863H35.2008V4.71057H33.7453V1.49882H32.3438V0.394775Z" fill="white"/>
<path d="M37.7344 0.394775H40.9238V1.3373H38.9023V2.0318H40.7441V2.92472H38.9023V3.76804H40.9688V4.71057H37.7344V0.394775Z" fill="white"/>
<path d="M42.0469 0.394775H44.1758C44.6125 0.394775 44.9401 0.444959 45.213 0.545326C45.486 0.645694 45.7043 0.846428 45.8681 1.04716C46.0318 1.2479 46.141 1.49882 46.2502 1.74973C46.3594 2.00065 46.3594 2.30175 46.3594 2.60286C46.3594 3.05451 46.3048 3.40579 46.1956 3.65671C46.0864 3.90763 45.9227 4.10837 45.7043 4.25892C45.486 4.40947 45.2676 4.56002 45.0493 4.6102C44.7217 4.71057 44.4488 4.71057 44.1758 4.71057H42.0469V0.394775ZM43.4662 1.39845V3.75708H43.8483C44.1758 3.75708 44.3396 3.7069 44.5034 3.65671C44.6671 3.60653 44.7217 3.50616 44.8309 3.35561C44.9401 3.20506 44.9401 2.95414 44.9401 2.60286C44.9401 2.1512 44.8855 1.8501 44.7217 1.64937C44.558 1.44863 44.285 1.39845 43.9029 1.39845H43.4662Z" fill="white"/>
<path d="M52.747 2.60063L53.628 2.79244C53.5817 2.9363 53.5353 3.08016 53.4889 3.17606C53.4425 3.27197 53.3962 3.41583 53.3034 3.51174L53.7208 3.79946C53.7671 3.84741 53.8135 3.89536 53.9063 3.94332L53.3034 4.66262C53.2107 4.61466 53.0716 4.51876 52.9788 4.4708C52.8861 4.42285 52.747 4.32694 52.6542 4.27899C52.4688 4.42285 52.2833 4.51876 52.0978 4.56671C51.8196 4.66262 51.5413 4.71057 51.1704 4.71057C50.6603 4.71057 50.2429 4.61466 49.9647 4.3749C49.6865 4.13513 49.5938 3.84741 49.5938 3.55969C49.5938 3.31992 49.6865 3.08016 49.8256 2.88834C49.9647 2.69653 50.2429 2.50472 50.5675 2.36086C50.4284 2.16905 50.3357 2.02519 50.2893 1.88133C50.2429 1.73747 50.1966 1.59361 50.1966 1.44975C50.1966 1.16203 50.2893 0.922261 50.5212 0.730448C50.753 0.538635 51.0313 0.394775 51.495 0.394775C51.9587 0.394775 52.2833 0.490682 52.4688 0.682495C52.6542 0.874308 52.7934 1.06612 52.7934 1.30589C52.7934 1.44975 52.747 1.59361 52.7006 1.68951C52.6542 1.78542 52.5615 1.92928 52.4688 2.02519C52.376 2.12109 52.2369 2.217 52.005 2.40881C52.1905 2.60063 52.4224 2.79244 52.6079 2.98425C52.6542 2.84039 52.7006 2.69653 52.747 2.60063ZM51.0776 2.84039C50.9385 2.9363 50.8458 3.0322 50.753 3.12811C50.6603 3.22402 50.6603 3.27197 50.6603 3.36788C50.6603 3.51174 50.7067 3.60764 50.8458 3.7515C50.9849 3.89536 51.124 3.89536 51.3095 3.89536C51.495 3.89536 51.7268 3.79946 51.9587 3.6556C51.7268 3.51174 51.4486 3.22402 51.0776 2.84039ZM51.4486 1.88133C51.5877 1.78542 51.6804 1.68951 51.7732 1.64156C51.8659 1.59361 51.9123 1.44975 51.9123 1.35384C51.9123 1.25793 51.8659 1.20998 51.8196 1.11407C51.7732 1.01817 51.6804 1.01817 51.5413 1.01817C51.4486 1.01817 51.3558 1.06612 51.2631 1.11407C51.1704 1.16203 51.1704 1.25793 51.1704 1.35384C51.1704 1.44975 51.2631 1.64156 51.4486 1.88133Z" fill="white"/>
<path d="M57.1406 0.394775H59.106L59.8359 2.97433L60.5659 0.394775H62.5313V4.66096H61.2959V1.43652L60.3413 4.71057H59.2183L58.376 1.43652V4.71057H57.1406V0.394775Z" fill="white"/>
<path d="M62.5312 2.52843C62.5312 1.84954 62.7251 1.31612 63.1127 0.928188C63.5004 0.540252 63.9849 0.394775 64.6633 0.394775C65.3416 0.394775 65.8747 0.588744 66.2623 0.97668C66.6499 1.36462 66.8438 1.84954 66.8438 2.52843C66.8438 3.01335 66.7468 3.40128 66.6015 3.74073C66.4561 4.08017 66.2138 4.27414 65.8747 4.46811C65.5355 4.66208 65.1963 4.71057 64.7117 4.71057C64.2272 4.71057 63.8395 4.61358 63.5488 4.46811C63.2581 4.32263 63.0158 4.08017 62.822 3.78922C62.6282 3.49827 62.5312 3.06184 62.5312 2.52843ZM63.8395 2.57692C63.8395 3.01335 63.9364 3.3043 64.0818 3.49827C64.2272 3.69224 64.4695 3.78922 64.7117 3.78922C65.0025 3.78922 65.1963 3.69224 65.3416 3.49827C65.487 3.3043 65.5839 3.01335 65.5839 2.52843C65.5839 2.14049 65.487 1.84954 65.3416 1.65557C65.1963 1.4616 64.954 1.36462 64.6633 1.36462C64.421 1.36462 64.1787 1.4616 64.0334 1.65557C63.888 1.84954 63.8395 2.14049 63.8395 2.57692Z" fill="white"/>
<path d="M67.9219 0.394775H69.2367L70.9196 2.80359V0.394775H72.2344V4.71057H70.9196L69.2367 2.35194V4.71057H67.9219V0.394775Z" fill="white"/>
<path d="M73.3125 0.394775H74.3914V4.71056H73.3125V0.394775Z" fill="white"/>
<path d="M75.4688 0.394775H79.7813V1.44863H78.3438V4.71057H76.9063V1.49882H75.4688V0.394775Z" fill="white"/>
<path d="M79.7812 2.52843C79.7812 1.84954 79.9751 1.31612 80.3627 0.928188C80.7504 0.540252 81.2349 0.394775 81.9133 0.394775C82.5916 0.394775 83.1247 0.588744 83.5123 0.97668C83.8999 1.36462 84.0938 1.84954 84.0938 2.52843C84.0938 3.01335 83.9968 3.40128 83.8515 3.74073C83.7061 4.08017 83.4638 4.27414 83.1246 4.46811C82.7855 4.66208 82.4463 4.71057 81.9617 4.71057C81.4772 4.71057 81.0895 4.61358 80.7988 4.46811C80.5081 4.32263 80.2658 4.08017 80.072 3.74073C79.8782 3.40128 79.7812 3.06184 79.7812 2.52843ZM81.0411 2.57692C81.0411 3.01335 81.138 3.3043 81.2834 3.49827C81.4287 3.69224 81.671 3.78922 81.9133 3.78922C82.204 3.78922 82.3978 3.69224 82.5432 3.49827C82.6886 3.3043 82.7855 3.01335 82.7855 2.52843C82.7855 2.14049 82.6886 1.84954 82.5432 1.65557C82.3978 1.4616 82.1555 1.36462 81.9133 1.36462C81.671 1.36462 81.4287 1.4616 81.2834 1.65557C81.138 1.84954 81.0411 2.14049 81.0411 2.57692Z" fill="white"/>
<path d="M85.1719 4.71057V0.394775H87.4042C87.8101 0.394775 88.1145 0.444959 88.3682 0.495143C88.6219 0.545326 88.7741 0.695877 88.8755 0.896612C88.977 1.09735 89.0785 1.29808 89.0785 1.59918C89.0785 1.8501 89.0278 2.05084 88.9263 2.20139C88.8248 2.35194 88.6726 2.50249 88.5204 2.60286C88.4189 2.65304 88.2667 2.70322 88.0638 2.75341C88.216 2.80359 88.3175 2.85377 88.4189 2.90396C88.4697 2.95414 88.5204 3.00432 88.6219 3.15488C88.7233 3.25524 88.7741 3.35561 88.8248 3.40579L89.4844 4.66039H87.9623L87.252 3.35561C87.1505 3.20506 87.0998 3.05451 86.9983 3.00432C86.8969 2.95414 86.7954 2.90396 86.6432 2.90396H86.5417V4.66039H85.1719V4.71057ZM86.491 2.1512H87.0491C87.0998 2.1512 87.252 2.1512 87.4042 2.10102C87.5057 2.10102 87.5564 2.05084 87.6072 1.95047C87.6579 1.8501 87.7086 1.79992 87.7086 1.69955C87.7086 1.549 87.6579 1.44863 87.5564 1.39845C87.455 1.34826 87.3028 1.29808 87.0491 1.29808H86.4403V2.1512H86.491Z" fill="white"/>
<path d="M90.5625 0.394775H93.752V1.3373H91.7305V2.0318H93.5723V2.92472H91.7305V3.76804H93.7969V4.71057H90.5625V0.394775Z" fill="white"/>
<path d="M94.875 0.394775H97.004C97.4407 0.394775 97.7682 0.444959 98.0411 0.545326C98.3141 0.645694 98.5324 0.796244 98.6962 0.996979C98.86 1.19771 98.9691 1.44863 99.0783 1.69955C99.1875 1.95047 99.1875 2.25157 99.1875 2.55267C99.1875 3.00432 99.1329 3.35561 99.0237 3.60653C98.9146 3.85745 98.7508 4.05818 98.5324 4.25892C98.3141 4.45965 98.0957 4.56002 97.8774 4.6102C97.5498 4.71057 97.2769 4.71057 97.004 4.71057H94.875V0.394775ZM96.2943 1.39845V3.75708H96.6764C97.004 3.75708 97.1677 3.7069 97.3315 3.65671C97.4953 3.60653 97.5498 3.50616 97.659 3.35561C97.7682 3.20506 97.7682 2.95414 97.7682 2.60286C97.7682 2.1512 97.7136 1.8501 97.5498 1.64937C97.3861 1.44863 97.1131 1.39845 96.731 1.39845H96.2943Z" fill="white"/>
<path d="M7.54688 31.6844L5.27271 25.358C6.18237 24.8875 6.78882 23.8941 6.78882 22.7438C6.78882 21.123 5.52539 19.8159 3.95874 19.8159C2.39209 19.8159 1.12866 21.123 1.12866 22.7438C1.12866 23.9986 1.88672 25.0443 2.948 25.4626L1.07812 31.6844H7.54688Z" fill="white"/>
</g>
<defs>
<clipPath id="clip0_792_13475">
<rect width="103.5" height="45.3158" fill="white" transform="translate(0 0.394775)"/>
</clipPath>
</defs>
</svg>
