<svg width="35" height="36" viewBox="0 0 35 36" fill="none" xmlns="http://www.w3.org/2000/svg">
<g clip-path="url(#clip0_792_13501)">
<path d="M34.0722 17.5273C33.9585 17.4743 33.7878 17.4214 33.6173 17.3684C33.5604 17.3684 33.5604 17.3684 33.5035 17.3684H33.4467H33.3898C33.3329 17.3684 33.2761 17.3684 33.2192 17.3684H22.9269C22.1877 17.3684 21.619 17.8979 21.619 18.5864C21.619 19.2748 22.1877 19.8043 22.9269 19.8043H26.9073C27.0211 19.8043 27.1348 19.9102 27.1348 20.0161C27.1348 20.0691 27.0779 20.122 27.0211 20.175C24.8034 21.287 22.0171 21.9225 18.8896 21.9225C18.1503 21.9225 17.4111 21.8695 16.6719 21.8166V24.6232C17.2974 24.6761 17.9229 24.6761 18.5484 24.6761C22.87 24.6761 26.7936 23.723 29.6937 22.0814C29.7505 22.0814 29.7505 22.0284 29.8074 22.0284C29.978 22.0284 30.0917 22.1343 30.0917 22.2932V22.3461L29.4662 23.8818C29.125 24.6761 29.5799 25.5764 30.4898 25.8941C30.6603 25.9471 30.8878 26 31.0584 26C31.7408 26 32.3663 25.6293 32.6506 24.9939L34.8683 19.3807C35.2094 18.6923 34.8683 17.8979 34.0722 17.5273Z" fill="white"/>
<path d="M18.89 6.31216C22.1004 6.31216 25.019 7.0572 27.2955 8.26074C27.2955 8.26074 28.7548 9.29234 29.3969 8.31805C30.1557 7.17183 28.6381 6.48409 28.6381 6.48409C25.8362 5.16593 22.3339 4.4209 18.5981 4.4209C17.956 4.4209 17.314 4.42088 16.6719 4.4782V6.42679C17.3723 6.31217 18.1312 6.31216 18.89 6.31216Z" fill="white"/>
<path d="M2.8596 0.105225C1.59348 0.105225 0.5 1.05976 0.5 2.27944V25.9837C0.5 27.2033 1.53592 28.1579 2.8596 28.1579H16.6719V24.2337C8.38451 23.7034 1.93878 19.5671 1.93878 14.5293C1.93878 9.49147 8.38451 5.4082 16.6719 4.82487V0.105225H2.8596Z" fill="white"/>
<path d="M5.89062 14.1315C5.89062 17.935 10.5195 21.0864 16.6719 21.6841V6.57886C10.5781 7.17655 5.89062 10.328 5.89062 14.1315Z" fill="white"/>
<path d="M5.89063 33.013C5.83328 34.6427 4.68635 35.7104 3.19532 35.7104C2.39246 35.7104 1.7043 35.4295 1.18817 34.8113C0.729396 34.3055 0.5 33.6874 0.5 32.9568C0.5 32.2263 0.786732 31.552 1.30286 31.0462C1.81898 30.5404 2.4498 30.3157 3.25266 30.3157C4.34225 30.3157 5.20246 30.8214 5.60389 31.7206H4.629C4.28492 31.271 3.76879 31.0462 3.19532 31.0462C2.6792 31.0462 2.22041 31.2148 1.87633 31.6082C1.4749 32.0015 1.30286 32.5073 1.30286 33.013C1.30286 33.575 1.47489 34.0808 1.81898 34.4179C2.16306 34.8113 2.6792 34.9799 3.19532 34.9799C3.99818 34.9799 4.62899 34.5865 5.03042 33.7436H2.62185V33.013H5.89063Z" fill="white"/>
<path d="M6.77849 35.7104H5.89062L8.17372 30.3157H8.99816L11.2813 35.7104H10.33L9.69577 34.1442H7.41268L6.77849 35.7104ZM8.55424 31.3598L7.72978 33.3901H9.37868L8.55424 31.3598Z" fill="white"/>
<path d="M11.2812 35.7104V30.3157H12.4282L13.9766 34.4922L15.5249 30.3157H16.6719V35.7104H15.9264L15.9837 31.0698L14.2633 35.7104H13.6898L11.9694 31.0698L12.0268 35.7104H11.2812Z" fill="white"/>
<path d="M19.3672 35.7104C18.5643 35.7104 17.9335 35.4323 17.4174 34.8762C16.9013 34.3756 16.6719 33.7082 16.6719 32.9852C16.6719 32.2622 16.9586 31.5948 17.4747 31.0943C17.9909 30.5938 18.679 30.3157 19.4245 30.3157C20.6862 30.3157 21.7184 31.0943 22.0625 32.3735H20.6288C20.3421 31.8729 19.9407 31.5948 19.3672 31.5948C18.5643 31.5948 17.9335 32.2066 17.9335 32.9296C17.9335 33.7639 18.5643 34.3756 19.3098 34.3756C19.826 34.3756 20.2274 34.0976 20.5141 33.6526H21.9478C21.6611 34.9318 20.6288 35.7104 19.3672 35.7104Z" fill="white"/>
<path d="M23.5434 35.7104H22.0625L24.195 30.3157H25.3206L27.4531 35.7104H25.9722L25.676 34.9563H23.8396L23.5434 35.7104ZM24.7282 32.1139L24.195 33.8542H25.2613L24.7282 32.1139Z" fill="white"/>
<path d="M27.4531 35.7104V30.3157H29.3906C30.0156 30.3157 30.4531 30.3737 30.8281 30.6057C31.3281 30.9538 31.6406 31.4178 31.6406 32.1139C31.6406 32.984 31.1406 33.6221 30.3281 33.8542L31.7656 35.7104H30.0156L28.8906 33.9702V35.7104H27.4531ZM29.2031 32.81C29.8906 32.81 30.2656 32.636 30.2656 32.1719C30.2656 31.7079 29.9531 31.5338 29.3281 31.5338H28.9531V32.81H29.2031Z" fill="white"/>
<path d="M31.7656 35.7104V30.3157H35V31.4758H33.1887V32.3459H35V33.5641H33.1887V34.4922H35V35.6524H31.7656V35.7104Z" fill="white"/>
</g>
<defs>
<clipPath id="clip0_792_13501">
<rect width="34.5" height="35.6053" fill="white" transform="translate(0.5 0.105225)"/>
</clipPath>
</defs>
</svg>
