<svg width="51" height="51" viewBox="0 0 51 51" fill="none" xmlns="http://www.w3.org/2000/svg">
<path fill-rule="evenodd" clip-rule="evenodd" d="M25.3359 49.7106C38.7756 49.7106 49.6719 38.8071 49.6719 25.3553C49.6719 11.9035 38.7756 1 25.3359 1C11.8963 1 1 11.9035 1 25.3553C1 38.8071 11.8963 49.7106 25.3359 49.7106ZM25.3359 50.7106C39.3286 50.7106 50.6719 39.3586 50.6719 25.3553C50.6719 11.3519 39.3286 0 25.3359 0C11.3433 0 0 11.3519 0 25.3553C0 39.3586 11.3433 50.7106 25.3359 50.7106Z" fill="#C4C4C4"/>
<path d="M17.0469 19.7068V31.1052H14.7969V22.3005L12.0938 23.1599V21.3865L16.8047 19.7068H17.0469Z" fill="white"/>
<path d="M28.4141 27.988C28.4141 28.7016 28.2474 29.3031 27.9141 29.7927C27.5807 30.2771 27.1224 30.6443 26.5391 30.8943C25.9609 31.1391 25.3047 31.2615 24.5703 31.2615C23.8359 31.2615 23.1771 31.1391 22.5938 30.8943C22.0104 30.6443 21.5495 30.2771 21.2109 29.7927C20.8724 29.3031 20.7031 28.7016 20.7031 27.988C20.7031 27.5089 20.7995 27.0766 20.9922 26.6912C21.1849 26.3005 21.4531 25.9672 21.7969 25.6912C22.1458 25.4099 22.5547 25.1964 23.0234 25.0505C23.4922 24.8995 24.0026 24.824 24.5547 24.824C25.2943 24.824 25.9557 24.9542 26.5391 25.2146C27.1224 25.475 27.5807 25.8422 27.9141 26.3162C28.2474 26.7901 28.4141 27.3474 28.4141 27.988ZM26.1484 27.8396C26.1484 27.4906 26.0807 27.1912 25.9453 26.9412C25.8151 26.686 25.6302 26.4906 25.3906 26.3552C25.151 26.2198 24.8724 26.1521 24.5547 26.1521C24.237 26.1521 23.9583 26.2198 23.7188 26.3552C23.4792 26.4906 23.2917 26.686 23.1562 26.9412C23.026 27.1912 22.9609 27.4906 22.9609 27.8396C22.9609 28.1833 23.026 28.4802 23.1562 28.7302C23.2917 28.9802 23.4792 29.1729 23.7188 29.3083C23.9635 29.4386 24.2474 29.5037 24.5703 29.5037C24.8932 29.5037 25.1719 29.4386 25.4062 29.3083C25.6458 29.1729 25.8281 28.9802 25.9531 28.7302C26.0833 28.4802 26.1484 28.1833 26.1484 27.8396ZM28.1719 22.7458C28.1719 23.324 28.0182 23.837 27.7109 24.2849C27.4036 24.7276 26.9766 25.074 26.4297 25.324C25.888 25.574 25.2682 25.699 24.5703 25.699C23.8672 25.699 23.2422 25.574 22.6953 25.324C22.1484 25.074 21.7214 24.7276 21.4141 24.2849C21.1068 23.837 20.9531 23.324 20.9531 22.7458C20.9531 22.0583 21.1068 21.4802 21.4141 21.0115C21.7266 20.5375 22.1536 20.1781 22.6953 19.9333C23.2422 19.6886 23.862 19.5662 24.5547 19.5662C25.2578 19.5662 25.8802 19.6886 26.4219 19.9333C26.9688 20.1781 27.3958 20.5375 27.7031 21.0115C28.0156 21.4802 28.1719 22.0583 28.1719 22.7458ZM25.9219 22.8474C25.9219 22.5401 25.8672 22.2745 25.7578 22.0505C25.6484 21.8214 25.4922 21.6443 25.2891 21.5193C25.0911 21.3943 24.8464 21.3318 24.5547 21.3318C24.2734 21.3318 24.0312 21.3917 23.8281 21.5115C23.6302 21.6313 23.4766 21.8057 23.3672 22.0349C23.263 22.2589 23.2109 22.5297 23.2109 22.8474C23.2109 23.1547 23.263 23.4255 23.3672 23.6599C23.4766 23.8891 23.6328 24.0688 23.8359 24.199C24.0391 24.3292 24.2839 24.3943 24.5703 24.3943C24.8568 24.3943 25.099 24.3292 25.2969 24.199C25.5 24.0688 25.6536 23.8891 25.7578 23.6599C25.8672 23.4255 25.9219 23.1547 25.9219 22.8474Z" fill="white"/>
<path d="M37.3906 24.7693V26.7302H29.5938V24.7693H37.3906ZM34.5625 21.6833V29.9646H32.4297V21.6833H34.5625Z" fill="white"/>
</svg>
